# This file uses centimeters as units for non-parametric coordinates.

v 1.825237 -0.375952 17.054119
v 21.669369 -0.829268 16.006468
v 1.276054 -0.000000 16.693153
v 21.669369 -0.305275 15.645500
v 5.342690 -0.523993 16.006470
v 5.342690 -0.000000 15.645504
v 5.342690 -0.000000 7.382608
v 4.806263 -0.465414 7.382608
v 11.256136 -0.523993 16.006470
v 11.256136 -0.000000 15.645504
v 11.256136 -0.000000 7.382608
v 11.805321 -0.501959 7.382608
v 1.276054 -0.000000 11.830541
v 5.342690 -0.000000 11.830541
v 11.256136 -0.000000 11.830541
v 21.669369 -0.305275 11.830541
v 4.806263 -0.250476 11.406303
v 11.805321 -0.287021 11.406303
v 1.276054 -0.435062 11.406303
v -18.651218 -0.339407 23.633886
v -18.114792 -0.000000 23.272919
v -11.015972 -0.523993 23.633886
v -11.015972 -0.000000 23.272919
v -11.015972 -0.000000 7.283152
v -11.552399 -0.465414 7.283152
v -4.553337 -0.375952 23.633886
v -5.102524 -0.000000 23.272919
v -5.102524 -0.000000 7.283152
v -4.553337 -0.501959 7.283152
v -18.651218 -0.250476 11.406303
v -18.114792 -0.000000 11.830541
v -11.015972 -0.000000 11.830541
v -5.102524 -0.000000 11.830541
v -11.552399 -0.250476 11.406303
v -4.553337 -0.287021 11.406303
v 19.515362 -0.829268 16.006468
v 19.515362 -0.305275 15.645501
v 19.515362 -0.305275 11.830541
v 19.080570 -0.602876 11.394891
v 19.515362 -0.000000 -3.728371
v 18.978933 -0.465414 -3.728371
v 21.669369 -0.000000 -3.728371
v 22.218555 -0.501959 -3.728371
v 18.853136 -0.000000 -5.957890
v 18.428179 -0.414716 -5.782150
v 20.354643 -0.000000 -7.502308
v 20.597601 -0.448970 -7.969887
v 16.511312 0.065701 -7.639938
v 16.444412 -0.458292 -7.201397
v 17.399433 0.065701 -9.602337
v 17.399433 -0.369361 -10.026577
v -16.282017 0.065701 -7.595051
v -16.846710 -0.458292 -7.234091
v -16.282017 0.065701 -9.746002
v -16.846710 -0.369361 -10.170242
v -5.102524 -0.000000 16.946920
v -11.015972 -0.000000 17.182186
v -18.114792 -0.000000 17.464607
v -18.651218 -0.465414 17.486031
v 22.218555 -0.807233 11.830541
v 18.978933 -0.629073 4.612793
v 19.515362 -0.163658 4.612793
v 21.669369 -0.163658 4.612793
v 22.218555 -0.665617 4.612793
v 6.604021 -0.458292 -7.265417
v 6.604021 0.065701 -7.626377
v 7.223827 0.065701 -9.645741
v 7.223827 -0.369361 -10.069981
v -5.715328 -0.458292 -7.248556
v -5.715328 0.065701 -7.609516
v -5.429157 0.065701 -9.699711
v -5.429157 -0.369361 -10.123951
vt 0.373032 0.260336
vt 0.641146 0.340192
vt 0.641146 0.367706
vt 0.331171 0.287850
vt 0.224120 0.337208
vt 0.224120 0.309693
vt 0.674868 0.309693
vt 0.674868 0.337208
vt 0.243001 0.662734
vt 0.243001 0.323695
vt 0.693749 0.323695
vt 0.693749 0.662734
vt 0.187102 0.337208
vt 0.187102 0.309693
vt 0.816654 0.309693
vt 0.816654 0.337208
vt 0.641146 0.658499
vt 0.331171 0.658499
vt 0.674868 0.628000
vt 0.224120 0.628000
vt 0.816654 0.628000
vt 0.187102 0.628000
vt 0.202113 0.662734
vt 0.202113 0.356032
vt 0.735610 0.356032
vt 0.735610 0.662734
vt 0.600258 0.690836
vt 0.331171 0.690836
vt 0.816654 0.660337
vt 0.228963 0.660337
vt 0.182043 0.249782
vt 0.764034 0.249782
vt 0.764034 0.277296
vt 0.222932 0.277296
vt 0.249329 0.274946
vt 0.249329 0.247431
vt 0.741938 0.247431
vt 0.700076 0.274946
vt 0.253853 0.656742
vt 0.253853 0.310121
vt 0.704601 0.310121
vt 0.704601 0.656742
vt 0.211444 0.243275
vt 0.253305 0.215761
vt 0.739507 0.717298
vt 0.697645 0.744812
vt 0.222932 0.720030
vt 0.182043 0.718397
vt 0.764034 0.741557
vt 0.700076 0.757140
vt 0.249329 0.739207
vt 0.211444 0.725469
vt 0.212965 0.656742
vt 0.212965 0.342459
vt 0.746462 0.342459
vt 0.746462 0.656742
vt 0.222932 0.669813
vt 0.764034 0.669813
vt 0.723145 0.702150
vt 0.182043 0.702150
vt 0.234066 0.672072
vt 0.720267 0.672072
vt 0.720267 0.704409
vt 0.275927 0.704409
vt 0.385179 0.304776
vt 0.385179 0.277262
vt 0.549366 0.277262
vt 0.549366 0.304776
vt 0.549366 0.595569
vt 0.385179 0.595569
vt 0.083812 0.417301
vt 0.126855 0.444815
vt 0.126855 0.608769
vt 0.083812 0.641106
vt 0.457771 0.259115
vt 0.498659 0.259115
vt 0.448182 0.429058
vt 0.415790 0.415662
vt 0.662847 0.259115
vt 0.562633 0.546780
vt 0.704708 0.259115
vt 0.581152 0.582421
vt 0.415790 0.415662
vt 0.448182 0.429058
vt 0.269678 0.557270
vt 0.264579 0.523843
vt 0.562633 0.546780
vt 0.337374 0.706853
vt 0.581152 0.582421
vt 0.337374 0.739190
vt 0.932292 0.418403
vt 0.932292 0.445917
vt 0.954105 0.605240
vt 0.954105 0.637578
vt 0.234066 0.282080
vt 0.720267 0.301423
vt 0.704601 0.685645
vt 0.253853 0.685645
vt 0.253853 0.277720
vt 0.704601 0.295653
vt 0.222932 0.240361
vt 0.764034 0.261888
vt 0.182043 0.238728
vt 0.361443 0.173085
vt 0.402332 0.173085
vt 0.402332 0.808883
vt 0.361443 0.808883
vt 0.566519 0.173085
vt 0.566519 0.808883
vt 0.608380 0.173085
vt 0.608380 0.808883
vt 0.369294 0.212496
vt 0.410183 0.212496
vt 0.410183 0.762662
vt 0.369294 0.762662
vt 0.574370 0.212496
vt 0.574370 0.762662
vt 0.616231 0.212496
vt 0.616231 0.762662
vt 0.851687 0.406421
vt 0.856786 0.439848
vt 0.101612 0.438815
vt 0.101612 0.411301
vt 0.924483 0.589431
vt 0.148856 0.592739
vt 0.924483 0.621768
vt 0.148856 0.625076
vt 0.948725 0.411301
vt 0.948725 0.438815
vt 0.009693 0.437530
vt 0.009693 0.410016
vt 0.995970 0.592740
vt 0.031506 0.596853
vt 0.995970 0.625077
vt 0.031506 0.629191
vn 0.085284 0.621320 0.778902
vn 0.076674 0.616182 0.783863
vn 0.206224 0.685771 0.697990
vn 0.206224 0.685771 0.697990
vn 0.076674 0.616182 0.783863
vn 0.085284 0.621320 0.778902
vn 0.012119 0.567256 0.823452
vn 0.012316 0.567255 0.823450
vn 0.000000 1.000000 0.000000
vn 0.000000 1.000000 0.000000
vn 0.000000 1.000000 0.000000
vn 0.014489 0.999895 0.000000
vn 0.012119 0.567256 0.823452
vn 0.012316 0.567255 0.823450
vn 0.016694 0.567219 0.823398
vn 0.016561 0.567220 0.823400
vn 0.000000 1.000000 0.000000
vn 0.000000 1.000000 0.000000
vn 0.000000 1.000000 0.000000
vn 0.000000 1.000000 0.000000
vn 0.014489 0.999895 0.000000
vn 0.000000 1.000000 0.000000
vn 0.021535 0.999768 0.000000
vn 0.000000 1.000000 0.000000
vn 0.029303 0.999571 0.000000
vn 0.029303 0.999571 0.000000
vn 0.021535 0.999768 0.000000
vn 0.014489 0.999895 0.000000
vn -0.549114 0.835479 -0.021197
vn -0.549114 0.835479 -0.021197
vn -0.549114 0.835479 -0.021197
vn -0.549114 0.835479 -0.021197
vn 0.577994 0.815779 -0.020698
vn 0.577994 0.815779 -0.020698
vn 0.577994 0.815779 -0.020698
vn 0.577994 0.815779 -0.020698
vn -0.019038 0.783547 -0.621041
vn -0.019038 0.783547 -0.621041
vn -0.019038 0.783547 -0.621041
vn -0.019038 0.783547 -0.621041
vn 0.032718 0.828548 -0.558961
vn 0.032718 0.828548 -0.558961
vn 0.032718 0.828548 -0.558961
vn 0.032718 0.828548 -0.558961
vn 0.007999 0.638509 0.769573
vn 0.000848 0.631359 0.775490
vn 0.007999 0.638509 0.769573
vn 0.000851 0.631362 0.775488
vn 0.000851 0.631362 0.775488
vn 0.000848 0.631359 0.775490
vn 0.197637 0.789158 0.581523
vn 0.300238 0.843422 0.445530
vn 0.000000 1.000000 0.000000
vn 0.000000 1.000000 0.000000
vn 0.000000 1.000000 0.000000
vn 0.000000 1.000000 0.000000
vn 0.197637 0.789158 0.581523
vn 0.300238 0.843422 0.445530
vn 0.361329 0.864144 0.350281
vn 0.361329 0.864144 0.350281
vn -0.580914 0.813958 0.003284
vn -0.581811 0.813319 0.002791
vn -0.601982 0.798465 -0.008415
vn -0.601982 0.798465 -0.008415
vn 0.000000 1.000000 0.000000
vn 0.000000 1.000000 0.000000
vn 0.000000 1.000000 0.000000
vn 0.000000 1.000000 0.000000
vn 0.000000 1.000000 0.000000
vn 0.000000 1.000000 0.000000
vn 0.000000 1.000000 0.000000
vn 0.000000 1.000000 0.000000
vn 0.000000 1.000000 0.000000
vn 0.000000 1.000000 0.000000
vn 0.000000 1.000000 0.000000
vn -0.549253 0.835399 -0.020709
vn -0.549253 0.835399 -0.020709
vn -0.549253 0.835399 -0.020709
vn -0.549253 0.835399 -0.020709
vn 0.578119 0.815702 -0.020221
vn 0.578119 0.815702 -0.020221
vn 0.578119 0.815702 -0.020221
vn 0.578119 0.815702 -0.020221
vn 0.000000 0.861113 -0.508413
vn 0.000000 0.861113 -0.508413
vn 0.000000 0.861113 -0.508413
vn 0.000000 0.861113 -0.508413
vn 0.009270 0.764471 -0.644591
vn 0.009270 0.764471 -0.644591
vn 0.009270 0.764471 -0.644591
vn 0.009270 0.764471 -0.644591
vn 0.016694 0.567219 0.823398
vn 0.016561 0.567220 0.823400
vn 0.000000 0.567298 0.823513
vn 0.000000 0.567298 0.823513
vn 0.000000 1.000000 0.000000
vn 0.029303 0.999571 0.000000
vn 0.000000 1.000000 0.000000
vn 0.029303 0.999571 0.000000
vn -0.647665 0.761809 0.013318
vn -0.647665 0.761809 0.013318
vn -0.647665 0.761809 0.013318
vn -0.647665 0.761809 0.013318
vn -0.643589 0.741148 0.191029
vn -0.643589 0.741148 0.191029
vn -0.643589 0.741148 0.191029
vn -0.643589 0.741148 0.191029
vn 0.000000 1.000000 0.000000
vn 0.000000 1.000000 0.000000
vn 0.000000 1.000000 0.000000
vn 0.000000 1.000000 0.000000
vn 0.682146 0.688849 -0.245284
vn 0.682146 0.688849 -0.245284
vn 0.682146 0.688849 -0.245284
vn 0.682146 0.688849 -0.245284
vn -0.444655 0.641828 0.624770
vn -0.444655 0.641828 0.624770
vn -0.444655 0.641828 0.624771
vn -0.444655 0.641828 0.624770
vn 0.016684 0.999796 0.011369
vn 0.016684 0.999796 0.011369
vn 0.016684 0.999796 0.011369
vn 0.016684 0.999796 0.011369
vn 0.410464 0.701063 -0.583121
vn 0.410464 0.701063 -0.583121
vn 0.410464 0.701063 -0.583121
vn 0.410464 0.701063 -0.583121
vn 0.001114 0.567104 0.823645
vn 0.001098 0.566891 0.823792
vn 0.001114 0.567104 0.823645
vn 0.001098 0.566891 0.823792
vn 0.000000 1.000000 0.000000
vn 0.000000 1.000000 0.000000
vn 0.000000 1.000000 0.000000
vn 0.000000 1.000000 0.000000
vn 0.003019 0.697679 -0.716404
vn 0.003019 0.697678 -0.716406
vn 0.002980 0.697150 -0.716919
vn 0.002980 0.697150 -0.716919
vn 0.000000 1.000000 0.000000
vn 0.000000 1.000000 0.000000
vn 0.000000 1.000000 0.000000
vn 0.000000 1.000000 0.000000
vn 0.000000 1.000000 0.000000
vn 0.000000 1.000000 0.000000
vn 0.000000 1.000000 0.000000
vn 0.000000 1.000000 0.000000
vn 0.000000 1.000000 0.000000
vn 0.000000 1.000000 0.000000
vn 0.000000 1.000000 0.000000
vn 0.000000 1.000000 0.000000
vn -0.558935 0.829072 0.015213
vn -0.581811 0.813319 0.002791
vn -0.558936 0.829071 0.015213
vn -0.580914 0.813958 0.003284
vn -0.640885 0.767524 0.013199
vn -0.641017 0.767413 0.013214
vn -0.655269 0.755250 0.014818
vn -0.655269 0.755250 0.014818
vn 0.000000 0.999808 0.019617
vn 0.000000 0.999808 0.019617
vn 0.000000 0.999808 0.019617
vn 0.000000 0.999808 0.019617
vn 0.674585 0.738055 0.014481
vn 0.674585 0.738055 0.014481
vn 0.674585 0.738055 0.014481
vn 0.674585 0.738055 0.014481
vn -0.620780 0.783908 0.010970
vn -0.641017 0.767413 0.013214
vn -0.620780 0.783908 0.010970
vn -0.640885 0.767524 0.013199
vn 0.000000 0.999808 0.019617
vn 0.000000 0.999808 0.019617
vn 0.000000 0.999808 0.019617
vn 0.000000 0.999808 0.019617
vn 0.674585 0.738055 0.014481
vn 0.674585 0.738055 0.014481
vn 0.674585 0.738055 0.014481
vn 0.674585 0.738055 0.014481
vn -0.002031 0.606621 0.794988
vn -0.000306 0.585315 0.810806
vn -0.002031 0.606621 0.794988
vn -0.000307 0.585323 0.810800
vn 0.000000 1.000000 0.000000
vn 0.000000 1.000000 0.000000
vn 0.000000 1.000000 0.000000
vn 0.000000 1.000000 0.000000
vn 0.003054 0.698142 -0.715953
vn 0.003054 0.698142 -0.715953
vn 0.003054 0.698142 -0.715953
vn 0.003054 0.698142 -0.715953
vn -0.000307 0.585323 0.810800
vn -0.000306 0.585315 0.810806
vn 0.001114 0.567104 0.823645
vn 0.001114 0.567104 0.823645
vn 0.000000 1.000000 0.000000
vn 0.000000 1.000000 0.000000
vn 0.000000 1.000000 0.000000
vn 0.000000 1.000000 0.000000
vn 0.003054 0.698142 -0.715953
vn 0.003054 0.698142 -0.715953
vn 0.003019 0.697679 -0.716404
vn 0.003019 0.697678 -0.716406
f 5/2/1 6/3/2 1/1/3
f 1/1/3 6/3/2 3/4/4
f 6/5/5 5/6/6 10/8/7
f 10/8/7 5/6/6 9/7/8
f 7/9/9 14/10/10 11/12/11
f 11/12/11 14/10/10 15/11/12
f 10/13/13 9/14/14 37/16/15
f 37/16/15 9/14/14 36/15/16
f 3/4/17 6/3/18 13/18/19
f 13/18/19 6/3/18 14/17/20
f 15/19/21 14/20/22 10/8/23
f 10/8/23 14/20/22 6/5/24
f 37/16/25 38/21/26 10/13/27
f 10/13/27 38/21/26 15/22/28
f 14/10/29 7/9/30 17/24/31
f 17/24/31 7/9/30 8/23/32
f 15/11/33 18/25/34 11/12/35
f 11/12/35 18/25/34 12/26/36
f 14/17/37 17/27/38 13/18/39
f 13/18/39 17/27/38 19/28/40
f 15/22/41 38/21/42 18/30/43
f 18/30/43 38/21/42 39/29/44
f 20/31/45 22/32/46 21/34/47
f 21/34/47 22/32/46 23/33/48
f 23/35/49 22/36/50 27/38/51
f 27/38/51 22/36/50 26/37/52
f 24/39/53 32/40/54 28/42/55
f 28/42/55 32/40/54 33/41/56
f 27/43/57 26/44/58 3/46/59
f 3/46/59 26/44/58 1/45/60
f 58/47/61 59/48/62 21/34/63
f 21/34/63 59/48/62 20/31/64
f 21/34/65 23/33/66 58/47/67
f 58/47/67 23/33/66 57/49/68
f 56/50/69 57/51/70 27/38/71
f 27/38/71 57/51/70 23/35/72
f 3/46/73 56/52/74 27/43/75
f 32/40/76 24/39/77 34/54/78
f 34/54/78 24/39/77 25/53/79
f 33/41/80 35/55/81 28/42/82
f 28/42/82 35/55/81 29/56/83
f 32/58/84 34/59/85 31/57/86
f 31/57/86 34/59/85 30/60/87
f 33/61/88 13/62/89 35/64/90
f 35/64/90 13/62/89 19/63/91
f 37/65/92 36/66/93 4/68/94
f 4/68/94 36/66/93 2/67/95
f 16/69/96 38/70/97 4/68/98
f 4/68/98 38/70/97 37/65/99
f 52/72/100 54/73/101 53/71/102
f 53/71/102 54/73/101 55/74/103
f 40/76/104 44/77/105 41/75/106
f 41/75/106 44/77/105 45/78/107
f 40/76/108 42/79/109 44/77/110
f 44/77/110 42/79/109 46/80/111
f 42/79/112 43/81/113 46/80/114
f 46/80/114 43/81/113 47/82/115
f 44/84/116 48/85/117 45/83/118
f 45/83/118 48/85/117 49/86/119
f 44/84/120 46/87/121 48/85/122
f 48/85/122 46/87/121 50/88/123
f 46/87/124 47/89/125 50/88/126
f 50/88/126 47/89/125 51/90/127
f 70/92/128 52/72/129 69/91/130
f 69/91/130 52/72/129 53/71/131
f 71/93/132 54/73/133 70/92/134
f 70/92/134 54/73/133 52/72/135
f 71/93/136 72/94/137 54/73/138
f 54/73/138 72/94/137 55/74/139
f 13/62/140 33/61/141 3/96/142
f 3/96/142 33/61/141 56/95/143
f 33/97/144 32/98/145 56/100/146
f 56/100/146 32/98/145 57/99/147
f 58/101/148 57/102/149 31/57/150
f 31/57/150 57/102/149 32/58/151
f 30/60/152 59/103/153 31/57/154
f 31/57/154 59/103/153 58/101/155
f 61/104/156 62/105/157 41/107/158
f 41/107/158 62/105/157 40/106/159
f 62/105/160 63/108/161 40/106/162
f 40/106/162 63/108/161 42/109/163
f 64/110/164 43/111/165 63/108/166
f 63/108/166 43/111/165 42/109/167
f 38/113/168 62/114/169 39/112/170
f 39/112/170 62/114/169 61/115/171
f 38/113/172 16/116/173 62/114/174
f 62/114/174 16/116/173 63/117/175
f 60/118/176 64/119/177 16/116/178
f 16/116/178 64/119/177 63/117/179
f 48/121/180 66/122/181 49/120/182
f 49/120/182 66/122/181 65/123/183
f 50/124/184 67/125/185 48/121/186
f 48/121/186 67/125/185 66/122/187
f 50/124/188 51/126/189 67/125/190
f 67/125/190 51/126/189 68/127/191
f 65/128/192 66/129/193 69/131/194
f 69/131/194 66/129/193 70/130/195
f 67/132/196 71/133/197 66/129/198
f 66/129/198 71/133/197 70/130/199
f 67/132/200 68/134/201 71/133/202
f 71/133/202 68/134/201 72/135/203
