# This file uses centimeters as units for non-parametric coordinates.

v -21.929674 1.546767 -35.706276
v 11.424213 0.612570 -34.376087
v -21.265669 1.760942 -35.961460
v 11.724163 1.009079 -34.818378
v -21.265669 1.760942 -39.776424
v 11.724163 1.147664 -39.539238
v -21.929674 1.594054 -40.112305
v 11.724163 0.741541 -39.869362
v 18.686131 0.790612 -38.138851
v 19.002480 0.481256 -34.818378
v 18.429058 1.147664 -38.201283
v 18.515366 1.009079 -34.818378
v 16.654408 0.741541 -40.034157
v 16.654408 1.147664 -39.704033
v 8.817825 -1.640949 40.112301
v 9.084984 -1.390912 39.173992
v 14.645977 -1.760942 36.035969
v 13.993008 -1.390912 35.380505
v 11.549126 0.639341 -26.380775
v 19.204800 0.519346 -26.380775
v 18.717686 1.047171 -26.380775
v 12.088207 1.047171 -26.380775
v 9.166573 -1.460541 29.888775
v 9.705654 -1.052712 29.888775
v 14.791100 -1.052712 29.912693
v 15.278206 -1.580535 29.912693
v 13.726749 -0.998129 19.614506
v 20.157894 -1.118124 19.784328
v 19.670788 -0.590299 19.784328
v 14.265831 -0.590299 19.614506
v 15.200779 -0.545778 5.940594
v 21.929676 -0.665771 5.940594
v 21.442562 -0.137948 5.940594
v 15.739861 -0.137948 5.940594
v 13.425888 0.136515 -14.359509
v 20.010658 0.016521 -14.359509
v 19.523548 0.544345 -14.359509
v 13.964970 0.544345 -14.359509
v 14.158855 -0.463139 -6.519470
v 14.697937 -0.055309 -6.519470
v 20.323753 -0.055309 -6.519470
v 20.810863 -0.583133 -6.519470
v 0.858040 0.771662 -34.752594
v 0.858040 1.256727 -35.194885
v 0.858040 1.349664 -39.617363
v 0.858040 0.943541 -39.947487
v -10.444122 1.029247 -35.144207
v -10.444122 1.514310 -35.586498
v -10.444122 1.559771 -39.698624
v -10.444122 1.153648 -40.028748
vt 0.612495 0.102711
vt 0.651982 0.909584
vt 0.594568 0.149357
vt 0.620911 0.909584
vt 0.332029 0.909584
vt 0.326565 0.149357
vt 0.308837 0.909584
vt 0.302967 0.102711
vt 0.646927 0.848557
vt 0.413660 0.826332
vt 0.646927 0.814339
vt 0.409273 0.808270
vt 0.303703 0.683601
vt 0.280512 0.683601
vt 0.646927 0.337246
vt 0.309045 0.110558
vt 0.718481 0.396919
vt 0.327814 0.176472
vt 0.672609 0.442966
vt 0.315279 0.337246
vt 0.292089 0.337246
vt 0.304533 0.260207
vt 0.272411 0.810980
vt 0.266663 0.260207
vt 0.234541 0.810980
vt 0.733973 0.260207
vt 0.697128 0.810980
vt 0.699753 0.260207
vt 0.662909 0.810980
vt 0.713369 0.844624
vt 0.727583 0.251873
vt 0.747587 0.844624
vt 0.761801 0.251873
vt 0.236277 0.844624
vt 0.261852 0.251873
vt 0.215206 0.813553
vt 0.223980 0.251873
vt 0.458359 0.876150
vt 0.420486 0.876150
vt 0.210844 0.154366
vt 0.172974 0.154366
vt 0.838064 0.864220
vt 0.568102 0.152687
vt 0.872284 0.864220
vt 0.602324 0.152687
vt 0.371416 0.828770
vt 0.333545 0.828770
vt 0.728676 0.827087
vt 0.762896 0.827087
vt 0.771950 0.985726
vt 0.737734 0.985726
vt 0.647484 0.013189
vt 0.613262 0.013189
vt 0.337112 0.985726
vt 0.233559 0.025120
vt 0.299240 0.985726
vt 0.195688 0.025120
vt 0.675526 0.955807
vt 0.715122 0.111300
vt 0.709745 0.955807
vt 0.749344 0.111300
vt 0.209797 0.955807
vt 0.324625 0.111300
vt 0.171926 0.955807
vt 0.286755 0.111300
vt 0.304996 0.086525
vt 0.268257 0.961860
vt 0.267126 0.086525
vt 0.230387 0.961860
vt 0.705618 0.086525
vt 0.663477 0.961860
vt 0.739838 0.086525
vt 0.697701 0.961860
vt 0.673189 0.177620
vt 0.699638 0.919907
vt 0.642117 0.177620
vt 0.668568 0.940975
vt 0.331432 0.177620
vt 0.336920 0.940975
vt 0.308241 0.177620
vt 0.313728 0.940975
vt 0.608299 0.133995
vt 0.639372 0.133995
vt 0.635811 0.927990
vt 0.666883 0.927986
vt 0.319418 0.133999
vt 0.325127 0.927986
vt 0.296226 0.133995
vt 0.301935 0.927986
vn -0.005354 0.708749 0.705440
vn -0.008204 0.688577 0.725117
vn -0.005354 0.708749 0.705440
vn -0.005354 0.708749 0.705440
vn -0.008204 0.688577 0.725117
vn -0.008060 0.689606 0.724140
vn 0.020446 0.999726 0.011395
vn 0.020449 0.999728 0.011255
vn 0.020566 0.999772 0.005733
vn 0.020566 0.999772 0.005733
vn 0.020449 0.999728 0.011255
vn 0.020566 0.999772 0.005733
vn 0.021470 0.685106 -0.728127
vn 0.021392 0.684107 -0.729068
vn 0.026242 0.744700 -0.666883
vn 0.026242 0.744700 -0.666883
vn 0.021392 0.684107 -0.729068
vn 0.026242 0.744700 -0.666883
vn 0.765424 0.643520 -0.002976
vn 0.765424 0.643520 -0.002976
vn 0.765424 0.643520 -0.002976
vn 0.765424 0.643520 -0.002976
vn 0.765424 0.643520 -0.002976
vn 0.765424 0.643520 -0.002976
vn -0.276119 0.961108 0.005528
vn -0.276119 0.961108 0.005528
vn -0.276119 0.961108 0.005528
vn -0.276119 0.961108 0.005528
vn -0.276119 0.961108 0.005528
vn -0.276119 0.961108 0.005528
vn 0.197936 0.593840 -0.779856
vn 0.595852 0.437040 -0.673763
vn 0.122619 0.609838 -0.782983
vn 0.122619 0.609838 -0.782983
vn 0.595852 0.437040 -0.673763
vn 0.595852 0.437040 -0.673763
vn -0.007447 0.999755 0.020843
vn -0.001383 0.999521 0.030917
vn -0.005443 0.999530 0.030159
vn 0.232594 0.924098 0.303220
vn 0.232594 0.924098 0.303220
vn 0.232594 0.924098 0.303220
vn 0.232594 0.924098 0.303220
vn 0.232594 0.924098 0.303220
vn 0.232594 0.924098 0.303220
vn -0.025928 0.630551 -0.775714
vn 0.197936 0.593840 -0.779856
vn -0.025928 0.630551 -0.775714
vn -0.025928 0.630551 -0.775714
vn 0.197936 0.593840 -0.779856
vn 0.122619 0.609838 -0.782983
vn 0.000981 0.999569 0.029343
vn -0.001383 0.999521 0.030917
vn -0.007447 0.999755 0.020843
vn -0.005443 0.999530 0.030159
vn -0.001383 0.999521 0.030917
vn 0.000000 0.999162 0.040932
vn -0.601465 0.795035 0.078482
vn -0.598789 0.791496 0.122415
vn -0.601384 0.794929 0.080155
vn -0.601384 0.794929 0.080155
vn -0.598789 0.791496 0.122415
vn -0.598760 0.791459 0.122796
vn 0.734041 0.677426 -0.047728
vn 0.734705 0.678035 -0.021842
vn 0.734117 0.677495 -0.045532
vn 0.734117 0.677495 -0.045532
vn 0.734705 0.678035 -0.021842
vn 0.734707 0.678037 -0.021706
vn 0.000000 0.999507 0.031397
vn 0.000000 0.998454 0.055590
vn 0.000000 0.999379 0.035249
vn 0.000000 0.999379 0.035249
vn 0.000000 0.998454 0.055590
vn 0.000000 0.998568 0.053496
vn 0.734722 0.678053 -0.020678
vn 0.734721 0.678051 -0.020800
vn 0.734722 0.678053 -0.020678
vn 0.734722 0.678053 -0.020678
vn 0.734721 0.678051 -0.020800
vn 0.734721 0.678050 -0.020806
vn 0.000000 0.999990 -0.004514
vn 0.000000 0.999798 0.020120
vn 0.000000 0.999990 -0.004514
vn 0.000000 0.999990 -0.004514
vn 0.000000 0.999798 0.020120
vn 0.000000 0.999752 0.022268
vn -0.687075 0.726374 0.017577
vn -0.687075 0.726374 0.017577
vn -0.631291 0.770476 0.088532
vn -0.631291 0.770476 0.088532
vn -0.687075 0.726374 0.017577
vn -0.634637 0.768175 0.084518
vn -0.599914 0.792986 -0.106195
vn -0.597927 0.790360 -0.133471
vn -0.609127 0.778199 -0.152873
vn -0.609127 0.778199 -0.152873
vn -0.597927 0.790360 -0.133471
vn -0.616225 0.777534 -0.125327
vn -0.000609 0.999324 0.036770
vn -0.000659 0.999254 0.038609
vn 0.005145 0.998940 0.045734
vn 0.005145 0.998940 0.045734
vn -0.000659 0.999254 0.038609
vn 0.008198 0.998900 0.046159
vn 0.718418 0.662997 0.210501
vn 0.714120 0.659030 0.236033
vn 0.658762 0.697207 0.282728
vn 0.658762 0.697207 0.282728
vn 0.714120 0.659030 0.236033
vn 0.649259 0.715060 0.259138
vn -0.609127 0.778199 -0.152873
vn -0.616225 0.777534 -0.125327
vn -0.640088 0.768217 -0.011385
vn -0.640088 0.768217 -0.011385
vn -0.616225 0.777534 -0.125327
vn -0.640088 0.768217 -0.011385
vn 0.005145 0.998940 0.045734
vn 0.008198 0.998900 0.046159
vn 0.017922 0.998710 0.047513
vn 0.017922 0.998710 0.047513
vn 0.008198 0.998900 0.046159
vn 0.017922 0.998710 0.047513
vn 0.649259 0.715060 0.259138
vn 0.576303 0.810153 0.107363
vn 0.658762 0.697207 0.282728
vn 0.658762 0.697207 0.282728
vn 0.576303 0.810153 0.107363
vn 0.576303 0.810153 0.107363
vn 0.734501 0.677847 0.032116
vn 0.734506 0.677851 0.031932
vn 0.718418 0.662997 0.210501
vn 0.718418 0.662997 0.210501
vn 0.734506 0.677851 0.031932
vn 0.714120 0.659030 0.236033
vn -0.000258 0.999798 0.020084
vn -0.000263 0.999793 0.020346
vn -0.000609 0.999324 0.036770
vn -0.000609 0.999324 0.036770
vn -0.000263 0.999793 0.020346
vn -0.000659 0.999254 0.038609
vn -0.603310 0.797476 0.007031
vn -0.603315 0.797482 0.005739
vn -0.599914 0.792986 -0.106195
vn -0.599914 0.792986 -0.106195
vn -0.603315 0.797482 0.005739
vn -0.597927 0.790360 -0.133471
vn 0.734721 0.678051 -0.020800
vn 0.734707 0.678037 -0.021706
vn 0.734721 0.678050 -0.020806
vn 0.734721 0.678050 -0.020806
vn 0.734707 0.678037 -0.021706
vn 0.734705 0.678035 -0.021842
vn 0.000000 0.999798 0.020120
vn 0.000000 0.998568 0.053496
vn 0.000000 0.999752 0.022268
vn 0.000000 0.999752 0.022268
vn 0.000000 0.998568 0.053496
vn 0.000000 0.998454 0.055590
vn -0.634637 0.768175 0.084518
vn -0.598760 0.791459 0.122796
vn -0.631291 0.770476 0.088532
vn -0.631291 0.770476 0.088532
vn -0.598760 0.791459 0.122796
vn -0.598789 0.791496 0.122415
vn -0.603310 0.797476 0.007031
vn -0.601465 0.795035 0.078482
vn -0.603315 0.797482 0.005739
vn -0.603315 0.797482 0.005739
vn -0.601465 0.795035 0.078482
vn -0.601384 0.794929 0.080155
vn -0.000258 0.999798 0.020084
vn 0.000000 0.999507 0.031397
vn -0.000263 0.999793 0.020346
vn -0.000263 0.999793 0.020346
vn 0.000000 0.999507 0.031397
vn 0.000000 0.999379 0.035249
vn 0.734501 0.677847 0.032116
vn 0.734041 0.677426 -0.047728
vn 0.734506 0.677851 0.031932
vn 0.734506 0.677851 0.031932
vn 0.734041 0.677426 -0.047728
vn 0.734117 0.677495 -0.045532
vn -0.010743 0.691759 0.722049
vn -0.011255 0.710172 0.703938
vn -0.010718 0.690856 0.722913
vn -0.010718 0.690856 0.722913
vn -0.011255 0.710172 0.703938
vn -0.011255 0.710172 0.703938
vn 0.020246 0.999579 0.020805
vn 0.020244 0.999576 0.020929
vn 0.020150 0.999477 0.025308
vn 0.020150 0.999477 0.025308
vn 0.020244 0.999576 0.020929
vn 0.020150 0.999477 0.025308
vn 0.017302 0.630669 -0.775859
vn 0.017302 0.630669 -0.775859
vn 0.017302 0.630669 -0.775859
vn 0.017302 0.630669 -0.775859
vn 0.017302 0.630669 -0.775859
vn 0.017302 0.630669 -0.775859
vn -0.008060 0.689606 0.724140
vn -0.008204 0.688577 0.725117
vn -0.010718 0.690856 0.722913
vn -0.010718 0.690856 0.722913
vn -0.008204 0.688577 0.725117
vn -0.010743 0.691759 0.722049
vn 0.020449 0.999728 0.011255
vn 0.020446 0.999726 0.011395
vn 0.020246 0.999579 0.020805
vn 0.020246 0.999579 0.020805
vn 0.020446 0.999726 0.011395
vn 0.020244 0.999576 0.020929
vn 0.021470 0.685106 -0.728127
vn 0.017302 0.630669 -0.775859
vn 0.021392 0.684107 -0.729068
vn 0.021392 0.684107 -0.729068
vn 0.017302 0.630669 -0.775859
vn 0.017302 0.630669 -0.775859
f 1/1/1 47/2/2 3/3/3
f 3/3/4 47/2/5 48/4/6
f 48/4/7 49/5/8 3/3/9
f 3/3/10 49/5/11 5/6/12
f 49/5/13 50/7/14 5/6/15
f 5/6/16 50/7/17 7/8/18
f 10/9/19 9/10/20 12/11/21
f 12/11/22 9/10/23 11/12/24
f 7/8/25 1/1/26 5/6/27
f 5/6/28 1/1/29 3/3/30
f 14/13/31 11/12/32 13/14/33
f 13/14/34 11/12/35 9/10/36
f 14/13/37 4/15/38 11/12/39
f 15/16/40 17/17/41 16/18/42
f 16/18/43 17/17/44 18/19/45
f 6/20/46 14/13/47 8/21/48
f 8/21/49 14/13/50 13/14/51
f 6/20/52 4/15/53 14/13/54
f 11/12/55 4/15/56 12/11/57
f 40/22/58 38/23/59 39/24/60
f 39/24/61 38/23/62 35/25/63
f 42/26/64 36/27/65 41/28/66
f 41/28/67 36/27/68 37/29/69
f 41/28/70 37/29/71 40/22/72
f 40/22/73 37/29/74 38/23/75
f 12/30/76 21/31/77 10/32/78
f 10/32/79 21/31/80 20/33/81
f 4/34/82 22/35/83 12/30/84
f 12/30/85 22/35/86 21/31/87
f 4/34/88 2/36/89 22/35/90
f 22/35/91 2/36/92 19/37/93
f 30/38/94 27/39/95 24/40/96
f 24/40/97 27/39/98 23/41/99
f 29/42/100 30/38/101 25/43/102
f 25/43/103 30/38/104 24/40/105
f 28/44/106 29/42/107 26/45/108
f 26/45/109 29/42/110 25/43/111
f 24/46/112 23/47/113 16/18/114
f 16/18/115 23/47/116 15/16/117
f 25/48/118 24/46/119 18/19/120
f 18/19/121 24/46/122 16/18/123
f 25/48/124 18/19/125 26/49/126
f 26/49/127 18/19/128 17/17/129
f 32/50/130 33/51/131 28/52/132
f 28/52/133 33/51/134 29/53/135
f 33/51/136 34/54/137 29/53/138
f 29/53/139 34/54/140 30/55/141
f 34/54/142 31/56/143 30/55/144
f 30/55/145 31/56/146 27/57/147
f 21/58/148 37/59/149 20/60/150
f 20/60/151 37/59/152 36/61/153
f 22/62/154 38/63/155 21/58/156
f 21/58/157 38/63/158 37/59/159
f 19/64/160 35/65/161 22/62/162
f 22/62/163 35/65/164 38/63/165
f 34/66/166 40/67/167 31/68/168
f 31/68/169 40/67/170 39/69/171
f 33/70/172 41/71/173 34/66/174
f 34/66/175 41/71/176 40/67/177
f 32/72/178 42/73/179 33/70/180
f 33/70/181 42/73/182 41/71/183
f 43/74/184 2/75/185 44/76/186
f 44/76/187 2/75/188 4/77/189
f 45/78/190 44/76/191 6/79/192
f 6/79/193 44/76/194 4/77/195
f 45/78/196 6/79/197 46/80/198
f 46/80/199 6/79/200 8/81/201
f 48/82/202 47/83/203 44/84/204
f 44/84/205 47/83/206 43/85/207
f 49/86/208 48/82/209 45/87/210
f 45/87/211 48/82/212 44/84/213
f 49/86/214 45/87/215 50/88/216
f 50/88/217 45/87/218 46/89/219
