# This file uses centimeters as units for non-parametric coordinates.

v -6.091187 2.436364 -1.048980
v -10.280007 2.436364 -1.048980
v -6.091187 2.436364 1.048980
v -10.280007 2.436364 1.048980
v -6.091187 2.257574 -1.048980
v -10.280007 2.257574 -1.048980
v -10.280007 2.257574 1.048980
v -6.091187 2.257574 1.048980
v -6.293733 0.000000 0.911693
v -10.077461 0.000000 0.911693
v -10.077461 0.000000 -0.905581
v -6.293733 0.000000 -0.905581
v -10.077461 2.257574 -0.905581
v -6.293733 2.257574 -0.905581
v -10.077461 2.257574 0.911693
v -6.293733 2.257574 0.911693
v -6.293734 2.257574 -0.675745
v -6.293734 2.257574 0.672988
v -6.293734 0.000000 0.672988
v -6.293734 0.000000 -0.675745
v -6.693478 0.000000 0.672988
v -6.693478 0.000000 -0.675745
v -6.693478 2.257574 -0.675745
v -6.693478 2.257574 0.672988
v -10.101505 0.000000 0.535087
v -10.101505 0.000000 -0.528975
v -10.101505 2.065996 0.535087
v -10.101505 2.065996 -0.528975
v -6.297382 0.000000 -0.412139
v -6.693478 0.000000 -0.412139
v -6.297382 1.712079 -0.412139
v -6.693478 1.910699 -0.412139
v -6.297382 1.712079 0.399244
v -6.693478 1.910699 0.399244
v -6.297382 0.000000 0.399244
v -6.693478 0.000000 0.399244
v 10.280007 2.436364 -1.048980
v 6.091189 2.436364 -1.048980
v 10.280007 2.436364 1.048980
v 6.091189 2.436364 1.048980
v 10.280007 2.257574 -1.048980
v 6.091189 2.257574 -1.048980
v 6.091189 2.257574 1.048980
v 10.280007 2.257574 1.048980
v 10.077463 0.000000 0.911693
v 6.293736 0.000000 0.911693
v 6.293736 0.000000 -0.905581
v 10.077463 0.000000 -0.905581
v 6.293736 2.257574 -0.905581
v 10.077463 2.257574 -0.905581
v 6.293736 2.257574 0.911693
v 10.077463 2.257574 0.911693
v 10.077461 2.257574 -0.675745
v 10.077461 2.257574 0.672988
v 10.077461 0.000000 0.672988
v 10.077461 0.000000 -0.675745
v 9.677718 0.000000 0.672988
v 9.677718 0.000000 -0.675745
v 9.677718 2.257574 -0.675745
v 9.677718 2.257574 0.672988
v 6.269691 0.000000 0.535087
v 6.269691 0.000000 -0.528975
v 6.269691 2.065996 0.535087
v 6.269691 2.065996 -0.528975
v 10.073814 0.000000 -0.412139
v 9.677718 0.000000 -0.412139
v 10.073814 1.712079 -0.412139
v 9.677718 1.910699 -0.412139
v 10.073814 1.712079 0.399244
v 9.677718 1.910699 0.399244
v 10.073814 0.000000 0.399244
v 9.677718 0.000000 0.399244
vt 0.602073 0.787364
vt 0.002003 0.787364
vt 0.602073 0.812978
vt 0.002003 0.812978
vt 0.601609 0.482773
vt 0.001539 0.482773
vt 0.601609 0.783316
vt 0.001539 0.783316
vt 0.602073 0.812978
vt 0.002003 0.812978
vt 0.602073 0.787364
vt 0.002003 0.787364
vt 0.530062 0.787011
vt 0.229518 0.787011
vt 0.530062 0.812623
vt 0.229518 0.812623
vt 0.229518 0.787011
vt 0.530062 0.787011
vt 0.229518 0.812623
vt 0.530062 0.812623
vt 0.609188 0.108271
vt 0.007235 0.108271
vt 0.609188 0.467429
vt 0.007235 0.467429
vt 0.626132 0.487908
vt 0.790866 0.487908
vt 0.626132 0.807759
vt 0.790866 0.807759
vt 0.609188 0.467429
vt 0.007235 0.467429
vt 0.609188 0.108271
vt 0.007235 0.108271
vt 0.923478 0.111983
vt 0.706381 0.111983
vt 0.923478 0.475370
vt 0.706381 0.475370
vt 0.001539 0.482773
vt 0.601609 0.482773
vt 0.030554 0.503315
vt 0.572593 0.503315
vt 0.001539 0.783316
vt 0.030554 0.763649
vt 0.601609 0.783316
vt 0.572593 0.763649
vt 0.961900 0.111983
vt 0.923478 0.111983
vt 0.961900 0.475370
vt 0.923478 0.475370
vt 0.706381 0.111983
vt 0.669386 0.111983
vt 0.706381 0.475370
vt 0.669386 0.475370
vt 0.609188 0.108271
vt 0.609188 0.467429
vt 0.545593 0.108271
vt 0.545593 0.467429
vt 0.572593 0.536241
vt 0.572593 0.729453
vt 0.515327 0.536241
vt 0.515327 0.729453
vt 0.609188 0.467429
vt 0.609188 0.108271
vt 0.545593 0.467429
vt 0.545593 0.108271
vt 0.961900 0.475370
vt 0.901281 0.444533
vt 0.961900 0.111983
vt 0.901281 0.111983
vt 0.669386 0.475370
vt 0.669386 0.111983
vt 0.730006 0.444533
vt 0.730006 0.111983
vt 0.927400 0.487714
vt 0.988722 0.487714
vt 0.927400 0.752772
vt 0.988722 0.783522
vt 0.927410 0.753981
vt 0.927410 0.815303
vt 0.801794 0.753981
vt 0.801794 0.815303
vt 0.988722 0.783522
vt 0.988722 0.487714
vt 0.927400 0.752772
vt 0.927400 0.487714
vt 0.801651 0.487986
vt 0.927267 0.487986
vt 0.801651 0.753045
vt 0.927267 0.753045
vt 0.602073 0.787364
vt 0.002003 0.787364
vt 0.602073 0.812978
vt 0.002003 0.812978
vt 0.601609 0.482773
vt 0.001539 0.482773
vt 0.601609 0.783316
vt 0.001539 0.783316
vt 0.602073 0.812978
vt 0.002003 0.812978
vt 0.602073 0.787364
vt 0.002003 0.787364
vt 0.530062 0.787011
vt 0.229518 0.787011
vt 0.530062 0.812623
vt 0.229518 0.812623
vt 0.229518 0.787011
vt 0.530062 0.787011
vt 0.229518 0.812623
vt 0.530062 0.812623
vt 0.609188 0.108271
vt 0.007235 0.108271
vt 0.609188 0.467429
vt 0.007235 0.467429
vt 0.626132 0.487908
vt 0.790866 0.487908
vt 0.626132 0.807759
vt 0.790866 0.807759
vt 0.609188 0.467429
vt 0.007235 0.467429
vt 0.609188 0.108271
vt 0.007235 0.108271
vt 0.923478 0.111983
vt 0.706381 0.111983
vt 0.923478 0.475370
vt 0.706381 0.475370
vt 0.001539 0.482773
vt 0.601609 0.482773
vt 0.030554 0.503315
vt 0.572593 0.503315
vt 0.001539 0.783316
vt 0.030554 0.763649
vt 0.601609 0.783316
vt 0.572593 0.763649
vt 0.961900 0.111983
vt 0.923478 0.111983
vt 0.961900 0.475370
vt 0.923478 0.475370
vt 0.706381 0.111983
vt 0.669386 0.111983
vt 0.706381 0.475370
vt 0.669386 0.475370
vt 0.609188 0.108271
vt 0.609188 0.467429
vt 0.545593 0.108271
vt 0.545593 0.467429
vt 0.572593 0.536241
vt 0.572593 0.729453
vt 0.515327 0.536241
vt 0.515327 0.729453
vt 0.609188 0.467429
vt 0.609188 0.108271
vt 0.545593 0.467429
vt 0.545593 0.108271
vt 0.961900 0.475370
vt 0.901281 0.444533
vt 0.961900 0.111983
vt 0.901281 0.111983
vt 0.669386 0.475370
vt 0.669386 0.111983
vt 0.730006 0.444533
vt 0.730006 0.111983
vt 0.927400 0.487714
vt 0.988722 0.487714
vt 0.927400 0.752772
vt 0.988722 0.783522
vt 0.927410 0.753981
vt 0.927410 0.815303
vt 0.801794 0.753981
vt 0.801794 0.815303
vt 0.988722 0.783522
vt 0.988722 0.487714
vt 0.927400 0.752772
vt 0.927400 0.487714
vt 0.801651 0.487986
vt 0.927267 0.487986
vt 0.801651 0.753045
vt 0.927267 0.753045
vn 0.000000 0.000000 -1.000000
vn 0.000000 0.000000 -1.000000
vn 0.000000 0.000000 -1.000000
vn 0.000000 0.000000 -1.000000
vn 0.000000 0.000000 -1.000000
vn 0.000000 0.000000 -1.000000
vn 0.000000 1.000000 0.000000
vn 0.000000 1.000000 0.000000
vn 0.000000 1.000000 0.000000
vn 0.000000 1.000000 0.000000
vn 0.000000 1.000000 0.000000
vn 0.000000 1.000000 0.000000
vn 0.000000 0.000000 1.000000
vn 0.000000 0.000000 1.000000
vn 0.000000 0.000000 1.000000
vn 0.000000 0.000000 1.000000
vn 0.000000 0.000000 1.000000
vn 0.000000 0.000000 1.000000
vn -1.000000 0.000000 0.000000
vn -1.000000 0.000000 0.000000
vn -1.000000 0.000000 0.000000
vn -1.000000 0.000000 0.000000
vn -1.000000 0.000000 0.000000
vn -1.000000 0.000000 0.000000
vn 1.000000 0.000000 0.000000
vn 1.000000 0.000000 0.000000
vn 1.000000 0.000000 0.000000
vn 1.000000 0.000000 0.000000
vn 1.000000 0.000000 0.000000
vn 1.000000 0.000000 0.000000
vn 0.000000 0.000000 -1.000000
vn 0.000000 0.000000 -1.000000
vn 0.000000 0.000000 -1.000000
vn 0.000000 0.000000 -1.000000
vn 0.000000 0.000000 -1.000000
vn 0.000000 0.000000 -1.000000
vn -1.000000 0.000000 0.000000
vn -1.000000 0.000000 0.000000
vn -1.000000 0.000000 0.000000
vn -1.000000 0.000000 0.000000
vn -1.000000 0.000000 0.000000
vn -1.000000 0.000000 0.000000
vn 0.000000 0.000000 1.000000
vn 0.000000 0.000000 1.000000
vn 0.000000 0.000000 1.000000
vn 0.000000 0.000000 1.000000
vn 0.000000 0.000000 1.000000
vn 0.000000 0.000000 1.000000
vn 1.000000 0.000000 0.000000
vn 1.000000 0.000000 0.000000
vn 1.000000 0.000000 0.000000
vn 1.000000 0.000000 0.000000
vn 1.000000 0.000000 0.000000
vn 1.000000 0.000000 0.000000
vn 0.000000 -1.000000 0.000000
vn 0.000000 -1.000000 0.000000
vn 0.000000 -1.000000 0.000000
vn 0.000000 -1.000000 0.000000
vn 0.000000 -1.000000 0.000000
vn 0.000000 -1.000000 0.000000
vn 0.000000 -1.000000 0.000000
vn 0.000000 -1.000000 0.000000
vn 0.000000 -1.000000 0.000000
vn 0.000000 -1.000000 0.000000
vn 0.000000 -1.000000 0.000000
vn 0.000000 -1.000000 0.000000
vn 0.000000 -1.000000 0.000000
vn 0.000000 -1.000000 0.000000
vn 0.000000 -1.000000 0.000000
vn 0.000000 -1.000000 0.000000
vn 0.000000 -1.000000 0.000000
vn 0.000000 -1.000000 0.000000
vn 0.000000 -1.000000 0.000000
vn 0.000000 -1.000000 0.000000
vn 0.000000 -1.000000 0.000000
vn 0.000000 -1.000000 0.000000
vn 0.000000 -1.000000 0.000000
vn 0.000000 -1.000000 0.000000
vn 1.000000 0.000000 -0.000004
vn 1.000000 0.000000 -0.000004
vn 1.000000 0.000000 -0.000004
vn 1.000000 0.000000 -0.000004
vn 1.000000 0.000000 -0.000004
vn 1.000000 0.000000 -0.000004
vn 1.000000 0.000000 0.000005
vn 1.000000 0.000000 0.000005
vn 1.000000 0.000000 0.000005
vn 1.000000 0.000000 0.000005
vn 1.000000 0.000000 0.000005
vn 1.000000 0.000000 0.000005
vn 0.000000 0.000000 1.000000
vn 0.000000 0.000000 1.000000
vn 0.000000 0.000000 1.000000
vn 0.000000 0.000000 1.000000
vn 0.000000 0.000000 1.000000
vn 0.000000 0.000000 1.000000
vn 0.000000 -1.000000 0.000000
vn 0.000000 -1.000000 0.000000
vn 0.000000 -1.000000 0.000000
vn 0.000000 -1.000000 0.000000
vn 0.000000 -1.000000 0.000000
vn 0.000000 -1.000000 0.000000
vn 0.000000 0.000000 -1.000000
vn 0.000000 0.000000 -1.000000
vn 0.000000 0.000000 -1.000000
vn 0.000000 0.000000 -1.000000
vn 0.000000 0.000000 -1.000000
vn 0.000000 0.000000 -1.000000
vn -0.997968 0.000000 0.063715
vn -0.997968 0.000000 0.063715
vn -0.997968 0.000000 0.063715
vn -0.997968 0.000000 0.063715
vn -0.997968 0.000000 0.063715
vn -0.997968 0.000000 0.063715
vn -0.997968 0.000000 -0.063715
vn -0.997968 0.000000 -0.063715
vn -0.997968 0.000000 -0.063715
vn -0.997968 0.000000 -0.063715
vn -0.997968 0.000000 -0.063715
vn -0.997968 0.000000 -0.063715
vn -0.992216 0.124531 0.000000
vn -0.992216 0.124531 0.000000
vn -0.992216 0.124531 0.000000
vn -0.992216 0.124531 0.000000
vn -0.992216 0.124531 0.000000
vn -0.992216 0.124531 0.000000
vn -0.000003 0.000000 -1.000000
vn -0.000003 0.000000 -1.000000
vn -0.000003 0.000000 -1.000000
vn -0.000003 0.000000 -1.000000
vn -0.000003 0.000000 -1.000000
vn -0.000003 0.000000 -1.000000
vn 0.448247 0.893910 0.000000
vn 0.448247 0.893910 0.000000
vn 0.448247 0.893910 0.000000
vn 0.448247 0.893910 0.000000
vn 0.448247 0.893910 0.000000
vn 0.448247 0.893910 0.000000
vn 0.000003 0.000000 1.000000
vn 0.000003 0.000000 1.000000
vn 0.000003 0.000000 1.000000
vn 0.000003 0.000000 1.000000
vn 0.000003 0.000000 1.000000
vn 0.000003 0.000000 1.000000
vn 1.000000 0.000000 0.000000
vn 1.000000 0.000000 0.000000
vn 1.000000 0.000000 0.000000
vn 1.000000 0.000000 0.000000
vn 1.000000 0.000000 0.000000
vn 1.000000 0.000000 0.000000
vn 0.000000 0.000000 -1.000000
vn 0.000000 0.000000 -1.000000
vn 0.000000 0.000000 -1.000000
vn 0.000000 0.000000 -1.000000
vn 0.000000 0.000000 -1.000000
vn 0.000000 0.000000 -1.000000
vn 0.000000 1.000000 0.000000
vn 0.000000 1.000000 0.000000
vn 0.000000 1.000000 0.000000
vn 0.000000 1.000000 0.000000
vn 0.000000 1.000000 0.000000
vn 0.000000 1.000000 0.000000
vn 0.000000 0.000000 1.000000
vn 0.000000 0.000000 1.000000
vn 0.000000 0.000000 1.000000
vn 0.000000 0.000000 1.000000
vn 0.000000 0.000000 1.000000
vn 0.000000 0.000000 1.000000
vn -1.000000 0.000000 0.000000
vn -1.000000 0.000000 0.000000
vn -1.000000 0.000000 0.000000
vn -1.000000 0.000000 0.000000
vn -1.000000 0.000000 0.000000
vn -1.000000 0.000000 0.000000
vn 1.000000 0.000000 0.000000
vn 1.000000 0.000000 0.000000
vn 1.000000 0.000000 0.000000
vn 1.000000 0.000000 0.000000
vn 1.000000 0.000000 0.000000
vn 1.000000 0.000000 0.000000
vn 0.000000 0.000000 -1.000000
vn 0.000000 0.000000 -1.000000
vn 0.000000 0.000000 -1.000000
vn 0.000000 0.000000 -1.000000
vn 0.000000 0.000000 -1.000000
vn 0.000000 0.000000 -1.000000
vn -1.000000 0.000000 0.000000
vn -1.000000 0.000000 0.000000
vn -1.000000 0.000000 0.000000
vn -1.000000 0.000000 0.000000
vn -1.000000 0.000000 0.000000
vn -1.000000 0.000000 0.000000
vn 0.000000 0.000000 1.000000
vn 0.000000 0.000000 1.000000
vn 0.000000 0.000000 1.000000
vn 0.000000 0.000000 1.000000
vn 0.000000 0.000000 1.000000
vn 0.000000 0.000000 1.000000
vn 1.000000 0.000000 0.000000
vn 1.000000 0.000000 0.000000
vn 1.000000 0.000000 0.000000
vn 1.000000 0.000000 0.000000
vn 1.000000 0.000000 0.000000
vn 1.000000 0.000000 0.000000
vn 0.000000 -1.000000 0.000000
vn 0.000000 -1.000000 0.000000
vn 0.000000 -1.000000 0.000000
vn 0.000000 -1.000000 0.000000
vn 0.000000 -1.000000 0.000000
vn 0.000000 -1.000000 0.000000
vn 0.000000 -1.000000 0.000000
vn 0.000000 -1.000000 0.000000
vn 0.000000 -1.000000 0.000000
vn 0.000000 -1.000000 0.000000
vn 0.000000 -1.000000 0.000000
vn 0.000000 -1.000000 0.000000
vn 0.000000 -1.000000 0.000000
vn 0.000000 -1.000000 0.000000
vn 0.000000 -1.000000 0.000000
vn 0.000000 -1.000000 0.000000
vn 0.000000 -1.000000 0.000000
vn 0.000000 -1.000000 0.000000
vn 0.000000 -1.000000 0.000000
vn 0.000000 -1.000000 0.000000
vn 0.000000 -1.000000 0.000000
vn 0.000000 -1.000000 0.000000
vn 0.000000 -1.000000 0.000000
vn 0.000000 -1.000000 0.000000
vn 1.000000 0.000000 -0.000004
vn 1.000000 0.000000 -0.000004
vn 1.000000 0.000000 -0.000004
vn 1.000000 0.000000 -0.000004
vn 1.000000 0.000000 -0.000004
vn 1.000000 0.000000 -0.000004
vn 1.000000 0.000000 0.000005
vn 1.000000 0.000000 0.000005
vn 1.000000 0.000000 0.000005
vn 1.000000 0.000000 0.000005
vn 1.000000 0.000000 0.000005
vn 1.000000 0.000000 0.000005
vn 0.000000 0.000000 1.000000
vn 0.000000 0.000000 1.000000
vn 0.000000 0.000000 1.000000
vn 0.000000 0.000000 1.000000
vn 0.000000 0.000000 1.000000
vn 0.000000 0.000000 1.000000
vn 0.000000 -1.000000 0.000000
vn 0.000000 -1.000000 0.000000
vn 0.000000 -1.000000 0.000000
vn 0.000000 -1.000000 0.000000
vn 0.000000 -1.000000 0.000000
vn 0.000000 -1.000000 0.000000
vn 0.000000 0.000000 -1.000000
vn 0.000000 0.000000 -1.000000
vn 0.000000 0.000000 -1.000000
vn 0.000000 0.000000 -1.000000
vn 0.000000 0.000000 -1.000000
vn 0.000000 0.000000 -1.000000
vn -0.997968 0.000000 0.063715
vn -0.997968 0.000000 0.063715
vn -0.997968 0.000000 0.063715
vn -0.997968 0.000000 0.063715
vn -0.997968 0.000000 0.063715
vn -0.997968 0.000000 0.063715
vn -0.997968 0.000000 -0.063715
vn -0.997968 0.000000 -0.063715
vn -0.997968 0.000000 -0.063715
vn -0.997968 0.000000 -0.063715
vn -0.997968 0.000000 -0.063715
vn -0.997968 0.000000 -0.063715
vn -0.992216 0.124531 0.000000
vn -0.992216 0.124531 0.000000
vn -0.992216 0.124531 0.000000
vn -0.992216 0.124531 0.000000
vn -0.992216 0.124531 0.000000
vn -0.992216 0.124531 0.000000
vn -0.000003 0.000000 -1.000000
vn -0.000003 0.000000 -1.000000
vn -0.000003 0.000000 -1.000000
vn -0.000003 0.000000 -1.000000
vn -0.000003 0.000000 -1.000000
vn -0.000003 0.000000 -1.000000
vn 0.448247 0.893910 0.000000
vn 0.448247 0.893910 0.000000
vn 0.448247 0.893910 0.000000
vn 0.448247 0.893910 0.000000
vn 0.448247 0.893910 0.000000
vn 0.448247 0.893910 0.000000
vn 0.000003 0.000000 1.000000
vn 0.000003 0.000000 1.000000
vn 0.000003 0.000000 1.000000
vn 0.000003 0.000000 1.000000
vn 0.000003 0.000000 1.000000
vn 0.000003 0.000000 1.000000
vn 1.000000 0.000000 0.000000
vn 1.000000 0.000000 0.000000
vn 1.000000 0.000000 0.000000
vn 1.000000 0.000000 0.000000
vn 1.000000 0.000000 0.000000
vn 1.000000 0.000000 0.000000
f 5/1/1 6/2/2 1/3/3
f 1/3/4 6/2/5 2/4/6
f 1/5/7 2/6/8 3/7/9
f 3/7/10 2/6/11 4/8/12
f 3/9/13 4/10/14 8/11/15
f 8/11/16 4/10/17 7/12/18
f 6/13/19 7/14/20 2/15/21
f 2/15/22 7/14/23 4/16/24
f 8/17/25 5/18/26 3/19/27
f 3/19/28 5/18/29 1/20/30
f 12/21/31 11/22/32 14/23/33
f 14/23/34 11/22/35 13/24/36
f 26/25/37 25/26/38 28/27/39
f 28/27/40 25/26/41 27/28/42
f 16/29/43 15/30/44 9/31/45
f 9/31/46 15/30/47 10/32/48
f 21/33/49 22/34/50 24/35/51
f 24/35/52 22/34/53 23/36/54
f 6/37/55 5/38/56 13/39/57
f 13/39/58 5/38/59 14/40/60
f 6/37/61 13/39/62 7/41/63
f 7/41/64 13/39/65 15/42/66
f 8/43/67 7/41/68 16/44/69
f 16/44/70 7/41/71 15/42/72
f 5/38/73 8/43/74 14/40/75
f 14/40/76 8/43/77 16/44/78
f 9/45/79 19/46/80 16/47/81
f 16/47/82 19/46/83 18/48/84
f 20/49/85 12/50/86 17/51/87
f 17/51/88 12/50/89 14/52/90
f 20/53/91 17/54/92 22/55/93
f 22/55/94 17/54/95 23/56/96
f 17/57/97 18/58/98 23/59/99
f 23/59/100 18/58/101 24/60/102
f 18/61/103 19/62/104 24/63/105
f 24/63/106 19/62/107 21/64/108
f 15/65/109 27/66/110 10/67/111
f 10/67/112 27/66/113 25/68/114
f 13/69/115 11/70/116 28/71/117
f 28/71/118 11/70/119 26/72/120
f 28/71/121 27/66/122 13/69/123
f 13/69/124 27/66/125 15/65/126
f 29/73/127 30/74/128 31/75/129
f 31/75/130 30/74/131 32/76/132
f 31/77/133 32/78/134 33/79/135
f 33/79/136 32/78/137 34/80/138
f 34/81/139 36/82/140 33/83/141
f 33/83/142 36/82/143 35/84/144
f 35/85/145 29/86/146 33/87/147
f 33/87/148 29/86/149 31/88/150
f 41/89/151 42/90/152 37/91/153
f 37/91/154 42/90/155 38/92/156
f 37/93/157 38/94/158 39/95/159
f 39/95/160 38/94/161 40/96/162
f 39/97/163 40/98/164 44/99/165
f 44/99/166 40/98/167 43/100/168
f 42/101/169 43/102/170 38/103/171
f 38/103/172 43/102/173 40/104/174
f 44/105/175 41/106/176 39/107/177
f 39/107/178 41/106/179 37/108/180
f 48/109/181 47/110/182 50/111/183
f 50/111/184 47/110/185 49/112/186
f 62/113/187 61/114/188 64/115/189
f 64/115/190 61/114/191 63/116/192
f 52/117/193 51/118/194 45/119/195
f 45/119/196 51/118/197 46/120/198
f 57/121/199 58/122/200 60/123/201
f 60/123/202 58/122/203 59/124/204
f 42/125/205 41/126/206 49/127/207
f 49/127/208 41/126/209 50/128/210
f 42/125/211 49/127/212 43/129/213
f 43/129/214 49/127/215 51/130/216
f 44/131/217 43/129/218 52/132/219
f 52/132/220 43/129/221 51/130/222
f 41/126/223 44/131/224 50/128/225
f 50/128/226 44/131/227 52/132/228
f 45/133/229 55/134/230 52/135/231
f 52/135/232 55/134/233 54/136/234
f 56/137/235 48/138/236 53/139/237
f 53/139/238 48/138/239 50/140/240
f 56/141/241 53/142/242 58/143/243
f 58/143/244 53/142/245 59/144/246
f 53/145/247 54/146/248 59/147/249
f 59/147/250 54/146/251 60/148/252
f 54/149/253 55/150/254 60/151/255
f 60/151/256 55/150/257 57/152/258
f 51/153/259 63/154/260 46/155/261
f 46/155/262 63/154/263 61/156/264
f 49/157/265 47/158/266 64/159/267
f 64/159/268 47/158/269 62/160/270
f 64/159/271 63/154/272 49/157/273
f 49/157/274 63/154/275 51/153/276
f 65/161/277 66/162/278 67/163/279
f 67/163/280 66/162/281 68/164/282
f 67/165/283 68/166/284 69/167/285
f 69/167/286 68/166/287 70/168/288
f 70/169/289 72/170/290 69/171/291
f 69/171/292 72/170/293 71/172/294
f 71/173/295 65/174/296 69/175/297
f 69/175/298 65/174/299 67/176/300
