# This file uses centimeters as units for non-parametric coordinates.

v 16.375618 0.644884 12.806900
v 16.375618 0.644884 2.585125
v 16.079399 0.644884 -7.343712
v 23.008072 0.644884 12.727257
v 19.456375 0.644884 2.831947
v 23.116608 0.000000 12.691078
v 19.564896 0.000000 2.795776
v 16.187920 0.000000 -7.379936
v 24.016327 0.000000 12.310120
v 20.657120 0.000000 2.842007
v 17.297882 0.000000 -6.626053
v 13.253502 0.000000 -18.040314
v 23.231827 0.000000 14.626244
v 24.669510 0.000000 14.723309
v 23.295685 0.000000 16.519249
v 24.870544 0.000000 16.454880
v 23.322708 0.000000 18.105965
v 24.870560 0.000000 18.105965
v 22.881760 0.370768 12.842979
v 22.996979 0.370768 14.626244
v 23.060837 0.370768 16.519249
v 23.087875 0.370768 18.294758
v 16.585777 0.386539 13.113445
v 22.196686 0.251563 12.798656
v 22.311905 0.251563 14.592617
v 22.375778 0.251563 16.496975
v 22.402802 0.251563 18.283115
v 12.298508 0.644884 2.585125
v 12.298508 0.644884 12.934967
v 12.403870 0.644884 -7.557877
v 12.354973 0.085770 -18.031128
v 12.458160 0.386539 13.241520
v 12.298508 0.644884 8.191959
v 16.375618 0.644884 8.122581
v 21.380447 0.644884 8.192543
v 21.488968 0.000000 8.156376
v 22.476913 0.000000 7.971169
v 13.989815 0.644884 -13.339943
v 14.126823 0.000000 -13.339020
v 14.920952 0.000000 -13.333809
v 12.376823 0.644884 -13.350540
v 12.376823 0.085770 -13.397911
v -24.578262 0.644884 13.125477
v -14.050781 0.644884 13.125477
v -3.908646 0.644884 13.125477
v 6.233490 0.644884 13.125477
v -24.578262 0.644884 2.585125
v -14.050781 0.644884 2.585125
v -3.908646 0.644884 2.585125
v 6.233490 0.644884 2.585125
v -24.578262 0.644884 -7.557014
v -14.050781 0.644884 -7.557014
v -3.908646 0.644884 -7.557014
v 6.233490 0.644884 -7.557014
v -24.578262 0.644884 -17.988205
v -14.050781 0.644884 -17.988205
v -3.908646 0.644884 -17.988205
v 6.233490 0.644884 -17.988205
v 12.354973 0.644884 -18.031120
v 12.354973 0.065138 -18.031128
v -24.870567 0.386539 13.432030
v -14.217461 0.386539 13.432030
v -24.870567 0.386539 2.687305
v -3.949707 0.386539 13.432030
v 6.318024 0.386539 13.432030
v -24.870567 0.386539 -7.659203
v -24.870567 0.386539 -18.294754
v -14.217461 0.386539 -18.294754
v -3.949707 0.386539 -18.294754
v 6.318024 0.386539 -18.294754
v 12.646919 0.644884 -13.350540
v 12.625069 0.644884 -18.031120
v 12.646919 0.443154 -13.350540
v 12.625069 0.443154 -18.031120
v 12.904572 0.443154 -13.350540
v 12.882721 0.443154 -18.031120
v 12.904572 0.253106 -13.350540
v 13.194344 0.253106 -13.350540
v 13.172493 0.253106 -18.031120
v 12.882721 0.253106 -18.031120
v 13.194344 -0.000540 -13.350540
v 13.172493 -0.000540 -18.031120
v 12.625069 -0.000540 -18.031120
v 12.354973 -0.000540 -18.031120
v 12.882721 -0.000540 -18.031120
vt 0.687971 0.456312
vt 0.687971 0.121108
vt 0.931720 0.125257
vt 0.931720 0.456312
vt 0.690780 0.636918
vt 0.684481 0.030521
vt 0.928231 0.030521
vt 0.910521 0.624115
vt 0.985432 0.456312
vt 0.985432 0.125257
vt 0.686219 0.121073
vt 0.801249 0.441556
vt 0.971730 0.638075
vt 0.954021 0.044482
vt 0.769839 0.029726
vt 0.497279 0.371514
vt 0.176797 0.371514
vt 0.178960 0.332960
vt 0.499442 0.332960
vt 0.656445 0.373976
vt 0.048096 0.373976
vt 0.050258 0.335422
vt 0.658610 0.335422
vt 0.057139 0.544873
vt 0.172169 0.224391
vt 0.231233 0.235463
vt 0.122437 0.542109
vt 0.233983 0.668942
vt 0.435875 0.060592
vt 0.501173 0.057827
vt 0.300341 0.623873
vt 0.220291 0.614360
vt 0.326221 0.333843
vt 0.373698 0.333531
vt 0.274009 0.614909
vt 0.152647 0.492202
vt 0.098857 0.469427
vt 0.105746 0.353733
vt 0.191697 0.347930
vt 0.409005 0.347930
vt 0.323055 0.353733
vt 0.340975 0.240560
vt 0.435128 0.244408
vt 0.342591 0.145699
vt 0.435129 0.145699
vt 0.351061 0.340347
vt 0.466755 0.340347
vt 0.457674 0.362513
vt 0.351061 0.362513
vt 0.237889 0.340347
vt 0.237889 0.362513
vt 0.143027 0.340347
vt 0.131740 0.362513
vt 0.052267 0.210416
vt 0.254263 0.202760
vt 0.197229 0.184433
vt 0.443996 0.192089
vt 0.471101 0.371989
vt 0.074581 0.371989
vt 0.087145 0.356544
vt 0.463549 0.355601
vt 0.477589 0.333435
vt 0.323117 0.353733
vt 0.316229 0.460345
vt 0.275272 0.462995
vt 0.282160 0.355743
vt 0.326936 0.240560
vt 0.285979 0.241891
vt 0.328551 0.134411
vt 0.287594 0.135108
vt 0.052267 0.490467
vt 0.254263 0.486319
vt 0.418059 0.486284
vt 0.515366 0.215178
vt 0.407937 0.335423
vt 0.405775 0.373977
vt 0.134668 0.373977
vt 0.136830 0.335423
vt 0.252200 0.499519
vt 0.193135 0.488446
vt 0.290442 0.217340
vt 0.344233 0.240116
vt 0.785595 0.499669
vt 0.689163 0.500302
vt 0.690780 0.153989
vt 0.910521 0.141186
vt 0.469360 0.335422
vt 0.469415 0.373976
vt 0.110932 0.373976
vt 0.113097 0.335422
vt 0.314457 0.566648
vt 0.266980 0.566961
vt 0.390202 0.210698
vt 0.456562 0.165628
vt 0.423743 0.371989
vt 0.520176 0.371989
vt 0.528366 0.333435
vt 0.423743 0.338562
vt 0.221597 0.337363
vt 0.038198 0.050202
vt 0.667581 0.050202
vt 0.667581 0.680354
vt 0.038198 0.680354
vt 0.046265 0.050202
vt 0.652610 0.050202
vt 0.652610 0.680354
vt 0.046265 0.680354
vt 0.037833 0.050202
vt 0.644179 0.050202
vt 0.644179 0.680354
vt 0.037833 0.680354
vt 0.044590 0.060276
vt 0.673973 0.060276
vt 0.673973 0.666622
vt 0.044590 0.666622
vt 0.038198 0.034858
vt 0.667581 0.034858
vt 0.667581 0.658484
vt 0.038198 0.658484
vt 0.046265 0.034858
vt 0.652610 0.034858
vt 0.652610 0.658484
vt 0.046265 0.658484
vt 0.037833 0.034858
vt 0.644179 0.034858
vt 0.644179 0.658484
vt 0.037833 0.658484
vt 0.020722 0.031874
vt 0.657616 0.031874
vt 0.020722 0.674246
vt 0.036299 0.031874
vt 0.650155 0.031874
vt 0.035378 0.031874
vt 0.649232 0.031874
vt 0.027114 0.672731
vt 0.027114 0.054168
vt 0.020722 0.676811
vt 0.020722 0.040968
vt 0.657616 0.676811
vt 0.650155 0.676811
vt 0.036299 0.676811
vt 0.649232 0.676811
vt 0.035378 0.676811
vt 0.056465 0.371989
vt 0.422436 0.371989
vt 0.422436 0.337329
vt 0.061520 0.356544
vt 0.162475 0.034858
vt 0.531370 0.034910
vt 0.528446 0.661050
vt 0.162475 0.658484
vt 0.168867 0.060276
vt 0.531463 0.060276
vt 0.537763 0.666673
vt 0.168867 0.666622
vt 0.162475 0.050202
vt 0.525071 0.061592
vt 0.525071 0.680354
vt 0.162475 0.680354
vt 0.534616 0.043264
vt 0.167529 0.031874
vt 0.237745 0.334531
vt 0.236439 0.614360
vt 0.220291 0.614360
vt 0.221597 0.334531
vt 0.449498 0.376439
vt 0.169670 0.376439
vt 0.169670 0.364379
vt 0.449498 0.364379
vt 0.449498 0.364379
vt 0.169670 0.364379
vt 0.169670 0.353017
vt 0.449498 0.353017
vt 0.449498 0.353017
vt 0.169670 0.353017
vt 0.169670 0.337852
vt 0.449498 0.337852
vt 0.236439 0.614360
vt 0.237745 0.334531
vt 0.253149 0.334531
vt 0.251842 0.614360
vt 0.251842 0.614360
vt 0.253149 0.334531
vt 0.270472 0.334531
vt 0.269166 0.614360
vt 0.422436 0.371989
vt 0.438584 0.371989
vt 0.438584 0.333403
vt 0.422436 0.333403
vt 0.438584 0.359928
vt 0.453988 0.359928
vt 0.453988 0.333403
vt 0.453988 0.348567
vt 0.471312 0.348567
vt 0.471312 0.333403
vn 0.000000 1.000000 0.000000
vn 0.000000 1.000000 0.000000
vn 0.000000 1.000000 0.000000
vn 0.000000 1.000000 0.000000
vn 0.000000 1.000000 0.000000
vn 0.000000 1.000000 0.000000
vn 0.000000 1.000000 0.000000
vn 0.000000 1.000000 0.000000
vn 0.000000 1.000000 0.000000
vn 0.000000 1.000000 0.000000
vn 0.000000 1.000000 0.000000
vn 0.000000 1.000000 0.000000
vn 0.000000 1.000000 0.000000
vn 0.000000 1.000000 0.000000
vn 0.000000 1.000000 0.000000
vn 0.926749 0.174610 -0.332637
vn 0.926749 0.174616 -0.332636
vn 0.926749 0.174610 -0.332637
vn 0.926749 0.174616 -0.332636
vn 0.934511 0.174662 -0.310134
vn 0.934511 0.174662 -0.310134
vn 0.934511 0.174662 -0.310134
vn 0.934511 0.174662 -0.310134
vn 0.000000 1.000000 0.000000
vn 0.000000 1.000000 0.000000
vn 0.000000 1.000000 0.000000
vn 0.000000 1.000000 0.000000
vn 0.000000 1.000000 0.000000
vn 0.000000 1.000000 0.000000
vn 0.000000 1.000000 0.000000
vn 0.000000 1.000000 0.000000
vn 0.050582 0.998676 -0.009396
vn 0.027700 0.999603 -0.005146
vn 0.050582 0.998676 -0.009396
vn 0.016645 0.999857 -0.003092
vn 0.000000 1.000000 0.000000
vn 0.000000 1.000000 0.000000
vn 0.000000 1.000000 0.000000
vn 0.000000 1.000000 0.000000
vn 0.000000 1.000000 0.000000
vn 0.000000 1.000000 0.000000
vn 0.000000 1.000000 0.000000
vn 0.000000 1.000000 0.000000
vn 0.000000 1.000000 0.000000
vn 0.000000 1.000000 0.000000
vn 0.000000 1.000000 0.000000
vn 0.000000 1.000000 0.000000
vn 0.838799 0.541954 -0.051985
vn 0.838799 0.541954 -0.051985
vn 0.838799 0.541954 -0.051985
vn 0.838799 0.541954 -0.051985
vn 0.844452 0.534874 -0.028487
vn 0.844452 0.534874 -0.028487
vn 0.844452 0.534874 -0.028487
vn 0.844452 0.534874 -0.028487
vn 0.843157 0.537497 -0.013555
vn 0.843157 0.537497 -0.013555
vn 0.843157 0.537497 -0.013555
vn 0.843157 0.537497 -0.013555
vn 0.019895 0.770396 0.637255
vn 0.019895 0.770396 0.637255
vn 0.019895 0.770396 0.637255
vn 0.019895 0.770396 0.637255
vn 0.021927 0.623342 0.781642
vn 0.021927 0.623342 0.781642
vn 0.021927 0.623342 0.781642
vn 0.021927 0.623342 0.781642
vn 0.604209 0.057108 0.794777
vn 0.604209 0.057108 0.794777
vn 0.604209 0.057108 0.794777
vn -0.172029 0.985030 0.011082
vn -0.172029 0.985030 0.011082
vn -0.172029 0.985030 0.011082
vn -0.172029 0.985030 0.011082
vn -0.171654 0.985140 0.005774
vn -0.171654 0.985140 0.005774
vn -0.171654 0.985140 0.005774
vn -0.171654 0.985140 0.005774
vn -0.171489 0.985183 0.002603
vn -0.171489 0.985183 0.002603
vn -0.171489 0.985183 0.002603
vn -0.171489 0.985183 0.002603
vn 0.000000 1.000000 0.000000
vn 0.000000 1.000000 0.000000
vn 0.000000 1.000000 0.000000
vn 0.000000 1.000000 0.000000
vn 0.000000 1.000000 0.000000
vn 0.000000 1.000000 0.000000
vn 0.000000 1.000000 0.000000
vn 0.000000 1.000000 0.000000
vn 0.926749 0.174616 -0.332636
vn 0.926748 0.174623 -0.332634
vn 0.926749 0.174616 -0.332636
vn 0.926748 0.174623 -0.332634
vn 0.000000 1.000000 0.000000
vn 0.000000 1.000000 0.000000
vn 0.000000 1.000000 0.000000
vn 0.000000 1.000000 0.000000
vn 0.000000 1.000000 0.000000
vn 0.000000 1.000000 0.000000
vn 0.000000 1.000000 0.000000
vn 0.000000 1.000000 0.000000
vn 0.928288 0.185511 -0.322285
vn 0.928288 0.185511 -0.322285
vn 0.928288 0.185511 -0.322285
vn 0.928288 0.185511 -0.322285
vn 0.027700 0.999603 -0.005146
vn 0.000000 1.000000 0.000000
vn 0.016645 0.999857 -0.003092
vn 0.000000 1.000000 0.000000
vn 0.021678 0.041003 -0.998924
vn 0.021678 0.041003 -0.998924
vn 0.021678 0.041003 -0.998924
vn 0.021678 0.041003 -0.998924
vn 0.048961 0.998801 -0.000231
vn 0.048961 0.998801 -0.000231
vn 0.048961 0.998801 -0.000231
vn 0.000000 1.000000 0.000000
vn 0.000000 1.000000 0.000000
vn 0.000000 1.000000 0.000000
vn 0.000000 1.000000 0.000000
vn 0.000000 1.000000 0.000000
vn 0.000000 1.000000 0.000000
vn 0.000000 1.000000 0.000000
vn 0.000000 1.000000 0.000000
vn 0.000000 1.000000 0.000000
vn 0.000000 1.000000 0.000000
vn 0.000000 1.000000 0.000000
vn 0.000000 1.000000 0.000000
vn 0.000000 1.000000 0.000000
vn 0.000000 1.000000 0.000000
vn 0.000000 1.000000 0.000000
vn 0.000000 1.000000 0.000000
vn 0.000000 1.000000 0.000000
vn 0.000000 1.000000 0.000000
vn 0.000000 1.000000 0.000000
vn 0.000000 1.000000 0.000000
vn 0.000000 1.000000 0.000000
vn 0.000000 1.000000 0.000000
vn 0.000000 1.000000 0.000000
vn 0.000000 1.000000 0.000000
vn 0.000000 1.000000 0.000000
vn 0.000000 1.000000 0.000000
vn 0.000000 1.000000 0.000000
vn 0.000000 1.000000 0.000000
vn 0.000000 0.764670 0.644422
vn 0.000000 0.764670 0.644422
vn 0.000000 0.764670 0.644422
vn 0.000000 0.764670 0.644422
vn -0.662236 0.749296 0.000000
vn -0.662236 0.749296 0.000000
vn -0.662236 0.749296 0.000000
vn -0.662236 0.749296 0.000000
vn 0.000000 0.764671 0.644421
vn 0.000000 0.764671 0.644421
vn 0.000000 0.764671 0.644421
vn 0.000000 0.764671 0.644421
vn 0.000000 0.764670 0.644422
vn 0.000000 0.764671 0.644421
vn 0.000000 0.764671 0.644421
vn 0.000000 0.764671 0.644421
vn -0.662231 0.749300 0.000000
vn -0.662231 0.749300 0.000000
vn -0.662231 0.749300 0.000000
vn -0.662231 0.749300 0.000000
vn -0.662233 0.749298 0.000000
vn -0.662233 0.749298 0.000000
vn -0.662233 0.749298 0.000000
vn -0.662234 0.749297 0.000000
vn 0.000000 0.764670 -0.644422
vn 0.000000 0.764670 -0.644422
vn 0.000000 0.764670 -0.644422
vn 0.000000 0.764670 -0.644422
vn 0.000000 0.764671 -0.644421
vn 0.000000 0.764671 -0.644421
vn 0.000000 0.764671 -0.644421
vn 0.000000 0.764671 -0.644421
vn 0.000000 0.764671 -0.644421
vn 0.000000 0.764671 -0.644421
vn 0.000000 0.764671 -0.644421
vn 0.000000 0.764671 -0.644421
vn 0.026169 0.345735 -0.937967
vn 0.026169 0.345735 -0.937967
vn 0.026169 0.345735 -0.937967
vn 0.026169 0.345735 -0.937967
vn 0.000000 1.000000 0.000000
vn 0.000000 1.000000 0.000000
vn 0.000000 1.000000 0.000000
vn 0.000000 1.000000 0.000000
vn 0.000000 1.000000 0.000000
vn 0.000000 1.000000 0.000000
vn 0.000000 1.000000 0.000000
vn 0.000000 1.000000 0.000000
vn 0.000000 1.000000 0.000000
vn 0.000000 1.000000 0.000000
vn 0.000000 1.000000 0.000000
vn 0.000000 1.000000 0.000000
vn 0.019968 0.768424 0.639630
vn 0.019968 0.768424 0.639630
vn 0.019968 0.768424 0.639630
vn 0.019968 0.768424 0.639630
vn 0.000000 1.000000 0.000000
vn 0.000000 1.000000 0.000000
vn 0.000000 1.000000 0.000000
vn 0.000000 1.000000 0.000000
vn 1.000000 0.000000 0.000000
vn 1.000000 0.000000 0.000000
vn 1.000000 0.000000 0.000000
vn 1.000000 0.000000 0.000000
vn 1.000000 0.000000 0.000000
vn 1.000000 0.000000 0.000000
vn 1.000000 0.000000 0.000000
vn 1.000000 0.000000 0.000000
vn 1.000000 0.000000 0.000000
vn 1.000000 0.000000 0.000000
vn 1.000000 0.000000 0.000000
vn 1.000000 0.000000 0.000000
vn 0.000000 1.000000 0.000000
vn 0.000000 1.000000 0.000000
vn 0.000000 1.000000 0.000000
vn 0.000000 1.000000 0.000000
vn 0.000000 1.000000 0.000000
vn 0.000000 1.000000 0.000000
vn 0.000000 1.000000 0.000000
vn 0.000000 1.000000 0.000000
vn 0.000000 0.000000 -1.000000
vn 0.000000 0.000000 -1.000000
vn 0.000000 0.000000 -1.000000
vn 0.000000 0.000000 -1.000000
vn 0.000000 0.000000 -1.000000
vn 0.000000 0.000000 -1.000000
vn 0.000000 0.000000 -1.000000
vn 0.000000 0.000000 -1.000000
vn 0.000000 0.000000 -1.000000
vn 0.000000 0.000000 -1.000000
vn 0.000000 0.000000 -1.000000
vn 0.000000 0.000000 -1.000000
f 33/2/1 34/3/2 28/1/3
f 28/1/3 34/3/2 2/4/4
f 30/5/5 28/6/6 3/8/7
f 3/8/7 28/6/6 2/7/8
f 2/9/9 34/10/10 5/12/11
f 5/12/11 34/10/10 35/11/12
f 3/13/13 2/14/14 5/15/15
f 5/16/16 35/17/17 7/19/18
f 7/19/18 35/17/17 36/18/19
f 3/20/20 5/21/21 8/23/22
f 8/23/22 5/21/21 7/22/23
f 7/24/24 36/25/25 10/27/26
f 10/27/26 36/25/25 37/26/27
f 8/28/28 7/29/29 11/31/30
f 11/31/30 7/29/29 10/30/31
f 31/32/32 39/33/33 12/35/34
f 12/35/34 39/33/33 40/34/35
f 6/37/36 13/38/37 9/36/38
f 9/36/38 13/38/37 14/39/39
f 13/41/40 15/42/41 14/40/42
f 14/40/42 15/42/41 16/43/43
f 16/43/44 15/42/45 18/45/46
f 18/45/46 15/42/45 17/44/47
f 6/47/48 19/48/49 13/46/50
f 13/46/50 19/48/49 20/49/51
f 15/50/52 13/46/53 21/51/54
f 21/51/54 13/46/53 20/49/55
f 15/50/56 21/51/57 17/52/58
f 17/52/58 21/51/57 22/53/59
f 29/55/60 32/56/61 1/54/62
f 1/54/62 32/56/61 23/57/63
f 1/59/64 23/60/65 4/58/66
f 4/58/66 23/60/65 19/61/67
f 6/62/68 4/58/69 19/61/70
f 20/63/71 19/64/72 25/66/73
f 25/66/73 19/64/72 24/65/74
f 21/67/75 20/63/76 26/68/77
f 26/68/77 20/63/76 25/66/78
f 22/69/79 21/67/80 27/70/81
f 27/70/81 21/67/80 26/68/82
f 34/71/83 33/72/84 1/54/85
f 1/54/85 33/72/84 29/55/86
f 34/71/87 1/54/88 35/73/89
f 35/73/89 1/54/88 4/74/90
f 35/76/91 4/77/92 36/75/93
f 36/75/93 4/77/92 6/78/94
f 36/80/95 6/81/96 37/79/97
f 37/79/97 6/81/96 9/82/98
f 41/84/99 30/85/100 38/83/101
f 38/83/101 30/85/100 3/86/102
f 38/88/103 3/89/104 39/87/105
f 39/87/105 3/89/104 8/90/106
f 39/92/107 8/93/108 40/91/109
f 40/91/109 8/93/108 11/94/110
f 41/95/111 38/96/112 42/98/113
f 42/98/113 38/96/112 39/97/114
f 39/33/115 31/32/116 42/99/117
f 43/100/118 44/101/119 47/103/120
f 47/103/120 44/101/119 48/102/121
f 44/104/122 45/105/123 48/107/124
f 48/107/124 45/105/123 49/106/125
f 45/108/126 46/109/127 49/111/128
f 49/111/128 46/109/127 50/110/129
f 47/112/130 48/113/131 51/115/132
f 51/115/132 48/113/131 52/114/133
f 51/116/134 52/117/135 55/119/136
f 55/119/136 52/117/135 56/118/137
f 52/120/138 53/121/139 56/123/140
f 56/123/140 53/121/139 57/122/141
f 53/124/142 54/125/143 57/127/144
f 57/127/144 54/125/143 58/126/145
f 44/101/146 43/100/147 62/129/148
f 62/129/148 43/100/147 61/128/149
f 47/103/150 63/130/151 43/100/152
f 43/100/152 63/130/151 61/128/153
f 45/105/154 44/104/155 64/132/156
f 64/132/156 44/104/155 62/131/157
f 45/108/158 64/133/159 46/109/160
f 46/109/160 64/133/159 65/134/161
f 47/112/162 51/115/163 63/136/164
f 63/136/164 51/115/163 66/135/165
f 51/116/166 55/119/167 66/138/168
f 66/138/168 55/119/167 67/137/169
f 56/118/170 68/139/171 55/119/172
f 55/119/172 68/139/171 67/137/173
f 57/122/174 69/140/175 56/123/176
f 56/123/176 69/140/175 68/141/177
f 57/127/178 58/126/179 69/143/180
f 69/143/180 58/126/179 70/142/181
f 58/144/182 59/145/183 70/147/184
f 70/147/184 59/145/183 60/146/185
f 54/148/186 30/149/187 58/151/188
f 58/151/188 30/149/187 59/150/189
f 50/152/190 28/153/191 54/155/192
f 54/155/192 28/153/191 30/154/193
f 46/156/194 29/157/195 50/159/196
f 50/159/196 29/157/195 28/158/197
f 32/160/198 29/157/199 65/161/200
f 65/161/200 29/157/199 46/156/201
f 71/162/202 72/163/203 41/165/204
f 41/165/204 72/163/203 59/164/205
f 72/166/206 71/167/207 74/169/208
f 74/169/208 71/167/207 73/168/209
f 76/170/210 75/171/211 80/173/212
f 80/173/212 75/171/211 77/172/213
f 79/174/214 78/175/215 82/177/216
f 82/177/216 78/175/215 81/176/217
f 74/178/218 73/179/219 76/181/220
f 76/181/220 73/179/219 75/180/221
f 80/182/222 77/183/223 79/185/224
f 79/185/224 77/183/223 78/184/225
f 59/186/226 72/187/227 84/189/228
f 84/189/228 72/187/227 83/188/229
f 74/190/230 76/191/231 83/188/232
f 83/188/232 76/191/231 85/192/233
f 80/193/234 79/194/235 85/192/236
f 85/192/236 79/194/235 82/195/237
