# This file uses centimeters as units for non-parametric coordinates.

v 17.466621 0.520804 16.379204
v 17.466614 0.520804 5.421600
v 17.466614 0.520804 -5.535980
v 17.466614 0.520804 -16.493576
v 5.944595 0.520804 16.379204
v 5.944595 0.520804 5.421616
v 5.944595 0.520804 -5.535980
v 5.944595 0.520804 -16.493568
v -5.577423 0.520804 16.379204
v -5.577423 0.520804 5.421608
v -5.577423 0.520804 -5.535988
v -5.577423 0.520804 -16.493568
v -17.099457 0.520804 16.379196
v -17.099442 0.520804 5.421616
v -17.099449 0.520804 -5.535995
v -17.099442 0.520804 -16.493568
v -27.832031 0.520804 16.252411
v -27.832024 0.520804 5.294815
v -27.832024 0.520804 -5.662781
v -27.832024 0.520804 -16.620377
v 28.398262 0.000000 -5.675468
v 28.058861 0.000000 -16.471199
v 18.018456 -0.000023 17.254700
v 18.018463 -0.000023 5.795761
v 6.181534 -0.000023 17.254700
v 18.045273 -0.000023 -4.895409
v 18.018463 -0.000023 -17.122101
v 6.181534 -0.000023 -17.122093
v -5.655380 -0.000023 17.254707
v -5.655388 -0.000023 -17.122093
v -17.492317 -0.000023 17.254700
v -17.492310 -0.000023 -17.122093
v -28.518227 -0.000023 17.122108
v -28.518211 -0.000023 -17.254707
v -28.518211 -0.000023 5.663170
v -28.518211 -0.000023 -5.795769
v 28.518227 -0.520827 -5.077843
v 28.235992 -0.520827 -17.042191
vt 0.000000 0.000000
vt 0.333333 0.000000
vt 0.333333 0.250000
vt 0.000000 0.250000
vt 0.666667 0.000000
vt 0.666667 0.250000
vt 1.000000 0.000000
vt 1.000000 0.250000
vt 0.333333 0.500000
vt 0.000000 0.500000
vt 0.666667 0.500000
vt 1.000000 0.500000
vt 0.333333 0.750000
vt 0.000000 0.750000
vt 0.666667 0.750000
vt 1.000000 0.750000
vt 0.333333 1.000000
vt 0.000000 1.000000
vt 0.666667 1.000000
vt 1.000000 1.000000
vt 0.000000 0.000000
vt 1.000000 0.000000
vt 1.000000 1.000000
vt 0.000000 1.000000
vt 0.000000 0.000000
vt 1.000000 0.000000
vt 1.000000 1.000000
vt 0.000000 1.000000
vt 0.000000 0.000000
vt 1.000000 0.000000
vt 1.000000 1.000000
vt 0.000000 1.000000
vt 0.000000 0.000000
vt 1.000000 0.000000
vt 1.000000 1.000000
vt 0.000000 1.000000
vt 0.000000 0.000000
vt 1.000000 0.000000
vt 1.000000 1.000000
vt 0.000000 1.000000
vt 0.000000 0.000000
vt 1.000000 0.000000
vt 1.000000 1.000000
vt 0.000000 1.000000
vt 0.000000 0.000000
vt 1.000000 0.000000
vt 1.000000 1.000000
vt 0.000000 1.000000
vt 0.000000 0.000000
vt 1.000000 0.000000
vt 1.000000 1.000000
vt 0.000000 1.000000
vt 0.000000 0.000000
vt 1.000000 0.000000
vt 1.000000 1.000000
vt 0.000000 1.000000
vt 0.000000 0.000000
vt 1.000000 0.000000
vt 1.000000 1.000000
vt 0.000000 1.000000
vt 0.000000 0.000000
vt 1.000000 0.000000
vt 1.000000 1.000000
vt 0.000000 1.000000
vt 0.000000 0.000000
vt 1.000000 0.000000
vt 1.000000 1.000000
vt 0.000000 1.000000
vt 0.000000 0.000000
vt 1.000000 0.000000
vt 1.000000 1.000000
vt 0.000000 1.000000
vt 0.000000 0.000000
vt 1.000000 0.000000
vt 1.000000 1.000000
vt 0.000000 1.000000
vt 0.000000 0.000000
vt 1.000000 0.000000
vt 1.000000 1.000000
vt 0.000000 1.000000
vt 0.000000 0.000000
vt 1.000000 0.000000
vt 1.000000 1.000000
vt 0.000000 1.000000
vn 0.000000 1.000000 0.000000
vn 0.000000 1.000000 0.000000
vn 0.000000 1.000000 0.000000
vn 0.000000 1.000000 0.000000
vn 0.000000 1.000000 0.000000
vn 0.000000 1.000000 0.000000
vn 0.000000 1.000000 0.000000
vn 0.000000 1.000000 0.000000
vn 0.000000 1.000000 0.000000
vn 0.000000 1.000000 0.000000
vn 0.000000 1.000000 0.000000
vn 0.000000 1.000000 0.000000
vn 0.000000 1.000000 0.000000
vn 0.000000 1.000000 0.000000
vn 0.000000 1.000000 0.000000
vn 0.000000 1.000000 0.000000
vn 0.000000 1.000000 0.000000
vn 0.000000 1.000000 0.000000
vn 0.000000 1.000000 0.000000
vn 0.000000 1.000000 0.000000
vn 0.000000 1.000000 0.000000
vn 0.000000 1.000000 0.000000
vn 0.000000 1.000000 0.000000
vn 0.000000 1.000000 0.000000
vn 0.000000 1.000000 0.000000
vn 0.000000 1.000000 0.000000
vn 0.000000 1.000000 0.000000
vn 0.000000 1.000000 0.000000
vn 0.000000 1.000000 0.000000
vn 0.000000 1.000000 0.000000
vn 0.000000 1.000000 0.000000
vn 0.000000 1.000000 0.000000
vn 0.000000 1.000000 0.000000
vn 0.000000 1.000000 0.000000
vn 0.000000 1.000000 0.000000
vn 0.000000 1.000000 0.000000
vn 0.000000 1.000000 0.000000
vn 0.000000 1.000000 0.000000
vn 0.000000 1.000000 0.000000
vn 0.000000 1.000000 0.000000
vn 0.000000 1.000000 0.000000
vn 0.000000 1.000000 0.000000
vn 0.000000 1.000000 0.000000
vn 0.000000 1.000000 0.000000
vn 0.000000 1.000000 0.000000
vn 0.000000 1.000000 0.000000
vn 0.000000 1.000000 0.000000
vn 0.000000 1.000000 0.000000
vn 0.048332 0.998831 -0.000754
vn 0.048332 0.998831 -0.000754
vn 0.048332 0.998831 -0.000754
vn 0.048332 0.998831 -0.000754
vn 0.686371 0.727251 0.000000
vn 0.686371 0.727251 0.000000
vn 0.686371 0.727251 0.000000
vn 0.686371 0.727251 0.000000
vn 0.000000 0.859425 0.511262
vn 0.000000 0.859425 0.511262
vn 0.000000 0.859425 0.511262
vn 0.000000 0.859425 0.511262
vn 0.677208 0.735791 0.000839
vn 0.677208 0.735791 0.000839
vn 0.677208 0.735791 0.000839
vn 0.677208 0.735791 0.000839
vn 0.000000 0.769993 -0.638052
vn 0.000000 0.769993 -0.638052
vn 0.000000 0.769993 -0.638052
vn 0.000000 0.769993 -0.638052
vn 0.000000 0.859425 0.511262
vn 0.000000 0.859425 0.511262
vn 0.000000 0.859425 0.511262
vn 0.000000 0.859425 0.511262
vn 0.000000 0.769992 -0.638054
vn 0.000000 0.769992 -0.638054
vn 0.000000 0.769992 -0.638054
vn 0.000000 0.769992 -0.638054
vn 0.000000 0.859425 0.511262
vn 0.000000 0.859425 0.511262
vn 0.000000 0.859425 0.511262
vn 0.000000 0.859425 0.511262
vn 0.000000 0.769992 -0.638054
vn 0.000000 0.769992 -0.638054
vn 0.000000 0.769992 -0.638054
vn 0.000000 0.769991 -0.638054
vn -0.006076 0.860311 0.509734
vn -0.006077 0.860311 0.509733
vn -0.006076 0.860311 0.509734
vn -0.006077 0.860311 0.509733
vn 0.007632 0.768199 -0.640166
vn 0.007632 0.768199 -0.640166
vn 0.007632 0.768199 -0.640166
vn 0.007632 0.768199 -0.640166
vn -0.604584 0.796542 0.000000
vn -0.604584 0.796541 0.000000
vn -0.604584 0.796542 0.000000
vn -0.604584 0.796542 0.000000
vn -0.604583 0.796542 0.000000
vn -0.604583 0.796542 0.000000
vn -0.604583 0.796542 0.000000
vn -0.604583 0.796542 0.000000
vn -0.604583 0.796542 0.000000
vn -0.604583 0.796542 0.000000
vn -0.604583 0.796542 0.000000
vn -0.604583 0.796542 0.000000
vn 0.047262 0.777354 0.627285
vn 0.047262 0.777354 0.627285
vn 0.047262 0.777354 0.627285
vn 0.047262 0.777354 0.627285
vn 0.041528 0.766750 -0.640601
vn 0.041528 0.766750 -0.640601
vn 0.041528 0.766750 -0.640601
vn 0.041528 0.766750 -0.640601
f 1/1/1 2/2/2 5/4/3
f 5/4/3 2/2/2 6/3/4
f 2/2/5 3/5/6 6/3/7
f 6/3/7 3/5/6 7/6/8
f 3/5/9 4/7/10 7/6/11
f 7/6/11 4/7/10 8/8/12
f 5/4/13 6/3/14 9/10/15
f 9/10/15 6/3/14 10/9/16
f 6/3/17 7/6/18 10/9/19
f 10/9/19 7/6/18 11/11/20
f 7/6/21 8/8/22 11/11/23
f 11/11/23 8/8/22 12/12/24
f 9/10/25 10/9/26 13/14/27
f 13/14/27 10/9/26 14/13/28
f 10/9/29 11/11/30 14/13/31
f 14/13/31 11/11/30 15/15/32
f 11/11/33 12/12/34 15/15/35
f 15/15/35 12/12/34 16/16/36
f 13/14/37 14/13/38 17/18/39
f 17/18/39 14/13/38 18/17/40
f 14/13/41 15/15/42 18/17/43
f 18/17/43 15/15/42 19/19/44
f 15/15/45 16/16/46 19/19/47
f 19/19/47 16/16/46 20/20/48
f 4/21/49 3/22/50 22/24/51
f 22/24/51 3/22/50 21/23/52
f 2/25/53 1/26/54 24/28/55
f 24/28/55 1/26/54 23/27/56
f 5/30/57 25/31/58 1/29/59
f 1/29/59 25/31/58 23/32/60
f 3/33/61 2/34/62 26/36/63
f 26/36/63 2/34/62 24/35/64
f 8/37/65 4/38/66 28/40/67
f 28/40/67 4/38/66 27/39/68
f 9/42/69 29/43/70 5/41/71
f 5/41/71 29/43/70 25/44/72
f 12/45/73 8/46/74 30/48/75
f 30/48/75 8/46/74 28/47/76
f 9/49/77 13/50/78 29/52/79
f 29/52/79 13/50/78 31/51/80
f 12/54/81 30/55/82 16/53/83
f 16/53/83 30/55/82 32/56/84
f 13/57/85 17/58/86 31/60/87
f 31/60/87 17/58/86 33/59/88
f 16/62/89 32/63/90 20/61/91
f 20/61/91 32/63/90 34/64/92
f 18/66/93 35/67/94 17/65/95
f 17/65/95 35/67/94 33/68/96
f 19/70/97 36/71/98 18/69/99
f 18/69/99 36/71/98 35/72/100
f 19/73/101 20/74/102 36/76/103
f 36/76/103 20/74/102 34/75/104
f 3/78/105 26/79/106 21/77/107
f 21/77/107 26/79/106 37/80/108
f 4/81/109 22/82/110 27/84/111
f 27/84/111 22/82/110 38/83/112
