# This file uses centimeters as units for non-parametric coordinates.

v -1.020233 2.243393 -0.000000
v 1.020233 2.243393 -0.000000
v -0.765906 -0.103183 -0.000000
v 0.765906 -0.103183 -0.000000
v -0.510116 2.243393 0.883547
v 0.510116 2.243393 -0.883547
v -0.382953 -0.103183 0.663294
v 0.382953 -0.103183 -0.663294
v -0.510116 2.243393 -0.883547
v 0.510116 2.243393 0.883547
v -0.382953 -0.103183 -0.663294
v 0.382953 -0.103183 0.663294
vt 0.179053 0.006262
vt 0.820947 0.006262
vt 0.072515 0.955175
vt 0.927485 0.955175
vt 0.927485 0.955175
vt 0.820947 0.006262
vt 0.179053 0.006262
vt 0.072515 0.955175
vt 0.927485 0.955175
vt 0.820947 0.006262
vt 0.179053 0.006262
vt 0.072515 0.955175
vn 0.000000 0.000000 -1.000000
vn 0.000000 0.000000 -1.000000
vn 0.000000 0.000000 -1.000000
vn 0.000000 0.000000 -1.000000
vn -0.866025 0.000000 -0.500000
vn -0.866025 -0.000000 -0.500000
vn -0.866025 0.000000 -0.500000
vn -0.866025 -0.000000 -0.500000
vn 0.866025 -0.000000 -0.500000
vn 0.866025 0.000000 -0.500000
vn 0.866025 -0.000000 -0.500000
vn 0.866025 0.000000 -0.500000
f 2/4/1 4/2/2 1/3/3
f 1/3/3 4/2/2 3/1/4
f 6/5/5 8/6/6 5/8/7
f 5/8/7 8/6/6 7/7/8
f 10/9/9 12/10/10 9/12/11
f 9/12/11 12/10/10 11/11/12
