# This file uses centimeters as units for non-parametric coordinates.

v 0.279792 0.500000 -0.381115
v -0.132608 0.500000 -0.475242
v -0.463327 0.500000 -0.211503
v -0.463327 0.500000 0.211503
v -0.132608 0.500000 0.475242
v 0.279792 0.500000 0.381115
v 0.463327 0.500000 0.000000
v 0.219595 0.700485 -0.305630
v -0.111124 0.700485 -0.381115
v -0.376340 0.700485 -0.169612
v -0.376340 0.700485 0.169612
v -0.111124 0.700485 0.381115
v 0.219595 0.700485 0.305630
v 0.366779 0.700485 0.000000
v 0.111124 0.839224 -0.169612
v -0.072411 0.839224 -0.211503
v -0.219595 0.839224 -0.094128
v -0.219595 0.839224 0.094128
v -0.072411 0.839224 0.211503
v 0.111124 0.839224 0.169612
v 0.192805 0.839224 0.000000
v -0.024137 0.888740 0.000000
v 0.279792 -0.500000 -0.381115
v -0.132608 -0.500000 -0.475242
v -0.463327 -0.500000 -0.211503
v -0.463327 -0.500000 0.211503
v -0.132608 -0.500000 0.475242
v 0.279792 -0.500000 0.381115
v 0.463327 -0.500000 0.000000
v 0.111124 -0.839224 -0.169612
v -0.072411 -0.839224 -0.211503
v -0.219595 -0.839224 -0.094128
v -0.219595 -0.839224 0.094128
v -0.072411 -0.839224 0.211503
v 0.111124 -0.839224 0.169612
v 0.192805 -0.839224 0.000000
v 0.219595 -0.700485 -0.305630
v -0.111124 -0.700485 -0.381115
v -0.376340 -0.700485 -0.169612
v -0.376340 -0.700485 0.169612
v -0.111124 -0.700485 0.381115
v 0.219595 -0.700485 0.305630
v 0.366779 -0.700485 0.000000
v -0.024137 -0.888740 0.000000
vt 0.000000 0.571429
vt 0.142857 0.571429
vt 0.000000 0.714286
vt 0.142857 0.714286
vt 0.285714 0.571429
vt 0.285714 0.714286
vt 0.428571 0.571429
vt 0.428571 0.714286
vt 0.571429 0.571429
vt 0.571429 0.714286
vt 0.714286 0.571429
vt 0.714286 0.714286
vt 0.857143 0.571429
vt 0.857143 0.714286
vt 1.000000 0.571429
vt 1.000000 0.714286
vt 0.000000 0.857143
vt 0.142857 0.857143
vt 0.285714 0.857143
vt 0.428571 0.857143
vt 0.571429 0.857143
vt 0.714286 0.857143
vt 0.857143 0.857143
vt 1.000000 0.857143
vt 0.071429 1.000000
vt 0.214286 1.000000
vt 0.357143 1.000000
vt 0.500000 1.000000
vt 0.642857 1.000000
vt 0.785714 1.000000
vt 0.928571 1.000000
vt 0.375000 0.312500
vt 0.410714 0.312500
vt 0.375000 0.688440
vt 0.410714 0.688440
vt 0.446429 0.312500
vt 0.446429 0.688440
vt 0.482143 0.312500
vt 0.482143 0.688440
vt 0.517857 0.312500
vt 0.517857 0.688440
vt 0.553571 0.312500
vt 0.553571 0.688440
vt 0.589286 0.312500
vt 0.589286 0.688440
vt 0.625000 0.312500
vt 0.625000 0.688440
vt 0.000000 0.142857
vt 0.142857 0.142857
vt 0.000000 0.285714
vt 0.142857 0.285714
vt 0.285714 0.142857
vt 0.285714 0.285714
vt 0.428571 0.142857
vt 0.428571 0.285714
vt 0.571429 0.142857
vt 0.571429 0.285714
vt 0.714286 0.142857
vt 0.714286 0.285714
vt 0.857143 0.142857
vt 0.857143 0.285714
vt 1.000000 0.142857
vt 1.000000 0.285714
vt 0.000000 0.428571
vt 0.142857 0.428571
vt 0.285714 0.428571
vt 0.428571 0.428571
vt 0.571429 0.428571
vt 0.714286 0.428571
vt 0.857143 0.428571
vt 1.000000 0.428571
vt 0.071429 0.000000
vt 0.214286 0.000000
vt 0.357143 0.000000
vt 0.500000 0.000000
vt 0.642857 0.000000
vt 0.785714 0.000000
vt 0.928571 0.000000
vn 0.618525 0.068200 -0.782800
vn -0.226373 0.068200 -0.971650
vn 0.482637 0.574001 -0.661502
vn -0.216263 0.574001 -0.789781
vn -0.900808 0.068200 -0.428828
vn -0.752313 0.574001 -0.323339
vn -0.896916 0.068200 0.436910
vn -0.721856 0.574001 0.386584
vn -0.217628 0.068200 0.973646
vn -0.147827 0.574001 0.805401
vn 0.625538 0.068200 0.777207
vn 0.537519 0.574001 0.617735
vn 0.997662 0.068200 -0.004485
vn 0.818102 0.574001 -0.035098
vn 0.281732 0.861470 -0.422488
vn -0.154657 0.861470 -0.483684
vn -0.474587 0.861470 -0.180656
vn -0.437143 0.861470 0.258410
vn -0.070521 0.861470 0.502888
vn 0.349204 0.861470 0.368681
vn 0.505972 0.861470 -0.043150
vn -0.000000 1.000000 -0.000000
vn 0.625538 -0.068200 -0.777207
vn -0.217628 -0.068200 -0.973646
vn -0.896916 -0.068200 -0.436910
vn -0.900808 -0.068200 0.428828
vn -0.226373 -0.068200 0.971650
vn 0.618525 -0.068200 0.782800
vn 0.997662 -0.068200 0.004485
vn 0.349204 -0.861470 -0.368681
vn -0.070521 -0.861470 -0.502887
vn 0.537519 -0.574001 -0.617735
vn -0.147826 -0.574001 -0.805401
vn -0.437142 -0.861470 -0.258410
vn -0.721856 -0.574001 -0.386584
vn -0.474587 -0.861470 0.180656
vn -0.752313 -0.574001 0.323339
vn -0.154658 -0.861470 0.483684
vn -0.216263 -0.574001 0.789780
vn 0.281732 -0.861470 0.422488
vn 0.482637 -0.574001 0.661502
vn 0.505972 -0.861470 0.043150
vn 0.818102 -0.574001 0.035098
vn -0.000000 -1.000000 0.000000
f 1/1/1 2/2/2 8/3/3
f 8/3/3 2/2/2 9/4/4
f 2/2/2 3/5/5 9/4/4
f 9/4/4 3/5/5 10/6/6
f 3/5/5 4/7/7 10/6/6
f 10/6/6 4/7/7 11/8/8
f 4/7/7 5/9/9 11/8/8
f 11/8/8 5/9/9 12/10/10
f 5/9/9 6/11/11 12/10/10
f 12/10/10 6/11/11 13/12/12
f 6/11/11 7/13/13 13/12/12
f 13/12/12 7/13/13 14/14/14
f 7/13/13 1/15/1 14/14/14
f 14/14/14 1/15/1 8/16/3
f 8/3/3 9/4/4 15/17/15
f 15/17/15 9/4/4 16/18/16
f 9/4/4 10/6/6 16/18/16
f 16/18/16 10/6/6 17/19/17
f 10/6/6 11/8/8 17/19/17
f 17/19/17 11/8/8 18/20/18
f 11/8/8 12/10/10 18/20/18
f 18/20/18 12/10/10 19/21/19
f 12/10/10 13/12/12 19/21/19
f 19/21/19 13/12/12 20/22/20
f 13/12/12 14/14/14 20/22/20
f 20/22/20 14/14/14 21/23/21
f 14/14/14 8/16/3 21/23/21
f 21/23/21 8/16/3 15/24/15
f 15/17/15 16/18/16 22/25/22
f 16/18/16 17/19/17 22/26/22
f 17/19/17 18/20/18 22/27/22
f 18/20/18 19/21/19 22/28/22
f 19/21/19 20/22/20 22/29/22
f 20/22/20 21/23/21 22/30/22
f 21/23/21 15/24/15 22/31/22
f 23/32/23 24/33/24 1/34/1
f 1/34/1 24/33/24 2/35/2
f 24/33/24 25/36/25 2/35/2
f 2/35/2 25/36/25 3/37/5
f 25/36/25 26/38/26 3/37/5
f 3/37/5 26/38/26 4/39/7
f 26/38/26 27/40/27 4/39/7
f 4/39/7 27/40/27 5/41/9
f 27/40/27 28/42/28 5/41/9
f 5/41/9 28/42/28 6/43/11
f 28/42/28 29/44/29 6/43/11
f 6/43/11 29/44/29 7/45/13
f 29/44/29 23/46/23 7/45/13
f 7/45/13 23/46/23 1/47/1
f 30/48/30 31/49/31 37/50/32
f 37/50/32 31/49/31 38/51/33
f 31/49/31 32/52/34 38/51/33
f 38/51/33 32/52/34 39/53/35
f 32/52/34 33/54/36 39/53/35
f 39/53/35 33/54/36 40/55/37
f 33/54/36 34/56/38 40/55/37
f 40/55/37 34/56/38 41/57/39
f 34/56/38 35/58/40 41/57/39
f 41/57/39 35/58/40 42/59/41
f 35/58/40 36/60/42 42/59/41
f 42/59/41 36/60/42 43/61/43
f 36/60/42 30/62/30 43/61/43
f 43/61/43 30/62/30 37/63/32
f 37/50/32 38/51/33 23/64/23
f 23/64/23 38/51/33 24/65/24
f 38/51/33 39/53/35 24/65/24
f 24/65/24 39/53/35 25/66/25
f 39/53/35 40/55/37 25/66/25
f 25/66/25 40/55/37 26/67/26
f 40/55/37 41/57/39 26/67/26
f 26/67/26 41/57/39 27/68/27
f 41/57/39 42/59/41 27/68/27
f 27/68/27 42/59/41 28/69/28
f 42/59/41 43/61/43 28/69/28
f 28/69/28 43/61/43 29/70/29
f 43/61/43 37/63/32 29/70/29
f 29/70/29 37/63/32 23/71/23
f 31/49/31 30/48/30 44/72/44
f 32/52/34 31/49/31 44/73/44
f 33/54/36 32/52/34 44/74/44
f 34/56/38 33/54/36 44/75/44
f 35/58/40 34/56/38 44/76/44
f 36/60/42 35/58/40 44/77/44
f 30/62/30 36/60/42 44/78/44
