# This file uses centimeters as units for non-parametric coordinates.

v 0.139829 0.116538 -0.018935
v 0.031702 0.178408 -0.018935
v -0.091263 0.156796 -0.018935
v -0.171425 0.061977 -0.018935
v -0.171425 -0.061977 -0.018935
v -0.091263 -0.156796 -0.018935
v 0.031702 -0.178408 -0.018935
v 0.139829 -0.116538 -0.018935
v 0.182526 0.000000 -0.018935
v 0.139829 0.116538 0.018935
v 0.031702 0.178408 0.018935
v -0.091263 0.156796 0.018935
v -0.171425 0.061977 0.018935
v -0.171425 -0.061977 0.018935
v -0.091263 -0.156796 0.018935
v 0.031702 -0.178408 0.018935
v 0.139829 -0.116538 0.018935
v 0.182526 -0.000000 0.018935
v 0.000000 0.000000 -0.018935
v 0.000000 -0.000000 0.018935
v 0.145163 0.121167 -0.001637
v 0.032741 0.185495 -0.001637
v -0.095108 0.163024 -0.001637
v -0.178455 0.064439 -0.001637
v -0.178455 -0.064439 -0.001637
v -0.095108 -0.163024 -0.001637
v 0.032741 -0.185495 -0.001637
v 0.145163 -0.121167 -0.001637
v 0.189555 -0.000000 -0.001637
vt 0.171771 0.840871
vt 0.430354 0.990163
vt 0.724404 0.938315
vt 0.916331 0.709584
vt 0.916331 0.410998
vt 0.724404 0.182268
vt 0.430354 0.130419
vt 0.171771 0.279712
vt 0.069648 0.560291
vt 0.147889 0.012478
vt 0.225489 0.012478
vt 0.303090 0.012478
vt 0.380691 0.012478
vt 0.458291 0.012478
vt 0.535892 0.012478
vt 0.613493 0.012478
vt 0.691093 0.012478
vt 0.768694 0.012478
vt 0.846295 0.012478
vt 0.147889 0.075964
vt 0.225489 0.075964
vt 0.303090 0.075964
vt 0.380691 0.075964
vt 0.458291 0.075964
vt 0.535892 0.075964
vt 0.613493 0.075964
vt 0.691093 0.075964
vt 0.768694 0.075964
vt 0.846295 0.075964
vt 0.831473 0.279712
vt 0.572889 0.130419
vt 0.278840 0.182268
vt 0.086912 0.410998
vt 0.086912 0.709584
vt 0.278840 0.938315
vt 0.572889 0.990163
vt 0.831473 0.840870
vt 0.933595 0.560291
vt 0.506152 0.577751
vt 0.497091 0.542831
vt 0.846295 0.050833
vt 0.147889 0.050833
vt 0.225489 0.050833
vt 0.303090 0.050833
vt 0.380691 0.050833
vt 0.458291 0.050833
vt 0.535892 0.050833
vt 0.613493 0.050833
vt 0.691093 0.050833
vt 0.768694 0.050833
vn 0.496642 0.867952 0.002421
vn 0.472453 0.825680 0.308286
vn 0.496642 0.867953 0.002246
vn 0.472454 0.825680 0.308285
vn -0.173105 0.984900 0.002543
vn -0.164360 0.935142 0.313838
vn -0.173105 0.984901 0.002197
vn -0.164360 0.935142 0.313838
vn -0.763660 0.645613 0.002530
vn -0.723408 0.611584 0.320384
vn -0.763661 0.645614 0.002254
vn -0.723408 0.611584 0.320385
vn -0.999961 0.000000 0.008811
vn -0.999992 0.000000 -0.004026
vn -0.946278 0.000000 0.323355
vn -0.946278 0.000000 0.323355
vn -0.763660 -0.645613 0.002530
vn -0.763661 -0.645614 0.002254
vn -0.723408 -0.611584 0.320385
vn -0.723408 -0.611584 0.320385
vn -0.173105 -0.984900 0.002543
vn -0.173105 -0.984901 0.002197
vn -0.164360 -0.935142 0.313839
vn -0.164360 -0.935142 0.313839
vn 0.496642 -0.867952 0.002421
vn 0.496642 -0.867953 0.002246
vn 0.472453 -0.825680 0.308287
vn 0.472454 -0.825680 0.308285
vn 0.938963 -0.344011 0.002303
vn 0.938963 -0.344011 0.002316
vn 0.894071 -0.327563 0.305515
vn 0.894071 -0.327563 0.305516
vn 0.938963 0.344011 0.002303
vn 0.894071 0.327563 0.305515
vn 0.938963 0.344011 0.002316
vn 0.894071 0.327563 0.305516
vn 0.000000 0.000000 -1.000000
vn 0.000000 0.000000 -1.000000
vn -0.000000 0.000000 -1.000000
vn -0.000000 0.000000 -1.000000
vn 0.000000 0.000000 -1.000000
vn 0.000000 0.000000 -1.000000
vn -0.000000 0.000000 -1.000000
vn -0.000000 0.000000 -1.000000
vn 0.000000 0.000000 -1.000000
vn 0.000000 0.000000 -1.000000
vn 0.000000 0.000000 1.000000
vn -0.000000 0.000000 1.000000
vn -0.000000 0.000000 1.000000
vn -0.000000 0.000000 1.000000
vn 0.000000 0.000000 1.000000
vn 0.000000 0.000000 1.000000
vn -0.000000 0.000000 1.000000
vn 0.000000 0.000000 1.000000
vn 0.000000 0.000000 1.000000
vn 0.000000 0.000000 1.000000
vn 0.463414 0.809883 -0.359635
vn 0.463414 0.809882 -0.359636
vn -0.161104 0.916619 -0.365861
vn -0.161104 0.916619 -0.365861
vn -0.708494 0.598975 -0.373184
vn -0.708494 0.598975 -0.373184
vn -0.926416 0.000000 -0.376501
vn -0.926416 0.000000 -0.376501
vn -0.708493 -0.598974 -0.373184
vn -0.708494 -0.598975 -0.373184
vn -0.161104 -0.916619 -0.365862
vn -0.161104 -0.916619 -0.365862
vn 0.463414 -0.809883 -0.359635
vn 0.463414 -0.809882 -0.359637
vn 0.877262 -0.321405 -0.356525
vn 0.877262 -0.321405 -0.356524
vn 0.877262 0.321405 -0.356525
vn 0.877262 0.321405 -0.356524
f 22/43/1 11/21/2 21/42/3
f 21/42/3 11/21/2 10/20/4
f 23/44/5 12/22/6 22/43/7
f 22/43/7 12/22/6 11/21/8
f 24/45/9 13/23/10 23/44/11
f 23/44/11 13/23/10 12/22/12
f 24/45/13 25/46/14 13/23/15
f 13/23/15 25/46/14 14/24/16
f 25/46/17 26/47/18 14/24/19
f 14/24/19 26/47/18 15/25/20
f 26/47/21 27/48/22 15/25/23
f 15/25/23 27/48/22 16/26/24
f 27/48/25 28/49/26 16/26/27
f 16/26/27 28/49/26 17/27/28
f 28/49/29 29/50/30 17/27/31
f 17/27/31 29/50/30 18/28/32
f 21/41/33 10/29/34 29/50/35
f 29/50/35 10/29/34 18/28/36
f 2/2/37 1/1/38 19/39/39
f 3/3/40 2/2/37 19/39/39
f 4/4/41 3/3/40 19/39/39
f 5/5/42 4/4/41 19/39/39
f 6/6/43 5/5/42 19/39/39
f 7/7/44 6/6/43 19/39/39
f 8/8/45 7/7/44 19/39/39
f 9/9/46 8/8/45 19/39/39
f 1/1/38 9/9/46 19/39/39
f 10/37/47 11/36/48 20/40/49
f 11/36/48 12/35/50 20/40/49
f 12/35/50 13/34/51 20/40/49
f 13/34/51 14/33/52 20/40/49
f 14/33/52 15/32/53 20/40/49
f 15/32/53 16/31/54 20/40/49
f 16/31/54 17/30/55 20/40/49
f 17/30/55 18/38/56 20/40/49
f 18/38/56 10/37/47 20/40/49
f 1/10/57 2/11/58 21/42/3
f 21/42/3 2/11/58 22/43/1
f 2/11/59 3/12/60 22/43/7
f 22/43/7 3/12/60 23/44/5
f 3/12/61 4/13/62 23/44/11
f 23/44/11 4/13/62 24/45/9
f 4/13/63 5/14/64 24/45/13
f 24/45/13 5/14/64 25/46/14
f 6/15/65 26/47/18 5/14/66
f 5/14/66 26/47/18 25/46/17
f 7/16/67 27/48/22 6/15/68
f 6/15/68 27/48/22 26/47/21
f 8/17/69 28/49/26 7/16/70
f 7/16/70 28/49/26 27/48/25
f 9/18/71 29/50/30 8/17/72
f 8/17/72 29/50/30 28/49/29
f 9/18/73 1/19/74 29/50/35
f 29/50/35 1/19/74 21/41/33
