# This file uses centimeters as units for non-parametric coordinates.

v -3.340080 0.603968 -1.720349
v -3.371864 0.603968 1.644024
v -3.340080 3.466788 -1.720349
v -3.371864 3.466788 1.644024
v 3.371872 3.466788 -1.644024
v 3.340080 3.466788 1.720350
v 3.371872 0.603968 -1.644024
v 3.340080 0.603968 1.720350
v 0.015892 0.603968 -1.682186
v 0.015892 3.466788 -1.682186
v -0.015892 3.466788 1.682187
v -0.015892 0.603968 1.682187
v -3.355972 0.603968 -0.038163
v -3.355972 3.466788 -0.038163
v 0.000008 3.466788 -0.000001
v 3.355972 3.466788 0.038161
v 3.355972 0.603968 0.038161
v -3.340080 0.000000 -1.720349
v -3.355972 0.000000 -0.038163
v 3.371872 0.000000 -1.644024
v 3.355972 0.000000 0.038161
v 0.015892 0.000000 -1.682186
v 3.340080 0.000000 1.720350
v -0.015892 0.000000 1.682187
v -3.371864 0.000000 1.644024
vt 0.079486 0.004544
vt 0.079486 0.530527
vt 0.504146 0.004544
vt 0.504146 0.530527
vt 0.049781 0.984228
vt 0.054062 0.571125
vt 0.316845 0.986996
vt 0.321127 0.573893
vt 0.873214 0.994933
vt 0.873214 0.543343
vt 0.508617 0.994933
vt 0.508617 0.543343
vt 0.411568 0.993784
vt 0.975540 0.993784
vt 0.411568 0.542195
vt 0.975540 0.542195
vt 0.983099 0.542195
vt 0.983099 0.993784
vt 0.419127 0.542195
vt 0.419127 0.993784
vt 0.980345 0.993784
vt 0.416373 0.993784
vt 0.980345 0.542195
vt 0.416373 0.542195
vt 0.048321 0.577191
vt 0.052602 0.990295
vt 0.315385 0.574423
vt 0.319666 0.987526
vt 0.408814 0.542195
vt 0.408814 0.993784
vt 0.972786 0.542195
vt 0.972786 0.993784
vt 0.504146 0.530527
vt 0.928806 0.530527
vt 0.504146 0.004544
vt 0.928806 0.004544
vt 0.320880 0.984759
vt 0.316598 0.571655
vt 0.053816 0.987527
vt 0.049534 0.574423
vt 0.322340 0.576661
vt 0.318059 0.989764
vt 0.055276 0.573893
vt 0.050994 0.986996
vt 0.860813 0.535849
vt 0.496215 0.535849
vt 0.860813 0.987439
vt 0.496215 0.987439
vt 0.692917 0.874779
vt 0.692917 0.772766
vt 0.408791 0.874779
vt 0.408791 0.772766
vt 0.421681 0.874779
vt 0.421681 0.772766
vt 0.705808 0.874779
vt 0.705808 0.772766
vt 0.408112 0.879132
vt 0.408112 0.777120
vt 0.974946 0.879132
vt 0.974946 0.777120
vt 0.969578 0.879132
vt 0.969578 0.777120
vt 0.402744 0.879132
vt 0.402744 0.777120
vt 0.411664 0.879778
vt 0.411664 0.777766
vt 0.978498 0.879778
vt 0.978498 0.777766
vt 0.973130 0.879778
vt 0.973130 0.777766
vt 0.406295 0.879778
vt 0.406295 0.777766
vt 0.977043 0.874779
vt 0.977043 0.772766
vt 0.692917 0.874779
vt 0.692917 0.772766
vt 0.705808 0.874779
vt 0.705808 0.772766
vt 0.989935 0.874779
vt 0.989935 0.772766
vn -0.999955 0.000000 -0.009448
vn -0.999955 0.000000 -0.009448
vn -0.999955 0.000000 -0.009448
vn -0.999955 0.000000 -0.009448
vn -0.999955 0.000000 -0.009448
vn -0.999955 0.000000 -0.009448
vn 0.000000 1.000000 0.000000
vn 0.000000 1.000000 0.000000
vn 0.000000 1.000000 0.000000
vn 0.000000 1.000000 0.000000
vn 0.000000 1.000000 0.000000
vn 0.000000 1.000000 0.000000
vn 0.999955 0.000000 0.009448
vn 0.999955 0.000000 0.009448
vn 0.999955 0.000000 0.009448
vn 0.999955 0.000000 0.009448
vn 0.999955 0.000000 0.009448
vn 0.999955 0.000000 0.009448
vn -0.011371 0.000000 0.999935
vn -0.011371 0.000000 0.999935
vn -0.011371 0.000000 0.999935
vn -0.011371 0.000000 0.999935
vn -0.011371 0.000000 0.999935
vn -0.011371 0.000000 0.999935
vn 0.011371 0.000000 -0.999935
vn 0.011371 0.000000 -0.999935
vn 0.011371 0.000000 -0.999935
vn 0.011371 0.000000 -0.999935
vn 0.011371 0.000000 -0.999935
vn 0.011371 0.000000 -0.999935
vn 0.011371 0.000000 -0.999935
vn 0.011371 0.000000 -0.999935
vn 0.011371 0.000000 -0.999935
vn 0.011371 0.000000 -0.999935
vn 0.011371 0.000000 -0.999935
vn 0.011371 0.000000 -0.999935
vn 0.000000 1.000000 0.000000
vn 0.000000 1.000000 0.000000
vn 0.000000 1.000000 0.000000
vn 0.000000 1.000000 0.000000
vn 0.000000 1.000000 0.000000
vn 0.000000 1.000000 0.000000
vn -0.011371 0.000000 0.999935
vn -0.011371 0.000000 0.999935
vn -0.011371 0.000000 0.999935
vn -0.011371 0.000000 0.999935
vn -0.011371 0.000000 0.999935
vn -0.011371 0.000000 0.999935
vn -0.999955 0.000000 -0.009448
vn -0.999955 0.000000 -0.009448
vn -0.999955 0.000000 -0.009448
vn -0.999955 0.000000 -0.009448
vn -0.999955 0.000000 -0.009448
vn -0.999955 0.000000 -0.009448
vn 0.000000 1.000000 0.000000
vn 0.000000 1.000000 0.000000
vn 0.000000 1.000000 0.000000
vn 0.000000 1.000000 0.000000
vn 0.000000 1.000000 0.000000
vn 0.000000 1.000000 0.000000
vn 0.000000 1.000000 0.000000
vn 0.000000 1.000000 0.000000
vn 0.000000 1.000000 0.000000
vn 0.000000 1.000000 0.000000
vn 0.000000 1.000000 0.000000
vn 0.000000 1.000000 0.000000
vn 0.999955 0.000000 0.009448
vn 0.999955 0.000000 0.009448
vn 0.999955 0.000000 0.009448
vn 0.999955 0.000000 0.009448
vn 0.999955 0.000000 0.009448
vn 0.999955 0.000000 0.009448
vn -0.999955 0.000000 -0.009448
vn -0.999955 0.000000 -0.009448
vn -0.999955 0.000000 -0.009448
vn -0.999955 0.000000 -0.009448
vn -0.999955 0.000000 -0.009448
vn -0.999955 0.000000 -0.009448
vn 0.999955 0.000000 0.009448
vn 0.999955 0.000000 0.009448
vn 0.999955 0.000000 0.009448
vn 0.999955 0.000000 0.009448
vn 0.999955 0.000000 0.009448
vn 0.999955 0.000000 0.009448
vn 0.011371 0.000000 -0.999935
vn 0.011371 0.000000 -0.999935
vn 0.011371 0.000000 -0.999935
vn 0.011371 0.000000 -0.999935
vn 0.011371 0.000000 -0.999935
vn 0.011371 0.000000 -0.999935
vn -0.011371 0.000000 0.999935
vn -0.011371 0.000000 0.999935
vn -0.011371 0.000000 0.999935
vn -0.011371 0.000000 0.999935
vn -0.011371 0.000000 0.999935
vn -0.011371 0.000000 0.999935
vn 0.011371 0.000000 -0.999935
vn 0.011371 0.000000 -0.999935
vn 0.011371 0.000000 -0.999935
vn 0.011371 0.000000 -0.999935
vn 0.011371 0.000000 -0.999935
vn 0.011371 0.000000 -0.999935
vn -0.011371 0.000000 0.999935
vn -0.011371 0.000000 0.999935
vn -0.011371 0.000000 0.999935
vn -0.011371 0.000000 0.999935
vn -0.011371 0.000000 0.999935
vn -0.011371 0.000000 0.999935
vn -0.999955 0.000000 -0.009448
vn -0.999955 0.000000 -0.009448
vn -0.999955 0.000000 -0.009448
vn -0.999955 0.000000 -0.009448
vn -0.999955 0.000000 -0.009448
vn -0.999955 0.000000 -0.009448
vn 0.999955 0.000000 0.009448
vn 0.999955 0.000000 0.009448
vn 0.999955 0.000000 0.009448
vn 0.999955 0.000000 0.009448
vn 0.999955 0.000000 0.009448
vn 0.999955 0.000000 0.009448
f 1/1/1 13/3/2 3/2/3
f 13/3/4 14/4/5 3/2/6
f 10/5/7 15/7/8 5/6/9
f 15/7/10 16/8/11 5/6/12
f 5/9/13 16/11/14 7/10/15
f 16/11/16 17/12/17 7/10/18
f 11/13/19 12/15/20 6/14/21
f 12/15/22 8/16/23 6/14/24
f 7/17/25 9/19/26 5/18/27
f 9/19/28 10/20/29 5/18/30
f 10/21/31 9/23/32 3/22/33
f 9/23/34 1/24/35 3/22/36
f 3/25/37 14/27/38 10/26/39
f 14/27/40 15/28/41 10/26/42
f 2/29/43 12/31/44 4/30/45
f 12/31/46 11/32/47 4/30/48
f 14/33/49 13/35/50 4/34/51
f 13/35/52 2/36/53 4/34/54
f 11/37/55 15/39/56 4/38/57
f 15/39/58 14/40/59 4/38/60
f 6/41/61 16/43/62 11/42/63
f 16/43/64 15/44/65 11/42/66
f 17/45/67 16/47/68 8/46/69
f 16/47/70 6/48/71 8/46/72
f 13/49/73 1/51/74 19/50/75
f 1/51/76 18/52/77 19/50/78
f 7/53/79 17/55/80 20/54/81
f 17/55/82 21/56/83 20/54/84
f 9/57/85 7/59/86 22/58/87
f 7/59/88 20/60/89 22/58/90
f 8/61/91 12/63/92 23/62/93
f 12/63/94 24/64/95 23/62/96
f 1/65/97 9/67/98 18/66/99
f 9/67/100 22/68/101 18/66/102
f 12/69/103 2/71/104 24/70/105
f 2/71/106 25/72/107 24/70/108
f 2/73/109 13/75/110 25/74/111
f 13/75/112 19/76/113 25/74/114
f 17/77/115 8/79/116 21/78/117
f 8/79/118 23/80/119 21/78/120
