# This file uses centimeters as units for non-parametric coordinates.

v -3.913208 0.755676 -2.587721
v -3.966019 0.755676 2.506062
v -3.913208 3.910245 -2.587721
v -3.966019 3.910245 2.506062
v 3.966011 3.910245 -2.506058
v 3.913208 3.910245 2.587721
v 3.966011 0.755676 -2.506058
v 3.913208 0.755676 2.587721
v 0.026398 0.755676 -2.546891
v 0.026398 3.910245 -2.546891
v -0.026405 3.910245 2.546892
v -0.026405 0.755676 2.546892
v -3.939621 0.755676 -0.040829
v -3.939621 5.088102 -0.040829
v -0.000008 5.088102 -0.000002
v 3.939613 5.088102 0.040829
v 3.939613 0.755676 0.040829
v -3.939621 3.910245 -0.040829
v 3.939613 3.910245 0.040829
v -3.913208 0.000000 -2.587721
v -3.939621 0.000000 -0.040829
v 3.966011 0.000000 -2.506058
v 3.939613 0.000000 0.040829
v 0.026398 0.000000 -2.546891
v 3.913208 0.000000 2.587721
v -0.026405 0.000000 2.546892
v -3.966019 0.000000 2.506062
vt 0.536511 0.708076
vt 0.899910 0.708076
vt 0.899910 0.876136
vt 0.049781 0.984228
vt 0.316845 0.986996
vt 0.321127 0.573893
vt 0.054062 0.571125
vt 0.548164 0.708076
vt 0.911562 0.876136
vt 0.911562 0.708076
vt 0.411568 0.993784
vt 0.411568 0.542195
vt 0.975540 0.542195
vt 0.975540 0.993784
vt 0.983099 0.542195
vt 0.419127 0.542195
vt 0.419127 0.993784
vt 0.983099 0.993784
vt 0.980345 0.993784
vt 0.980345 0.542195
vt 0.416373 0.542195
vt 0.416373 0.993784
vt 0.048321 0.577191
vt 0.315385 0.574423
vt 0.319666 0.987526
vt 0.052602 0.990295
vt 0.408814 0.542195
vt 0.972786 0.542195
vt 0.972786 0.993784
vt 0.408814 0.993784
vt 0.532896 0.876440
vt 0.532896 0.708380
vt 0.896295 0.708380
vt 0.053816 0.987527
vt 0.049534 0.574423
vt 0.316598 0.571655
vt 0.320880 0.984759
vt 0.055276 0.573893
vt 0.050994 0.986996
vt 0.318059 0.989764
vt 0.322340 0.576661
vt 0.907946 0.708380
vt 0.544547 0.708380
vt 0.544547 0.876440
vt 0.066958 0.001851
vt 0.493670 0.001851
vt 0.493670 0.530376
vt 0.066958 0.530376
vt 0.920383 0.530376
vt 0.493670 0.530376
vt 0.493670 0.001851
vt 0.920383 0.001851
vt 0.535136 0.543174
vt 0.535136 0.993278
vt 0.898535 0.993278
vt 0.898535 0.543174
vt 0.535048 0.993278
vt 0.898448 0.993278
vt 0.898448 0.543174
vt 0.535048 0.543174
vt 0.526803 0.861553
vt 0.892014 0.861553
vt 0.892014 0.753193
vt 0.526803 0.753193
vt 0.880305 0.861553
vt 0.515094 0.861553
vt 0.515094 0.753193
vt 0.880305 0.753193
vt 0.416877 0.864313
vt 0.981797 0.864313
vt 0.981797 0.755953
vt 0.416877 0.755953
vt 0.974225 0.864313
vt 0.409305 0.864313
vt 0.409305 0.755953
vt 0.974225 0.755953
vt 0.416513 0.864313
vt 0.981433 0.864313
vt 0.981433 0.755953
vt 0.416513 0.755953
vt 0.973861 0.864313
vt 0.408942 0.864313
vt 0.408942 0.755953
vt 0.973861 0.755953
vt 0.519363 0.864836
vt 0.884574 0.864836
vt 0.884574 0.756476
vt 0.519363 0.756476
vt 0.872865 0.864836
vt 0.507653 0.864836
vt 0.507653 0.756476
vt 0.872865 0.756476
vn -0.999946 0.000000 -0.010370
vn -0.999946 0.000000 -0.010366
vn -0.999946 0.000000 -0.010366
vn 0.004350 0.907647 -0.419713
vn 0.000000 1.000000 0.000000
vn 0.004350 0.907646 -0.419713
vn 0.000000 1.000000 0.000000
vn 0.999946 0.000000 0.010364
vn 0.999946 0.000000 0.010366
vn 0.999946 0.000000 0.010366
vn -0.010363 0.000000 0.999946
vn -0.010363 0.000000 0.999946
vn -0.010363 0.000000 0.999946
vn -0.010363 0.000000 0.999946
vn 0.010364 0.000000 -0.999946
vn 0.010364 0.000000 -0.999946
vn 0.010364 0.000000 -0.999946
vn 0.010364 0.000000 -0.999946
vn 0.010364 0.000000 -0.999946
vn 0.010364 0.000000 -0.999946
vn 0.010363 0.000000 -0.999946
vn 0.010363 0.000000 -0.999946
vn 0.004350 0.907647 -0.419713
vn 0.000000 1.000000 0.000000
vn 0.004350 0.907647 -0.419713
vn 0.000000 1.000000 0.000000
vn -0.010364 0.000000 0.999946
vn -0.010363 0.000000 0.999946
vn -0.010364 0.000000 0.999946
vn -0.010363 0.000000 0.999946
vn -0.999946 0.000000 -0.010366
vn -0.999946 0.000000 -0.010366
vn -0.999946 0.000000 -0.010362
vn 0.000000 1.000000 0.000000
vn 0.000000 1.000000 0.000000
vn -0.004350 0.907647 0.419713
vn -0.004350 0.907647 0.419713
vn 0.000000 1.000000 0.000000
vn 0.000000 1.000000 0.000000
vn -0.004350 0.907647 0.419713
vn -0.004350 0.907647 0.419713
vn 0.999946 0.000000 0.010368
vn 0.999946 0.000000 0.010366
vn 0.999946 0.000000 0.010366
vn -0.999946 0.000000 -0.010370
vn -0.999946 0.000000 -0.010366
vn -0.999946 0.000000 -0.010370
vn -0.999946 0.000000 -0.010366
vn -0.999946 0.000000 -0.010362
vn -0.999946 0.000000 -0.010366
vn -0.999946 0.000000 -0.010362
vn -0.999946 0.000000 -0.010366
vn 0.999946 0.000000 0.010366
vn 0.999946 0.000000 0.010366
vn 0.999946 0.000000 0.010368
vn 0.999946 0.000000 0.010368
vn 0.999946 0.000000 0.010364
vn 0.999946 0.000000 0.010366
vn 0.999946 0.000000 0.010364
vn 0.999946 0.000000 0.010366
vn -0.999946 0.000000 -0.010370
vn -0.999946 0.000000 -0.010370
vn -0.999946 0.000000 -0.010370
vn -0.999946 0.000000 -0.010370
vn 0.999946 0.000000 0.010364
vn 0.999946 0.000000 0.010364
vn 0.999946 0.000000 0.010364
vn 0.999946 0.000000 0.010364
vn 0.010364 0.000000 -0.999946
vn 0.010364 0.000000 -0.999946
vn 0.010364 0.000000 -0.999946
vn 0.010364 0.000000 -0.999946
vn -0.010363 0.000000 0.999946
vn -0.010363 0.000000 0.999946
vn -0.010363 0.000000 0.999946
vn -0.010363 0.000000 0.999946
vn 0.010363 0.000000 -0.999946
vn 0.010363 0.000000 -0.999946
vn 0.010363 0.000000 -0.999946
vn 0.010363 0.000000 -0.999946
vn -0.010364 0.000000 0.999946
vn -0.010364 0.000000 0.999946
vn -0.010364 0.000000 0.999946
vn -0.010364 0.000000 0.999946
vn -0.999946 0.000000 -0.010362
vn -0.999946 0.000000 -0.010362
vn -0.999946 0.000000 -0.010362
vn -0.999946 0.000000 -0.010362
vn 0.999946 0.000000 0.010368
vn 0.999946 0.000000 0.010368
vn 0.999946 0.000000 0.010368
vn 0.999946 0.000000 0.010368
f 3/1/1 18/2/2 14/3/3
f 10/4/4 15/5/5 5/7/6
f 5/7/6 15/5/5 16/6/7
f 5/8/8 16/9/9 19/10/10
f 11/11/11 12/12/12 6/14/13
f 6/14/13 12/12/12 8/13/14
f 7/15/15 9/16/16 5/18/17
f 5/18/17 9/16/16 10/17/18
f 10/19/19 9/20/20 3/22/21
f 3/22/21 9/20/20 1/21/22
f 3/23/23 14/24/24 10/26/25
f 10/26/25 14/24/24 15/25/26
f 2/27/27 12/28/28 4/30/29
f 4/30/29 12/28/28 11/29/30
f 14/31/31 18/32/32 4/33/33
f 15/34/34 14/35/35 11/37/36
f 11/37/36 14/35/35 4/36/37
f 16/38/38 15/39/39 6/41/40
f 6/41/40 15/39/39 11/40/41
f 6/42/42 19/43/43 16/44/44
f 1/45/45 13/46/46 3/48/47
f 3/48/47 13/46/46 18/47/48
f 4/49/49 18/50/50 2/52/51
f 2/52/51 18/50/50 13/51/52
f 17/53/53 19/54/54 8/56/55
f 8/56/55 19/54/54 6/55/56
f 5/57/57 19/58/58 7/60/59
f 7/60/59 19/58/58 17/59/60
f 13/61/61 1/62/62 21/64/63
f 21/64/63 1/62/62 20/63/64
f 7/65/65 17/66/66 22/68/67
f 22/68/67 17/66/66 23/67/68
f 9/69/69 7/70/70 24/72/71
f 24/72/71 7/70/70 22/71/72
f 8/73/73 12/74/74 25/76/75
f 25/76/75 12/74/74 26/75/76
f 1/77/77 9/78/78 20/80/79
f 20/80/79 9/78/78 24/79/80
f 12/81/81 2/82/82 26/84/83
f 26/84/83 2/82/82 27/83/84
f 2/85/85 13/86/86 27/88/87
f 27/88/87 13/86/86 21/87/88
f 17/89/89 8/90/90 23/92/91
f 23/92/91 8/90/90 25/91/92
