# This file uses centimeters as units for non-parametric coordinates.

v -0.017785 0.000000 -0.030035
v 0.007577 0.000000 0.000000
v 0.020907 0.000000 -0.036981
v -0.017785 2.401588 -0.030035
v 0.007577 2.401588 0.000000
v 0.020907 2.401588 -0.036981
v 0.003566 2.401588 -0.022339
v -0.000000 2.304452 -0.028663
v -0.000000 0.000000 -0.028663
v -0.000000 2.304452 -2.883078
v 0.000000 0.000000 -2.883078
vt 0.078046 0.976732
vt 0.078046 0.955530
vt 0.078046 0.934329
vt 0.078046 0.913127
vt 0.876838 0.976732
vt 0.876838 0.955530
vt 0.876838 0.934329
vt 0.876838 0.913127
vt 0.704513 0.963310
vt 0.756058 0.963310
vt 0.730285 0.918671
vt 0.729095 0.948430
vt 0.022463 0.878883
vt 0.022463 0.105388
vt 0.980555 0.878883
vt 0.980555 0.105388
vn -0.764042 0.000000 0.645166
vn -0.764042 0.000000 0.645166
vn -0.764042 0.000000 0.645166
vn -0.764042 0.000000 0.645166
vn 0.940751 0.000000 0.339097
vn 0.940751 0.000000 0.339097
vn 0.940751 0.000000 0.339097
vn 0.940751 0.000000 0.339097
vn -0.176705 0.000000 -0.984264
vn -0.176705 0.000000 -0.984264
vn -0.176705 0.000000 -0.984264
vn -0.176705 0.000000 -0.984264
vn 0.000000 1.000000 -0.000025
vn 0.000000 1.000000 -0.000008
vn 0.000000 1.000000 -0.000017
vn 0.000000 1.000000 -0.000017
vn 1.000000 0.000000 0.000000
vn 1.000000 0.000000 0.000000
vn 1.000000 0.000000 0.000000
vn 1.000000 0.000000 0.000000
f 1/1/1 2/2/2 4/5/3
f 4/5/3 2/2/2 5/6/4
f 2/2/5 3/3/6 5/6/7
f 5/6/7 3/3/6 6/7/8
f 3/3/9 1/4/10 6/7/11
f 6/7/11 1/4/10 4/8/12
f 4/10/13 5/9/14 7/12/15
f 5/9/14 6/11/16 7/12/15
f 6/11/16 4/10/13 7/12/15
f 8/13/17 9/14/18 10/15/19
f 10/15/19 9/14/18 11/16/20
