# This file uses centimeters as units for non-parametric coordinates.

v 0.045876 2.304452 2.854415
v 0.045876 0.000000 2.854415
v -0.045876 2.304452 2.854415
v -0.045876 0.000000 2.854415
v 0.045876 0.000000 0.000000
v 0.045876 2.304452 0.000000
v -0.045876 2.304452 0.000000
v -0.045876 0.000000 -0.000001
v 0.045876 2.304452 5.914863
v 0.045876 0.000000 5.914863
v -0.045876 2.304452 5.914863
v -0.045876 0.000000 5.914863
v 0.045876 0.000000 3.060447
v 0.045876 2.304452 3.060447
v -0.045876 2.304452 3.060447
v -0.045876 0.000000 3.060447
v -0.112278 0.000000 2.854415
v 0.112278 0.000000 3.060447
v -0.112278 0.000000 3.060447
v -0.112278 2.523654 2.854415
v -0.112278 2.523654 3.060447
v 0.112278 2.523654 3.060447
v 0.112278 2.523654 2.854415
v 0.112278 0.000000 2.854415
v 0.045876 2.304452 8.975310
v 0.045876 0.000000 8.975310
v -0.045876 2.304452 8.975310
v -0.045876 0.000000 8.975310
v 0.045876 0.000000 6.120895
v 0.045876 2.304452 6.120894
v -0.045876 2.304452 6.120895
v -0.045876 0.000000 6.120893
v 0.112278 0.000000 5.914863
v -0.112278 0.000000 5.914863
v -0.112278 0.000000 6.120893
v -0.112278 2.523654 5.914863
v -0.112278 2.523654 6.120895
v 0.112278 2.523654 6.120894
v 0.112278 2.523654 5.914863
v 0.112278 0.000000 6.120894
v 0.112278 0.000000 8.975310
v -0.112278 0.000000 8.975310
v -0.112278 0.000000 9.181341
v -0.112278 2.523654 8.975310
v -0.112278 2.523654 9.181342
v 0.112278 2.523654 9.181342
v 0.112278 2.523654 8.975310
v 0.112278 0.000000 9.181342
vt 0.030010 0.982032
vt 0.611373 0.982032
vt 0.611373 0.261926
vt 0.030010 0.261925
vt 0.030010 0.982032
vt 0.030010 0.261925
vt 0.611373 0.261925
vt 0.611373 0.982032
vt 0.006862 0.261926
vt 0.006863 0.982031
vt 0.030010 0.982032
vt 0.611373 0.982032
vt 0.611373 0.261926
vt 0.030010 0.261925
vt 0.030010 0.982032
vt 0.030010 0.261925
vt 0.611373 0.261925
vt 0.611373 0.982032
vt 0.006862 0.261926
vt 0.006863 0.982031
vt 0.995703 0.079834
vt 0.995703 0.044183
vt 0.558816 0.044182
vt 0.558816 0.079834
vt 0.559061 0.079643
vt 0.559061 0.043976
vt 0.597935 0.043976
vt 0.597935 0.079643
vt 0.995703 0.043909
vt 0.558816 0.043909
vt 0.558816 0.079576
vt 0.995703 0.079576
vt 0.995703 0.043939
vt 0.558816 0.043939
vt 0.558816 0.079606
vt 0.995703 0.079607
vt 0.558816 0.079862
vt 0.995703 0.079863
vt 0.995703 0.044210
vt 0.558816 0.044210
vt 0.030010 0.982032
vt 0.611373 0.982032
vt 0.611373 0.261926
vt 0.030010 0.261925
vt 0.030010 0.982032
vt 0.030010 0.261925
vt 0.611373 0.261925
vt 0.611373 0.982032
vt 0.006862 0.261926
vt 0.006863 0.982031
vt 0.995703 0.079834
vt 0.995703 0.044183
vt 0.558816 0.044182
vt 0.558816 0.079834
vt 0.559061 0.079643
vt 0.559061 0.043976
vt 0.597935 0.043976
vt 0.597935 0.079643
vt 0.995703 0.043909
vt 0.558816 0.043909
vt 0.558816 0.079576
vt 0.995703 0.079576
vt 0.995703 0.043939
vt 0.558816 0.043939
vt 0.558816 0.079606
vt 0.995703 0.079607
vt 0.558816 0.079862
vt 0.995703 0.079863
vt 0.995703 0.044210
vt 0.558816 0.044210
vt 0.995703 0.079834
vt 0.995703 0.044183
vt 0.558816 0.044182
vt 0.558816 0.079834
vt 0.559061 0.079643
vt 0.559061 0.043976
vt 0.597935 0.043976
vt 0.597935 0.079643
vt 0.995703 0.043909
vt 0.558816 0.043909
vt 0.558816 0.079576
vt 0.995703 0.079576
vt 0.995703 0.043939
vt 0.558816 0.043939
vt 0.558816 0.079606
vt 0.995703 0.079607
vt 0.558816 0.079862
vt 0.995703 0.079863
vt 0.995703 0.044210
vt 0.558816 0.044210
vn 1.000000 0.000000 0.000000
vn 1.000000 0.000000 0.000000
vn 1.000000 0.000000 0.000000
vn 1.000000 0.000000 0.000000
vn -1.000000 0.000000 0.000000
vn -1.000000 0.000000 0.000000
vn -1.000000 0.000000 0.000000
vn -1.000000 0.000000 0.000000
vn 0.000000 1.000000 0.000000
vn 0.000000 1.000000 0.000000
vn 0.000000 1.000000 0.000000
vn 0.000000 1.000000 0.000000
vn 1.000000 0.000000 0.000000
vn 1.000000 0.000000 0.000000
vn 1.000000 0.000000 0.000000
vn 1.000000 0.000000 0.000000
vn -1.000000 0.000000 0.000000
vn -1.000000 0.000000 0.000000
vn -1.000000 0.000000 0.000000
vn -1.000000 0.000000 0.000000
vn 0.000000 1.000000 0.000000
vn 0.000000 1.000000 0.000000
vn 0.000000 1.000000 0.000000
vn 0.000000 1.000000 0.000000
vn -0.000001 0.000000 -1.000000
vn -0.000001 0.000000 -1.000000
vn -0.000001 0.000000 -1.000000
vn -0.000001 0.000000 -1.000000
vn 0.000000 1.000000 0.000000
vn 0.000000 1.000000 0.000000
vn 0.000000 1.000000 0.000000
vn 0.000000 1.000000 0.000000
vn -1.000000 0.000000 0.000000
vn -1.000000 0.000000 0.000000
vn -1.000000 0.000000 0.000000
vn -1.000000 0.000000 0.000000
vn 1.000000 0.000000 -0.000001
vn 1.000000 0.000000 -0.000001
vn 1.000000 0.000000 -0.000001
vn 1.000000 0.000000 -0.000001
vn 0.000000 0.000000 1.000000
vn 0.000000 0.000000 1.000000
vn 0.000000 0.000000 1.000000
vn 0.000000 0.000000 1.000000
vn 1.000000 0.000000 0.000000
vn 1.000000 0.000000 0.000000
vn 1.000000 0.000000 0.000000
vn 1.000000 0.000000 0.000000
vn -1.000000 0.000000 0.000000
vn -1.000000 0.000000 0.000000
vn -1.000000 0.000000 0.000000
vn -1.000000 0.000000 0.000000
vn 0.000000 1.000000 0.000000
vn 0.000000 1.000000 0.000000
vn 0.000000 1.000000 0.000000
vn 0.000000 1.000000 0.000000
vn 0.000000 0.000000 -1.000000
vn 0.000000 0.000000 -1.000000
vn 0.000000 0.000000 -1.000000
vn 0.000000 0.000000 -1.000000
vn 0.000000 1.000000 0.000000
vn 0.000000 1.000000 0.000000
vn 0.000000 1.000000 0.000000
vn 0.000000 1.000000 0.000000
vn -1.000000 0.000000 0.000000
vn -1.000000 0.000000 0.000000
vn -1.000000 0.000000 0.000000
vn -1.000000 0.000000 0.000000
vn 1.000000 0.000000 0.000001
vn 1.000000 0.000000 0.000001
vn 1.000000 0.000000 0.000001
vn 1.000000 0.000000 0.000001
vn 0.000001 0.000000 1.000000
vn 0.000001 0.000000 1.000000
vn 0.000001 0.000000 1.000000
vn 0.000001 0.000000 1.000000
vn 0.000000 0.000000 -1.000000
vn 0.000000 0.000000 -1.000000
vn 0.000000 0.000000 -1.000000
vn 0.000000 0.000000 -1.000000
vn 0.000000 1.000000 0.000000
vn 0.000000 1.000000 0.000000
vn 0.000000 1.000000 0.000000
vn 0.000000 1.000000 0.000000
vn -1.000000 0.000000 0.000000
vn -1.000000 0.000000 0.000000
vn -1.000000 0.000000 0.000000
vn -1.000000 0.000000 0.000000
vn 1.000000 0.000000 0.000001
vn 1.000000 0.000000 0.000001
vn 1.000000 0.000000 0.000001
vn 1.000000 0.000000 0.000001
vn 0.000000 0.000000 1.000000
vn 0.000000 0.000000 1.000000
vn 0.000000 0.000000 1.000000
vn 0.000000 0.000000 1.000000
f 1/1/1 2/2/2 6/4/3
f 6/4/3 2/2/2 5/3/4
f 3/5/5 7/6/6 4/8/7
f 4/8/7 7/6/6 8/7/8
f 7/9/9 3/10/10 6/4/11
f 6/4/11 3/10/10 1/1/12
f 9/11/13 10/12/14 14/14/15
f 14/14/15 10/12/14 13/13/16
f 11/15/17 15/16/18 12/18/19
f 12/18/19 15/16/18 16/17/20
f 15/19/21 11/20/22 14/14/23
f 14/14/23 11/20/22 9/11/24
f 24/21/25 17/22/26 23/24/27
f 23/24/27 17/22/26 20/23/28
f 20/25/29 21/26/30 23/28/31
f 23/28/31 21/26/30 22/27/32
f 19/29/33 21/30/34 17/32/35
f 17/32/35 21/30/34 20/31/36
f 24/33/37 23/34/38 18/36/39
f 18/36/39 23/34/38 22/35/40
f 21/37/41 19/38/42 22/40/43
f 22/40/43 19/38/42 18/39/44
f 25/41/45 26/42/46 30/44/47
f 30/44/47 26/42/46 29/43/48
f 27/45/49 31/46/50 28/48/51
f 28/48/51 31/46/50 32/47/52
f 31/49/53 27/50/54 30/44/55
f 30/44/55 27/50/54 25/41/56
f 33/51/57 34/52/58 39/54/59
f 39/54/59 34/52/58 36/53/60
f 36/55/61 37/56/62 39/58/63
f 39/58/63 37/56/62 38/57/64
f 35/59/65 37/60/66 34/62/67
f 34/62/67 37/60/66 36/61/68
f 33/63/69 39/64/70 40/66/71
f 40/66/71 39/64/70 38/65/72
f 37/67/73 35/68/74 38/70/75
f 38/70/75 35/68/74 40/69/76
f 41/71/77 42/72/78 47/74/79
f 47/74/79 42/72/78 44/73/80
f 44/75/81 45/76/82 47/78/83
f 47/78/83 45/76/82 46/77/84
f 43/79/85 45/80/86 42/82/87
f 42/82/87 45/80/86 44/81/88
f 41/83/89 47/84/90 48/86/91
f 48/86/91 47/84/90 46/85/92
f 45/87/93 43/88/94 46/90/95
f 46/90/95 43/88/94 48/89/96
