# This file uses centimeters as units for non-parametric coordinates.

v 0.034061 -0.004161 0.004161
v 0.300723 -0.004161 0.004161
v 0.034061 0.004161 0.004161
v 0.300723 0.004161 0.004161
v 0.034061 0.004161 -0.004161
v 0.300723 0.004161 -0.004161
v 0.034061 -0.004161 -0.004161
v 0.300723 -0.004161 -0.004161
v 0.300723 -0.034061 -0.035233
v 0.300723 -0.034061 0.034061
v 0.300723 0.034061 -0.035233
v 0.300723 0.034061 0.034061
v 0.374464 -0.034061 -0.035233
v 0.374464 0.034061 -0.035233
v 0.374464 0.034061 0.034061
v 0.374464 -0.034061 0.034061
vt 0.375000 0.000000
vt 0.625000 0.000000
vt 0.375000 0.250000
vt 0.625000 0.250000
vt 0.375000 0.500000
vt 0.625000 0.500000
vt 0.375000 0.750000
vt 0.625000 0.750000
vt 0.375000 1.000000
vt 0.625000 1.000000
vt 0.875000 0.000000
vt 0.875000 0.250000
vt 0.125000 0.000000
vt 0.125000 0.250000
vt 0.633054 0.005581
vt 0.866608 0.008392
vt 0.869419 0.241946
vt 0.628808 0.246192
vt 0.805751 0.069249
vt 0.807125 0.180025
vt 0.693504 0.181496
vt 0.694975 0.067875
vn 0.000000 0.000000 1.000000
vn 0.000000 0.000000 1.000000
vn 0.000000 0.000000 1.000000
vn 0.000000 0.000000 1.000000
vn 0.000000 1.000000 0.000000
vn 0.000000 1.000000 0.000000
vn 0.000000 1.000000 0.000000
vn 0.000000 1.000000 0.000000
vn 0.000000 0.000000 -1.000000
vn 0.000000 0.000000 -1.000000
vn 0.000000 0.000000 -1.000000
vn 0.000000 0.000000 -1.000000
vn 0.000000 -1.000000 0.000000
vn 0.000000 -1.000000 0.000000
vn 0.000000 -1.000000 0.000000
vn 0.000000 -1.000000 0.000000
vn -1.000000 0.000000 0.000000
vn -1.000000 0.000000 0.000000
vn -1.000000 0.000000 0.000000
vn -1.000000 0.000000 0.000000
vn 1.000000 0.000000 0.000000
vn 1.000000 0.000000 0.000000
vn 1.000000 0.000000 0.000000
vn 1.000000 0.000000 0.000000
vn -1.000000 0.000000 0.000000
vn -1.000000 0.000000 0.000000
vn -1.000000 0.000000 0.000000
vn -1.000000 0.000000 0.000000
vn -1.000000 0.000002 0.000000
vn -1.000000 0.000002 0.000000
vn -1.000000 0.000002 0.000000
vn -1.000000 0.000000 0.000000
vn -1.000000 0.000000 0.000000
vn -1.000000 0.000000 0.000000
vn -1.000000 0.000000 0.000000
vn -1.000000 0.000000 0.000000
vn -1.000000 -0.000002 0.000000
vn -1.000000 -0.000002 0.000000
vn -1.000000 -0.000002 0.000000
vn -1.000000 0.000000 0.000000
vn 0.000000 0.000000 -1.000000
vn -0.000000 0.000000 -1.000000
vn -0.000000 0.000000 -1.000000
vn -0.000000 0.000000 -1.000000
vn -0.000000 1.000000 0.000000
vn -0.000000 1.000000 0.000000
vn -0.000000 1.000000 0.000000
vn -0.000000 1.000000 0.000000
vn -0.000000 0.000000 1.000000
vn -0.000000 0.000000 1.000000
vn -0.000000 0.000000 1.000000
vn 0.000000 0.000000 1.000000
vn 0.000000 -1.000000 0.000000
vn 0.000000 -1.000000 0.000000
vn 0.000000 -1.000000 0.000000
vn 0.000000 -1.000000 0.000000
f 1/1/1 2/2/2 3/3/3
f 3/3/3 2/2/2 4/4/4
f 3/3/5 4/4/6 5/5/7
f 5/5/7 4/4/6 6/6/8
f 5/5/9 6/6/10 7/7/11
f 7/7/11 6/6/10 8/8/12
f 7/7/13 8/8/14 1/9/15
f 1/9/15 8/8/14 2/10/16
f 7/13/17 1/1/18 5/14/19
f 5/14/19 1/1/18 3/3/20
f 16/22/21 13/19/22 15/21/23
f 15/21/23 13/19/22 14/20/24
f 11/17/25 9/16/26 6/12/27
f 8/11/28 6/12/27 9/16/26
f 11/17/29 6/12/30 12/18/31
f 6/12/30 4/4/32 12/18/31
f 10/15/33 12/18/34 2/2/35
f 4/4/36 2/2/35 12/18/34
f 9/16/37 10/15/38 8/11/39
f 2/2/40 8/11/39 10/15/38
f 9/16/41 11/17/42 13/19/43
f 13/19/43 11/17/42 14/20/44
f 11/17/45 12/18/46 14/20/47
f 14/20/47 12/18/46 15/21/48
f 12/18/49 10/15/50 15/21/51
f 15/21/51 10/15/50 16/22/52
f 10/15/53 9/16/54 16/22/55
f 16/22/55 9/16/54 13/19/56
