# This file uses centimeters as units for non-parametric coordinates.

v 0.349372 -0.015489 0.011442
v 0.011975 -0.015489 0.349009
v 0.107376 -0.015489 0.335106
v 0.204241 -0.015489 0.285058
v 0.281114 -0.015489 0.207107
v 0.330469 -0.015489 0.108882
v 0.349372 0.015489 0.011442
v 0.011975 0.015489 0.349009
v 0.107376 0.015489 0.335106
v 0.204241 0.015489 0.285058
v 0.281114 0.015489 0.207107
v 0.330469 0.015489 0.108882
v 0.361896 0.015807 0.011442
v 0.011975 0.015807 0.361709
v 0.111246 0.015807 0.347184
v 0.211603 0.015807 0.295333
v 0.291246 0.015807 0.214572
v 0.342381 0.015807 0.112807
v 0.361896 -0.015807 0.011442
v 0.011975 -0.015807 0.361709
v 0.111246 -0.015807 0.347184
v 0.211603 -0.015807 0.295333
v 0.291246 -0.015807 0.214572
v 0.342381 -0.015807 0.112807
v 0.011442 -0.015489 -0.349372
v 0.349009 -0.015489 -0.011975
v 0.335106 -0.015489 -0.107376
v 0.285058 -0.015489 -0.204241
v 0.207107 -0.015489 -0.281114
v 0.108882 -0.015489 -0.330469
v 0.011442 0.015489 -0.349372
v 0.349009 0.015489 -0.011975
v 0.335106 0.015489 -0.107376
v 0.285058 0.015489 -0.204241
v 0.207107 0.015489 -0.281114
v 0.108882 0.015489 -0.330469
v 0.011442 0.015807 -0.361896
v 0.361709 0.015807 -0.011975
v 0.347184 0.015807 -0.111246
v 0.295333 0.015807 -0.211603
v 0.214572 0.015807 -0.291246
v 0.112807 0.015807 -0.342381
v 0.011442 -0.015807 -0.361896
v 0.361709 -0.015807 -0.011975
v 0.347184 -0.015807 -0.111246
v 0.295333 -0.015807 -0.211603
v 0.214572 -0.015807 -0.291246
v 0.112807 -0.015807 -0.342381
v -0.349372 -0.015489 -0.011442
v -0.011975 -0.015489 -0.349009
v -0.107376 -0.015489 -0.335106
v -0.204241 -0.015489 -0.285058
v -0.281114 -0.015489 -0.207107
v -0.330469 -0.015489 -0.108882
v -0.349372 0.015489 -0.011442
v -0.011975 0.015489 -0.349009
v -0.107376 0.015489 -0.335106
v -0.204241 0.015489 -0.285058
v -0.281114 0.015489 -0.207107
v -0.330469 0.015489 -0.108882
v -0.361896 0.015807 -0.011442
v -0.011975 0.015807 -0.361709
v -0.111246 0.015807 -0.347184
v -0.211603 0.015807 -0.295333
v -0.291246 0.015807 -0.214572
v -0.342381 0.015807 -0.112807
v -0.361896 -0.015807 -0.011442
v -0.011975 -0.015807 -0.361709
v -0.111246 -0.015807 -0.347184
v -0.211603 -0.015807 -0.295333
v -0.291246 -0.015807 -0.214572
v -0.342381 -0.015807 -0.112807
v -0.011442 -0.015489 0.349372
v -0.349009 -0.015489 0.011975
v -0.335106 -0.015489 0.107376
v -0.285058 -0.015489 0.204241
v -0.207107 -0.015489 0.281114
v -0.108882 -0.015489 0.330469
v -0.011442 0.015489 0.349372
v -0.349009 0.015489 0.011975
v -0.335106 0.015489 0.107376
v -0.285058 0.015489 0.204241
v -0.207107 0.015489 0.281114
v -0.108882 0.015489 0.330469
v -0.011442 0.015807 0.361896
v -0.361709 0.015807 0.011975
v -0.347184 0.015807 0.111246
v -0.295333 0.015807 0.211603
v -0.214572 0.015807 0.291246
v -0.112807 0.015807 0.342381
v -0.011442 -0.015807 0.361896
v -0.361709 -0.015807 0.011975
v -0.347184 -0.015807 0.111246
v -0.295333 -0.015807 0.211603
v -0.214572 -0.015807 0.291246
v -0.112807 -0.015807 0.342381
vt 0.750000 0.750000
vt 0.750000 0.500000
vt 0.800000 0.750000
vt 0.800000 0.500000
vt 0.850000 0.750000
vt 0.850000 0.500000
vt 0.900000 0.750000
vt 0.900000 0.500000
vt 0.950000 0.750000
vt 0.950000 0.500000
vt 1.000000 0.750000
vt 1.000000 0.500000
vt 0.800000 0.250000
vt 0.750000 0.250000
vt 0.850000 0.250000
vt 0.900000 0.250000
vt 0.950000 0.250000
vt 1.000000 0.250000
vt 0.800000 0.000000
vt 0.750000 0.000000
vt 0.850000 0.000000
vt 0.900000 0.000000
vt 0.950000 0.000000
vt 1.000000 0.000000
vt 0.750000 0.750000
vt 0.750000 0.500000
vt 0.800000 0.750000
vt 0.800000 0.500000
vt 0.850000 0.750000
vt 0.850000 0.500000
vt 0.900000 0.750000
vt 0.900000 0.500000
vt 0.950000 0.750000
vt 0.950000 0.500000
vt 1.000000 0.750000
vt 1.000000 0.500000
vt 0.800000 0.250000
vt 0.750000 0.250000
vt 0.850000 0.250000
vt 0.900000 0.250000
vt 0.950000 0.250000
vt 1.000000 0.250000
vt 0.800000 0.000000
vt 0.750000 0.000000
vt 0.850000 0.000000
vt 0.900000 0.000000
vt 0.950000 0.000000
vt 1.000000 0.000000
vt 0.750000 0.750000
vt 0.750000 0.500000
vt 0.800000 0.750000
vt 0.800000 0.500000
vt 0.850000 0.750000
vt 0.850000 0.500000
vt 0.900000 0.750000
vt 0.900000 0.500000
vt 0.950000 0.750000
vt 0.950000 0.500000
vt 1.000000 0.750000
vt 1.000000 0.500000
vt 0.800000 0.250000
vt 0.750000 0.250000
vt 0.850000 0.250000
vt 0.900000 0.250000
vt 0.950000 0.250000
vt 1.000000 0.250000
vt 0.800000 0.000000
vt 0.750000 0.000000
vt 0.850000 0.000000
vt 0.900000 0.000000
vt 0.950000 0.000000
vt 1.000000 0.000000
vt 0.750000 0.750000
vt 0.750000 0.500000
vt 0.800000 0.750000
vt 0.800000 0.500000
vt 0.850000 0.750000
vt 0.850000 0.500000
vt 0.900000 0.750000
vt 0.900000 0.500000
vt 0.950000 0.750000
vt 0.950000 0.500000
vt 1.000000 0.750000
vt 1.000000 0.500000
vt 0.800000 0.250000
vt 0.750000 0.250000
vt 0.850000 0.250000
vt 0.900000 0.250000
vt 0.950000 0.250000
vt 1.000000 0.250000
vt 0.800000 0.000000
vt 0.750000 0.000000
vt 0.850000 0.000000
vt 0.900000 0.000000
vt 0.950000 0.000000
vt 1.000000 0.000000
vn -0.003643 0.999681 -0.024998
vn -0.003646 0.999681 -0.025008
vn -0.007899 0.999687 -0.023749
vn -0.007899 0.999687 -0.023749
vn -0.003646 0.999681 -0.025008
vn -0.007895 0.999687 -0.023754
vn -0.014978 0.999684 -0.020168
vn -0.007899 0.999687 -0.023749
vn -0.014923 0.999684 -0.020207
vn -0.014923 0.999684 -0.020207
vn -0.007899 0.999687 -0.023749
vn -0.007895 0.999687 -0.023754
vn -0.020564 0.999682 -0.014616
vn -0.014978 0.999684 -0.020168
vn -0.020524 0.999682 -0.014670
vn -0.020524 0.999682 -0.014670
vn -0.014978 0.999684 -0.020168
vn -0.014923 0.999684 -0.020207
vn -0.023899 0.999680 -0.008359
vn -0.020564 0.999682 -0.014616
vn -0.023925 0.999679 -0.008319
vn -0.023925 0.999679 -0.008319
vn -0.020564 0.999682 -0.014616
vn -0.020524 0.999682 -0.014670
vn -0.023899 0.999680 -0.008359
vn -0.023925 0.999679 -0.008319
vn -0.025328 0.999667 -0.004879
vn -0.025328 0.999667 -0.004879
vn -0.023925 0.999679 -0.008319
vn -0.025348 0.999667 -0.004880
vn 0.315518 0.000000 0.948920
vn 0.144775 0.000000 0.989465
vn 0.315518 0.000000 0.948920
vn 0.315518 0.000000 0.948920
vn 0.144775 0.000000 0.989465
vn 0.144775 0.000000 0.989465
vn 0.593144 0.000000 0.805097
vn 0.315518 0.000000 0.948920
vn 0.593144 0.000000 0.805097
vn 0.593144 0.000000 0.805097
vn 0.315518 0.000000 0.948920
vn 0.315518 0.000000 0.948920
vn 0.812885 0.000000 0.582424
vn 0.593144 0.000000 0.805097
vn 0.812885 0.000000 0.582424
vn 0.812885 0.000000 0.582424
vn 0.593144 0.000000 0.805097
vn 0.593144 0.000000 0.805097
vn 0.944503 0.000000 0.328503
vn 0.812885 0.000000 0.582424
vn 0.944503 0.000000 0.328503
vn 0.944503 0.000000 0.328503
vn 0.812885 0.000000 0.582424
vn 0.812885 0.000000 0.582424
vn 0.981967 0.000000 0.189054
vn 0.944503 0.000000 0.328503
vn 0.981967 0.000000 0.189054
vn 0.981967 0.000000 0.189054
vn 0.944503 0.000000 0.328503
vn 0.944503 0.000000 0.328503
vn -0.007895 -0.999687 -0.023754
vn -0.003646 -0.999681 -0.025008
vn -0.007899 -0.999687 -0.023749
vn -0.007899 -0.999687 -0.023749
vn -0.003646 -0.999681 -0.025008
vn -0.003643 -0.999681 -0.024998
vn -0.007895 -0.999687 -0.023754
vn -0.007899 -0.999687 -0.023749
vn -0.014923 -0.999685 -0.020207
vn -0.014923 -0.999685 -0.020207
vn -0.007899 -0.999687 -0.023749
vn -0.014978 -0.999684 -0.020168
vn -0.014923 -0.999685 -0.020207
vn -0.014978 -0.999684 -0.020168
vn -0.020524 -0.999682 -0.014670
vn -0.020524 -0.999682 -0.014670
vn -0.014978 -0.999684 -0.020168
vn -0.020564 -0.999682 -0.014616
vn -0.020524 -0.999682 -0.014670
vn -0.020564 -0.999682 -0.014616
vn -0.023925 -0.999679 -0.008319
vn -0.023925 -0.999679 -0.008319
vn -0.020564 -0.999682 -0.014616
vn -0.023899 -0.999679 -0.008359
vn -0.025348 -0.999667 -0.004880
vn -0.023925 -0.999679 -0.008319
vn -0.025328 -0.999667 -0.004879
vn -0.025328 -0.999667 -0.004879
vn -0.023925 -0.999679 -0.008319
vn -0.023899 -0.999679 -0.008359
vn -0.024998 0.999681 0.003643
vn -0.025008 0.999681 0.003646
vn -0.023749 0.999687 0.007899
vn -0.023749 0.999687 0.007899
vn -0.025008 0.999681 0.003646
vn -0.023754 0.999687 0.007895
vn -0.020168 0.999684 0.014978
vn -0.023749 0.999687 0.007899
vn -0.020207 0.999684 0.014923
vn -0.020207 0.999684 0.014923
vn -0.023749 0.999687 0.007899
vn -0.023754 0.999687 0.007895
vn -0.014616 0.999682 0.020564
vn -0.020168 0.999684 0.014978
vn -0.014670 0.999682 0.020524
vn -0.014670 0.999682 0.020524
vn -0.020168 0.999684 0.014978
vn -0.020207 0.999684 0.014923
vn -0.008359 0.999680 0.023899
vn -0.014616 0.999682 0.020564
vn -0.008319 0.999679 0.023925
vn -0.008319 0.999679 0.023925
vn -0.014616 0.999682 0.020564
vn -0.014670 0.999682 0.020524
vn -0.008359 0.999680 0.023899
vn -0.008319 0.999679 0.023925
vn -0.004879 0.999667 0.025328
vn -0.004879 0.999667 0.025328
vn -0.008319 0.999679 0.023925
vn -0.004880 0.999667 0.025348
vn 0.948920 0.000000 -0.315518
vn 0.989465 0.000000 -0.144775
vn 0.948920 0.000000 -0.315518
vn 0.948920 0.000000 -0.315518
vn 0.989465 0.000000 -0.144775
vn 0.989465 0.000000 -0.144775
vn 0.805097 0.000000 -0.593144
vn 0.948920 0.000000 -0.315518
vn 0.805097 0.000000 -0.593144
vn 0.805097 0.000000 -0.593144
vn 0.948920 0.000000 -0.315518
vn 0.948920 0.000000 -0.315518
vn 0.582424 0.000000 -0.812885
vn 0.805097 0.000000 -0.593144
vn 0.582424 0.000000 -0.812885
vn 0.582424 0.000000 -0.812885
vn 0.805097 0.000000 -0.593144
vn 0.805097 0.000000 -0.593144
vn 0.328503 0.000000 -0.944503
vn 0.582424 0.000000 -0.812885
vn 0.328503 0.000000 -0.944503
vn 0.328503 0.000000 -0.944503
vn 0.582424 0.000000 -0.812885
vn 0.582424 0.000000 -0.812885
vn 0.189054 0.000000 -0.981967
vn 0.328503 0.000000 -0.944503
vn 0.189054 0.000000 -0.981967
vn 0.189054 0.000000 -0.981967
vn 0.328503 0.000000 -0.944503
vn 0.328503 0.000000 -0.944503
vn -0.023754 -0.999687 0.007895
vn -0.025008 -0.999681 0.003646
vn -0.023749 -0.999687 0.007899
vn -0.023749 -0.999687 0.007899
vn -0.025008 -0.999681 0.003646
vn -0.024998 -0.999681 0.003643
vn -0.023754 -0.999687 0.007895
vn -0.023749 -0.999687 0.007899
vn -0.020207 -0.999685 0.014923
vn -0.020207 -0.999685 0.014923
vn -0.023749 -0.999687 0.007899
vn -0.020168 -0.999684 0.014978
vn -0.020207 -0.999685 0.014923
vn -0.020168 -0.999684 0.014978
vn -0.014670 -0.999682 0.020524
vn -0.014670 -0.999682 0.020524
vn -0.020168 -0.999684 0.014978
vn -0.014616 -0.999682 0.020564
vn -0.014670 -0.999682 0.020524
vn -0.014616 -0.999682 0.020564
vn -0.008319 -0.999679 0.023925
vn -0.008319 -0.999679 0.023925
vn -0.014616 -0.999682 0.020564
vn -0.008359 -0.999680 0.023899
vn -0.004880 -0.999667 0.025348
vn -0.008319 -0.999679 0.023925
vn -0.004879 -0.999667 0.025328
vn -0.004879 -0.999667 0.025328
vn -0.008319 -0.999679 0.023925
vn -0.008359 -0.999680 0.023899
vn 0.003643 0.999681 0.024998
vn 0.003646 0.999681 0.025008
vn 0.007899 0.999687 0.023749
vn 0.007899 0.999687 0.023749
vn 0.003646 0.999681 0.025008
vn 0.007895 0.999687 0.023754
vn 0.014978 0.999684 0.020168
vn 0.007899 0.999687 0.023749
vn 0.014923 0.999684 0.020207
vn 0.014923 0.999684 0.020207
vn 0.007899 0.999687 0.023749
vn 0.007895 0.999687 0.023754
vn 0.020564 0.999682 0.014616
vn 0.014978 0.999684 0.020168
vn 0.020524 0.999682 0.014670
vn 0.020524 0.999682 0.014670
vn 0.014978 0.999684 0.020168
vn 0.014923 0.999684 0.020207
vn 0.023899 0.999680 0.008359
vn 0.020564 0.999682 0.014616
vn 0.023925 0.999679 0.008319
vn 0.023925 0.999679 0.008319
vn 0.020564 0.999682 0.014616
vn 0.020524 0.999682 0.014670
vn 0.023899 0.999680 0.008359
vn 0.023925 0.999679 0.008319
vn 0.025328 0.999667 0.004879
vn 0.025328 0.999667 0.004879
vn 0.023925 0.999679 0.008319
vn 0.025348 0.999667 0.004880
vn -0.315518 0.000000 -0.948920
vn -0.144775 0.000000 -0.989465
vn -0.315518 0.000000 -0.948920
vn -0.315518 0.000000 -0.948920
vn -0.144775 0.000000 -0.989465
vn -0.144775 0.000000 -0.989465
vn -0.593144 0.000000 -0.805097
vn -0.315518 0.000000 -0.948920
vn -0.593144 0.000000 -0.805097
vn -0.593144 0.000000 -0.805097
vn -0.315518 0.000000 -0.948920
vn -0.315518 0.000000 -0.948920
vn -0.812885 0.000000 -0.582424
vn -0.593144 0.000000 -0.805097
vn -0.812885 0.000000 -0.582424
vn -0.812885 0.000000 -0.582424
vn -0.593144 0.000000 -0.805097
vn -0.593144 0.000000 -0.805097
vn -0.944503 0.000000 -0.328503
vn -0.812885 0.000000 -0.582424
vn -0.944503 0.000000 -0.328503
vn -0.944503 0.000000 -0.328503
vn -0.812885 0.000000 -0.582424
vn -0.812885 0.000000 -0.582424
vn -0.981967 0.000000 -0.189054
vn -0.944503 0.000000 -0.328503
vn -0.981967 0.000000 -0.189054
vn -0.981967 0.000000 -0.189054
vn -0.944503 0.000000 -0.328503
vn -0.944503 0.000000 -0.328503
vn 0.007895 -0.999687 0.023754
vn 0.003646 -0.999681 0.025008
vn 0.007899 -0.999687 0.023749
vn 0.007899 -0.999687 0.023749
vn 0.003646 -0.999681 0.025008
vn 0.003643 -0.999681 0.024998
vn 0.007895 -0.999687 0.023754
vn 0.007899 -0.999687 0.023749
vn 0.014923 -0.999685 0.020207
vn 0.014923 -0.999685 0.020207
vn 0.007899 -0.999687 0.023749
vn 0.014978 -0.999684 0.020168
vn 0.014923 -0.999685 0.020207
vn 0.014978 -0.999684 0.020168
vn 0.020524 -0.999682 0.014670
vn 0.020524 -0.999682 0.014670
vn 0.014978 -0.999684 0.020168
vn 0.020564 -0.999682 0.014616
vn 0.020524 -0.999682 0.014670
vn 0.020564 -0.999682 0.014616
vn 0.023925 -0.999679 0.008319
vn 0.023925 -0.999679 0.008319
vn 0.020564 -0.999682 0.014616
vn 0.023899 -0.999679 0.008359
vn 0.025348 -0.999667 0.004880
vn 0.023925 -0.999679 0.008319
vn 0.025328 -0.999667 0.004879
vn 0.025328 -0.999667 0.004879
vn 0.023925 -0.999679 0.008319
vn 0.023899 -0.999679 0.008359
vn 0.024998 0.999681 -0.003643
vn 0.025008 0.999681 -0.003646
vn 0.023749 0.999687 -0.007899
vn 0.023749 0.999687 -0.007899
vn 0.025008 0.999681 -0.003646
vn 0.023754 0.999687 -0.007895
vn 0.020168 0.999684 -0.014978
vn 0.023749 0.999687 -0.007899
vn 0.020207 0.999684 -0.014923
vn 0.020207 0.999684 -0.014923
vn 0.023749 0.999687 -0.007899
vn 0.023754 0.999687 -0.007895
vn 0.014616 0.999682 -0.020564
vn 0.020168 0.999684 -0.014978
vn 0.014670 0.999682 -0.020524
vn 0.014670 0.999682 -0.020524
vn 0.020168 0.999684 -0.014978
vn 0.020207 0.999684 -0.014923
vn 0.008359 0.999680 -0.023899
vn 0.014616 0.999682 -0.020564
vn 0.008319 0.999679 -0.023925
vn 0.008319 0.999679 -0.023925
vn 0.014616 0.999682 -0.020564
vn 0.014670 0.999682 -0.020524
vn 0.008359 0.999680 -0.023899
vn 0.008319 0.999679 -0.023925
vn 0.004879 0.999667 -0.025328
vn 0.004879 0.999667 -0.025328
vn 0.008319 0.999679 -0.023925
vn 0.004880 0.999667 -0.025348
vn -0.948920 0.000000 0.315518
vn -0.989465 0.000000 0.144775
vn -0.948920 0.000000 0.315518
vn -0.948920 0.000000 0.315518
vn -0.989465 0.000000 0.144775
vn -0.989465 0.000000 0.144775
vn -0.805097 0.000000 0.593144
vn -0.948920 0.000000 0.315518
vn -0.805097 0.000000 0.593144
vn -0.805097 0.000000 0.593144
vn -0.948920 0.000000 0.315518
vn -0.948920 0.000000 0.315518
vn -0.582424 0.000000 0.812885
vn -0.805097 0.000000 0.593144
vn -0.582424 0.000000 0.812885
vn -0.582424 0.000000 0.812885
vn -0.805097 0.000000 0.593144
vn -0.805097 0.000000 0.593144
vn -0.328503 0.000000 0.944503
vn -0.582424 0.000000 0.812885
vn -0.328503 0.000000 0.944503
vn -0.328503 0.000000 0.944503
vn -0.582424 0.000000 0.812885
vn -0.582424 0.000000 0.812885
vn -0.189054 0.000000 0.981967
vn -0.328503 0.000000 0.944503
vn -0.189054 0.000000 0.981967
vn -0.189054 0.000000 0.981967
vn -0.328503 0.000000 0.944503
vn -0.328503 0.000000 0.944503
vn 0.023754 -0.999687 -0.007895
vn 0.025008 -0.999681 -0.003646
vn 0.023749 -0.999687 -0.007899
vn 0.023749 -0.999687 -0.007899
vn 0.025008 -0.999681 -0.003646
vn 0.024998 -0.999681 -0.003643
vn 0.023754 -0.999687 -0.007895
vn 0.023749 -0.999687 -0.007899
vn 0.020207 -0.999685 -0.014923
vn 0.020207 -0.999685 -0.014923
vn 0.023749 -0.999687 -0.007899
vn 0.020168 -0.999684 -0.014978
vn 0.020207 -0.999685 -0.014923
vn 0.020168 -0.999684 -0.014978
vn 0.014670 -0.999682 -0.020524
vn 0.014670 -0.999682 -0.020524
vn 0.020168 -0.999684 -0.014978
vn 0.014616 -0.999682 -0.020564
vn 0.014670 -0.999682 -0.020524
vn 0.014616 -0.999682 -0.020564
vn 0.008319 -0.999679 -0.023925
vn 0.008319 -0.999679 -0.023925
vn 0.014616 -0.999682 -0.020564
vn 0.008359 -0.999680 -0.023899
vn 0.004880 -0.999667 -0.025348
vn 0.008319 -0.999679 -0.023925
vn 0.004879 -0.999667 -0.025328
vn 0.004879 -0.999667 -0.025328
vn 0.008319 -0.999679 -0.023925
vn 0.008359 -0.999680 -0.023899
f 8/1/1 14/2/2 9/3/3
f 9/3/4 14/2/5 15/4/6
f 10/5/7 9/3/8 16/6/9
f 16/6/10 9/3/11 15/4/12
f 11/7/13 10/5/14 17/8/15
f 17/8/16 10/5/17 16/6/18
f 12/9/19 11/7/20 18/10/21
f 18/10/22 11/7/23 17/8/24
f 12/9/25 18/10/26 7/11/27
f 7/11/28 18/10/29 13/12/30
f 15/4/31 14/2/32 21/13/33
f 21/13/34 14/2/35 20/14/36
f 16/6/37 15/4/38 22/15/39
f 22/15/40 15/4/41 21/13/42
f 17/8/43 16/6/44 23/16/45
f 23/16/46 16/6/47 22/15/48
f 18/10/49 17/8/50 24/17/51
f 24/17/52 17/8/53 23/16/54
f 13/12/55 18/10/56 19/18/57
f 19/18/58 18/10/59 24/17/60
f 21/13/61 20/14/62 3/19/63
f 3/19/64 20/14/65 2/20/66
f 21/13/67 3/19/68 22/15/69
f 22/15/70 3/19/71 4/21/72
f 22/15/73 4/21/74 23/16/75
f 23/16/76 4/21/77 5/22/78
f 23/16/79 5/22/80 24/17/81
f 24/17/82 5/22/83 6/23/84
f 19/18/85 24/17/86 1/24/87
f 1/24/88 24/17/89 6/23/90
f 32/25/91 38/26/92 33/27/93
f 33/27/94 38/26/95 39/28/96
f 34/29/97 33/27/98 40/30/99
f 40/30/100 33/27/101 39/28/102
f 35/31/103 34/29/104 41/32/105
f 41/32/106 34/29/107 40/30/108
f 36/33/109 35/31/110 42/34/111
f 42/34/112 35/31/113 41/32/114
f 36/33/115 42/34/116 31/35/117
f 31/35/118 42/34/119 37/36/120
f 39/28/121 38/26/122 45/37/123
f 45/37/124 38/26/125 44/38/126
f 40/30/127 39/28/128 46/39/129
f 46/39/130 39/28/131 45/37/132
f 41/32/133 40/30/134 47/40/135
f 47/40/136 40/30/137 46/39/138
f 42/34/139 41/32/140 48/41/141
f 48/41/142 41/32/143 47/40/144
f 37/36/145 42/34/146 43/42/147
f 43/42/148 42/34/149 48/41/150
f 45/37/151 44/38/152 27/43/153
f 27/43/154 44/38/155 26/44/156
f 45/37/157 27/43/158 46/39/159
f 46/39/160 27/43/161 28/45/162
f 46/39/163 28/45/164 47/40/165
f 47/40/166 28/45/167 29/46/168
f 47/40/169 29/46/170 48/41/171
f 48/41/172 29/46/173 30/47/174
f 43/42/175 48/41/176 25/48/177
f 25/48/178 48/41/179 30/47/180
f 56/49/181 62/50/182 57/51/183
f 57/51/184 62/50/185 63/52/186
f 58/53/187 57/51/188 64/54/189
f 64/54/190 57/51/191 63/52/192
f 59/55/193 58/53/194 65/56/195
f 65/56/196 58/53/197 64/54/198
f 60/57/199 59/55/200 66/58/201
f 66/58/202 59/55/203 65/56/204
f 60/57/205 66/58/206 55/59/207
f 55/59/208 66/58/209 61/60/210
f 63/52/211 62/50/212 69/61/213
f 69/61/214 62/50/215 68/62/216
f 64/54/217 63/52/218 70/63/219
f 70/63/220 63/52/221 69/61/222
f 65/56/223 64/54/224 71/64/225
f 71/64/226 64/54/227 70/63/228
f 66/58/229 65/56/230 72/65/231
f 72/65/232 65/56/233 71/64/234
f 61/60/235 66/58/236 67/66/237
f 67/66/238 66/58/239 72/65/240
f 69/61/241 68/62/242 51/67/243
f 51/67/244 68/62/245 50/68/246
f 69/61/247 51/67/248 70/63/249
f 70/63/250 51/67/251 52/69/252
f 70/63/253 52/69/254 71/64/255
f 71/64/256 52/69/257 53/70/258
f 71/64/259 53/70/260 72/65/261
f 72/65/262 53/70/263 54/71/264
f 67/66/265 72/65/266 49/72/267
f 49/72/268 72/65/269 54/71/270
f 80/73/271 86/74/272 81/75/273
f 81/75/274 86/74/275 87/76/276
f 82/77/277 81/75/278 88/78/279
f 88/78/280 81/75/281 87/76/282
f 83/79/283 82/77/284 89/80/285
f 89/80/286 82/77/287 88/78/288
f 84/81/289 83/79/290 90/82/291
f 90/82/292 83/79/293 89/80/294
f 84/81/295 90/82/296 79/83/297
f 79/83/298 90/82/299 85/84/300
f 87/76/301 86/74/302 93/85/303
f 93/85/304 86/74/305 92/86/306
f 88/78/307 87/76/308 94/87/309
f 94/87/310 87/76/311 93/85/312
f 89/80/313 88/78/314 95/88/315
f 95/88/316 88/78/317 94/87/318
f 90/82/319 89/80/320 96/89/321
f 96/89/322 89/80/323 95/88/324
f 85/84/325 90/82/326 91/90/327
f 91/90/328 90/82/329 96/89/330
f 93/85/331 92/86/332 75/91/333
f 75/91/334 92/86/335 74/92/336
f 93/85/337 75/91/338 94/87/339
f 94/87/340 75/91/341 76/93/342
f 94/87/343 76/93/344 95/88/345
f 95/88/346 76/93/347 77/94/348
f 95/88/349 77/94/350 96/89/351
f 96/89/352 77/94/353 78/95/354
f 91/90/355 96/89/356 73/96/357
f 73/96/358 96/89/359 78/95/360
