# This file uses centimeters as units for non-parametric coordinates.

v 0.809652 -0.075799 0.685687
v 0.655930 -0.075799 0.355544
v 0.809652 0.427974 0.685687
v 0.655930 0.427974 0.355544
v 0.897858 -0.075799 0.443755
v 0.567719 -0.075799 0.597475
v 0.897858 0.427974 0.443755
v 0.567719 0.427974 0.597475
v 0.829864 -0.075799 -1.139506
v 0.587889 -0.075799 -1.411667
v 0.829864 0.427974 -1.139506
v 0.587889 0.427974 -1.411667
v 0.844959 -0.075799 -1.396574
v 0.572792 -0.075799 -1.154598
v 0.844959 0.427974 -1.396574
v 0.572792 0.427974 -1.154598
v -1.033999 -0.075799 -0.961669
v -1.299116 -0.075799 -1.211343
v -1.033999 0.427974 -0.961669
v -1.299116 0.427974 -1.211343
v -1.041721 -0.075799 -1.219063
v -1.291395 -0.075799 -0.953947
v -1.041721 0.427974 -1.219063
v -1.291395 0.427974 -0.953947
v -1.196665 -0.075799 1.106099
v -0.914680 -0.075799 0.875643
v -1.196665 0.427974 1.106099
v -0.914680 0.427974 0.875643
v -0.940443 -0.075799 1.131863
v -1.170896 -0.075799 0.849880
v -0.940443 0.427974 1.131863
v -1.170896 0.427974 0.849880
v -0.146016 -0.075799 -1.215520
v -0.485541 -0.075799 -1.347227
v -0.146016 0.427974 -1.215520
v -0.485541 0.427974 -1.347227
v -0.249926 -0.075799 -1.451136
v -0.381634 -0.075799 -1.111611
v -0.249926 0.427974 -1.451136
v -0.381634 0.427974 -1.111611
v -0.499995 -0.075799 -0.404168
v -0.627164 -0.075799 -0.745420
v -0.499995 0.427974 -0.404168
v -0.627164 0.427974 -0.745420
v -0.392953 -0.075799 -0.638377
v -0.734205 -0.075799 -0.511211
v -0.392953 0.427974 -0.638378
v -0.734205 0.427974 -0.511211
v -1.283868 -0.075799 -0.347844
v -1.411033 -0.075799 -0.689095
v -1.283868 0.427974 -0.347844
v -1.411033 0.427974 -0.689095
v -1.176826 -0.075799 -0.582053
v -1.518077 -0.075799 -0.454886
v -1.176826 0.427974 -0.582053
v -1.518077 0.427974 -0.454886
v 1.679523 0.427974 0.091593
v 1.438712 0.427974 -0.181597
v 1.679523 -0.075799 0.091592
v 1.438712 -0.075799 -0.181597
v 1.422522 0.427974 0.075404
v 1.695712 0.427974 -0.165408
v 1.422522 -0.075799 0.075403
v 1.695712 -0.075799 -0.165408
v -0.565801 0.427974 0.127159
v -0.896491 0.427974 -0.025381
v -0.565801 -0.075799 0.127159
v -0.896491 -0.075799 -0.025381
v -0.807412 0.427974 0.216233
v -0.654873 0.427974 -0.114455
v -0.807412 -0.075799 0.216233
v -0.654873 -0.075799 -0.114455
v 0.108090 0.427974 -0.629387
v 0.283056 0.427974 -0.948775
v 0.108090 -0.075799 -0.629387
v 0.283057 -0.075799 -0.948775
v 0.035878 0.427974 -0.876565
v 0.355267 0.427974 -0.701595
v 0.035878 -0.075799 -0.876565
v 0.355267 -0.075799 -0.701595
v 1.151426 0.427974 -0.495347
v 1.028993 0.427974 -0.838326
v 1.151426 -0.075799 -0.495347
v 1.028993 -0.075799 -0.838326
v 0.918715 0.427974 -0.605621
v 1.261696 0.427974 -0.728052
v 0.918724 -0.075799 -0.605621
v 1.261696 -0.075799 -0.728052
v 0.896279 0.427974 -0.001012
v 0.801315 0.427974 -0.352589
v 0.896279 -0.075799 -0.001012
v 0.801315 -0.075799 -0.352589
v 0.673013 0.427974 -0.129320
v 1.024588 0.427974 -0.224282
v 0.673013 -0.075799 -0.129320
v 1.024588 -0.075799 -0.224282
v 1.650945 0.427974 -0.858291
v 1.555983 0.427974 -1.209867
v 1.650945 -0.075799 -0.858291
v 1.555983 -0.075799 -1.209867
v 1.427671 0.427974 -0.986598
v 1.779249 0.427974 -1.081560
v 1.427671 -0.075799 -0.986598
v 1.779249 -0.075799 -1.081560
v -1.232899 0.427974 0.481902
v -1.516998 0.427974 0.254059
v -1.232899 -0.075799 0.481902
v -1.516994 -0.075799 0.254059
v -1.488868 0.427974 0.510029
v -1.261027 0.427974 0.225931
v -1.488868 -0.075799 0.510029
v -1.261027 -0.075799 0.225931
v 0.096258 0.427974 0.354837
v -0.262545 0.427974 0.292523
v 0.096258 -0.075799 0.354837
v -0.262545 -0.075799 0.292523
v -0.114300 0.427974 0.503082
v -0.051986 0.427974 0.144277
v -0.114300 -0.075799 0.503082
v -0.051986 -0.075799 0.144277
v 1.292773 0.427974 1.440825
v 0.966932 0.427974 1.278189
v 1.292773 -0.075799 1.440825
v 0.966932 -0.075799 1.278189
v 1.048541 0.427974 1.522428
v 1.211172 0.427974 1.196585
v 1.048541 -0.075799 1.522428
v 1.211172 -0.075799 1.196585
v 0.342667 0.427974 -0.123490
v 0.016827 0.427974 -0.286126
v 0.342667 -0.075799 -0.123490
v 0.016827 -0.075799 -0.286126
v 0.098436 0.427974 -0.041887
v 0.261067 0.427974 -0.367730
v 0.098436 -0.075799 -0.041887
v 0.261067 -0.075799 -0.367730
v -0.177454 0.427974 0.871462
v -0.503295 0.427974 0.708826
v -0.177454 -0.075799 0.871462
v -0.503295 -0.075799 0.708826
v -0.421686 0.427974 0.953065
v -0.259054 0.427974 0.627222
v -0.421686 -0.075799 0.953065
v -0.259054 -0.075799 0.627222
v 1.597150 0.427974 1.004550
v 1.271309 0.427974 0.841915
v 1.597150 -0.075799 1.004550
v 1.271309 -0.075799 0.841915
v 1.352918 0.427974 1.086153
v 1.515550 0.427974 0.760311
v 1.352918 -0.075799 1.086153
v 1.515550 -0.075799 0.760311
v -0.208822 0.427974 1.440825
v -0.534663 0.427974 1.278189
v -0.208822 -0.075799 1.440825
v -0.534663 -0.075799 1.278189
v -0.453054 0.427974 1.522428
v -0.290423 0.427974 1.196585
v -0.453054 -0.075799 1.522428
v -0.290423 -0.075799 1.196585
v 0.578692 0.427974 1.186522
v 0.252851 0.427974 1.023886
v 0.578692 -0.075799 1.186522
v 0.252851 -0.075799 1.023886
v 0.334460 0.427974 1.268125
v 0.497092 0.427974 0.942283
v 0.334460 -0.075799 1.268125
v 0.497092 -0.075799 0.942283
vt 0.000100 0.000100
vt 0.999900 0.000100
vt 0.000100 0.999900
vt 0.000100 0.000100
vt 0.999900 0.000100
vt 0.999900 0.999900
vt 0.000100 0.000100
vt 0.999900 0.000100
vt 0.000100 0.999900
vt 0.000100 0.000100
vt 0.999900 0.000100
vt 0.999900 0.999900
vt 0.000100 0.000100
vt 0.999900 0.000100
vt 0.000100 0.999900
vt 0.000100 0.000100
vt 0.999900 0.000100
vt 0.999900 0.999900
vt 0.000100 0.000100
vt 0.999900 0.000100
vt 0.000100 0.999900
vt 0.000100 0.000100
vt 0.999900 0.000100
vt 0.000100 0.999900
vt 0.000100 0.000100
vt 0.999900 0.000100
vt 0.000100 0.999900
vt 0.000100 0.000100
vt 0.999900 0.000100
vt 0.999900 0.999900
vt 0.000100 0.000100
vt 0.999900 0.000100
vt 0.000100 0.999900
vt 0.000100 0.000100
vt 0.999900 0.000100
vt 0.999900 0.999900
vt 0.000100 0.000100
vt 0.999900 0.000100
vt 0.000100 0.999900
vt 0.000100 0.000100
vt 0.999900 0.000100
vt 0.999900 0.999900
vt 0.000100 0.000100
vt 0.999900 0.000100
vt 0.999900 0.999900
vt 0.000100 0.000100
vt 0.999900 0.000100
vt 0.999900 0.999900
vt 0.000100 0.000100
vt 0.999900 0.000100
vt 0.999900 0.999900
vt 0.000100 0.000100
vt 0.999900 0.000100
vt 0.999900 0.999900
vt 0.000100 0.000100
vt 0.999900 0.000100
vt 0.999900 0.999900
vt 0.000100 0.000100
vt 0.999900 0.000100
vt 0.000100 0.999900
vt 0.000100 0.000100
vt 0.999900 0.000100
vt 0.999900 0.999900
vt 0.000100 0.000100
vt 0.999900 0.000100
vt 0.999900 0.999900
vt 0.000100 0.000100
vt 0.999900 0.000100
vt 0.999900 0.999900
vt 0.000100 0.000100
vt 0.999900 0.000100
vt 0.999900 0.999900
vt 0.000100 0.000100
vt 0.999900 0.000100
vt 0.999900 0.999900
vt 0.000100 0.000100
vt 0.999900 0.000100
vt 0.999900 0.999900
vt 0.000100 0.000100
vt 0.999900 0.000100
vt 0.999900 0.999900
vt 0.000100 0.000100
vt 0.999900 0.000100
vt 0.999900 0.999900
vt 0.000100 0.000100
vt 0.999900 0.000100
vt 0.999900 0.999900
vt 0.000100 0.000100
vt 0.999900 0.000100
vt 0.999900 0.999900
vt 0.999900 0.000100
vt 0.999900 0.999900
vt 0.000100 0.999900
vt 0.000100 0.000100
vt 0.999900 0.999900
vt 0.999900 0.000100
vt 0.999900 0.999900
vt 0.000100 0.999900
vt 0.000100 0.999900
vt 0.000100 0.000100
vt 0.999900 0.999900
vt 0.999900 0.000100
vt 0.999900 0.999900
vt 0.000100 0.999900
vt 0.000100 0.999900
vt 0.000100 0.000100
vt 0.999900 0.999900
vt 0.999900 0.000100
vt 0.999900 0.999900
vt 0.000100 0.999900
vt 0.999900 0.000100
vt 0.999900 0.999900
vt 0.000100 0.999900
vt 0.999900 0.000100
vt 0.999900 0.999900
vt 0.000100 0.999900
vt 0.000100 0.999900
vt 0.000100 0.000100
vt 0.999900 0.999900
vt 0.999900 0.000100
vt 0.999900 0.999900
vt 0.000100 0.999900
vt 0.000100 0.999900
vt 0.000100 0.000100
vt 0.999900 0.999900
vt 0.999900 0.000100
vt 0.999900 0.999900
vt 0.000100 0.999900
vt 0.000100 0.999900
vt 0.000100 0.000100
vt 0.999900 0.999900
vt 0.000100 0.999900
vt 0.000100 0.000100
vt 0.999900 0.999900
vt 0.000100 0.999900
vt 0.000100 0.000100
vt 0.999900 0.999900
vt 0.000100 0.999900
vt 0.000100 0.000100
vt 0.999900 0.999900
vt 0.000100 0.999900
vt 0.000100 0.000100
vt 0.999900 0.999900
vt 0.000100 0.999900
vt 0.000100 0.000100
vt 0.999900 0.999900
vt 0.999900 0.000100
vt 0.999900 0.999900
vt 0.000100 0.999900
vt 0.000100 0.999900
vt 0.000100 0.000100
vt 0.999900 0.999900
vt 0.000100 0.999900
vt 0.000100 0.000100
vt 0.999900 0.999900
vt 0.000100 0.999900
vt 0.000100 0.000100
vt 0.999900 0.999900
vt 0.000100 0.999900
vt 0.000100 0.000100
vt 0.999900 0.999900
vt 0.000100 0.999900
vt 0.000100 0.000100
vt 0.999900 0.999900
vt 0.000100 0.999900
vt 0.000100 0.000100
vt 0.999900 0.999900
vt 0.000100 0.999900
vt 0.000100 0.000100
vt 0.999900 0.999900
vt 0.000100 0.999900
vt 0.000100 0.000100
vt 0.999900 0.999900
vt 0.000100 0.999900
vt 0.000100 0.000100
vt 0.999900 0.999900
vt 0.000100 0.999900
vt 0.000100 0.000100
vt 0.999900 0.999900
vt 0.000100 0.000100
vt 0.999900 0.000100
vt 0.999900 0.999900
vt 0.000100 0.999900
vt 0.000100 0.000100
vt 0.999900 0.999900
vt 0.000100 0.000100
vt 0.999900 0.000100
vt 0.999900 0.999900
vt 0.000100 0.999900
vt 0.000100 0.000100
vt 0.999900 0.999900
vt 0.000100 0.000100
vt 0.999900 0.000100
vt 0.999900 0.999900
vt 0.000100 0.999900
vt 0.000100 0.000100
vt 0.999900 0.999900
vt 0.000100 0.000100
vt 0.999900 0.000100
vt 0.999900 0.999900
vt 0.000100 0.999900
vt 0.000100 0.000100
vt 0.999900 0.999900
vt 0.000100 0.000100
vt 0.999900 0.000100
vt 0.999900 0.999900
vt 0.000100 0.999900
vt 0.000100 0.000100
vt 0.999900 0.999900
vt 0.000100 0.000100
vt 0.999900 0.000100
vt 0.999900 0.999900
vt 0.000100 0.999900
vt 0.000100 0.000100
vt 0.999900 0.999900
vt 0.000100 0.000100
vt 0.999900 0.000100
vt 0.999900 0.999900
vt 0.000100 0.999900
vt 0.000100 0.000100
vt 0.999900 0.999900
vt 0.000100 0.000100
vt 0.999900 0.000100
vt 0.999900 0.999900
vt 0.000100 0.999900
vt 0.000100 0.000100
vt 0.999900 0.999900
vt 0.000100 0.000100
vt 0.999900 0.000100
vt 0.999900 0.999900
vt 0.000100 0.999900
vt 0.000100 0.000100
vt 0.999900 0.999900
vt 0.000100 0.000100
vt 0.999900 0.000100
vt 0.999900 0.999900
vt 0.000100 0.999900
vt 0.000100 0.000100
vt 0.999900 0.999900
vt 0.000100 0.000100
vt 0.999900 0.000100
vt 0.999900 0.999900
vt 0.000100 0.999900
vt 0.000100 0.000100
vt 0.999900 0.999900
vt 0.000100 0.000100
vt 0.999900 0.000100
vt 0.999900 0.999900
vt 0.000100 0.999900
vt 0.000100 0.000100
vt 0.999900 0.999900
vn -0.906547 0.000000 0.422104
vn -0.906547 0.000000 0.422104
vn -0.906547 0.000000 0.422104
vn 0.422104 0.000000 0.906547
vn 0.422104 0.000000 0.906547
vn 0.422104 0.000000 0.906547
vn -0.747335 0.000000 0.664448
vn -0.747335 0.000000 0.664448
vn -0.747335 0.000000 0.664448
vn 0.664448 0.000000 0.747335
vn 0.664448 0.000000 0.747335
vn 0.664448 0.000000 0.747335
vn -0.685585 0.000000 0.727992
vn -0.685585 0.000000 0.727992
vn -0.685585 0.000000 0.727992
vn 0.727992 0.000000 0.685585
vn 0.727992 0.000000 0.685585
vn 0.727992 0.000000 0.685585
vn -0.632813 0.000000 -0.774305
vn -0.632813 0.000000 -0.774305
vn -0.632813 0.000000 -0.774305
vn -0.774305 0.000000 0.632813
vn -0.774305 0.000000 0.632813
vn -0.774305 0.000000 0.632813
vn -0.361660 0.000000 0.932310
vn -0.361660 0.000000 0.932310
vn -0.361660 0.000000 0.932310
vn 0.932310 0.000000 0.361660
vn 0.932310 0.000000 0.361660
vn 0.932310 0.000000 0.361660
vn -0.937052 0.000000 0.349191
vn -0.937052 0.000000 0.349191
vn -0.937052 0.000000 0.349191
vn 0.349191 0.000000 0.937052
vn 0.349191 0.000000 0.937052
vn 0.349191 0.000000 0.937052
vn -0.937052 0.000000 0.349191
vn -0.937052 0.000000 0.349191
vn -0.937052 0.000000 0.349191
vn 0.349191 0.000000 0.937052
vn 0.349191 0.000000 0.937052
vn 0.349191 0.000000 0.937052
vn 0.750161 0.000000 -0.661255
vn 0.750161 0.000000 -0.661255
vn 0.750161 0.000000 -0.661255
vn 0.661255 0.000000 0.750162
vn 0.661255 0.000000 0.750162
vn 0.661255 0.000000 0.750162
vn 0.418865 0.000000 -0.908049
vn 0.418865 0.000000 -0.908049
vn 0.418865 0.000000 -0.908049
vn 0.908049 0.000000 0.418865
vn 0.908049 0.000000 0.418865
vn 0.908049 0.000000 0.418865
vn 0.877019 0.000000 0.480456
vn 0.877019 0.000000 0.480456
vn 0.877019 0.000000 0.480456
vn -0.480456 0.000000 0.877019
vn -0.480456 0.000000 0.877019
vn -0.480456 0.000000 0.877019
vn 0.941795 0.000000 -0.336188
vn 0.941795 0.000000 -0.336188
vn 0.941795 0.000000 -0.336188
vn 0.336188 0.000000 0.941795
vn 0.336188 0.000000 0.941795
vn 0.336188 0.000000 0.941795
vn 0.965404 0.000000 -0.260759
vn 0.965404 0.000000 -0.260759
vn 0.965404 0.000000 -0.260759
vn 0.260759 0.000000 0.965404
vn 0.260759 0.000000 0.965404
vn 0.260759 0.000000 0.965404
vn 0.965404 0.000000 -0.260759
vn 0.965404 0.000000 -0.260759
vn 0.965404 0.000000 -0.260759
vn 0.260760 0.000000 0.965404
vn 0.260760 0.000000 0.965404
vn 0.260760 0.000000 0.965404
vn 0.625641 0.000000 -0.780111
vn 0.625641 0.000000 -0.780111
vn 0.625641 0.000000 -0.780111
vn 0.780112 0.000000 0.625640
vn 0.780112 0.000000 0.625640
vn 0.780112 0.000000 0.625640
vn 0.171110 0.000000 -0.985252
vn 0.171110 0.000000 -0.985252
vn 0.171110 0.000000 -0.985252
vn 0.985252 0.000000 0.171111
vn 0.985252 0.000000 0.171111
vn 0.985252 0.000000 0.171111
vn -0.906547 0.000000 0.422104
vn -0.906547 0.000000 0.422104
vn -0.906547 0.000000 0.422104
vn 0.422104 0.000000 0.906547
vn 0.422104 0.000000 0.906547
vn 0.422104 0.000000 0.906547
vn -0.747335 0.000000 0.664448
vn -0.747335 0.000000 0.664448
vn -0.747335 0.000000 0.664448
vn 0.664448 0.000000 0.747334
vn 0.664448 0.000000 0.747334
vn 0.664448 0.000000 0.747334
vn -0.685585 0.000000 0.727992
vn -0.685585 0.000000 0.727992
vn -0.685585 0.000000 0.727992
vn 0.727992 0.000000 0.685585
vn 0.727992 0.000000 0.685585
vn 0.727992 0.000000 0.685585
vn -0.632813 0.000000 -0.774305
vn -0.632813 0.000000 -0.774305
vn -0.632813 0.000000 -0.774305
vn -0.774305 0.000000 0.632813
vn -0.774305 0.000000 0.632813
vn -0.774305 0.000000 0.632813
vn -0.361659 0.000000 0.932310
vn -0.361659 0.000000 0.932310
vn -0.361659 0.000000 0.932310
vn 0.932310 0.000000 0.361660
vn 0.932310 0.000000 0.361660
vn 0.932310 0.000000 0.361660
vn -0.937052 0.000000 0.349191
vn -0.937052 0.000000 0.349191
vn -0.937052 0.000000 0.349191
vn 0.349191 0.000000 0.937052
vn 0.349191 0.000000 0.937052
vn 0.349191 0.000000 0.937052
vn -0.937052 0.000000 0.349191
vn -0.937052 0.000000 0.349191
vn -0.937052 0.000000 0.349191
vn 0.349191 0.000000 0.937052
vn 0.349191 0.000000 0.937052
vn 0.349191 0.000000 0.937052
vn 0.750161 0.000000 -0.661255
vn 0.750161 0.000000 -0.661255
vn 0.750161 0.000000 -0.661255
vn 0.661254 0.000000 0.750162
vn 0.661254 0.000000 0.750162
vn 0.661254 0.000000 0.750162
vn 0.418865 0.000000 -0.908049
vn 0.418865 0.000000 -0.908049
vn 0.418865 0.000000 -0.908049
vn 0.908049 0.000000 0.418865
vn 0.908049 0.000000 0.418865
vn 0.908049 0.000000 0.418865
vn 0.877019 0.000000 0.480456
vn 0.877019 0.000000 0.480456
vn 0.877019 0.000000 0.480456
vn -0.480456 0.000000 0.877019
vn -0.480456 0.000000 0.877019
vn -0.480456 0.000000 0.877019
vn 0.941795 0.000000 -0.336188
vn 0.941795 0.000000 -0.336188
vn 0.941795 0.000000 -0.336188
vn 0.336188 0.000000 0.941795
vn 0.336188 0.000000 0.941795
vn 0.336188 0.000000 0.941795
vn 0.965404 0.000000 -0.260759
vn 0.965404 0.000000 -0.260759
vn 0.965404 0.000000 -0.260759
vn 0.260760 0.000000 0.965404
vn 0.260760 0.000000 0.965404
vn 0.260760 0.000000 0.965404
vn 0.965404 0.000000 -0.260760
vn 0.965404 0.000000 -0.260760
vn 0.965404 0.000000 -0.260760
vn 0.260759 0.000000 0.965404
vn 0.260759 0.000000 0.965404
vn 0.260759 0.000000 0.965404
vn 0.625640 0.000000 -0.780112
vn 0.625640 0.000000 -0.780112
vn 0.625640 0.000000 -0.780112
vn 0.780113 0.000000 0.625639
vn 0.780113 0.000000 0.625639
vn 0.780113 0.000000 0.625639
vn 0.171110 0.000000 -0.985252
vn 0.171110 0.000000 -0.985252
vn 0.171110 0.000000 -0.985252
vn 0.985252 0.000000 0.171111
vn 0.985252 0.000000 0.171111
vn 0.985252 0.000000 0.171111
vn 0.446586 0.000000 -0.894741
vn 0.446586 0.000000 -0.894741
vn 0.446586 0.000000 -0.894741
vn 0.446586 0.000000 -0.894741
vn 0.446586 0.000000 -0.894741
vn 0.446586 0.000000 -0.894741
vn 0.894741 0.000000 0.446586
vn 0.894741 0.000000 0.446586
vn 0.894741 0.000000 0.446586
vn 0.894741 0.000000 0.446586
vn 0.894741 0.000000 0.446586
vn 0.894741 0.000000 0.446586
vn 0.446586 0.000000 -0.894741
vn 0.446586 0.000000 -0.894741
vn 0.446586 0.000000 -0.894741
vn 0.446586 0.000000 -0.894741
vn 0.446586 0.000000 -0.894741
vn 0.446586 0.000000 -0.894741
vn 0.894741 0.000000 0.446586
vn 0.894741 0.000000 0.446586
vn 0.894741 0.000000 0.446586
vn 0.894741 0.000000 0.446586
vn 0.894741 0.000000 0.446586
vn 0.894741 0.000000 0.446586
vn 0.446586 0.000000 -0.894741
vn 0.446586 0.000000 -0.894741
vn 0.446586 0.000000 -0.894741
vn 0.446586 0.000000 -0.894741
vn 0.446586 0.000000 -0.894741
vn 0.446586 0.000000 -0.894741
vn 0.894741 0.000000 0.446586
vn 0.894741 0.000000 0.446586
vn 0.894741 0.000000 0.446586
vn 0.894741 0.000000 0.446586
vn 0.894741 0.000000 0.446586
vn 0.894741 0.000000 0.446586
vn 0.446586 0.000000 -0.894741
vn 0.446586 0.000000 -0.894741
vn 0.446586 0.000000 -0.894741
vn 0.446586 0.000000 -0.894741
vn 0.446586 0.000000 -0.894741
vn 0.446586 0.000000 -0.894741
vn 0.894741 0.000000 0.446586
vn 0.894741 0.000000 0.446586
vn 0.894741 0.000000 0.446586
vn 0.894741 0.000000 0.446586
vn 0.894741 0.000000 0.446586
vn 0.894741 0.000000 0.446586
vn 0.446586 0.000000 -0.894741
vn 0.446586 0.000000 -0.894741
vn 0.446586 0.000000 -0.894741
vn 0.446586 0.000000 -0.894741
vn 0.446586 0.000000 -0.894741
vn 0.446586 0.000000 -0.894741
vn 0.894741 0.000000 0.446586
vn 0.894741 0.000000 0.446586
vn 0.894741 0.000000 0.446586
vn 0.894741 0.000000 0.446586
vn 0.894741 0.000000 0.446586
vn 0.894741 0.000000 0.446586
vn 0.446586 0.000000 -0.894741
vn 0.446586 0.000000 -0.894741
vn 0.446586 0.000000 -0.894741
vn 0.446586 0.000000 -0.894741
vn 0.446586 0.000000 -0.894741
vn 0.446586 0.000000 -0.894741
vn 0.894741 0.000000 0.446586
vn 0.894741 0.000000 0.446586
vn 0.894741 0.000000 0.446586
vn 0.894741 0.000000 0.446586
vn 0.894741 0.000000 0.446586
vn 0.894741 0.000000 0.446586
f 2/1/1 1/2/2 4/3/3
f 6/4/4 5/5/5 7/6/6
f 10/7/7 9/8/8 12/9/9
f 14/10/10 13/11/11 15/12/12
f 18/13/13 17/14/14 20/15/15
f 22/16/16 21/17/17 23/18/18
f 26/19/19 25/20/20 28/21/21
f 30/22/22 29/23/23 32/24/24
f 34/25/25 33/26/26 36/27/27
f 38/28/28 37/29/29 39/30/30
f 42/31/31 41/32/32 44/33/33
f 46/34/34 45/35/35 47/36/36
f 50/37/37 49/38/38 52/39/39
f 54/40/40 53/41/41 55/42/42
f 59/43/43 60/44/44 58/45/45
f 63/46/46 64/47/47 62/48/48
f 67/49/49 68/50/50 66/51/51
f 71/52/52 72/53/53 70/54/54
f 75/55/55 76/56/56 74/57/57
f 79/58/58 80/59/59 77/60/60
f 83/61/61 84/62/62 82/63/63
f 87/64/64 88/65/65 86/66/66
f 91/67/67 92/68/68 90/69/69
f 95/70/70 96/71/71 94/72/72
f 99/73/73 100/74/74 98/75/75
f 103/76/76 104/77/77 102/78/78
f 107/79/79 108/80/80 106/81/81
f 111/82/82 112/83/83 110/84/84
f 115/85/85 116/86/86 114/87/87
f 119/88/88 120/89/89 118/90/90
f 1/91/91 3/92/92 4/3/93
f 8/93/94 6/94/95 7/95/96
f 9/96/97 11/97/98 12/98/99
f 16/99/100 14/100/101 15/101/102
f 17/102/103 19/103/104 20/104/105
f 24/105/106 22/106/107 23/107/108
f 25/108/109 27/109/110 28/110/111
f 29/111/112 31/112/113 32/113/114
f 33/114/115 35/115/116 36/116/117
f 40/117/118 38/118/119 39/119/120
f 41/120/121 43/121/122 44/122/123
f 48/123/124 46/124/125 47/125/126
f 49/126/127 51/127/128 52/128/129
f 56/129/130 54/130/131 55/131/132
f 57/132/133 59/133/134 58/134/135
f 61/135/136 63/136/137 62/137/138
f 65/138/139 67/139/140 66/140/141
f 69/141/142 71/142/143 70/143/144
f 73/144/145 75/145/146 74/146/147
f 80/147/148 78/148/149 77/149/150
f 81/150/151 83/151/152 82/152/153
f 85/153/154 87/154/155 86/155/156
f 89/156/157 91/157/158 90/158/159
f 93/159/160 95/160/161 94/161/162
f 97/162/163 99/163/164 98/164/165
f 101/165/166 103/166/167 102/167/168
f 105/168/169 107/169/170 106/170/171
f 109/171/172 111/172/173 110/173/174
f 113/174/175 115/175/176 114/176/177
f 117/177/178 119/178/179 118/179/180
f 123/180/181 124/181/182 122/182/183
f 121/183/184 123/184/185 122/185/186
f 127/186/187 128/187/188 126/188/189
f 125/189/190 127/190/191 126/191/192
f 131/192/193 132/193/194 130/194/195
f 129/195/196 131/196/197 130/197/198
f 135/198/199 136/199/200 134/200/201
f 133/201/202 135/202/203 134/203/204
f 139/204/205 140/205/206 138/206/207
f 137/207/208 139/208/209 138/209/210
f 143/210/211 144/211/212 142/212/213
f 141/213/214 143/214/215 142/215/216
f 147/216/217 148/217/218 146/218/219
f 145/219/220 147/220/221 146/221/222
f 151/222/223 152/223/224 150/224/225
f 149/225/226 151/226/227 150/227/228
f 155/228/229 156/229/230 154/230/231
f 153/231/232 155/232/233 154/233/234
f 159/234/235 160/235/236 158/236/237
f 157/237/238 159/238/239 158/239/240
f 163/240/241 164/241/242 162/242/243
f 161/243/244 163/244/245 162/245/246
f 167/246/247 168/247/248 166/248/249
f 165/249/250 167/250/251 166/251/252
