# This file uses centimeters as units for non-parametric coordinates.

v -5.867111 0.628181 -3.965907
v -5.867111 0.628181 -0.117192
v -2.041553 0.628181 -0.117191
v -2.041546 0.628181 -3.965905
v 2.041550 0.628181 -0.117191
v 2.041546 0.628181 -3.965907
v -2.041546 0.000000 -3.965905
v 2.041546 0.000000 -3.965907
v -5.867111 0.628181 3.965907
v -5.867111 0.000000 3.965907
v -5.867111 0.000000 -0.117192
v 5.867107 0.628181 -0.117192
v 5.867107 0.000000 -0.117192
v 5.867107 0.628181 3.965907
v 5.867107 0.000000 3.965907
v -2.041550 0.628181 3.965907
v -2.041550 0.000000 3.965907
v 2.041550 0.628181 3.965907
v 2.041550 0.000000 3.965907
v 5.867111 0.628181 -3.965907
v -5.867111 0.000000 -3.965907
v 5.867111 0.000000 -3.965905
v -2.041550 3.508746 -3.882905
v -2.041550 0.628181 -3.882905
v -2.041550 3.508746 -3.768216
v -2.041550 0.628181 -3.768216
v -5.609566 0.628181 -3.882905
v -5.609566 3.508746 -3.882905
v -5.609570 3.508746 -3.768214
v -5.609570 0.628181 -3.768214
v -5.867107 0.628181 -3.685210
v -5.609566 0.628181 -3.965907
v -5.609566 0.628181 -3.685210
v -5.867107 3.782750 -3.685210
v -5.609566 3.782750 -3.685210
v -5.609566 3.782750 -3.965907
v -5.867111 3.782750 -3.965907
v 1.784016 3.508746 -3.882905
v 1.784016 0.628181 -3.882905
v 1.784008 3.508746 -3.768214
v 1.784008 0.628181 -3.768214
v -1.784008 0.628181 -3.882903
v -1.784008 3.508746 -3.882903
v -1.784008 3.508746 -3.768214
v -1.784012 0.628181 -3.768214
v -2.041550 0.628181 -3.685212
v -1.784008 0.628181 -3.965907
v -1.784012 0.628181 -3.685210
v -2.041550 3.782750 -3.685212
v -1.784012 3.782750 -3.685210
v -1.784008 3.782750 -3.965907
v -2.041546 3.782750 -3.965905
v 5.609570 2.763706 -3.882905
v 5.609570 -0.116858 -3.882905
v 5.609570 2.763706 -3.768214
v 5.609570 -0.116858 -3.768214
v 2.041550 -0.116858 -3.882905
v 2.041550 2.763706 -3.882905
v 2.041553 2.763706 -3.768216
v 2.041553 -0.116858 -3.768216
v 1.784008 0.628181 -3.965909
v 1.784012 0.628181 -3.685212
v 2.041550 0.628181 -3.685212
v 1.784012 3.782750 -3.685212
v 2.041550 3.782750 -3.685212
v 2.041546 3.782750 -3.965907
v 1.784008 3.782750 -3.965909
v 5.609570 0.628181 -3.965907
v 5.609570 0.628181 -3.685210
v 5.867107 0.628181 -3.685212
v 5.609570 3.782750 -3.685210
v 5.867107 3.782750 -3.685212
v 5.867111 3.782750 -3.965907
v 5.609570 3.782750 -3.965907
v -5.784107 3.508746 0.140348
v -5.784107 0.628181 0.140348
v -5.669415 3.508746 0.140347
v -5.669415 0.628181 0.140347
v -5.784107 0.628181 3.708367
v -5.784107 3.508746 3.708369
v -5.669415 3.508746 3.708367
v -5.669415 0.628181 3.708367
v -5.586414 0.628181 3.965906
v -5.867107 0.628181 3.708368
v -5.586411 0.628181 3.708367
v -5.586414 3.782750 3.965906
v -5.586411 3.782750 3.708366
v -5.867107 3.782750 3.708368
v -5.867111 3.782750 3.965907
v -5.784107 2.769291 -3.685212
v -5.784107 -0.111273 -3.685212
v -5.669418 2.769291 -3.685210
v -5.669418 -0.111273 -3.685210
v -5.784103 -0.111273 -0.117193
v -5.784103 2.769291 -0.117192
v -5.669415 2.769291 -0.117192
v -5.669415 -0.111273 -0.117191
v -5.867111 0.628181 0.140347
v -5.586411 0.628181 0.140347
v -5.586414 0.628181 -0.117191
v -5.586411 3.782750 0.140347
v -5.586414 3.782750 -0.117192
v -5.867111 3.782750 -0.117191
v -5.867111 3.782750 0.140347
v 5.586411 0.628181 3.965907
v 5.586414 0.628181 3.708367
v 5.867111 0.628181 3.708367
v 5.867107 3.782750 3.965907
v 5.867111 3.782750 3.708367
v 5.586414 3.782750 3.708367
v 5.586411 3.782750 3.965907
v 5.669415 3.508746 0.140347
v 5.669415 0.628181 0.140347
v 5.784107 3.508746 0.140347
v 5.784107 0.628181 0.140347
v 5.669415 0.628181 3.708367
v 5.669415 3.508746 3.708367
v 5.784103 3.508746 3.708367
v 5.784103 0.628181 3.708367
v 5.669418 3.508746 -3.685212
v 5.669418 0.628181 -3.685212
v 5.784111 3.508746 -3.685210
v 5.784111 0.628181 -3.685210
v 5.669418 0.628181 -0.117192
v 5.669418 3.508746 -0.117192
v 5.784107 3.508746 -0.117193
v 5.784107 0.628181 -0.117192
v 5.586414 0.628181 0.140347
v 5.867111 0.628181 0.140347
v 5.586411 0.628181 -0.117192
v 5.867111 3.782750 0.140347
v 5.867107 3.782750 -0.117192
v 5.586411 3.782750 -0.117192
v 5.586414 3.782750 0.140347
vt 0.618467 0.544969
vt 0.618467 0.176203
vt 0.989465 0.176203
vt 0.989465 0.544969
vt 0.992566 0.556760
vt 0.621569 0.556760
vt 0.621569 0.163170
vt 0.992566 0.163170
vt 0.032238 0.106111
vt 0.032238 0.029414
vt 0.530758 0.029414
vt 0.530758 0.106111
vt 0.032238 0.106111
vt 0.032238 0.029414
vt 0.530758 0.029414
vt 0.530758 0.106111
vt 0.032238 0.106111
vt 0.032238 0.029414
vt 0.530758 0.029414
vt 0.530758 0.106111
vt 0.032238 0.106111
vt 0.530758 0.106111
vt 0.530758 0.029414
vt 0.032238 0.029414
vt 0.992566 0.556760
vt 0.621569 0.556760
vt 0.621569 0.163170
vt 0.992566 0.163170
vt 0.618467 0.544969
vt 0.618467 0.176203
vt 0.989465 0.176203
vt 0.989465 0.544969
vt 0.618467 0.544969
vt 0.618467 0.176203
vt 0.989465 0.176203
vt 0.989465 0.544969
vt 0.618467 0.544969
vt 0.618467 0.176203
vt 0.989465 0.176203
vt 0.989465 0.544969
vt 0.047959 0.106111
vt 0.047960 0.029414
vt 0.515036 0.029414
vt 0.515036 0.106111
vt 0.047959 0.106111
vt 0.047960 0.029414
vt 0.515036 0.029414
vt 0.515036 0.106111
vt 0.047959 0.106111
vt 0.047960 0.029414
vt 0.515036 0.029414
vt 0.515036 0.106111
vt 0.047959 0.106111
vt 0.047960 0.029414
vt 0.515036 0.029414
vt 0.515036 0.106111
vt 0.047959 0.106111
vt 0.515036 0.106111
vt 0.515036 0.029414
vt 0.047960 0.029414
vt 0.047959 0.106111
vt 0.515036 0.106111
vt 0.515036 0.029414
vt 0.047960 0.029414
vt 0.030010 0.982032
vt 0.611373 0.982032
vt 0.611373 0.261926
vt 0.030010 0.261925
vt 0.030010 0.982032
vt 0.030010 0.261925
vt 0.611373 0.261925
vt 0.611373 0.982032
vt 0.006862 0.261926
vt 0.006863 0.982031
vt 0.995703 0.079834
vt 0.995703 0.044183
vt 0.558816 0.044182
vt 0.558816 0.079834
vt 0.559061 0.079643
vt 0.559061 0.043976
vt 0.597935 0.043976
vt 0.597935 0.079643
vt 0.995703 0.043909
vt 0.558816 0.043909
vt 0.558816 0.079576
vt 0.995703 0.079576
vt 0.995703 0.043939
vt 0.558816 0.043939
vt 0.558816 0.079606
vt 0.995703 0.079607
vt 0.558816 0.079862
vt 0.995703 0.079863
vt 0.995703 0.044210
vt 0.558816 0.044210
vt 0.030010 0.982032
vt 0.611373 0.982032
vt 0.611373 0.261926
vt 0.030010 0.261925
vt 0.030010 0.982032
vt 0.030010 0.261925
vt 0.611373 0.261925
vt 0.611373 0.982032
vt 0.006862 0.261926
vt 0.006863 0.982031
vt 0.995703 0.079834
vt 0.995703 0.044183
vt 0.558816 0.044182
vt 0.558816 0.079834
vt 0.559061 0.079643
vt 0.559061 0.043976
vt 0.597935 0.043976
vt 0.597935 0.079643
vt 0.995703 0.043909
vt 0.558816 0.043909
vt 0.558816 0.079576
vt 0.995703 0.079576
vt 0.995703 0.043939
vt 0.558816 0.043939
vt 0.558816 0.079606
vt 0.995703 0.079607
vt 0.558816 0.079862
vt 0.995703 0.079863
vt 0.995703 0.044210
vt 0.558816 0.044210
vt 0.030010 0.982032
vt 0.611373 0.982032
vt 0.611373 0.261926
vt 0.030010 0.261925
vt 0.030010 0.982032
vt 0.030010 0.261925
vt 0.611373 0.261925
vt 0.611373 0.982032
vt 0.006862 0.261926
vt 0.006863 0.982031
vt 0.995703 0.079834
vt 0.995703 0.044183
vt 0.558816 0.044182
vt 0.558816 0.079834
vt 0.559061 0.079643
vt 0.559061 0.043976
vt 0.597935 0.043976
vt 0.597935 0.079643
vt 0.995703 0.043909
vt 0.558816 0.043909
vt 0.558816 0.079576
vt 0.995703 0.079576
vt 0.995703 0.043939
vt 0.558816 0.043939
vt 0.558816 0.079606
vt 0.995703 0.079607
vt 0.558816 0.079862
vt 0.995703 0.079863
vt 0.995703 0.044210
vt 0.558816 0.044210
vt 0.995703 0.079834
vt 0.995703 0.044183
vt 0.558816 0.044182
vt 0.558816 0.079834
vt 0.559061 0.079643
vt 0.559061 0.043976
vt 0.597935 0.043976
vt 0.597935 0.079643
vt 0.995703 0.043909
vt 0.558816 0.043909
vt 0.558816 0.079576
vt 0.995703 0.079576
vt 0.995703 0.043939
vt 0.558816 0.043939
vt 0.558816 0.079606
vt 0.995703 0.079607
vt 0.558816 0.079862
vt 0.995703 0.079863
vt 0.995703 0.044210
vt 0.558816 0.044210
vt 0.030010 0.982032
vt 0.611373 0.982032
vt 0.611373 0.261926
vt 0.030010 0.261925
vt 0.030010 0.982032
vt 0.030010 0.261925
vt 0.611373 0.261925
vt 0.611373 0.982032
vt 0.006862 0.261926
vt 0.006863 0.982031
vt 0.995703 0.079834
vt 0.995703 0.044183
vt 0.558816 0.044182
vt 0.558816 0.079834
vt 0.559061 0.079643
vt 0.559061 0.043976
vt 0.597935 0.043976
vt 0.597935 0.079643
vt 0.995703 0.043909
vt 0.558816 0.043909
vt 0.558816 0.079576
vt 0.995703 0.079576
vt 0.995703 0.043939
vt 0.558816 0.043939
vt 0.558816 0.079606
vt 0.995703 0.079607
vt 0.558816 0.079862
vt 0.995703 0.079863
vt 0.995703 0.044210
vt 0.558816 0.044210
vt 0.030010 0.982032
vt 0.611373 0.982032
vt 0.611373 0.261926
vt 0.030010 0.261925
vt 0.030010 0.982032
vt 0.030010 0.261925
vt 0.611373 0.261925
vt 0.611373 0.982032
vt 0.006862 0.261926
vt 0.006863 0.982031
vt 0.995703 0.079834
vt 0.995703 0.044183
vt 0.558816 0.044182
vt 0.558816 0.079834
vt 0.559061 0.079643
vt 0.559061 0.043976
vt 0.597935 0.043976
vt 0.597935 0.079643
vt 0.995703 0.043909
vt 0.558816 0.043909
vt 0.558816 0.079576
vt 0.995703 0.079576
vt 0.995703 0.043939
vt 0.558816 0.043939
vt 0.558816 0.079606
vt 0.995703 0.079607
vt 0.558816 0.079862
vt 0.995703 0.079863
vt 0.995703 0.044210
vt 0.558816 0.044210
vt 0.995703 0.079834
vt 0.995703 0.044183
vt 0.558816 0.044182
vt 0.558816 0.079834
vt 0.559061 0.079643
vt 0.559061 0.043976
vt 0.597935 0.043976
vt 0.597935 0.079643
vt 0.995703 0.043909
vt 0.558816 0.043909
vt 0.558816 0.079576
vt 0.995703 0.079576
vt 0.995703 0.043939
vt 0.558816 0.043939
vt 0.558816 0.079606
vt 0.995703 0.079607
vt 0.558816 0.079862
vt 0.995703 0.079863
vt 0.995703 0.044210
vt 0.558816 0.044210
vt 0.030010 0.982032
vt 0.611373 0.982032
vt 0.611373 0.261926
vt 0.030010 0.261925
vt 0.030010 0.982032
vt 0.030010 0.261925
vt 0.611373 0.261925
vt 0.611373 0.982032
vt 0.006862 0.261926
vt 0.006863 0.982031
vt 0.030010 0.982032
vt 0.611373 0.982032
vt 0.611373 0.261926
vt 0.030010 0.261925
vt 0.030010 0.982032
vt 0.030010 0.261925
vt 0.611373 0.261925
vt 0.611373 0.982032
vt 0.006862 0.261926
vt 0.006863 0.982031
vt 0.995703 0.079834
vt 0.995703 0.044183
vt 0.558816 0.044182
vt 0.558816 0.079834
vt 0.559061 0.079643
vt 0.559061 0.043976
vt 0.597935 0.043976
vt 0.597935 0.079643
vt 0.995703 0.043909
vt 0.558816 0.043909
vt 0.558816 0.079576
vt 0.995703 0.079576
vt 0.995703 0.043939
vt 0.558816 0.043939
vt 0.558816 0.079606
vt 0.995703 0.079607
vt 0.558816 0.079862
vt 0.995703 0.079863
vt 0.995703 0.044210
vt 0.558816 0.044210
vn 0.000000 1.000000 0.000000
vn 0.000000 1.000000 0.000000
vn 0.000000 1.000000 0.000000
vn 0.000000 1.000000 0.000000
vn 0.000000 1.000000 0.000000
vn 0.000000 1.000000 0.000000
vn 0.000000 1.000000 0.000000
vn 0.000000 1.000000 0.000000
vn 0.000000 0.000000 -1.000000
vn 0.000000 0.000000 -1.000000
vn 0.000000 0.000000 -1.000000
vn 0.000000 0.000000 -1.000000
vn -1.000000 0.000000 -0.000000
vn -1.000000 0.000000 -0.000000
vn -1.000000 0.000000 -0.000000
vn -1.000000 0.000000 -0.000000
vn 1.000000 -0.000001 0.000000
vn 1.000000 -0.000001 0.000000
vn 1.000000 -0.000001 0.000000
vn 1.000000 -0.000001 0.000000
vn -0.000000 0.000000 1.000000
vn -0.000000 0.000000 1.000000
vn -0.000000 0.000000 1.000000
vn -0.000000 0.000000 1.000000
vn 0.000000 1.000000 0.000000
vn 0.000000 1.000000 0.000000
vn 0.000000 1.000000 0.000000
vn 0.000000 1.000000 0.000000
vn 0.000000 1.000000 0.000000
vn 0.000000 1.000000 0.000000
vn 0.000000 1.000000 0.000000
vn 0.000000 1.000000 0.000000
vn 0.000000 1.000000 0.000000
vn 0.000000 1.000000 0.000000
vn 0.000000 1.000000 0.000000
vn 0.000000 1.000000 0.000000
vn 0.000000 1.000000 0.000000
vn 0.000000 1.000000 0.000000
vn 0.000000 1.000000 0.000000
vn 0.000000 1.000000 0.000000
vn 0.000000 0.000000 -1.000000
vn 0.000000 0.000000 -1.000000
vn 0.000000 0.000000 -1.000000
vn 0.000000 0.000000 -1.000000
vn 0.000000 0.000000 -1.000000
vn 0.000000 0.000000 -1.000000
vn 0.000000 0.000000 -1.000000
vn 0.000000 0.000000 -1.000000
vn -1.000000 0.000000 -0.000000
vn -1.000000 0.000000 -0.000000
vn -1.000000 0.000000 -0.000000
vn -1.000000 0.000000 -0.000000
vn 1.000000 -0.000001 0.000000
vn 1.000000 -0.000001 0.000000
vn 1.000000 -0.000001 0.000000
vn 1.000000 -0.000001 0.000000
vn -0.000000 0.000000 1.000000
vn -0.000000 0.000000 1.000000
vn -0.000000 0.000000 1.000000
vn -0.000000 0.000000 1.000000
vn -0.000000 0.000000 1.000000
vn -0.000000 0.000000 1.000000
vn -0.000000 0.000000 1.000000
vn -0.000000 0.000000 1.000000
vn 0.000000 0.000000 -1.000000
vn 0.000000 0.000000 -1.000000
vn 0.000000 0.000000 -1.000000
vn 0.000000 0.000000 -1.000000
vn -0.000000 0.000000 1.000000
vn -0.000000 0.000000 1.000000
vn -0.000000 0.000000 1.000000
vn -0.000000 0.000000 1.000000
vn 0.000000 1.000000 0.000000
vn 0.000000 1.000000 0.000000
vn 0.000000 1.000000 0.000000
vn 0.000000 1.000000 0.000000
vn -1.000000 0.000000 -0.000000
vn -1.000000 0.000000 -0.000000
vn -1.000000 0.000000 -0.000000
vn -1.000000 0.000000 -0.000000
vn 0.000000 1.000000 0.000000
vn 0.000000 1.000000 0.000000
vn 0.000000 1.000000 0.000000
vn 0.000000 1.000000 0.000000
vn -0.000000 0.000000 1.000000
vn -0.000000 0.000000 1.000000
vn -0.000000 0.000000 1.000000
vn -0.000000 0.000000 1.000000
vn 0.000000 0.000000 -1.000000
vn 0.000000 0.000000 -1.000000
vn 0.000000 0.000000 -1.000000
vn 0.000000 0.000000 -1.000000
vn 1.000000 0.000000 0.000000
vn 1.000000 0.000000 0.000000
vn 1.000000 0.000000 0.000000
vn 1.000000 0.000000 0.000000
vn 0.000000 0.000000 -1.000000
vn 0.000000 0.000000 -1.000000
vn 0.000000 0.000000 -1.000000
vn 0.000000 0.000000 -1.000000
vn -0.000000 0.000000 1.000000
vn -0.000000 0.000000 1.000000
vn -0.000000 0.000000 1.000000
vn -0.000000 0.000000 1.000000
vn 0.000000 1.000000 0.000000
vn 0.000000 1.000000 0.000000
vn 0.000000 1.000000 0.000000
vn 0.000000 1.000000 0.000000
vn -1.000000 0.000000 0.000001
vn -1.000000 0.000000 0.000001
vn -1.000000 0.000000 0.000001
vn -1.000000 0.000000 0.000001
vn 0.000000 1.000000 0.000000
vn 0.000000 1.000000 0.000000
vn 0.000000 1.000000 0.000000
vn 0.000000 1.000000 0.000000
vn -0.000000 0.000000 1.000000
vn -0.000000 0.000000 1.000000
vn -0.000000 0.000000 1.000000
vn -0.000000 0.000000 1.000000
vn -0.000001 0.000000 -1.000000
vn -0.000001 0.000000 -1.000000
vn -0.000001 0.000000 -1.000000
vn -0.000001 0.000000 -1.000000
vn 1.000000 0.000000 0.000000
vn 1.000000 0.000000 0.000000
vn 1.000000 0.000000 0.000000
vn 1.000000 0.000000 0.000000
vn 0.000000 0.000000 -1.000000
vn 0.000000 0.000000 -1.000000
vn 0.000000 0.000000 -1.000000
vn 0.000000 0.000000 -1.000000
vn -0.000000 0.000000 1.000000
vn -0.000000 0.000000 1.000000
vn -0.000000 0.000000 1.000000
vn -0.000000 0.000000 1.000000
vn 0.000000 1.000000 0.000000
vn 0.000000 1.000000 0.000000
vn 0.000000 1.000000 0.000000
vn 0.000000 1.000000 0.000000
vn -1.000000 0.000000 -0.000000
vn -1.000000 0.000000 -0.000000
vn -1.000000 0.000000 -0.000000
vn -1.000000 0.000000 -0.000000
vn 0.000000 1.000000 0.000000
vn 0.000000 1.000000 0.000000
vn 0.000000 1.000000 0.000000
vn 0.000000 1.000000 0.000000
vn -0.000000 0.000000 1.000000
vn -0.000000 0.000000 1.000000
vn -0.000000 0.000000 1.000000
vn -0.000000 0.000000 1.000000
vn 0.000001 0.000000 -1.000000
vn 0.000001 0.000000 -1.000000
vn 0.000001 0.000000 -1.000000
vn 0.000001 0.000000 -1.000000
vn 1.000000 0.000000 -0.000001
vn 1.000000 0.000000 -0.000001
vn 1.000000 0.000000 -0.000001
vn 1.000000 0.000000 -0.000001
vn -1.000000 0.000000 -0.000000
vn -1.000000 0.000000 -0.000000
vn -1.000000 0.000000 -0.000000
vn -1.000000 0.000000 -0.000000
vn 0.000000 1.000000 0.000000
vn 0.000000 1.000000 0.000000
vn 0.000000 1.000000 0.000000
vn 0.000000 1.000000 0.000000
vn -0.000000 0.000000 1.000000
vn -0.000000 0.000000 1.000000
vn -0.000000 0.000000 1.000000
vn -0.000000 0.000000 1.000000
vn 0.000001 0.000000 -1.000000
vn 0.000001 0.000000 -1.000000
vn 0.000001 0.000000 -1.000000
vn 0.000001 0.000000 -1.000000
vn 1.000000 0.000000 0.000000
vn 1.000000 0.000000 0.000000
vn 1.000000 0.000000 0.000000
vn 1.000000 0.000000 0.000000
vn -1.000000 0.000000 -0.000000
vn -1.000000 0.000000 -0.000000
vn -1.000000 0.000000 -0.000000
vn -1.000000 0.000000 -0.000000
vn 1.000000 0.000000 0.000000
vn 1.000000 0.000000 0.000000
vn 1.000000 0.000000 0.000000
vn 1.000000 0.000000 0.000000
vn -0.000001 1.000000 0.000000
vn -0.000001 1.000000 0.000000
vn -0.000001 1.000000 0.000000
vn -0.000001 1.000000 0.000000
vn -0.000000 0.000000 1.000000
vn -0.000000 0.000000 1.000000
vn -0.000000 0.000000 1.000000
vn -0.000000 0.000000 1.000000
vn -0.000001 1.000000 0.000000
vn -0.000001 1.000000 0.000000
vn -0.000001 1.000000 0.000000
vn -0.000001 1.000000 0.000000
vn 1.000000 0.000000 0.000000
vn 1.000000 0.000000 0.000000
vn 1.000000 0.000000 0.000000
vn 1.000000 0.000000 0.000000
vn -1.000000 0.000000 -0.000000
vn -1.000000 0.000000 -0.000000
vn -1.000000 0.000000 -0.000000
vn -1.000000 0.000000 -0.000000
vn 0.000000 0.000000 -1.000000
vn 0.000000 0.000000 -1.000000
vn 0.000000 0.000000 -1.000000
vn 0.000000 0.000000 -1.000000
vn -1.000000 0.000000 -0.000000
vn -1.000000 0.000000 -0.000000
vn -1.000000 0.000000 -0.000000
vn -1.000000 0.000000 -0.000000
vn 1.000000 0.000000 0.000000
vn 1.000000 0.000000 0.000000
vn 1.000000 0.000000 0.000000
vn 1.000000 0.000000 0.000000
vn 0.000000 1.000000 0.000000
vn 0.000000 1.000000 0.000000
vn 0.000000 1.000000 0.000000
vn 0.000000 1.000000 0.000000
vn -0.000000 0.000000 1.000000
vn -0.000000 0.000000 1.000000
vn -0.000000 0.000000 1.000000
vn -0.000000 0.000000 1.000000
vn -0.000001 1.000000 0.000000
vn -0.000001 1.000000 0.000000
vn -0.000001 1.000000 0.000000
vn -0.000001 1.000000 0.000000
vn 1.000000 0.000000 0.000000
vn 1.000000 0.000000 0.000000
vn 1.000000 0.000000 0.000000
vn 1.000000 0.000000 0.000000
vn -1.000000 0.000000 -0.000000
vn -1.000000 0.000000 -0.000000
vn -1.000000 0.000000 -0.000000
vn -1.000000 0.000000 -0.000000
vn 0.000001 0.000000 -1.000000
vn 0.000001 0.000000 -1.000000
vn 0.000001 0.000000 -1.000000
vn 0.000001 0.000000 -1.000000
vn -0.000000 0.000000 1.000000
vn -0.000000 0.000000 1.000000
vn -0.000000 0.000000 1.000000
vn -0.000000 0.000000 1.000000
vn -0.000001 1.000000 0.000000
vn -0.000001 1.000000 0.000000
vn -0.000001 1.000000 0.000000
vn -0.000001 1.000000 0.000000
vn 1.000000 0.000000 0.000000
vn 1.000000 0.000000 0.000000
vn 1.000000 0.000000 0.000000
vn 1.000000 0.000000 0.000000
vn -1.000000 0.000000 -0.000000
vn -1.000000 0.000000 -0.000000
vn -1.000000 0.000000 -0.000000
vn -1.000000 0.000000 -0.000000
vn 0.000000 0.000000 -1.000000
vn 0.000000 0.000000 -1.000000
vn 0.000000 0.000000 -1.000000
vn 0.000000 0.000000 -1.000000
vn -1.000000 0.000000 -0.000000
vn -1.000000 0.000000 -0.000000
vn -1.000000 0.000000 -0.000000
vn -1.000000 0.000000 -0.000000
vn 1.000000 0.000000 0.000000
vn 1.000000 0.000000 0.000000
vn 1.000000 0.000000 0.000000
vn 1.000000 0.000000 0.000000
vn -0.000001 1.000000 0.000000
vn -0.000001 1.000000 0.000000
vn -0.000001 1.000000 0.000000
vn -0.000001 1.000000 0.000000
vn -1.000000 0.000000 -0.000000
vn -1.000000 0.000000 -0.000000
vn -1.000000 0.000000 -0.000000
vn -1.000000 0.000000 -0.000000
vn 1.000000 0.000000 0.000000
vn 1.000000 0.000000 0.000000
vn 1.000000 0.000000 0.000000
vn 1.000000 0.000000 0.000000
vn 0.000002 1.000000 -0.000000
vn 0.000002 1.000000 -0.000000
vn 0.000002 1.000000 -0.000000
vn 0.000002 1.000000 -0.000000
vn -0.000000 0.000000 1.000000
vn -0.000000 0.000000 1.000000
vn -0.000000 0.000000 1.000000
vn -0.000000 0.000000 1.000000
vn -0.000001 1.000000 0.000000
vn -0.000001 1.000000 0.000000
vn -0.000001 1.000000 0.000000
vn -0.000001 1.000000 0.000000
vn 1.000000 0.000000 0.000000
vn 1.000000 0.000000 0.000000
vn 1.000000 0.000000 0.000000
vn 1.000000 0.000000 0.000000
vn -1.000000 0.000000 -0.000000
vn -1.000000 0.000000 -0.000000
vn -1.000000 0.000000 -0.000000
vn -1.000000 0.000000 -0.000000
vn -0.000001 0.000000 -1.000000
vn -0.000001 0.000000 -1.000000
vn -0.000001 0.000000 -1.000000
vn -0.000001 0.000000 -1.000000
f 2/1/1 3/2/2 1/4/3
f 1/4/3 3/2/2 4/3/4
f 4/5/5 3/6/6 6/8/7
f 6/8/7 3/6/6 5/7/8
f 6/9/9 8/10/10 4/12/11
f 4/12/11 8/10/10 7/11/12
f 2/13/13 11/14/14 9/16/15
f 9/16/15 11/14/14 10/15/16
f 14/17/17 15/18/18 12/20/19
f 12/20/19 15/18/18 13/19/20
f 18/21/21 16/22/22 19/24/23
f 19/24/23 16/22/22 17/23/24
f 3/25/25 16/26/26 5/28/27
f 5/28/27 16/26/26 18/27/28
f 5/29/29 12/30/30 6/32/31
f 6/32/31 12/30/30 20/31/32
f 9/33/33 16/34/34 2/36/35
f 2/36/35 16/34/34 3/35/36
f 18/37/37 14/38/38 5/40/39
f 5/40/39 14/38/38 12/39/40
f 4/41/41 7/42/42 1/44/43
f 1/44/43 7/42/42 21/43/44
f 20/45/45 22/46/46 6/48/47
f 6/48/47 22/46/46 8/47/48
f 1/49/49 21/50/50 2/52/51
f 2/52/51 21/50/50 11/51/52
f 12/53/53 13/54/54 20/56/55
f 20/56/55 13/54/54 22/55/56
f 14/57/57 18/58/58 15/60/59
f 15/60/59 18/58/58 19/59/60
f 16/61/61 9/62/62 17/64/63
f 17/64/63 9/62/62 10/63/64
f 23/65/65 24/66/66 28/68/67
f 28/68/67 24/66/66 27/67/68
f 25/69/69 29/70/70 26/72/71
f 26/72/71 29/70/70 30/71/72
f 29/73/73 25/74/74 28/68/75
f 28/68/75 25/74/74 23/65/76
f 1/75/77 31/76/78 37/78/79
f 37/78/79 31/76/78 34/77/80
f 34/79/81 35/80/82 37/82/83
f 37/82/83 35/80/82 36/81/84
f 33/83/85 35/84/86 31/86/87
f 31/86/87 35/84/86 34/85/88
f 1/87/89 37/88/90 32/90/91
f 32/90/91 37/88/90 36/89/92
f 35/91/93 33/92/94 36/94/95
f 36/94/95 33/92/94 32/93/96
f 38/95/97 39/96/98 43/98/99
f 43/98/99 39/96/98 42/97/100
f 40/99/101 44/100/102 41/102/103
f 41/102/103 44/100/102 45/101/104
f 44/103/105 40/104/106 43/98/107
f 43/98/107 40/104/106 38/95/108
f 4/105/109 46/106/110 52/108/111
f 52/108/111 46/106/110 49/107/112
f 49/109/113 50/110/114 52/112/115
f 52/112/115 50/110/114 51/111/116
f 48/113/117 50/114/118 46/116/119
f 46/116/119 50/114/118 49/115/120
f 4/117/121 52/118/122 47/120/123
f 47/120/123 52/118/122 51/119/124
f 50/121/125 48/122/126 51/124/127
f 51/124/127 48/122/126 47/123/128
f 53/125/129 54/126/130 58/128/131
f 58/128/131 54/126/130 57/127/132
f 55/129/133 59/130/134 56/132/135
f 56/132/135 59/130/134 60/131/136
f 59/133/137 55/134/138 58/128/139
f 58/128/139 55/134/138 53/125/140
f 61/135/141 62/136/142 67/138/143
f 67/138/143 62/136/142 64/137/144
f 64/139/145 65/140/146 67/142/147
f 67/142/147 65/140/146 66/141/148
f 63/143/149 65/144/150 62/146/151
f 62/146/151 65/144/150 64/145/152
f 61/147/153 67/148/154 6/150/155
f 6/150/155 67/148/154 66/149/156
f 65/151/157 63/152/158 66/154/159
f 66/154/159 63/152/158 6/153/160
f 68/155/161 69/156/162 74/158/163
f 74/158/163 69/156/162 71/157/164
f 71/159/165 72/160/166 74/162/167
f 74/162/167 72/160/166 73/161/168
f 70/163/169 72/164/170 69/166/171
f 69/166/171 72/164/170 71/165/172
f 68/167/173 74/168/174 20/170/175
f 20/170/175 74/168/174 73/169/176
f 72/171/177 70/172/178 73/174/179
f 73/174/179 70/172/178 20/173/180
f 75/175/181 76/176/182 80/178/183
f 80/178/183 76/176/182 79/177/184
f 77/179/185 81/180/186 78/182/187
f 78/182/187 81/180/186 82/181/188
f 81/183/189 77/184/190 80/178/191
f 80/178/191 77/184/190 75/175/192
f 9/185/193 83/186/194 89/188/195
f 89/188/195 83/186/194 86/187/196
f 86/189/197 87/190/198 89/192/199
f 89/192/199 87/190/198 88/191/200
f 85/193/201 87/194/202 83/196/203
f 83/196/203 87/194/202 86/195/204
f 9/197/205 89/198/206 84/200/207
f 84/200/207 89/198/206 88/199/208
f 87/201/209 85/202/210 88/204/211
f 88/204/211 85/202/210 84/203/212
f 90/205/213 91/206/214 95/208/215
f 95/208/215 91/206/214 94/207/216
f 92/209/217 96/210/218 93/212/219
f 93/212/219 96/210/218 97/211/220
f 96/213/221 92/214/222 95/208/223
f 95/208/223 92/214/222 90/205/224
f 98/215/225 99/216/226 104/218/227
f 104/218/227 99/216/226 101/217/228
f 101/219/229 102/220/230 104/222/231
f 104/222/231 102/220/230 103/221/232
f 100/223/233 102/224/234 99/226/235
f 99/226/235 102/224/234 101/225/236
f 98/227/237 104/228/238 2/230/239
f 2/230/239 104/228/238 103/229/240
f 102/231/241 100/232/242 103/234/243
f 103/234/243 100/232/242 2/233/244
f 105/235/245 14/236/246 111/238/247
f 111/238/247 14/236/246 108/237/248
f 108/239/249 109/240/250 111/242/251
f 111/242/251 109/240/250 110/241/252
f 107/243/253 109/244/254 14/246/255
f 14/246/255 109/244/254 108/245/256
f 105/247/257 111/248/258 106/250/259
f 106/250/259 111/248/258 110/249/260
f 109/251/261 107/252/262 110/254/263
f 110/254/263 107/252/262 106/253/264
f 112/255/265 113/256/266 117/258/267
f 117/258/267 113/256/266 116/257/268
f 114/259/269 118/260/270 115/262/271
f 115/262/271 118/260/270 119/261/272
f 118/263/273 114/264/274 117/258/275
f 117/258/275 114/264/274 112/255/276
f 120/265/277 121/266/278 125/268/279
f 125/268/279 121/266/278 124/267/280
f 122/269/281 126/270/282 123/272/283
f 123/272/283 126/270/282 127/271/284
f 126/273/285 122/274/286 125/268/287
f 125/268/287 122/274/286 120/265/288
f 128/275/289 129/276/290 134/278/291
f 134/278/291 129/276/290 131/277/292
f 131/279/293 132/280/294 134/282/295
f 134/282/295 132/280/294 133/281/296
f 12/283/297 132/284/298 129/286/299
f 129/286/299 132/284/298 131/285/300
f 128/287/301 134/288/302 130/290/303
f 130/290/303 134/288/302 133/289/304
f 132/291/305 12/292/306 133/294/307
f 133/294/307 12/292/306 130/293/308
