# This file uses centimeters as units for non-parametric coordinates.

v -7.139297 0.119175 11.067474
v -1.308830 0.119175 11.067474
v 5.380253 0.119175 11.067474
v -7.139297 0.119175 6.824814
v -1.308830 0.119175 6.824814
v 5.380253 0.119175 6.824814
v -7.139297 0.119175 0.860441
v -1.308830 0.119175 0.860441
v 5.162632 0.119175 0.458605
v -7.139297 0.119175 -5.103931
v -1.308830 0.119175 -5.103931
v 4.776012 0.119175 -5.103931
v -7.139297 0.119175 -11.762192
v -1.308830 0.119175 -11.569445
v 4.776012 0.000000 -11.376699
v -7.139297 0.119175 -9.633478
v -1.308830 0.119175 -9.502356
v 4.776012 0.119175 -9.371231
v 6.309025 -0.430676 11.456512
v 5.944080 -0.057575 6.824814
v 5.523155 -0.055391 0.458605
v 5.085674 0.054366 -5.103931
v 5.085674 0.054366 -9.371231
v 7.139297 -0.754542 11.397900
v 6.527161 -0.380914 6.824814
v -7.139297 -0.408418 11.762192
v -1.308830 -0.408418 11.762192
v 5.380253 -0.408418 11.762192
vt 0.102371 0.219700
vt 0.822401 0.219700
vt 0.822401 0.743645
vt 0.102371 0.743645
vt 0.040907 0.219700
vt 0.866971 0.219700
vt 0.866971 0.743645
vt 0.040907 0.743645
vt 0.102371 0.115052
vt 0.822401 0.115052
vt 0.822401 0.851618
vt 0.102371 0.851618
vt 0.040907 0.115052
vt 0.866971 0.115052
vt 0.840096 0.901243
vt 0.040907 0.851618
vt 0.102371 0.112598
vt 0.822401 0.112598
vt 0.822401 0.849164
vt 0.102371 0.849164
vt 0.040907 0.112598
vt 0.840096 0.162222
vt 0.792351 0.849164
vt 0.040907 0.849164
vt 0.102371 0.406187
vt 0.822401 0.389994
vt 0.822401 0.645268
vt 0.102371 0.669071
vt 0.040907 0.389994
vt 0.792351 0.373801
vt 0.792351 0.621465
vt 0.040907 0.645268
vt 0.102371 0.237560
vt 0.822401 0.237560
vt 0.822401 0.780741
vt 0.102371 0.796933
vt 0.040907 0.237560
vt 0.792351 0.237560
vt 0.792351 0.764548
vt 0.040907 0.780741
vt 0.413177 0.744734
vt 0.413177 0.220790
vt 0.527874 0.172746
vt 0.482806 0.744734
vt 0.442778 0.887101
vt 0.469652 0.100910
vt 0.539281 0.100910
vt 0.487300 0.887101
vt 0.884619 0.162222
vt 0.830592 0.849164
vt 0.830592 0.237560
vt 0.830592 0.764548
vt 0.830592 0.373801
vt 0.482806 0.744734
vt 0.527874 0.172746
vt 0.630409 0.179984
vt 0.554813 0.744734
vt 0.487300 0.887101
vt 0.539281 0.100910
vt 0.611288 0.100910
vt 0.822401 0.559480
vt 0.102371 0.559480
vt 0.102371 0.473686
vt 0.822401 0.473686
vt 0.866971 0.559480
vt 0.040907 0.559480
vt 0.040907 0.473686
vt 0.866971 0.473686
vt 0.981669 0.511436
vn 0.000000 1.000000 0.000000
vn 0.000000 1.000000 0.000000
vn 0.000000 1.000000 0.000000
vn 0.000000 1.000000 0.000000
vn 0.000000 1.000000 0.000000
vn 0.000000 1.000000 0.000000
vn 0.000000 1.000000 0.000000
vn 0.000000 1.000000 0.000000
vn 0.000000 1.000000 0.000000
vn 0.000000 1.000000 0.000000
vn 0.000000 1.000000 0.000000
vn 0.000000 1.000000 0.000000
vn 0.000000 1.000000 0.000000
vn 0.000000 1.000000 0.000000
vn 0.000000 1.000000 0.000000
vn 0.000000 1.000000 0.000000
vn 0.000000 1.000000 0.000000
vn 0.000000 1.000000 0.000000
vn 0.000000 1.000000 0.000000
vn 0.000000 1.000000 0.000000
vn 0.000000 1.000000 0.000000
vn 0.000000 1.000000 0.000000
vn 0.000000 1.000000 0.000000
vn 0.000000 1.000000 0.000000
vn 0.001724 0.999987 -0.004772
vn 0.005210 0.999882 -0.014423
vn 0.000000 1.000000 0.000000
vn 0.000000 1.000000 0.000000
vn 0.003317 0.999952 -0.009182
vn 0.010566 0.999516 -0.029249
vn 0.001724 0.999987 -0.004772
vn 0.005210 0.999882 -0.014423
vn 0.000000 1.000000 0.000000
vn 0.001724 0.999987 -0.004772
vn 0.000000 1.000000 0.000000
vn 0.000000 1.000000 0.000000
vn 0.000000 1.000000 0.000000
vn 0.003317 0.999952 -0.009182
vn 0.000000 1.000000 0.000000
vn 0.001724 0.999987 -0.004772
vn 0.433376 0.900990 0.020058
vn 0.433376 0.900990 0.020058
vn 0.433376 0.900990 0.020058
vn 0.433376 0.900990 0.020058
vn 0.355218 0.934617 -0.017654
vn 0.355218 0.934617 -0.017654
vn 0.355218 0.934617 -0.017654
vn 0.355218 0.934617 -0.017654
vn 0.336323 0.941617 -0.015624
vn 0.336323 0.941617 -0.015624
vn 0.336323 0.941617 -0.015624
vn 0.336323 0.941617 -0.015624
vn 0.204849 0.978794 0.000000
vn 0.204849 0.978794 0.000000
vn 0.204849 0.978794 0.000000
vn 0.204849 0.978794 0.000000
vn 0.204501 0.977143 -0.058066
vn 0.204501 0.977143 -0.058066
vn 0.204501 0.977143 -0.058066
vn 0.417175 0.908350 0.029406
vn 0.417175 0.908350 0.029406
vn 0.417175 0.908350 0.029406
vn 0.417175 0.908350 0.029406
vn 0.484720 0.874093 -0.031749
vn 0.484720 0.874093 -0.031749
vn 0.484720 0.874093 -0.031749
vn 0.000000 0.796380 0.604797
vn 0.000000 0.796380 0.604797
vn 0.000000 0.796380 0.604797
vn 0.000000 0.796380 0.604797
vn 0.000000 0.796380 0.604797
vn 0.000000 0.796380 0.604797
vn 0.000000 0.796380 0.604797
vn 0.000000 0.796380 0.604797
vn 0.213125 0.778083 0.590901
vn 0.213125 0.778084 0.590901
vn 0.213125 0.778083 0.590901
f 1/1/1 2/2/2 4/4/3
f 4/4/3 2/2/2 5/3/4
f 2/5/5 3/6/6 5/8/7
f 5/8/7 3/6/6 6/7/8
f 4/9/9 5/10/10 7/12/11
f 7/12/11 5/10/10 8/11/12
f 5/13/13 6/14/14 8/16/15
f 8/16/15 6/14/14 9/15/16
f 7/17/17 8/18/18 10/20/19
f 10/20/19 8/18/18 11/19/20
f 9/22/21 12/23/22 8/21/23
f 8/21/23 12/23/22 11/24/24
f 17/26/25 14/27/26 16/25/27
f 16/25/27 14/27/26 13/28/28
f 18/30/29 15/31/30 17/29/31
f 17/29/31 15/31/30 14/32/32
f 11/34/33 17/35/34 10/33/35
f 10/33/35 17/35/34 16/36/36
f 12/38/37 18/39/38 11/37/39
f 11/37/39 18/39/38 17/40/40
f 6/41/41 3/42/42 20/44/43
f 20/44/43 3/42/42 19/43/44
f 9/45/45 6/46/46 21/48/47
f 21/48/47 6/46/46 20/47/48
f 12/23/49 9/22/50 22/50/51
f 22/50/51 9/22/50 21/49/52
f 18/39/53 12/38/54 23/52/55
f 23/52/55 12/38/54 22/51/56
f 15/31/57 18/30/58 23/53/59
f 20/54/60 19/55/61 25/57/62
f 25/57/62 19/55/61 24/56/63
f 21/58/64 20/59/65 25/60/66
f 2/61/67 1/62/68 27/64/69
f 27/64/69 1/62/68 26/63/70
f 3/65/71 2/66/72 28/68/73
f 28/68/73 2/66/72 27/67/74
f 3/65/75 28/68/76 19/69/77
