# This file uses centimeters as units for non-parametric coordinates.

v 0.639999 -1.280000 -0.160000
v 0.639999 -1.280000 0.160000
v -0.640000 -1.280000 0.160000
v -0.640000 -1.280000 -0.160000
v 0.639999 1.279999 -0.160000
v 0.639999 1.279999 0.160000
v -0.640000 1.279999 -0.160000
v -0.640000 1.279999 0.160000
v -0.480255 0.640961 0.160000
v 0.480255 0.640961 0.160000
v 0.480255 0.060898 0.160000
v -0.480255 0.060898 0.160000
v 0.480255 0.640961 -0.160000
v -0.480255 0.640961 -0.160000
v -0.480255 0.060898 -0.160000
v 0.480255 0.060898 -0.160000
v -0.480000 0.640961 0.020000
v -0.480000 0.060898 0.020000
v 0.480003 0.060898 0.020000
v 0.480003 0.640961 0.020000
v 0.480003 0.060898 -0.020000
v -0.480000 0.060898 -0.020000
v -0.480000 0.640961 -0.020000
v 0.480003 0.640961 -0.020000
vt 0.875000 0.938400
vt 0.875000 1.000000
vt 0.625000 1.000000
vt 0.625000 0.938400
vt 0.813100 1.000000
vt 0.813100 0.500000
vt 0.875000 0.500100
vt 0.625000 0.561600
vt 0.625000 0.500000
vt 0.875000 0.500000
vt 0.875000 0.561600
vt 0.686900 0.500000
vt 0.686900 1.000000
vt 0.656200 0.875200
vt 0.843800 0.875200
vt 0.843800 0.761900
vt 0.656200 0.761900
vt 0.875000 0.875200
vt 0.875000 0.761900
vt 0.813100 0.761900
vt 0.813100 0.875200
vt 0.625000 0.761900
vt 0.625000 0.875200
vt 0.686900 0.875200
vt 0.686900 0.761900
vt 0.843800 0.938400
vt 0.656200 0.938400
vt 0.656200 1.000000
vt 0.843800 1.000000
vt 0.656200 0.561600
vt 0.843800 0.561600
vt 0.843800 0.500000
vt 0.656200 0.500000
vt 0.812500 0.093800
vt 0.812500 0.000000
vt 1.000000 0.000000
vt 1.000000 0.093800
vt 0.875000 1.000000
vt 0.625000 0.500000
vt 0.625000 1.000000
vt 0.625000 1.000000
vt 0.875000 1.000000
vt 0.875000 0.500000
vt 0.625000 0.500000
vt 0.875000 1.000000
vt 0.843800 0.875200
vt 0.656200 0.875200
vt 0.625000 1.000000
vt 0.625000 0.500000
vt 0.656200 0.761900
vt 0.843800 0.761900
vt 0.875000 0.500000
vt 0.625000 1.000000
vt 0.625000 0.500000
vt 0.875000 0.500000
vt 0.875000 1.000000
vt 0.875000 1.000000
vt 0.875000 0.500000
vt 0.843800 0.761900
vt 0.843800 0.875200
vt 0.625000 0.500000
vt 0.625000 1.000000
vt 0.656200 0.875200
vt 0.656200 0.761900
vt 1.000000 0.000000
vt 0.812500 0.000000
vt 0.812500 0.093800
vt 1.000000 0.093800
vn 0.000000 -1.000000 0.000000
vn 0.000000 -1.000000 0.000000
vn 0.000000 -1.000000 0.000000
vn 0.000000 -1.000000 0.000000
vn 1.000000 0.000000 0.000000
vn 1.000000 0.000000 0.000000
vn 1.000000 0.000000 0.000000
vn 1.000000 0.000000 0.000000
vn 0.000000 1.000000 0.000000
vn 0.000000 1.000000 0.000000
vn 0.000000 1.000000 0.000000
vn 0.000000 1.000000 0.000000
vn -1.000000 0.000000 0.000000
vn -1.000000 0.000000 0.000000
vn -1.000000 0.000000 0.000000
vn -1.000000 0.000000 0.000000
vn 0.000000 0.000000 1.000000
vn 0.000000 0.000000 1.000000
vn 0.000000 0.000000 1.000000
vn 0.000000 0.000000 1.000000
vn 0.000000 0.000000 1.000000
vn 0.000000 0.000000 1.000000
vn 0.000000 0.000000 1.000000
vn 0.000000 0.000000 1.000000
vn 0.000000 0.000000 -1.000000
vn 0.000000 0.000000 -1.000000
vn 0.000000 0.000000 -1.000000
vn 0.000000 0.000000 -1.000000
vn 0.000000 0.000000 -1.000000
vn 0.000000 0.000000 -1.000000
vn 0.000000 0.000000 -1.000000
vn 0.000000 0.000000 -1.000000
vn 0.000000 0.000000 1.000000
vn 0.000000 0.000000 1.000000
vn 0.000000 0.000000 1.000000
vn 0.000000 0.000000 1.000000
vn 0.000000 0.000000 1.000000
vn 0.000000 0.000000 1.000000
vn 0.000000 0.000000 1.000000
vn 0.000000 0.000000 1.000000
vn 0.000000 0.000000 -1.000000
vn 0.000000 0.000000 -1.000000
vn 0.000000 0.000000 -1.000000
vn 0.000000 0.000000 -1.000000
vn 0.000000 0.000000 -1.000000
vn 0.000000 0.000000 -1.000000
vn 0.000000 0.000000 -1.000000
vn 0.000000 0.000000 -1.000000
vn -1.000000 0.000000 0.000000
vn -1.000000 0.000000 0.000000
vn -1.000000 0.000000 0.000000
vn -1.000000 0.000000 0.000000
vn 1.000000 0.000000 0.000000
vn 1.000000 0.000000 0.000000
vn 1.000000 0.000000 0.000000
vn 1.000000 0.000000 0.000000
vn 0.000000 1.000000 0.000000
vn 0.000000 1.000000 0.000000
vn 0.000000 1.000000 0.000000
vn 0.000000 1.000000 0.000000
vn 0.000000 -1.000000 0.000000
vn 0.000000 -1.000000 0.000000
vn 0.000000 -1.000000 0.000000
vn 0.000000 -1.000000 0.000000
vn 0.000000 0.000000 1.000000
vn 0.000000 0.000000 1.000000
vn 0.000000 0.000000 1.000000
vn 0.000000 0.000000 1.000000
vn 0.000000 0.000000 -1.000000
vn 0.000000 0.000000 -1.000000
vn 0.000000 0.000000 -1.000000
vn 0.000000 0.000000 -1.000000
f 1/1/1 2/2/2 3/3/3 4/4/4
f 5/38/5 6/5/6 2/6/7 1/7/8
f 7/8/9 8/9/10 6/10/11 5/11/12
f 4/39/13 3/12/14 8/13/15 7/40/16
f 8/41/17 9/14/18 10/15/19 6/42/20
f 2/43/21 11/16/22 12/17/23 3/44/24
f 5/45/25 13/46/26 14/47/27 7/48/28
f 4/49/29 15/50/30 16/51/31 1/52/32
f 8/53/33 3/54/34 12/17/35 9/14/36
f 2/55/37 6/56/38 10/15/39 11/16/40
f 5/57/41 1/58/42 16/59/43 13/60/44
f 4/61/45 7/62/46 14/63/47 15/64/48
f 13/18/49 16/19/50 11/20/51 10/21/52
f 15/22/53 14/23/54 9/24/55 12/25/56
f 16/26/57 15/27/58 12/28/59 11/29/60
f 14/30/61 13/31/62 10/32/63 9/33/64
f 17/34/65 18/35/66 19/36/67 20/37/68
f 21/65/69 22/66/70 23/67/71 24/68/72
