# This file uses centimeters as units for non-parametric coordinates.

v 0.160000 -0.320000 0.160000
v 0.160000 0.320000 0.160000
v -0.160000 0.320000 0.160000
v -0.160000 -0.320000 0.160000
v 0.160000 -0.320000 -0.160000
v 0.160000 0.320000 -0.160000
v -0.160000 0.320000 -0.160000
v -0.160000 -0.320000 -0.160000
vt 0.375000 0.500000
vt 0.375000 1.000000
vt 0.125000 0.500000
vt 0.437500 0.500000
vt 0.375000 0.937600
vt 0.062500 0.500000
vt 0.375000 0.562500
vt 0.375000 0.500000
vt 0.312500 1.000000
vt 0.312500 0.937600
vt 0.312500 0.562500
vt 0.312500 0.500000
vt 0.312500 0.500000
vt 0.375000 0.624030
vt 0.437500 0.624030
vt 0.375000 0.624030
vt 0.062500 0.624030
vt 0.312500 0.624030
vt 0.312500 0.624030
vt 0.125000 0.624030
vn 0.000000 1.000000 0.000000
vn 0.000000 1.000000 0.000000
vn 0.000000 1.000000 0.000000
vn 0.000000 1.000000 0.000000
vn 0.000000 -1.000000 0.000000
vn 0.000000 -1.000000 0.000000
vn 0.000000 -1.000000 0.000000
vn 0.000000 -1.000000 0.000000
vn 1.000000 0.000000 0.000000
vn 1.000000 0.000000 0.000000
vn 1.000000 0.000000 0.000000
vn 1.000000 0.000000 0.000000
vn 0.000000 0.000000 -1.000000
vn 0.000000 0.000000 -1.000000
vn 0.000000 0.000000 -1.000000
vn 0.000000 0.000000 -1.000000
vn -1.000000 0.000000 0.000000
vn -1.000000 0.000000 0.000000
vn -1.000000 0.000000 0.000000
vn -1.000000 0.000000 0.000000
vn 0.000000 0.000000 1.000000
vn 0.000000 0.000000 1.000000
vn 0.000000 0.000000 1.000000
vn 0.000000 0.000000 1.000000
f 6/5/1 7/10/2 3/9/3 2/2/4
f 4/13/5 8/11/6 5/7/7 1/1/8
f 5/4/9 6/15/10 2/14/11 1/1/12
f 8/12/13 7/18/14 6/16/15 5/8/16
f 3/20/17 7/17/18 8/6/19 4/3/20
f 1/1/21 2/14/22 3/19/23 4/13/24
