# This file uses centimeters as units for non-parametric coordinates.

v 0.320000 -1.280000 0.320000
v 0.320000 1.279999 0.320000
v -0.320000 1.279999 0.320000
v -0.320000 -1.280000 0.320000
v -0.320000 -1.280000 -0.320000
v 0.320000 -1.280000 -0.320000
v 0.320000 1.279999 -0.320000
v -0.320000 1.279999 -0.320000
vt 0.812500 0.500000
vt 0.812500 1.000000
vt 0.687500 1.000000
vt 0.687500 0.500000
vt 0.687500 0.625000
vt 0.812500 0.624900
vt 0.937500 0.500000
vt 0.937500 1.000000
vt 0.687500 0.875000
vt 0.812500 0.875000
vt 0.562500 1.000000
vt 0.562500 0.500000
vt 0.812500 1.000000
vt 0.687500 1.000000
vt 0.687500 1.000000
vt 0.812500 1.000000
vt 0.812500 0.500000
vt 0.687500 0.500000
vn 0.000000 0.000000 1.000000
vn 0.000000 0.000000 1.000000
vn 0.000000 0.000000 1.000000
vn 0.000000 0.000000 1.000000
vn 0.000000 -1.000000 0.000000
vn 0.000000 -1.000000 0.000000
vn 0.000000 -1.000000 0.000000
vn 0.000000 -1.000000 0.000000
vn 1.000000 0.000000 0.000000
vn 1.000000 0.000000 0.000000
vn 1.000000 0.000000 0.000000
vn 1.000000 0.000000 0.000000
vn 0.000000 1.000000 0.000000
vn 0.000000 1.000000 0.000000
vn 0.000000 1.000000 0.000000
vn 0.000000 1.000000 0.000000
vn -1.000000 0.000000 0.000000
vn -1.000000 0.000000 0.000000
vn -1.000000 0.000000 0.000000
vn -1.000000 0.000000 0.000000
vn 0.000000 0.000000 -1.000000
vn 0.000000 0.000000 -1.000000
vn 0.000000 0.000000 -1.000000
vn 0.000000 0.000000 -1.000000
f 1/1/1 2/2/2 3/3/3 4/4/4
f 5/5/5 6/6/6 1/1/7 4/4/8
f 6/7/9 7/8/10 2/2/11 1/1/12
f 7/13/13 8/14/14 3/9/15 2/10/16
f 8/11/17 5/12/18 4/4/19 3/3/20
f 8/15/21 7/16/22 6/17/23 5/18/24
