# This file uses centimeters as units for non-parametric coordinates.

v 0.320000 -0.960000 -0.320000
v 0.320000 0.960007 -0.320000
v 0.320000 0.960007 0.320000
v 0.320000 -0.960000 0.320000
v -0.320000 0.960007 0.320000
v -0.320000 -0.960000 0.320000
v -0.320000 -0.960000 -0.320000
v -0.320000 0.960007 -0.320000
vt 0.312500 0.562500
vt 0.312500 0.937500
vt 0.187500 0.937500
vt 0.187500 0.562500
vt 0.062100 0.937500
vt 0.062100 0.562500
vt 0.187500 0.625400
vt 0.312500 0.625400
vt 0.312500 0.500000
vt 0.187500 0.500000
vt 0.437900 0.562500
vt 0.437900 0.937500
vt 0.312500 0.874600
vt 0.187500 0.874600
vt 0.187500 1.000000
vt 0.312500 1.000000
vt 0.312500 0.937500
vt 0.312500 0.562500
vt 0.187500 0.562500
vt 0.187500 0.937500
vn 1.000000 0.000000 0.000000
vn 1.000000 0.000000 0.000000
vn 1.000000 0.000000 0.000000
vn 1.000000 0.000000 0.000000
vn 0.000000 0.000000 1.000000
vn 0.000000 0.000000 1.000000
vn 0.000000 0.000000 1.000000
vn 0.000000 0.000000 1.000000
vn 0.000000 -1.000000 0.000000
vn 0.000000 -1.000000 0.000000
vn 0.000000 -1.000000 0.000000
vn 0.000000 -1.000000 0.000000
vn 0.000000 0.000000 -1.000000
vn 0.000000 0.000000 -1.000000
vn 0.000000 0.000000 -1.000000
vn 0.000000 0.000000 -1.000000
vn 0.000000 1.000000 0.000000
vn 0.000000 1.000000 0.000000
vn 0.000000 1.000000 0.000000
vn 0.000000 1.000000 0.000000
vn -1.000000 0.000000 0.000000
vn -1.000000 0.000000 0.000000
vn -1.000000 0.000000 0.000000
vn -1.000000 0.000000 0.000000
f 1/1/1 2/2/2 3/3/3 4/4/4
f 5/5/5 6/6/6 4/4/7 3/3/8
f 6/7/9 7/8/10 1/9/11 4/10/12
f 7/11/13 8/12/14 2/2/15 1/1/16
f 8/13/17 5/14/18 3/15/19 2/16/20
f 8/17/21 7/18/22 6/19/23 5/20/24
