# This file uses centimeters as units for non-parametric coordinates.

v -0.442500 0.400002 0.200001
v -0.442500 -0.400000 0.200001
v 0.442497 -0.400000 0.200001
v 0.442497 0.400002 0.200001
v 0.442497 0.400002 -0.200000
v 0.442497 -0.400000 -0.200000
v -0.442500 -0.400000 -0.200000
v -0.442500 0.400002 -0.200000
vt 0.625000 0.500000
vt 0.625000 0.343800
vt 0.797900 0.343800
vt 0.797900 0.500000
vt 0.843800 0.500000
vt 0.843800 0.343800
vt 0.798000 0.343800
vt 0.798000 0.500000
vt 0.500000 0.500000
vt 0.500000 0.343800
vt 0.797900 0.500000
vt 0.797900 0.343800
vt 0.625000 0.343800
vt 0.625000 0.500000
vt 0.797900 0.343800
vt 0.797900 0.500000
vt 0.843800 0.500000
vt 0.843800 0.343800
vt 0.843800 0.500000
vt 0.843800 0.343800
vt 0.797900 0.343800
vt 0.797900 0.500000
vt 0.625000 0.500000
vt 0.625000 0.343800
vn 0.000000 0.000000 1.000000
vn 0.000000 0.000000 1.000000
vn 0.000000 0.000000 1.000000
vn 0.000000 0.000000 1.000000
vn 0.000000 0.000000 -1.000000
vn 0.000000 0.000000 -1.000000
vn 0.000000 0.000000 -1.000000
vn 0.000000 0.000000 -1.000000
vn 0.000000 1.000000 0.000000
vn 0.000000 1.000000 0.000000
vn 0.000000 1.000000 0.000000
vn 0.000000 1.000000 0.000000
vn -1.000000 0.000000 0.000000
vn -1.000000 0.000000 0.000000
vn -1.000000 0.000000 0.000000
vn -1.000000 0.000000 0.000000
vn 0.000000 -1.000000 0.000000
vn 0.000000 -1.000000 0.000000
vn 0.000000 -1.000000 0.000000
vn 0.000000 -1.000000 0.000000
vn 1.000000 0.000000 0.000000
vn 1.000000 0.000000 0.000000
vn 1.000000 0.000000 0.000000
vn 1.000000 0.000000 0.000000
f 1/1/1 2/2/2 3/3/3 4/4/4
f 5/11/5 6/12/6 7/13/7 8/14/8
f 5/15/9 8/16/10 1/5/11 4/6/12
f 8/17/13 7/18/14 2/7/15 1/8/16
f 3/19/17 2/20/18 7/21/19 6/22/20
f 5/23/21 4/9/22 3/10/23 6/24/24
