# This file uses centimeters as units for non-parametric coordinates.

v 1.279999 1.279999 -0.160000
v 1.279999 1.279999 0.160000
v 1.279999 -1.280000 0.160000
v 1.279999 -1.280000 -0.160000
v -1.280000 1.279999 -0.160000
v -1.280000 1.279999 0.160000
v 0.800003 0.480087 -0.160000
v -0.799999 0.480087 -0.160000
v 0.800003 0.480087 0.160000
v 0.800003 -1.280000 0.160000
v 0.800003 -1.280000 -0.160000
v -1.280000 -1.280000 0.160000
v -1.280000 -1.280000 -0.160000
v -0.799999 -1.280000 -0.160000
v -0.799999 -1.280000 0.160000
v -0.799999 0.480087 0.160000
v 0.020538 0.426590 0.049996
v 0.001114 0.479996 0.049996
v -0.018295 0.426590 0.049996
v -0.799999 0.479996 0.049996
v -0.756001 0.426590 0.049996
v -0.018295 -1.280000 0.029996
v -0.128952 -0.582886 0.029996
v -0.252335 -0.582886 0.029996
v -0.756001 -1.280000 0.029996
v 0.755997 0.426590 0.049996
v 0.800003 0.479996 0.049996
v 0.755997 -1.280000 0.029996
v 0.243271 -0.582886 0.029996
v 0.123184 -0.582886 0.029996
v 0.020538 -1.280000 0.029996
v -0.799999 -1.280000 0.049996
v -0.756001 -1.280000 0.049996
v -0.018295 0.426590 0.029996
v -0.756001 0.426590 0.029996
v -0.252335 0.277008 0.029996
v -0.128952 0.277008 0.029996
v 0.755997 0.426590 0.029996
v 0.020538 0.426590 0.029996
v 0.123184 0.277008 0.029996
v 0.243271 0.277008 0.029996
v 0.755997 -1.280000 0.049996
v 0.800003 -1.280000 0.049996
v 0.020538 0.426590 0.039996
v -0.018295 0.426590 0.039996
v -0.018295 -1.280000 0.039996
v 0.020538 -1.280000 0.039996
v -0.148949 0.257004 0.009996
v -0.232330 0.257004 0.009996
v -0.232330 -0.562889 0.009996
v -0.148949 -0.562889 0.009996
v 0.223267 0.257004 0.009996
v 0.143173 0.257004 0.009996
v 0.143173 -0.562889 0.009996
v 0.223267 -0.562889 0.009996
v 0.020538 0.426590 -0.049996
v -0.018295 0.426590 -0.049996
v 0.001114 0.479996 -0.049996
v -0.756001 0.426590 -0.049996
v -0.799999 0.479996 -0.049996
v -0.018295 -1.280000 -0.029996
v -0.756001 -1.280000 -0.029996
v -0.252335 -0.582886 -0.029996
v -0.128952 -0.582886 -0.029996
v 0.755997 0.426590 -0.049996
v 0.800003 0.479996 -0.049996
v 0.755997 -1.280000 -0.029996
v 0.020538 -1.280000 -0.029996
v 0.123184 -0.582886 -0.029996
v 0.243271 -0.582886 -0.029996
v -0.799999 -1.280000 -0.049996
v -0.756001 -1.280000 -0.049996
v -0.018295 0.426590 -0.029996
v -0.128952 0.277008 -0.029996
v -0.252335 0.277008 -0.029996
v -0.756001 0.426590 -0.029996
v 0.755997 0.426590 -0.029996
v 0.243271 0.277008 -0.029996
v 0.123184 0.277008 -0.029996
v 0.020538 0.426590 -0.029996
v 0.800003 -1.280000 -0.049996
v 0.755997 -1.280000 -0.049996
v 0.020538 0.426590 -0.039996
v 0.020538 -1.280000 -0.039996
v -0.018295 -1.280000 -0.039996
v -0.018295 0.426590 -0.039996
v -0.148949 0.257004 -0.009996
v -0.148949 -0.562889 -0.009996
v -0.232330 -0.562889 -0.009996
v -0.232330 0.257004 -0.009996
v 0.223267 0.257004 -0.009996
v 0.223267 -0.562889 -0.009996
v 0.143173 -0.562889 -0.009996
v 0.143173 0.257004 -0.009996
vt 1.000000 1.000000
vt 0.937500 1.000000
vt 0.937500 0.500000
vt 1.000000 0.500000
vt 0.500000 1.000000
vt 0.500000 0.937400
vt 1.000000 0.937400
vt 0.906300 0.843800
vt 0.593800 0.843800
vt 0.906300 0.500000
vt 1.000000 0.562600
vt 0.906300 0.562600
vt 0.500000 0.562600
vt 0.500000 0.500000
vt 0.593700 0.500000
vt 0.593700 0.562600
vt 0.593800 0.500000
vt 0.562600 0.500000
vt 0.562600 1.000000
vt 0.593700 1.000000
vt 0.906300 1.000000
vt 0.906300 0.937400
vt 0.593700 0.937400
vt 1.000000 0.843800
vt 0.937500 0.843800
vt 0.500000 0.843800
vt 0.562600 0.843800
vt 0.660300 0.333300
vt 0.656500 0.343700
vt 0.652700 0.333300
vt 0.500000 0.343800
vt 0.508600 0.333300
vt 0.652700 -0.000000
vt 0.631100 0.136100
vt 0.607000 0.136100
vt 0.508600 -0.000000
vt 0.803900 0.333300
vt 0.812500 0.343800
vt 0.804300 -0.000000
vt 0.704100 0.136100
vt 0.680700 0.136100
vt 0.660600 -0.000000
vt 0.500000 0.000000
vt 0.508600 0.000000
vt 0.652700 0.333200
vt 0.508600 0.333200
vt 0.607000 0.304000
vt 0.631100 0.304000
vt 0.804300 0.333200
vt 0.660600 0.333200
vt 0.680700 0.304000
vt 0.704100 0.304000
vt 0.803900 -0.000000
vt 0.812500 0.000000
vt 0.660300 -0.000000
vt 0.624600 0.297500
vt 0.613500 0.297500
vt 0.613500 0.142500
vt 0.624600 0.142500
vt 0.698200 0.298500
vt 0.686600 0.298500
vt 0.686600 0.141500
vt 0.698200 0.141500
vt 0.509800 0.090200
vt 0.653200 0.090200
vt 0.653200 0.086300
vt 0.509800 0.086300
vt 0.568900 0.333400
vt 0.568900 -0.000600
vt 0.565700 -0.000600
vt 0.565700 0.333400
vt 0.562600 0.333400
vt 0.660700 0.090200
vt 0.803700 0.090200
vt 0.803700 0.086300
vt 0.660700 0.086300
vt 0.562600 -0.000600
vt 0.804000 -0.000000
vt 0.680400 0.136100
vt 0.703800 0.136100
vt 0.804000 0.333200
vt 0.703800 0.304000
vt 0.680400 0.304000
vt 0.660300 0.333200
vt 0.697900 0.298500
vt 0.697900 0.141500
vt 0.686400 0.141500
vt 0.686400 0.298500
vt 0.509800 0.101900
vt 0.509800 0.105700
vt 0.653200 0.105700
vt 0.653200 0.101900
vt 0.587500 0.333400
vt 0.593700 0.333400
vt 0.590600 0.333400
vt 0.590600 -0.000600
vt 0.587500 -0.000600
vt 0.660700 0.101900
vt 0.660700 0.105700
vt 0.803700 0.105700
vt 0.803700 0.101900
vt 0.593700 -0.000600
vt 1.000000 0.500000
vt 1.000000 1.000000
vt 0.906300 0.843800
vt 0.906300 0.500000
vt 1.000000 1.000000
vt 0.500000 1.000000
vt 0.593800 0.843800
vt 0.906300 0.843800
vt 0.500000 0.500000
vt 0.593800 0.500000
vt 0.593800 0.843800
vt 0.500000 1.000000
vt 0.906300 0.500000
vt 1.000000 0.500000
vt 0.937500 0.500000
vt 0.500000 0.500000
vt 0.562600 0.500000
vt 0.660300 0.333300
vt 0.652700 0.333300
vt 0.652700 -0.000000
vt 0.568900 0.333400
vt 0.562600 0.333400
vt 0.565700 0.333400
vt 0.568900 -0.000600
vt 0.568900 -0.000600
vt 0.565700 0.333400
vt 0.565700 -0.000600
vt 0.568900 0.333400
vt 0.568900 -0.000600
vt 0.562600 0.333400
vt 0.568900 -0.000600
vt 0.568900 0.333400
vt 0.562600 0.333400
vt 0.562600 -0.000600
vt 0.660300 0.333300
vt 0.652700 0.333300
vt 0.660300 0.333300
vt 0.652700 0.333300
vt 0.656500 0.343700
vt 0.652700 0.333300
vt 0.508600 0.333300
vt 0.500000 0.343800
vt 0.656500 0.343700
vt 0.652700 -0.000000
vt 0.508600 -0.000000
vt 0.607000 0.136100
vt 0.631100 0.136100
vt 0.803900 0.333300
vt 0.660300 0.333300
vt 0.656500 0.343700
vt 0.812500 0.343800
vt 0.660300 -0.000000
vt 0.500000 0.000000
vt 0.500000 0.343800
vt 0.508600 0.333300
vt 0.508600 0.000000
vt 0.652700 0.333200
vt 0.631100 0.304000
vt 0.607000 0.304000
vt 0.508600 0.333200
vt 0.607000 0.304000
vt 0.607000 0.136100
vt 0.508600 -0.000000
vt 0.508600 0.333200
vt 0.812500 0.343800
vt 0.812500 0.000000
vt 0.803900 -0.000000
vt 0.803900 0.333300
vt 0.660300 -0.000000
vt 0.660300 0.333300
vt 0.660300 -0.000000
vt 0.652700 -0.000000
vt 0.652700 0.333300
vt 0.652700 0.333200
vt 0.652700 -0.000000
vt 0.631100 0.136100
vt 0.631100 0.304000
vt 0.624600 0.297500
vt 0.624600 0.142500
vt 0.613500 0.142500
vt 0.613500 0.297500
vt 0.587500 -0.000600
vt 0.590600 -0.000600
vt 0.590600 0.333400
vt 0.587500 0.333400
vt 0.590600 0.333400
vt 0.593700 0.333400
vt 0.587500 0.333400
vt 0.587500 0.333400
vt 0.593700 0.333400
vt 0.587500 -0.000600
vt 0.587500 -0.000600
vt 0.593700 -0.000600
vt 0.593700 0.333400
vt 0.587500 0.333400
vt 0.660300 0.333300
vt 0.652700 0.333300
vt 0.652700 0.333300
vt 0.660300 0.333300
vt 0.631100 0.136100
vt 0.624600 0.142500
vt 0.624600 0.297500
vt 0.631100 0.304000
vt 0.631100 0.304000
vt 0.624600 0.297500
vt 0.613500 0.297500
vt 0.607000 0.304000
vt 0.607000 0.304000
vt 0.613500 0.297500
vt 0.613500 0.142500
vt 0.607000 0.136100
vt 0.607000 0.136100
vt 0.613500 0.142500
vt 0.624600 0.142500
vt 0.631100 0.136100
vn 1.000000 0.000000 0.000000
vn 1.000000 0.000000 0.000000
vn 1.000000 0.000000 0.000000
vn 1.000000 0.000000 0.000000
vn 0.000000 1.000000 0.000000
vn 0.000000 1.000000 0.000000
vn 0.000000 1.000000 0.000000
vn 0.000000 1.000000 0.000000
vn 0.000000 0.000000 -1.000000
vn 0.000000 0.000000 -1.000000
vn 0.000000 0.000000 -1.000000
vn 0.000000 0.000000 -1.000000
vn 0.000000 0.000000 1.000000
vn 0.000000 0.000000 1.000000
vn 0.000000 0.000000 1.000000
vn 0.000000 0.000000 1.000000
vn 0.000000 -1.000000 0.000000
vn 0.000000 -1.000000 0.000000
vn 0.000000 -1.000000 0.000000
vn 0.000000 -1.000000 0.000000
vn 0.000000 -1.000000 0.000000
vn 0.000000 -1.000000 0.000000
vn 0.000000 -1.000000 0.000000
vn 0.000000 -1.000000 0.000000
vn 0.000000 0.000000 -1.000000
vn 0.000000 0.000000 -1.000000
vn 0.000000 0.000000 -1.000000
vn 0.000000 0.000000 -1.000000
vn 0.000000 0.000000 1.000000
vn 0.000000 0.000000 1.000000
vn 0.000000 0.000000 1.000000
vn 0.000000 0.000000 1.000000
vn -1.000000 0.000000 0.000000
vn -1.000000 0.000000 0.000000
vn -1.000000 0.000000 0.000000
vn -1.000000 0.000000 0.000000
vn 0.000000 0.000000 1.000000
vn 0.000000 0.000000 1.000000
vn 0.000000 0.000000 1.000000
vn 0.000000 0.000000 1.000000
vn 0.000000 0.000000 -1.000000
vn 0.000000 0.000000 -1.000000
vn 0.000000 0.000000 -1.000000
vn 0.000000 0.000000 -1.000000
vn 0.000000 -1.000000 0.000000
vn 0.000000 -1.000000 0.000000
vn 0.000000 -1.000000 0.000000
vn 0.000000 -1.000000 0.000000
vn -1.000000 0.000000 0.000000
vn -1.000000 0.000000 0.000000
vn -1.000000 0.000000 0.000000
vn -1.000000 0.000000 0.000000
vn 1.000000 0.000000 0.000000
vn 1.000000 0.000000 0.000000
vn 1.000000 0.000000 0.000000
vn 1.000000 0.000000 0.000000
vn 0.000000 0.000000 1.000000
vn 0.000000 0.000000 1.000000
vn 0.000000 0.000000 1.000000
vn 0.000000 0.000000 1.000000
vn 0.000000 0.000000 1.000000
vn 0.000000 0.000000 1.000000
vn 0.000000 0.000000 1.000000
vn 0.000000 0.000000 1.000000
vn 0.000000 0.000000 1.000000
vn 0.000000 0.000000 1.000000
vn 0.000000 0.000000 1.000000
vn 0.000000 0.000000 1.000000
vn 0.000000 0.000000 1.000000
vn 0.000000 0.000000 1.000000
vn 0.000000 0.000000 1.000000
vn 0.000000 0.000000 1.000000
vn 0.000000 0.000000 1.000000
vn 0.000000 0.000000 1.000000
vn 0.000000 0.000000 1.000000
vn 0.000000 0.000000 1.000000
vn 0.000000 0.000000 1.000000
vn 0.000000 0.000000 1.000000
vn 0.000000 0.000000 1.000000
vn 0.000000 0.000000 1.000000
vn 0.000000 0.000000 1.000000
vn 0.000000 0.000000 1.000000
vn 0.000000 0.000000 1.000000
vn 0.000000 0.000000 1.000000
vn 0.000000 0.000000 1.000000
vn 0.000000 0.000000 1.000000
vn 0.000000 0.000000 1.000000
vn 0.000000 0.000000 1.000000
vn 0.000000 0.000000 1.000000
vn 0.000000 0.000000 1.000000
vn 0.000000 0.000000 1.000000
vn 0.000000 0.000000 1.000000
vn 0.000000 0.000000 1.000000
vn 0.000000 0.000000 1.000000
vn 0.000000 0.000000 1.000000
vn 0.000000 0.000000 1.000000
vn 0.000000 0.000000 1.000000
vn 0.000000 0.000000 1.000000
vn 0.000000 0.000000 1.000000
vn 0.000000 0.000000 1.000000
vn 0.000000 0.000000 1.000000
vn 0.000000 0.000000 1.000000
vn 0.000000 0.000000 1.000000
vn 0.000000 0.000000 1.000000
vn 0.000000 0.000000 1.000000
vn 0.000000 0.000000 1.000000
vn 0.000000 0.000000 1.000000
vn 0.000000 0.000000 1.000000
vn 0.000000 0.000000 1.000000
vn 0.000000 0.000000 1.000000
vn 0.000000 0.000000 1.000000
vn 0.000000 0.000000 1.000000
vn 0.000000 0.000000 1.000000
vn 0.000000 0.000000 1.000000
vn 0.000000 0.000000 1.000000
vn 0.000000 0.000000 1.000000
vn 0.000000 0.000000 1.000000
vn 0.000000 0.000000 1.000000
vn 0.000000 0.000000 1.000000
vn 0.000000 -1.000000 0.000000
vn 0.000000 -1.000000 0.000000
vn 0.000000 -1.000000 0.000000
vn 0.000000 -1.000000 0.000000
vn -1.000000 0.000000 0.000000
vn -1.000000 0.000000 0.000000
vn -1.000000 0.000000 0.000000
vn -0.447214 0.894427 0.000000
vn -1.000000 0.000000 0.000000
vn -0.447214 0.894427 0.000000
vn 1.000000 0.000000 0.000000
vn 1.000000 0.000000 0.000000
vn 1.000000 0.000000 0.000000
vn 0.447214 -0.894427 0.000000
vn 1.000000 0.000000 0.000000
vn 1.000000 0.000000 0.000000
vn 0.447214 -0.894427 0.000000
vn 1.000000 0.000000 0.000000
vn 0.000000 -1.000000 0.000000
vn 0.000000 -1.000000 0.000000
vn 0.000000 -1.000000 0.000000
vn 0.000000 -1.000000 0.000000
vn -1.000000 0.000000 0.000000
vn -1.000000 0.000000 0.000000
vn -1.000000 0.000000 0.000000
vn -1.000000 0.000000 0.000000
vn 1.000000 0.000000 0.000000
vn 1.000000 0.000000 0.000000
vn 1.000000 0.000000 0.000000
vn 1.000000 0.000000 0.000000
vn 0.000000 -1.000000 0.000000
vn 0.000000 -1.000000 0.000000
vn 0.000000 -1.000000 0.000000
vn 0.000000 -1.000000 0.000000
vn -0.707107 0.000000 0.707107
vn -0.707107 0.000000 0.707107
vn -0.707107 0.000000 0.707107
vn -0.707107 0.000000 0.707107
vn 0.000000 -0.707107 0.707107
vn 0.000000 -0.707107 0.707107
vn 0.000000 -0.707107 0.707107
vn 0.000000 -0.707107 0.707107
vn 0.707107 0.000000 0.707107
vn 0.707107 0.000000 0.707107
vn 0.707107 0.000000 0.707107
vn 0.707107 0.000000 0.707107
vn 0.000000 0.707107 0.707107
vn 0.000000 0.707107 0.707107
vn 0.000000 0.707107 0.707107
vn 0.000000 0.707107 0.707107
vn -0.707107 0.000000 0.707107
vn -0.707107 0.000000 0.707107
vn -0.707107 0.000000 0.707107
vn -0.707107 0.000000 0.707107
vn 0.000000 -0.707107 0.707107
vn 0.000000 -0.707107 0.707107
vn 0.000000 -0.707107 0.707107
vn 0.000000 -0.707107 0.707107
vn 0.707107 0.000000 0.707107
vn 0.707107 0.000000 0.707107
vn 0.707107 0.000000 0.707107
vn 0.707107 0.000000 0.707107
vn 0.000000 0.707107 0.707107
vn 0.000000 0.707107 0.707107
vn 0.000000 0.707107 0.707107
vn 0.000000 0.707107 0.707107
vn 0.000000 0.000000 -1.000000
vn 0.000000 0.000000 -1.000000
vn 0.000000 0.000000 -1.000000
vn 0.000000 0.000000 -1.000000
vn 0.000000 0.000000 -1.000000
vn 0.000000 0.000000 -1.000000
vn 0.000000 0.000000 -1.000000
vn 0.000000 0.000000 -1.000000
vn 0.000000 0.000000 -1.000000
vn 0.000000 0.000000 -1.000000
vn 0.000000 0.000000 -1.000000
vn 0.000000 0.000000 -1.000000
vn 0.000000 0.000000 -1.000000
vn 0.000000 0.000000 -1.000000
vn 0.000000 0.000000 -1.000000
vn 0.000000 0.000000 -1.000000
vn 0.000000 0.000000 -1.000000
vn 0.000000 0.000000 -1.000000
vn 0.000000 0.000000 -1.000000
vn 0.000000 0.000000 -1.000000
vn 0.000000 0.000000 -1.000000
vn 0.000000 0.000000 -1.000000
vn 0.000000 0.000000 -1.000000
vn 0.000000 0.000000 -1.000000
vn 0.000000 0.000000 -1.000000
vn 0.000000 0.000000 -1.000000
vn 0.000000 0.000000 -1.000000
vn 0.000000 0.000000 -1.000000
vn 0.000000 0.000000 -1.000000
vn 0.000000 0.000000 -1.000000
vn 0.000000 0.000000 -1.000000
vn 0.000000 0.000000 -1.000000
vn 0.000000 0.000000 -1.000000
vn 0.000000 0.000000 -1.000000
vn 0.000000 0.000000 -1.000000
vn 0.000000 0.000000 -1.000000
vn 0.000000 0.000000 -1.000000
vn 0.000000 0.000000 -1.000000
vn 0.000000 0.000000 -1.000000
vn 0.000000 0.000000 -1.000000
vn 0.000000 0.000000 -1.000000
vn 0.000000 0.000000 -1.000000
vn 0.000000 0.000000 -1.000000
vn 0.000000 0.000000 -1.000000
vn 0.000000 0.000000 -1.000000
vn 0.000000 0.000000 -1.000000
vn 0.000000 0.000000 -1.000000
vn 0.000000 0.000000 -1.000000
vn 0.000000 0.000000 -1.000000
vn 0.000000 0.000000 -1.000000
vn 0.000000 0.000000 -1.000000
vn 0.000000 0.000000 -1.000000
vn 0.000000 0.000000 -1.000000
vn 0.000000 0.000000 -1.000000
vn 0.000000 0.000000 -1.000000
vn 0.000000 0.000000 -1.000000
vn 0.000000 0.000000 -1.000000
vn 0.000000 0.000000 -1.000000
vn 0.000000 0.000000 -1.000000
vn 0.000000 0.000000 -1.000000
vn 0.000000 0.000000 -1.000000
vn 0.000000 0.000000 -1.000000
vn 0.000000 0.000000 -1.000000
vn 0.000000 -1.000000 0.000000
vn 0.000000 -1.000000 0.000000
vn 0.000000 -1.000000 0.000000
vn 0.000000 -1.000000 0.000000
vn -1.000000 0.000000 0.000000
vn 1.000000 0.000000 0.000000
vn -0.447214 0.894427 0.000000
vn -1.000000 0.000000 0.000000
vn -1.000000 0.000000 0.000000
vn -1.000000 0.000000 0.000000
vn -1.000000 0.000000 0.000000
vn 1.000000 0.000000 0.000000
vn 1.000000 0.000000 0.000000
vn 0.447214 -0.894427 0.000000
vn 1.000000 0.000000 0.000000
vn 0.447214 -0.894427 0.000000
vn 1.000000 0.000000 0.000000
vn 1.000000 0.000000 0.000000
vn 0.000000 -1.000000 0.000000
vn 0.000000 -1.000000 0.000000
vn 0.000000 -1.000000 0.000000
vn 0.000000 -1.000000 0.000000
vn -1.000000 0.000000 0.000000
vn -1.000000 0.000000 0.000000
vn -1.000000 0.000000 0.000000
vn -1.000000 0.000000 0.000000
vn 1.000000 0.000000 0.000000
vn 1.000000 0.000000 0.000000
vn 1.000000 0.000000 0.000000
vn 1.000000 0.000000 0.000000
vn 0.000000 -1.000000 0.000000
vn 0.000000 -1.000000 0.000000
vn 0.000000 -1.000000 0.000000
vn 0.000000 -1.000000 0.000000
vn -0.707107 0.000000 -0.707107
vn -0.707107 0.000000 -0.707107
vn -0.707107 0.000000 -0.707107
vn -0.707107 0.000000 -0.707107
vn 0.000000 -0.707107 -0.707107
vn 0.000000 -0.707107 -0.707107
vn 0.000000 -0.707107 -0.707107
vn 0.000000 -0.707107 -0.707107
vn 0.707107 0.000000 -0.707107
vn 0.707107 0.000000 -0.707107
vn 0.707107 0.000000 -0.707107
vn 0.707107 0.000000 -0.707107
vn 0.000000 0.707107 -0.707107
vn 0.000000 0.707107 -0.707107
vn 0.000000 0.707107 -0.707107
vn 0.000000 0.707107 -0.707107
vn -0.707107 0.000000 -0.707107
vn -0.707107 0.000000 -0.707107
vn -0.707107 0.000000 -0.707107
vn -0.707107 0.000000 -0.707107
vn 0.000000 -0.707107 -0.707107
vn 0.000000 -0.707107 -0.707107
vn 0.000000 -0.707107 -0.707107
vn 0.000000 -0.707107 -0.707107
vn 0.707107 0.000000 -0.707107
vn 0.707107 0.000000 -0.707107
vn 0.707107 0.000000 -0.707107
vn 0.707107 0.000000 -0.707107
vn 0.000000 0.707107 -0.707107
vn 0.000000 0.707107 -0.707107
vn 0.000000 0.707107 -0.707107
vn 0.000000 0.707107 -0.707107
f 1/1/1 2/2/2 3/3/3 4/4/4
f 5/5/5 6/6/6 2/7/7 1/1/8
f 1/1/9 7/8/10 8/9/11 5/5/12
f 3/103/13 2/104/14 9/105/15 10/10/16
f 4/4/17 3/11/18 10/12/19 11/106/20
f 12/13/21 13/14/22 14/15/23 15/16/24
f 13/14/25 5/5/26 8/9/27 14/17/28
f 2/107/29 6/108/30 16/109/31 9/110/32
f 13/14/33 12/18/34 6/19/35 5/5/36
f 12/111/37 15/112/38 16/113/39 6/114/40
f 4/4/41 11/115/42 7/8/43 1/1/44
f 8/20/45 7/21/46 9/22/47 16/23/48
f 7/24/49 11/116/50 10/117/51 9/25/52
f 14/118/53 8/26/54 16/27/55 15/119/56
f 17/28/57 18/29/58 19/30/59
f 20/31/60 21/32/61 19/30/62 18/29/63
f 22/33/64 23/34/65 24/35/66 25/36/67
f 18/29/68 17/28/69 26/37/70 27/38/71
f 28/39/72 29/40/73 30/41/74 31/42/75
f 32/43/76 33/44/77 21/32/78 20/31/79
f 34/45/80 35/46/81 36/47/82 37/48/83
f 38/49/84 39/50/85 40/51/86 41/52/87
f 36/47/88 35/46/89 25/36/90 24/35/91
f 27/38/92 26/37/93 42/53/94 43/54/95
f 40/51/96 39/50/97 31/42/98 30/41/99
f 44/120/100 45/121/101 46/122/102 47/55/103
f 34/45/104 37/48/105 23/34/106 22/33/107
f 38/49/108 41/52/109 29/40/110 28/39/111
f 48/56/112 49/57/113 50/58/114 51/59/115
f 52/60/116 53/61/117 54/62/118 55/63/119
f 35/64/120 34/65/121 19/66/122 21/67/123
f 34/68/124 22/69/125 46/70/126 45/71/127
f 34/68/128 45/71/129 19/72/130
f 39/123/131 17/124/132 44/125/133 31/126/134
f 31/127/135 44/128/136 47/129/137
f 39/73/138 38/74/139 26/75/140 17/76/141
f 38/130/142 28/131/143 42/77/144 26/132/145
f 25/133/146 35/134/147 21/135/148 33/136/149
f 44/137/150 17/28/151 19/30/152 45/138/153
f 23/34/154 37/48/155 48/56/156 51/59/157
f 37/48/158 36/47/159 49/57/160 48/56/161
f 36/47/162 24/35/163 50/58/164 49/57/165
f 24/35/166 23/34/167 51/59/168 50/58/169
f 29/40/170 41/52/171 52/60/172 55/63/173
f 41/52/174 40/51/175 53/61/176 52/60/177
f 40/51/178 30/41/179 54/62/180 53/61/181
f 30/41/182 29/40/183 55/63/184 54/62/185
f 56/139/186 57/140/187 58/141/188
f 57/142/189 59/143/190 60/144/191 58/145/192
f 61/146/193 62/147/194 63/148/195 64/149/196
f 65/150/197 56/151/198 58/152/199 66/153/200
f 67/78/201 68/154/202 69/79/203 70/80/204
f 71/155/205 60/156/206 59/157/207 72/158/208
f 73/159/209 74/160/210 75/161/211 76/162/212
f 77/81/213 78/82/214 79/83/215 80/84/216
f 75/163/217 63/164/218 62/165/219 76/166/220
f 66/167/221 81/168/222 82/169/223 65/170/224
f 79/83/225 69/79/226 68/171/227 80/84/228
f 83/172/229 84/173/230 85/174/231 86/175/232
f 73/176/233 61/177/234 64/178/235 74/179/236
f 77/81/237 67/78/238 70/80/239 78/82/240
f 87/180/241 88/181/242 89/182/243 90/183/244
f 91/85/245 92/86/246 93/87/247 94/88/248
f 76/89/249 59/90/250 57/91/251 73/92/252
f 73/93/253 57/94/254 86/95/255 85/96/256
f 73/93/257 85/96/258 61/97/259
f 68/184/260 84/185/261 83/186/262 80/187/263
f 83/188/264 56/189/265 80/190/266
f 80/98/267 56/99/268 65/100/269 77/101/270
f 77/191/271 65/192/272 82/102/273 67/193/274
f 62/194/275 72/195/276 59/196/277 76/197/278
f 83/198/279 86/199/280 57/200/281 56/201/282
f 64/202/283 88/203/284 87/204/285 74/205/286
f 74/206/287 87/207/288 90/208/289 75/209/290
f 75/210/291 90/211/292 89/212/293 63/213/294
f 63/214/295 89/215/296 88/216/297 64/217/298
f 70/80/299 92/86/300 91/85/301 78/82/302
f 78/82/303 91/85/304 94/88/305 79/83/306
f 79/83/307 94/88/308 93/87/309 69/79/310
f 69/79/311 93/87/312 92/86/313 70/80/314
