# This file uses centimeters as units for non-parametric coordinates.

v 0.639999 -1.280000 0.160000
v 0.639999 1.279999 0.160000
v -0.640000 1.279999 0.160000
v -0.640000 -1.280000 0.160000
v -0.640000 -1.280000 -0.160000
v 0.639999 -1.280000 -0.160000
v 0.639999 1.279999 -0.160000
v -0.640000 1.279999 -0.160000
vt 0.875000 0.500000
vt 0.875000 1.000000
vt 0.625000 1.000000
vt 0.625000 0.500000
vt 0.625000 0.938400
vt 0.875000 0.938400
vt 0.813100 1.000000
vt 0.813100 0.500000
vt 0.875000 0.561600
vt 0.625000 0.561600
vt 0.686900 0.500000
vt 0.686900 1.000000
vt 0.875000 1.000000
vt 0.625000 1.000000
vt 0.875000 0.500000
vt 0.875000 1.000000
vt 0.625000 0.500000
vt 0.875000 0.500000
vt 0.625000 1.000000
vt 0.625000 0.500000
vt 0.625000 1.000000
vt 0.875000 1.000000
vt 0.875000 0.500000
vt 0.625000 0.500000
vn 0.000000 0.000000 1.000000
vn 0.000000 0.000000 1.000000
vn 0.000000 0.000000 1.000000
vn 0.000000 0.000000 1.000000
vn 0.000000 -1.000000 0.000000
vn 0.000000 -1.000000 0.000000
vn 0.000000 -1.000000 0.000000
vn 0.000000 -1.000000 0.000000
vn 1.000000 0.000000 0.000000
vn 1.000000 0.000000 0.000000
vn 1.000000 0.000000 0.000000
vn 1.000000 0.000000 0.000000
vn 0.000000 1.000000 0.000000
vn 0.000000 1.000000 0.000000
vn 0.000000 1.000000 0.000000
vn 0.000000 1.000000 0.000000
vn -1.000000 0.000000 0.000000
vn -1.000000 0.000000 0.000000
vn -1.000000 0.000000 0.000000
vn -1.000000 0.000000 0.000000
vn 0.000000 0.000000 -1.000000
vn 0.000000 0.000000 -1.000000
vn 0.000000 0.000000 -1.000000
vn 0.000000 0.000000 -1.000000
f 1/1/1 2/2/2 3/3/3 4/4/4
f 5/5/5 6/6/6 1/13/7 4/14/8
f 6/15/9 7/16/10 2/7/11 1/8/12
f 7/9/13 8/10/14 3/17/15 2/18/16
f 8/19/17 5/20/18 4/11/19 3/12/20
f 8/21/21 7/22/22 6/23/23 5/24/24
