# This file uses centimeters as units for non-parametric coordinates.

v -0.066727 -1.280000 0.040000
v -0.066727 1.241608 0.040000
v -1.152000 1.241608 0.040000
v -1.152000 -1.280000 0.040000
v 1.279999 -1.280000 0.080000
v 1.279999 1.279999 0.080000
v 1.151993 1.241608 0.080000
v 1.151993 -1.280000 0.080000
v 1.151993 -1.280000 0.040000
v 1.151993 1.241608 0.040000
v 0.066727 1.241608 0.040000
v 0.066727 -1.280000 0.040000
v 0.066727 -1.280000 0.080000
v 0.066727 1.241608 0.080000
v -0.066727 1.241608 0.080000
v -0.066727 -1.280000 0.080000
v 0.000000 1.279999 0.080000
v -1.280000 1.279999 0.080000
v -1.152000 1.241608 0.080000
v -1.280000 -1.280000 0.080000
v -1.152000 -1.280000 0.080000
v -1.280000 -1.280000 -0.080000
v -1.152000 -1.280000 -0.080000
v -1.152000 -1.280000 -0.040000
v -0.066727 -1.280000 -0.040000
v 0.066727 -1.280000 -0.040000
v 1.151993 -1.280000 -0.040000
v 1.151993 -1.280000 -0.080000
v 1.279999 -1.280000 -0.080000
v 1.279999 1.279999 -0.080000
v 0.000000 1.279999 -0.080000
v -1.280000 1.279999 -0.080000
v -1.152000 1.241608 -0.040000
v -0.066727 1.241608 -0.040000
v 1.151993 1.241608 -0.080000
v 0.066727 1.241608 -0.040000
v 1.151993 1.241608 -0.040000
v 0.066727 -1.280000 -0.080000
v -0.066727 -1.280000 -0.080000
v -0.066727 1.241608 -0.080000
v 0.066727 1.241608 -0.080000
v -1.152000 1.241608 -0.080000
vt 0.239000 0.000000
vt 0.237100 0.492500
vt 0.025000 0.492500
vt 0.025000 0.000000
vt 0.500000 0.000000
vt 0.500000 0.500000
vt 0.479100 0.492500
vt 0.479100 0.000000
vt 0.475000 0.000000
vt 0.475000 0.492500
vt 0.263100 0.492500
vt 0.265100 0.000000
vt 0.262300 0.000000
vt 0.260800 0.492500
vt 0.239800 0.492500
vt 0.241400 0.000000
vt 0.250100 0.500000
vt -0.000000 0.500000
vt 0.020900 0.492500
vt 0.000000 0.000000
vt 0.020900 0.000000
vt 0.000000 0.115000
vt 0.025000 0.115000
vt 0.025000 0.122900
vt 0.025000 0.138600
vt 0.025000 0.146500
vt 0.000000 0.146500
vt 0.238500 0.122900
vt 0.238500 0.138600
vt 0.264500 0.122900
vt 0.264500 0.138600
vt 0.475000 0.122900
vt 0.475000 0.138600
vt 0.475000 0.115000
vt 0.500000 0.115000
vt 0.500000 0.146500
vt 0.475000 0.146500
vt 0.475000 0.500000
vt 0.500000 0.258200
vt 0.251500 0.258200
vt 0.251500 0.226700
vt 0.500000 0.226700
vt -0.000000 0.258200
vt -0.000000 0.226700
vt 0.000000 0.500000
vt 0.025000 0.500000
vt 0.479800 0.026000
vt 0.265400 0.026000
vt 0.265400 0.018100
vt 0.479800 0.018100
vt 0.264500 0.146500
vt 0.238500 0.146500
vt 0.239100 0.026000
vt 0.024800 0.026000
vt 0.024800 0.018100
vt 0.239100 0.018100
vt 0.479800 0.041800
vt 0.479800 0.049700
vt 0.265400 0.049700
vt 0.265400 0.041800
vt 0.238500 0.115000
vt 0.264500 0.115000
vt 0.239100 0.041800
vt 0.239100 0.049700
vt 0.024800 0.049700
vt 0.024800 0.041800
vt 0.263100 0.492500
vt 0.237100 0.492500
vt 0.500000 0.000000
vt 0.500000 0.500000
vt 0.475000 0.000000
vt 0.000000 0.000000
vt 0.025000 0.000000
vt 0.239000 0.000000
vt 0.025000 0.000000
vt 0.025000 0.492500
vt 0.237100 0.492500
vt 0.500000 0.000000
vt 0.479100 0.000000
vt 0.479100 0.492500
vt 0.500000 0.500000
vt 0.475000 0.000000
vt 0.265100 0.000000
vt 0.263100 0.492500
vt 0.475000 0.492500
vt 0.262300 0.000000
vt 0.241400 0.000000
vt 0.239800 0.492500
vt 0.260800 0.492500
vt 0.250100 0.500000
vt 0.239800 0.492500
vt 0.020900 0.492500
vt -0.000000 0.500000
vt 0.500000 0.500000
vt 0.479100 0.492500
vt 0.260800 0.492500
vt 0.250100 0.500000
vt 0.000000 0.000000
vt -0.000000 0.500000
vt 0.020900 0.492500
vt 0.020900 0.000000
vt 0.263100 0.492500
vt 0.237100 0.492500
vt 0.250100 0.500000
vt 0.475000 0.492500
vt 0.479100 0.492500
vt 0.479100 0.000000
vt 0.475000 0.000000
vt 0.025000 0.000000
vt 0.020900 0.000000
vt 0.020900 0.492500
vt 0.025000 0.492500
vt 0.237100 0.492500
vt 0.239800 0.492500
vt 0.241400 0.000000
vt 0.239000 0.000000
vt 0.265100 0.000000
vt 0.262300 0.000000
vt 0.260800 0.492500
vt 0.263100 0.492500
vn 0.000000 0.000000 1.000000
vn 0.000000 0.000000 1.000000
vn 0.000000 0.000000 1.000000
vn 0.000000 0.000000 1.000000
vn 0.000000 0.000000 1.000000
vn 0.000000 0.000000 1.000000
vn 0.000000 0.000000 1.000000
vn 0.000000 0.000000 1.000000
vn 0.000000 0.000000 1.000000
vn 0.000000 0.000000 1.000000
vn 0.000000 0.000000 1.000000
vn 0.000000 0.000000 1.000000
vn 0.000000 0.000000 1.000000
vn 0.000000 0.000000 1.000000
vn 0.000000 0.000000 1.000000
vn 0.000000 0.000000 1.000000
vn 0.000000 0.000000 1.000000
vn 0.000000 0.000000 1.000000
vn 0.000000 0.000000 1.000000
vn 0.000000 0.000000 1.000000
vn 0.000000 0.000000 1.000000
vn 0.000000 0.000000 1.000000
vn 0.000000 0.000000 1.000000
vn 0.000000 0.000000 1.000000
vn 0.000000 0.000000 1.000000
vn 0.000000 0.000000 1.000000
vn 0.000000 0.000000 1.000000
vn 0.000000 0.000000 1.000000
vn 0.000000 0.000000 1.000000
vn 0.000000 0.000000 1.000000
vn 0.000000 0.000000 1.000000
vn 0.000000 -1.000000 0.000000
vn 0.000000 -1.000000 0.000000
vn 0.000000 -1.000000 0.000000
vn 0.000000 -1.000000 0.000000
vn 0.000000 -1.000000 0.000000
vn 0.000000 -1.000000 0.000000
vn 0.000000 -1.000000 0.000000
vn 0.000000 -1.000000 0.000000
vn 0.000000 -1.000000 0.000000
vn 0.000000 -1.000000 0.000000
vn 0.000000 -1.000000 0.000000
vn 0.000000 -1.000000 0.000000
vn 0.000000 -1.000000 0.000000
vn 0.000000 -1.000000 0.000000
vn 0.000000 -1.000000 0.000000
vn 0.000000 -1.000000 0.000000
vn 0.000000 -1.000000 0.000000
vn 0.000000 -1.000000 0.000000
vn 0.000000 -1.000000 0.000000
vn 0.000000 -1.000000 0.000000
vn 0.000000 -1.000000 0.000000
vn 0.000000 -1.000000 0.000000
vn 0.000000 -1.000000 0.000000
vn 0.000000 -1.000000 0.000000
vn 0.000000 -1.000000 0.000000
vn 0.000000 -1.000000 0.000000
vn 0.000000 -1.000000 0.000000
vn 0.000000 -1.000000 0.000000
vn 1.000000 0.000000 0.000000
vn 1.000000 0.000000 0.000000
vn 1.000000 0.000000 0.000000
vn 1.000000 0.000000 0.000000
vn 0.000000 1.000000 0.000000
vn 0.000000 1.000000 0.000000
vn 0.000000 1.000000 0.000000
vn 0.000000 1.000000 0.000000
vn 0.000000 1.000000 0.000000
vn 0.000000 1.000000 0.000000
vn 0.000000 1.000000 0.000000
vn 0.000000 1.000000 0.000000
vn -1.000000 0.000000 0.000000
vn -1.000000 0.000000 0.000000
vn -1.000000 0.000000 0.000000
vn -1.000000 0.000000 0.000000
vn -1.000000 0.000000 0.000000
vn -1.000000 0.000000 0.000000
vn -1.000000 0.000000 0.000000
vn -1.000000 0.000000 0.000000
vn 1.000000 0.000000 0.000000
vn 1.000000 0.000000 0.000000
vn 1.000000 0.000000 0.000000
vn 1.000000 0.000000 0.000000
vn 0.000000 -1.000000 0.000000
vn 0.000000 -1.000000 0.000000
vn 0.000000 -1.000000 0.000000
vn 0.000000 -1.000000 0.000000
vn -1.000000 0.000000 0.000000
vn -1.000000 0.000000 0.000000
vn -1.000000 0.000000 0.000000
vn -1.000000 0.000000 0.000000
vn 0.000000 -1.000000 0.000000
vn 0.000000 -1.000000 0.000000
vn 0.000000 -1.000000 0.000000
vn 0.000000 -1.000000 0.000000
vn 1.000000 0.000000 0.000000
vn 1.000000 0.000000 0.000000
vn 1.000000 0.000000 0.000000
vn 1.000000 0.000000 0.000000
vn 0.000000 -1.000000 0.000000
vn 0.000000 -1.000000 0.000000
vn 0.000000 -1.000000 0.000000
vn 0.000000 -1.000000 0.000000
vn 0.000000 0.000000 -1.000000
vn 0.000000 0.000000 -1.000000
vn 0.000000 0.000000 -1.000000
vn 0.000000 0.000000 -1.000000
vn 0.000000 0.000000 -1.000000
vn 0.000000 0.000000 -1.000000
vn 0.000000 0.000000 -1.000000
vn 0.000000 0.000000 -1.000000
vn 0.000000 0.000000 -1.000000
vn 0.000000 0.000000 -1.000000
vn 0.000000 0.000000 -1.000000
vn 0.000000 0.000000 -1.000000
vn 0.000000 0.000000 -1.000000
vn 0.000000 0.000000 -1.000000
vn 0.000000 0.000000 -1.000000
vn 0.000000 0.000000 -1.000000
vn 0.000000 0.000000 -1.000000
vn 0.000000 0.000000 -1.000000
vn 0.000000 0.000000 -1.000000
vn 0.000000 0.000000 -1.000000
vn 0.000000 0.000000 -1.000000
vn 0.000000 0.000000 -1.000000
vn 0.000000 0.000000 -1.000000
vn 0.000000 0.000000 -1.000000
vn 0.000000 0.000000 -1.000000
vn 0.000000 0.000000 -1.000000
vn 0.000000 0.000000 -1.000000
vn 0.000000 0.000000 -1.000000
vn 0.000000 0.000000 -1.000000
vn 0.000000 0.000000 -1.000000
vn 0.000000 0.000000 -1.000000
vn -1.000000 0.000000 0.000000
vn -1.000000 0.000000 0.000000
vn -1.000000 0.000000 0.000000
vn -1.000000 0.000000 0.000000
vn 1.000000 0.000000 0.000000
vn 1.000000 0.000000 0.000000
vn 1.000000 0.000000 0.000000
vn 1.000000 0.000000 0.000000
vn 0.000000 -1.000000 0.000000
vn 0.000000 -1.000000 0.000000
vn 0.000000 -1.000000 0.000000
vn 0.000000 -1.000000 0.000000
vn -1.000000 0.000000 0.000000
vn -1.000000 0.000000 0.000000
vn -1.000000 0.000000 0.000000
vn -1.000000 0.000000 0.000000
vn 0.000000 -1.000000 0.000000
vn 0.000000 -1.000000 0.000000
vn 0.000000 -1.000000 0.000000
vn 0.000000 -1.000000 0.000000
vn 1.000000 0.000000 0.000000
vn 1.000000 0.000000 0.000000
vn 1.000000 0.000000 0.000000
vn 1.000000 0.000000 0.000000
vn 0.000000 -1.000000 0.000000
vn 0.000000 -1.000000 0.000000
vn 0.000000 -1.000000 0.000000
vn 0.000000 -1.000000 0.000000
f 1/1/1 2/2/2 3/3/3 4/4/4
f 5/5/5 6/6/6 7/7/7 8/8/8
f 9/9/9 10/10/10 11/11/11 12/12/12
f 13/13/13 14/14/14 15/15/15 16/16/16
f 17/17/17 18/18/18 19/19/19 15/15/20
f 6/6/21 17/17/22 14/14/23 7/7/24
f 20/20/25 21/21/26 19/19/27 18/18/28
f 14/67/29 17/17/30 15/68/31
f 22/22/32 23/23/33 24/24/34 4/25/35
f 4/25/36 21/26/37 20/27/38 22/22/39
f 24/24/40 25/28/41 1/29/42 4/25/43
f 25/28/44 26/30/45 12/31/46 1/29/47
f 26/30/48 27/32/49 9/33/50 12/31/51
f 27/32/52 28/34/53 29/35/54 5/36/55
f 5/36/56 8/37/57 9/33/58 27/32/59
f 29/69/60 30/70/61 6/38/62 5/71/63
f 30/39/64 31/40/65 17/41/66 6/42/67
f 31/40/68 32/43/69 18/44/70 17/41/71
f 32/45/72 22/72/73 20/73/74 18/46/75
f 10/10/76 9/9/77 8/8/78 7/7/79
f 4/4/80 3/3/81 19/19/82 21/21/83
f 3/47/84 2/48/85 15/49/86 19/50/87
f 2/2/88 1/1/89 16/16/90 15/15/91
f 1/29/92 12/31/93 13/51/94 16/52/95
f 12/12/96 11/11/97 14/14/98 13/13/99
f 11/53/100 10/54/101 7/55/102 14/56/103
f 25/74/104 24/75/105 33/76/106 34/77/107
f 29/78/108 28/79/109 35/80/110 30/81/111
f 27/82/112 26/83/113 36/84/114 37/85/115
f 38/86/116 39/87/117 40/88/118 41/89/119
f 31/90/120 40/91/121 42/92/122 32/93/123
f 30/94/124 35/95/125 41/96/126 31/97/127
f 22/98/128 32/99/129 42/100/130 23/101/131
f 41/102/132 40/103/133 31/104/134
f 37/105/135 35/106/136 28/107/137 27/108/138
f 24/109/139 23/110/140 42/111/141 33/112/142
f 33/57/143 42/58/144 40/59/145 34/60/146
f 34/113/147 40/114/148 39/115/149 25/116/150
f 25/28/151 39/61/152 38/62/153 26/30/154
f 26/117/155 38/118/156 41/119/157 36/120/158
f 36/63/159 41/64/160 35/65/161 37/66/162
