# This file uses centimeters as units for non-parametric coordinates.

v 0.639999 -0.640000 0.160000
v 0.639999 0.639999 0.160000
v -0.640000 0.639999 0.160000
v -0.640000 -0.640000 0.160000
v 0.639999 -0.640000 -0.160000
v 0.639999 0.639999 -0.160000
v -0.640000 0.639999 -0.160000
v -0.640000 -0.640000 -0.160000
vt 0.375000 0.625000
vt 0.375000 0.875000
vt 0.125000 0.875000
vt 0.125000 0.625000
vt 0.437500 0.625000
vt 0.437500 0.875000
vt 0.375000 0.812600
vt 0.125000 0.812600
vt 0.062500 0.875000
vt 0.062500 0.625000
vt 0.125000 0.687500
vt 0.375000 0.687500
vt 0.125000 0.625000
vt 0.125000 0.875000
vt 0.375000 0.875000
vt 0.375000 0.625000
vn 0.000000 0.000000 1.000000
vn 0.000000 0.000000 1.000000
vn 0.000000 0.000000 1.000000
vn 0.000000 0.000000 1.000000
vn 1.000000 0.000000 0.000000
vn 1.000000 0.000000 0.000000
vn 1.000000 0.000000 0.000000
vn 1.000000 0.000000 0.000000
vn 0.000000 1.000000 0.000000
vn 0.000000 1.000000 0.000000
vn 0.000000 1.000000 0.000000
vn 0.000000 1.000000 0.000000
vn -1.000000 0.000000 0.000000
vn -1.000000 0.000000 0.000000
vn -1.000000 0.000000 0.000000
vn -1.000000 0.000000 0.000000
vn 0.000000 -1.000000 0.000000
vn 0.000000 -1.000000 0.000000
vn 0.000000 -1.000000 0.000000
vn 0.000000 -1.000000 0.000000
vn 0.000000 0.000000 -1.000000
vn 0.000000 0.000000 -1.000000
vn 0.000000 0.000000 -1.000000
vn 0.000000 0.000000 -1.000000
f 1/1/1 2/2/2 3/3/3 4/4/4
f 5/5/5 6/6/6 2/2/7 1/1/8
f 6/7/9 7/8/10 3/3/11 2/2/12
f 7/9/13 8/10/14 4/4/15 3/3/16
f 8/11/17 5/12/18 1/1/19 4/4/20
f 8/13/21 7/14/22 6/15/23 5/16/24
