# This file uses centimeters as units for non-parametric coordinates.

v 5.841370 -0.028650 7.534760
v 5.841370 -0.028650 2.511589
v 0.000031 0.000000 7.534760
v 0.000031 0.000000 2.511589
v 4.088974 -0.028650 7.534760
v 4.088974 -0.028650 2.511589
v 4.130661 0.104467 7.534760
v 4.130661 0.104467 2.511589
v 5.841370 0.104467 7.534760
v 5.841370 0.104467 2.511589
v -5.841354 -0.028650 7.534760
v -5.841354 -0.028650 2.511589
v 0.000031 0.000000 7.534760
v 0.000031 0.000000 2.511589
v -4.088959 -0.028650 7.534760
v -4.088959 -0.028650 2.511589
v -4.130646 0.104467 7.534760
v -4.130646 0.104467 2.511589
v -5.841354 0.104467 7.534760
v -5.841354 0.104467 2.511589
v 5.841370 -0.028650 2.511589
v 5.841370 -0.028650 -2.511581
v 0.000031 0.000000 2.511589
v 0.000031 0.000000 -2.511581
v 4.088974 -0.028650 2.511589
v 4.088974 -0.028650 -2.511581
v 4.130661 0.104467 2.511589
v 4.130661 0.104467 -2.511581
v 5.841370 0.104467 2.511589
v 5.841370 0.104467 -2.511581
v -5.841354 -0.028650 2.511589
v -5.841354 -0.028650 -2.511581
v 0.000031 0.000000 2.511589
v 0.000031 0.000000 -2.511581
v -4.088959 -0.028650 2.511589
v -4.088959 -0.028650 -2.511581
v -4.130646 0.104467 2.511589
v -4.130646 0.104467 -2.511581
v -5.841354 0.104467 2.511589
v -5.841354 0.104467 -2.511581
v -5.841354 -0.028650 -2.511581
v -5.841354 -0.028650 -7.534760
v 0.000031 0.000000 -2.511581
v 0.000031 0.000000 -7.534760
v -4.088959 -0.028650 -2.511581
v -4.088959 -0.028650 -7.534760
v -4.130646 0.104467 -2.511581
v -4.130646 0.104467 -7.534760
v -5.841354 0.104467 -2.511581
v -5.841354 0.104467 -7.534760
v 5.841370 -0.028650 -2.511581
v 5.841370 -0.028650 -7.534760
v 0.000031 0.000000 -2.511581
v 0.000031 0.000000 -7.534760
v 4.088974 -0.028650 -2.511581
v 4.088974 -0.028650 -7.534760
v 4.130661 0.104467 -2.511581
v 4.130661 0.104467 -7.534760
v 5.841370 0.104467 -2.511581
v 5.841370 0.104467 -7.534760
vt 0.003006 0.870806
vt 0.003006 0.034309
vt 0.683928 0.034309
vt 0.683928 0.870806
vt 0.711959 0.870806
vt 0.711959 0.034309
vt 0.996837 0.034309
vt 0.996837 0.870806
vt 0.686900 0.871067
vt 0.686900 0.034571
vt 0.709067 0.034571
vt 0.709067 0.871067
vt 0.686900 0.871067
vt 0.686900 0.034571
vt 0.709067 0.034571
vt 0.709067 0.871067
vt 0.003006 0.870806
vt 0.683928 0.870806
vt 0.683928 0.034309
vt 0.003006 0.034309
vt 0.711959 0.870806
vt 0.996837 0.870806
vt 0.996837 0.034309
vt 0.711959 0.034309
vt 0.686900 0.871067
vt 0.709067 0.871067
vt 0.709067 0.034571
vt 0.686900 0.034571
vt 0.686900 0.871067
vt 0.709067 0.871067
vt 0.709067 0.034571
vt 0.686900 0.034571
vt 0.003006 0.870806
vt 0.003006 0.034309
vt 0.683928 0.034309
vt 0.683928 0.870806
vt 0.711959 0.870806
vt 0.711959 0.034309
vt 0.996837 0.034309
vt 0.996837 0.870806
vt 0.686900 0.871067
vt 0.686900 0.034571
vt 0.709067 0.034571
vt 0.709067 0.871067
vt 0.686900 0.871067
vt 0.686900 0.034571
vt 0.709067 0.034571
vt 0.709067 0.871067
vt 0.003006 0.870806
vt 0.683928 0.870806
vt 0.683928 0.034309
vt 0.003006 0.034309
vt 0.711959 0.870806
vt 0.996837 0.870806
vt 0.996837 0.034309
vt 0.711959 0.034309
vt 0.686900 0.871067
vt 0.709067 0.871067
vt 0.709067 0.034571
vt 0.686900 0.034571
vt 0.686900 0.871067
vt 0.709067 0.871067
vt 0.709067 0.034571
vt 0.686900 0.034571
vt 0.003006 0.870806
vt 0.683928 0.870806
vt 0.683928 0.034309
vt 0.003006 0.034309
vt 0.711959 0.870806
vt 0.996837 0.870806
vt 0.996837 0.034309
vt 0.711959 0.034309
vt 0.686900 0.871067
vt 0.709067 0.871067
vt 0.709067 0.034571
vt 0.686900 0.034571
vt 0.686900 0.871067
vt 0.709067 0.871067
vt 0.709067 0.034571
vt 0.686900 0.034571
vt 0.003006 0.870806
vt 0.003006 0.034309
vt 0.683928 0.034309
vt 0.683928 0.870806
vt 0.711959 0.870806
vt 0.711959 0.034309
vt 0.996837 0.034309
vt 0.996837 0.870806
vt 0.686900 0.871067
vt 0.686900 0.034571
vt 0.709067 0.034571
vt 0.709067 0.871067
vt 0.686900 0.871067
vt 0.686900 0.034571
vt 0.709067 0.034571
vt 0.709067 0.871067
vn 0.007006 0.999976 0.000000
vn 0.007006 0.999976 0.000000
vn 0.007006 0.999976 0.000000
vn 0.007006 0.999976 0.000000
vn 0.000000 1.000000 0.000000
vn 0.000000 1.000000 0.000000
vn 0.000000 1.000000 0.000000
vn 0.000000 1.000000 0.000000
vn -0.954303 0.298841 0.000000
vn -0.954303 0.298841 0.000000
vn -0.954303 0.298841 0.000000
vn -0.954303 0.298841 0.000000
vn 1.000000 0.000000 0.000000
vn 1.000000 0.000000 0.000000
vn 1.000000 0.000000 0.000000
vn 1.000000 0.000000 0.000000
vn -0.007006 0.999976 0.000000
vn -0.007006 0.999976 0.000000
vn -0.007006 0.999976 0.000000
vn -0.007006 0.999976 0.000000
vn 0.000000 1.000000 0.000000
vn 0.000000 1.000000 0.000000
vn 0.000000 1.000000 0.000000
vn 0.000000 1.000000 0.000000
vn 0.954303 0.298841 0.000000
vn 0.954303 0.298841 0.000000
vn 0.954303 0.298841 0.000000
vn 0.954303 0.298841 0.000000
vn -1.000000 0.000000 0.000000
vn -1.000000 0.000000 0.000000
vn -1.000000 0.000000 0.000000
vn -1.000000 0.000000 0.000000
vn 0.007006 0.999976 0.000000
vn 0.007006 0.999976 0.000000
vn 0.007006 0.999976 0.000000
vn 0.007006 0.999976 0.000000
vn 0.000000 1.000000 0.000000
vn 0.000000 1.000000 0.000000
vn 0.000000 1.000000 0.000000
vn 0.000000 1.000000 0.000000
vn -0.954303 0.298841 0.000000
vn -0.954303 0.298841 0.000000
vn -0.954303 0.298841 0.000000
vn -0.954303 0.298841 0.000000
vn 1.000000 0.000000 0.000000
vn 1.000000 0.000000 0.000000
vn 1.000000 0.000000 0.000000
vn 1.000000 0.000000 0.000000
vn -0.007006 0.999976 0.000000
vn -0.007006 0.999976 0.000000
vn -0.007006 0.999976 0.000000
vn -0.007006 0.999976 0.000000
vn 0.000000 1.000000 0.000000
vn 0.000000 1.000000 0.000000
vn 0.000000 1.000000 0.000000
vn 0.000000 1.000000 0.000000
vn 0.954303 0.298841 0.000000
vn 0.954303 0.298841 0.000000
vn 0.954303 0.298841 0.000000
vn 0.954303 0.298841 0.000000
vn -1.000000 0.000000 0.000000
vn -1.000000 0.000000 0.000000
vn -1.000000 0.000000 0.000000
vn -1.000000 0.000000 0.000000
vn -0.007006 0.999976 0.000000
vn -0.007006 0.999976 0.000000
vn -0.007006 0.999976 0.000000
vn -0.007006 0.999976 0.000000
vn 0.000000 1.000000 0.000000
vn 0.000000 1.000000 0.000000
vn 0.000000 1.000000 0.000000
vn 0.000000 1.000000 0.000000
vn 0.954282 0.298908 0.000000
vn 0.954282 0.298908 0.000000
vn 0.954282 0.298908 0.000000
vn 0.954282 0.298908 0.000000
vn -1.000000 0.000000 0.000000
vn -1.000000 0.000000 0.000000
vn -1.000000 0.000000 0.000000
vn -1.000000 0.000000 0.000000
vn 0.007006 0.999976 0.000000
vn 0.007006 0.999976 0.000000
vn 0.007006 0.999976 0.000000
vn 0.007006 0.999976 0.000000
vn 0.000000 1.000000 0.000000
vn 0.000000 1.000000 0.000000
vn 0.000000 1.000000 0.000000
vn 0.000000 1.000000 0.000000
vn -0.954303 0.298841 0.000000
vn -0.954303 0.298841 0.000000
vn -0.954303 0.298841 0.000000
vn -0.954303 0.298841 0.000000
vn 1.000000 0.000000 0.000000
vn 1.000000 0.000000 0.000000
vn 1.000000 0.000000 0.000000
vn 1.000000 0.000000 0.000000
f 4/1/1 3/2/2 6/4/3
f 6/4/3 3/2/2 5/3/4
f 8/5/5 7/6/6 10/8/7
f 10/8/7 7/6/6 9/7/8
f 6/9/9 5/10/10 8/12/11
f 8/12/11 5/10/10 7/11/12
f 1/13/13 2/14/14 9/16/15
f 9/16/15 2/14/14 10/15/16
f 14/17/17 16/18/18 13/20/19
f 13/20/19 16/18/18 15/19/20
f 18/21/21 20/22/22 17/24/23
f 17/24/23 20/22/22 19/23/24
f 16/25/25 18/26/26 15/28/27
f 15/28/27 18/26/26 17/27/28
f 11/29/29 19/30/30 12/32/31
f 12/32/31 19/30/30 20/31/32
f 24/33/33 23/34/34 26/36/35
f 26/36/35 23/34/34 25/35/36
f 28/37/37 27/38/38 30/40/39
f 30/40/39 27/38/38 29/39/40
f 26/41/41 25/42/42 28/44/43
f 28/44/43 25/42/42 27/43/44
f 21/45/45 22/46/46 29/48/47
f 29/48/47 22/46/46 30/47/48
f 34/49/49 36/50/50 33/52/51
f 33/52/51 36/50/50 35/51/52
f 38/53/53 40/54/54 37/56/55
f 37/56/55 40/54/54 39/55/56
f 36/57/57 38/58/58 35/60/59
f 35/60/59 38/58/58 37/59/60
f 31/61/61 39/62/62 32/64/63
f 32/64/63 39/62/62 40/63/64
f 44/65/65 46/66/66 43/68/67
f 43/68/67 46/66/66 45/67/68
f 48/69/69 50/70/70 47/72/71
f 47/72/71 50/70/70 49/71/72
f 46/73/73 48/74/74 45/76/75
f 45/76/75 48/74/74 47/75/76
f 41/77/77 49/78/78 42/80/79
f 42/80/79 49/78/78 50/79/80
f 54/81/81 53/82/82 56/84/83
f 56/84/83 53/82/82 55/83/84
f 58/85/85 57/86/86 60/88/87
f 60/88/87 57/86/86 59/87/88
f 56/89/89 55/90/90 58/92/91
f 58/92/91 55/90/90 57/91/92
f 51/93/93 52/94/94 59/96/95
f 59/96/95 52/94/94 60/95/96
