# This file uses centimeters as units for non-parametric coordinates.

v 2.390152 -0.028650 4.145126
v 4.941528 -0.028650 0.350998
v -0.449890 0.000000 -1.897057
v 3.324112 -0.028650 -0.323410
v 3.362610 0.104467 -0.307365
v 4.941528 0.104467 0.350998
v -4.223923 -0.028650 -3.470711
v -4.262405 0.104467 -3.486755
v 5.841354 -0.028650 -4.145126
v -1.725586 0.000000 0.000015
v 1.155441 -0.028650 2.901604
v 1.184814 0.104467 2.931183
v 2.390152 0.104467 4.145126
v -4.606644 -0.028650 -2.901596
v -5.841354 0.104467 -4.145126
v -4.636017 0.104467 -2.931175
v 0.000015 0.000000 -4.145126
v -4.088959 -0.028650 -4.145126
v -4.130646 0.104467 -4.145126
v 4.088974 -0.028650 -4.145126
v 5.841354 0.104467 -4.145126
v 4.130661 0.104467 -4.145126
vt 0.032589 0.870806
vt 0.032589 0.458774
vt 0.675878 0.167705
vt 0.675878 0.870806
vt 0.711959 0.870806
vt 0.711959 0.156798
vt 0.996837 0.034309
vt 0.996837 0.870806
vt 0.686900 0.871067
vt 0.686900 0.167967
vt 0.709067 0.157059
vt 0.709067 0.871067
vt 0.686900 0.871067
vt 0.686900 0.034571
vt 0.709067 0.034571
vt 0.709067 0.871067
vt 0.030634 0.870806
vt 0.673923 0.870806
vt 0.673923 0.753254
vt 0.030634 0.458774
vt 0.711959 0.870806
vt 0.996837 0.870806
vt 0.711959 0.748317
vt 0.686900 0.871067
vt 0.709067 0.871067
vt 0.709067 0.748578
vt 0.686900 0.753515
vt 0.033385 0.461303
vt 0.676675 0.170926
vt 0.676675 0.034309
vt 0.033385 0.034309
vt 0.711959 0.156798
vt 0.996837 0.034309
vt 0.711959 0.034309
vt 0.686900 0.171188
vt 0.709067 0.157060
vt 0.709067 0.034571
vt 0.686900 0.034571
vt 0.676674 0.869398
vt 0.033385 0.574226
vt 0.033385 0.147232
vt 0.676674 0.147232
vt 0.996837 0.870806
vt 0.711959 0.748318
vt 0.711959 0.034309
vt 0.996837 0.034309
vt 0.709067 0.748579
vt 0.686900 0.756736
vt 0.686900 0.034571
vt 0.709067 0.034571
vt 0.686900 0.871067
vt 0.686900 0.034571
vt 0.709067 0.034571
vt 0.709067 0.871067
vn 0.005929 0.999974 0.003987
vn 0.005929 0.999974 0.003987
vn 0.005929 0.999974 0.003987
vn 0.005929 0.999974 0.003987
vn 0.000000 1.000000 0.000000
vn 0.000000 1.000000 0.000000
vn 0.000000 1.000000 0.000000
vn 0.000000 1.000000 0.000000
vn -0.793261 0.293573 -0.533434
vn -0.793261 0.293573 -0.533434
vn -0.793261 0.293573 -0.533434
vn -0.793261 0.293573 -0.533434
vn 0.829826 0.000000 0.558022
vn 0.829826 0.000000 0.558022
vn 0.829826 0.000000 0.558022
vn 0.829826 0.000000 0.558022
vn -0.005929 0.999974 -0.003987
vn -0.005929 0.999974 -0.003987
vn -0.005929 0.999974 -0.003987
vn -0.005929 0.999974 -0.003987
vn 0.000000 1.000000 0.000000
vn 0.000000 1.000000 0.000000
vn 0.000000 1.000000 0.000000
vn 0.793262 0.293558 0.533441
vn 0.793262 0.293558 0.533441
vn 0.793262 0.293558 0.533441
vn 0.793262 0.293558 0.533441
vn -0.007006 0.999974 -0.001402
vn -0.007006 0.999974 -0.001402
vn -0.007006 0.999974 -0.001402
vn -0.007006 0.999974 -0.001402
vn 0.000000 1.000000 0.000000
vn 0.000000 1.000000 0.000000
vn 0.000000 1.000000 0.000000
vn 0.937361 0.293539 0.187587
vn 0.937361 0.293539 0.187587
vn 0.937361 0.293539 0.187587
vn 0.937361 0.293539 0.187587
vn 0.007006 0.999974 0.001402
vn 0.007006 0.999974 0.001402
vn 0.007006 0.999974 0.001402
vn 0.007006 0.999974 0.001402
vn 0.000000 1.000000 0.000000
vn 0.000000 1.000000 0.000000
vn 0.000000 1.000000 0.000000
vn 0.000000 1.000000 0.000000
vn -0.937345 0.293587 -0.187593
vn -0.937345 0.293587 -0.187593
vn -0.937345 0.293587 -0.187593
vn -0.937345 0.293587 -0.187593
vn 0.980556 0.000000 0.196241
vn 0.980556 0.000000 0.196241
vn 0.980556 0.000000 0.196241
vn 0.980556 0.000000 0.196241
f 3/1/1 10/2/2 4/4/3
f 4/4/3 10/2/2 11/3/4
f 5/5/5 12/6/6 6/8/7
f 6/8/7 12/6/6 13/7/8
f 4/9/9 11/10/10 5/12/11
f 5/12/11 11/10/10 12/11/12
f 1/13/13 2/14/14 13/16/15
f 13/16/15 2/14/14 6/15/16
f 3/17/17 7/18/18 10/20/19
f 10/20/19 7/18/18 14/19/20
f 8/21/21 15/22/22 16/23/23
f 7/24/24 8/25/25 14/27/26
f 14/27/26 8/25/25 16/26/27
f 17/28/28 18/29/29 3/31/30
f 3/31/30 18/29/29 7/30/31
f 19/32/32 15/33/33 8/34/34
f 18/35/35 19/36/36 7/38/37
f 7/38/37 19/36/36 8/37/38
f 20/39/39 17/40/40 4/42/41
f 4/42/41 17/40/40 3/41/42
f 21/43/43 22/44/44 6/46/45
f 6/46/45 22/44/44 5/45/46
f 22/47/47 20/48/48 5/50/49
f 5/50/49 20/48/48 4/49/50
f 2/51/51 9/52/52 6/54/53
f 6/54/53 9/52/52 21/53/54
