# This file uses centimeters as units for non-parametric coordinates.

v 4.967201 -0.028650 2.507568
v 4.963142 -0.028650 -2.515594
v -0.874146 0.000000 2.512283
v -0.878204 0.000000 -2.510895
v 3.214806 -0.028650 2.508987
v 3.210754 -0.028650 -2.514191
v 3.256493 0.104467 2.508942
v 3.252441 0.104467 -2.514221
v 4.967201 0.104467 2.507568
v 4.963142 0.104467 -2.515594
v -0.874146 0.000000 2.512283
v -0.878204 0.000000 -2.510895
v -4.963127 -0.028650 2.515594
v -4.967186 -0.028650 -2.507584
v -0.878204 0.000000 -2.510895
v -0.882263 0.000000 -7.534058
v -4.967186 -0.028650 -2.507584
v -4.971245 -0.028650 -7.530746
v 4.963142 -0.028650 -2.515594
v 4.959084 -0.028650 -7.538773
v -0.878204 0.000000 -2.510895
v -0.882263 0.000000 -7.534058
v 3.210754 -0.028650 -2.514191
v 3.206688 -0.028650 -7.537354
v 3.252441 0.104467 -2.514221
v 3.248375 0.104467 -7.537399
v 4.963142 0.104467 -2.515594
v 4.959084 0.104467 -7.538773
v -0.870094 0.000000 7.535461
v -0.874153 0.000000 2.512283
v -4.959084 -0.028650 7.538757
v -4.963142 -0.028650 2.515594
v 4.971245 -0.028650 7.530746
v 4.967194 -0.028650 2.507568
v -0.870094 0.000000 7.535461
v -0.874153 0.000000 2.512283
v 3.218857 -0.028650 7.532166
v 3.214798 -0.028650 2.508987
v 3.260544 0.104467 7.532120
v 3.256485 0.104467 2.508957
v 4.971245 0.104467 7.530746
v 4.967194 0.104467 2.507568
vt 0.003006 0.870806
vt 0.003006 0.034309
vt 0.683928 0.034309
vt 0.683928 0.870806
vt 0.711959 0.870806
vt 0.711959 0.034309
vt 0.996837 0.034309
vt 0.996837 0.870806
vt 0.686900 0.871067
vt 0.686900 0.034571
vt 0.709067 0.034571
vt 0.709067 0.871067
vt 0.686900 0.871067
vt 0.686900 0.034571
vt 0.709067 0.034571
vt 0.709067 0.871067
vt 0.003006 0.870806
vt 0.683928 0.870806
vt 0.683928 0.034309
vt 0.003006 0.034309
vt 0.003006 0.870806
vt 0.683928 0.870806
vt 0.683928 0.034309
vt 0.003006 0.034309
vt 0.003006 0.870806
vt 0.003006 0.034309
vt 0.683928 0.034309
vt 0.683928 0.870806
vt 0.711959 0.870806
vt 0.711959 0.034309
vt 0.996837 0.034309
vt 0.996837 0.870806
vt 0.686900 0.871067
vt 0.686900 0.034571
vt 0.709067 0.034571
vt 0.709067 0.871067
vt 0.686900 0.871067
vt 0.686900 0.034571
vt 0.709067 0.034571
vt 0.709067 0.871067
vt 0.003006 0.870806
vt 0.683928 0.870806
vt 0.683928 0.034309
vt 0.003006 0.034309
vt 0.003006 0.870806
vt 0.003006 0.034309
vt 0.683928 0.034309
vt 0.683928 0.870806
vt 0.711959 0.870806
vt 0.711959 0.034309
vt 0.996837 0.034309
vt 0.996837 0.870806
vt 0.686900 0.871067
vt 0.686900 0.034571
vt 0.709067 0.034571
vt 0.709067 0.871067
vt 0.686900 0.871067
vt 0.686900 0.034571
vt 0.709067 0.034571
vt 0.709067 0.871067
vn 0.007007 0.999976 -0.000006
vn 0.007007 0.999976 -0.000006
vn 0.007007 0.999976 -0.000006
vn 0.007007 0.999976 -0.000006
vn 0.000000 1.000000 0.000000
vn 0.000000 1.000000 0.000000
vn 0.000000 1.000000 0.000000
vn 0.000000 1.000000 0.000000
vn -0.954300 0.298848 0.000770
vn -0.954300 0.298848 0.000770
vn -0.954300 0.298848 0.000770
vn -0.954300 0.298848 0.000770
vn 1.000000 0.000000 -0.000809
vn 1.000000 0.000000 -0.000809
vn 1.000000 0.000000 -0.000809
vn 1.000000 0.000000 -0.000809
vn -0.007007 0.999976 0.000006
vn -0.007007 0.999976 0.000006
vn -0.007007 0.999976 0.000006
vn -0.007007 0.999976 0.000006
vn -0.007007 0.999976 0.000006
vn -0.007007 0.999976 0.000006
vn -0.007007 0.999976 0.000006
vn -0.007007 0.999976 0.000006
vn 0.007007 0.999976 -0.000006
vn 0.007007 0.999976 -0.000006
vn 0.007007 0.999976 -0.000006
vn 0.007007 0.999976 -0.000006
vn 0.000000 1.000000 0.000000
vn 0.000000 1.000000 0.000000
vn 0.000000 1.000000 0.000000
vn 0.000000 1.000000 0.000000
vn -0.954298 0.298856 0.000772
vn -0.954298 0.298856 0.000772
vn -0.954298 0.298856 0.000772
vn -0.954298 0.298856 0.000772
vn 1.000000 0.000000 -0.000809
vn 1.000000 0.000000 -0.000809
vn 1.000000 0.000000 -0.000809
vn 1.000000 0.000000 -0.000809
vn -0.007007 0.999976 0.000006
vn -0.007007 0.999976 0.000006
vn -0.007007 0.999976 0.000006
vn -0.007007 0.999976 0.000006
vn 0.007007 0.999976 -0.000006
vn 0.007007 0.999976 -0.000006
vn 0.007007 0.999976 -0.000006
vn 0.007007 0.999976 -0.000006
vn 0.000000 1.000000 0.000000
vn 0.000000 1.000000 0.000000
vn 0.000000 1.000000 0.000000
vn 0.000000 1.000000 0.000000
vn -0.954303 0.298840 0.000770
vn -0.954303 0.298840 0.000770
vn -0.954303 0.298840 0.000770
vn -0.954303 0.298840 0.000770
vn 1.000000 0.000000 -0.000807
vn 1.000000 0.000000 -0.000807
vn 1.000000 0.000000 -0.000807
vn 1.000000 0.000000 -0.000807
f 4/1/1 3/2/2 6/4/3
f 6/4/3 3/2/2 5/3/4
f 8/5/5 7/6/6 10/8/7
f 10/8/7 7/6/6 9/7/8
f 6/9/9 5/10/10 8/12/11
f 8/12/11 5/10/10 7/11/12
f 1/13/13 2/14/14 9/16/15
f 9/16/15 2/14/14 10/15/16
f 12/17/17 14/18/18 11/20/19
f 11/20/19 14/18/18 13/19/20
f 16/21/21 18/22/22 15/24/23
f 15/24/23 18/22/22 17/23/24
f 22/25/25 21/26/26 24/28/27
f 24/28/27 21/26/26 23/27/28
f 26/29/29 25/30/30 28/32/31
f 28/32/31 25/30/30 27/31/32
f 24/33/33 23/34/34 26/36/35
f 26/36/35 23/34/34 25/35/36
f 19/37/37 20/38/38 27/40/39
f 27/40/39 20/38/38 28/39/40
f 30/41/41 32/42/42 29/44/43
f 29/44/43 32/42/42 31/43/44
f 36/45/45 35/46/46 38/48/47
f 38/48/47 35/46/46 37/47/48
f 40/49/49 39/50/50 42/52/51
f 42/52/51 39/50/50 41/51/52
f 38/53/53 37/54/54 40/56/55
f 40/56/55 37/54/54 39/55/56
f 33/57/57 34/58/58 41/60/59
f 41/60/59 34/58/58 42/59/60
