# This file uses centimeters as units for non-parametric coordinates.

v -2.471497 4.369346 2.714991
v 2.471497 4.369346 2.714991
v -2.471497 4.369346 -2.714991
v 2.471497 4.369346 -2.714991
v -2.170574 4.369346 2.384424
v 2.170578 4.369346 2.384424
v 2.170578 4.369346 -2.384424
v -2.170574 4.369346 -2.384424
v -2.170574 4.145075 2.384424
v 2.170578 4.145075 2.384424
v 2.170578 4.145075 -2.384424
v -2.170574 4.145075 -2.384424
v -0.794617 3.081388 -2.714991
v 0.794621 3.081388 -2.714991
v 0.794621 0.000000 -2.714991
v -0.794617 0.000000 -2.714991
v -0.739670 3.012890 -2.549040
v 0.739674 3.012890 -2.549040
v 0.739674 0.000000 -2.549040
v -0.739670 0.000000 -2.549040
v -2.471497 0.416316 2.714991
v 2.471497 0.416316 2.714991
v 2.471497 0.416316 -2.714991
v 0.794621 0.416315 -2.714991
v -0.794617 0.416315 -2.714991
v -2.471497 0.416316 -2.714991
v -2.527912 0.000000 2.776970
v 2.527916 0.000000 2.776970
v 2.527916 0.416316 2.776970
v -2.527912 0.416316 2.776970
v 2.527916 0.000000 -2.776970
v 2.527916 0.416316 -2.776970
v 0.812763 0.416315 -2.776970
v 0.812763 0.000000 -2.776970
v -2.527912 0.416316 -2.776970
v -2.527912 0.000000 -2.776970
v -0.812759 0.416315 -2.776970
v -0.812759 0.000000 -2.776970
vt 0.074259 0.119419
vt 0.554414 0.119419
vt 0.554414 0.503411
vt 0.074259 0.503411
vt 0.525385 0.520651
vt 0.525384 0.921030
vt 0.085559 0.921030
vt 0.085560 0.520651
vt 0.986390 0.877985
vt 0.595525 0.877985
vt 0.595525 0.081936
vt 0.986390 0.081936
vt 0.050607 0.119419
vt 0.578067 0.119419
vt 0.578067 0.503411
vt 0.050607 0.503411
vt 0.578067 0.119419
vt 0.050607 0.119419
vt 0.050607 0.503411
vt 0.578067 0.503411
vt 0.353877 0.984883
vt 0.939681 0.984883
vt 0.904019 0.945707
vt 0.389540 0.945707
vt 0.968279 0.983268
vt 0.324762 0.983269
vt 0.363938 0.947606
vt 0.929103 0.947606
vt 0.939681 0.984866
vt 0.353878 0.984866
vt 0.389540 0.945690
vt 0.904019 0.945690
vt 0.324762 0.983252
vt 0.968279 0.983252
vt 0.929103 0.947590
vt 0.363938 0.947589
vt 0.103490 0.503411
vt 0.525183 0.503411
vt 0.525183 0.481625
vt 0.103490 0.481625
vt 0.082718 0.503411
vt 0.545956 0.503411
vt 0.545956 0.481625
vt 0.082718 0.481625
vt 0.525183 0.503411
vt 0.103490 0.503411
vt 0.103490 0.481625
vt 0.525183 0.481625
vt 0.545956 0.503411
vt 0.082718 0.503411
vt 0.082718 0.481625
vt 0.545956 0.481625
vt 0.074259 0.503411
vt 0.554414 0.503411
vt 0.391525 0.378300
vt 0.237148 0.378300
vt 0.554414 0.119419
vt 0.391525 0.119419
vt 0.237148 0.119419
vt 0.074259 0.119419
vt 0.248931 0.501907
vt 0.403307 0.501907
vt 0.397969 0.485787
vt 0.254268 0.485787
vt 0.578067 0.378300
vt 0.578067 0.119419
vt 0.561947 0.078979
vt 0.561947 0.371647
vt 0.561947 0.078979
vt 0.578067 0.119419
vt 0.578067 0.378300
vt 0.561947 0.371647
vt 0.052917 0.015902
vt 0.671426 0.015902
vt 0.671426 0.066833
vt 0.052917 0.066833
vt 0.022448 0.015902
vt 0.701894 0.015902
vt 0.701894 0.066833
vt 0.022448 0.066833
vt 0.461600 0.066833
vt 0.671426 0.066833
vt 0.671426 0.015902
vt 0.461600 0.015902
vt 0.578067 0.078979
vt 0.578067 0.078979
vt 0.052917 0.015902
vt 0.052917 0.066833
vt 0.262741 0.066833
vt 0.262741 0.015902
vt 0.701894 0.015902
vt 0.022448 0.015902
vt 0.022448 0.066833
vt 0.701894 0.066833
vt 0.645176 0.056004
vt 0.040471 0.056004
vt 0.033570 0.048422
vt 0.652079 0.048422
vt 0.025245 0.049180
vt 0.689526 0.049180
vt 0.697108 0.056083
vt 0.017662 0.056083
vt 0.437746 0.046801
vt 0.642888 0.046801
vt 0.649790 0.054383
vt 0.439965 0.054383
vt 0.694312 0.015902
vt 0.694312 0.066833
vt 0.701894 0.066833
vt 0.701894 0.015902
vt 0.038183 0.046801
vt 0.243326 0.046801
vt 0.241105 0.054383
vt 0.031281 0.054383
vt 0.694312 0.066833
vt 0.694312 0.015902
vt 0.701894 0.015902
vt 0.701894 0.066833
vt 0.687994 0.055656
vt 0.023713 0.055657
vt 0.016131 0.048755
vt 0.695576 0.048755
vn 0.000000 0.000000 1.000000
vn 0.000000 0.000000 1.000000
vn 0.000000 0.000000 1.000000
vn 0.000000 0.000000 1.000000
vn 0.000000 1.000000 0.000000
vn 0.000000 1.000000 0.000000
vn 0.000000 1.000000 0.000000
vn 0.000000 1.000000 0.000000
vn 0.000000 0.000000 -1.000000
vn 0.000000 0.000000 -1.000000
vn 0.000000 0.000000 -1.000000
vn 0.000000 0.000000 -1.000000
vn 1.000000 0.000000 0.000000
vn 1.000000 0.000000 0.000000
vn 1.000000 0.000000 0.000000
vn 1.000000 0.000000 0.000000
vn -1.000000 0.000000 0.000000
vn -1.000000 0.000000 0.000000
vn -1.000000 0.000000 0.000000
vn -1.000000 0.000000 0.000000
vn 0.000000 1.000000 0.000000
vn 0.000000 1.000000 0.000000
vn 0.000000 1.000000 0.000000
vn 0.000000 1.000000 0.000000
vn 0.000000 1.000000 0.000000
vn 0.000000 1.000000 0.000000
vn 0.000000 1.000000 0.000000
vn 0.000000 1.000000 0.000000
vn 0.000000 1.000000 0.000000
vn 0.000000 1.000000 0.000000
vn 0.000000 1.000000 0.000000
vn 0.000000 1.000000 0.000000
vn 0.000000 1.000000 0.000000
vn 0.000000 1.000000 0.000000
vn 0.000000 1.000000 0.000000
vn 0.000000 1.000000 0.000000
vn 0.000000 0.000000 -1.000000
vn 0.000000 0.000000 -1.000000
vn 0.000000 0.000000 -1.000000
vn 0.000000 0.000000 -1.000000
vn -1.000000 0.000000 0.000000
vn -1.000000 0.000000 0.000000
vn -1.000000 0.000000 0.000000
vn -1.000000 0.000000 0.000000
vn 0.000000 0.000000 1.000000
vn 0.000000 0.000000 1.000000
vn 0.000000 0.000000 1.000000
vn 0.000000 0.000000 1.000000
vn 1.000000 0.000000 0.000000
vn 1.000000 0.000000 0.000000
vn 1.000000 0.000000 0.000000
vn 1.000000 0.000000 0.000000
vn 0.000000 0.000000 -1.000000
vn 0.000000 0.000000 -1.000000
vn 0.000000 0.000000 -1.000000
vn 0.000000 0.000000 -1.000000
vn 0.000000 0.000000 -1.000000
vn 0.000000 0.000000 -1.000000
vn 0.000000 0.000000 -1.000000
vn 0.000000 0.000000 -1.000000
vn 0.000000 0.000000 -1.000000
vn 0.000000 0.000000 -1.000000
vn 0.000000 0.000000 -1.000000
vn 0.000000 0.000000 -1.000000
vn 0.000000 -0.924353 -0.381538
vn 0.000000 -0.924353 -0.381538
vn 0.000000 -0.924353 -0.381538
vn 0.000000 -0.924353 -0.381538
vn -0.949314 0.000000 -0.314331
vn -0.949314 0.000000 -0.314331
vn -0.949314 0.000000 -0.314331
vn -0.949313 0.000000 -0.314331
vn 0.949319 0.000000 -0.314313
vn 0.949320 0.000000 -0.314312
vn 0.949320 0.000000 -0.314312
vn 0.949320 0.000000 -0.314312
vn 0.000000 0.000000 1.000000
vn 0.000000 0.000000 1.000000
vn 0.000000 0.000000 1.000000
vn 0.000000 0.000000 1.000000
vn 1.000000 0.000000 0.000000
vn 1.000000 0.000000 0.000000
vn 1.000000 0.000000 0.000000
vn 1.000000 0.000000 0.000000
vn 0.000000 0.000000 -1.000000
vn 0.000000 0.000000 -1.000000
vn 0.000000 0.000000 -1.000000
vn 0.000000 0.000000 -1.000000
vn -0.949313 0.000000 -0.314331
vn -0.949314 0.000000 -0.314331
vn -0.949313 0.000000 -0.314331
vn 0.949319 0.000000 -0.314313
vn 0.949320 0.000000 -0.314312
vn 0.949319 0.000000 -0.314313
vn 0.000000 0.000000 -1.000000
vn 0.000000 0.000000 -1.000000
vn 0.000000 0.000000 -1.000000
vn 0.000000 0.000000 -1.000000
vn -1.000000 0.000000 0.000000
vn -1.000000 0.000000 0.000000
vn -1.000000 0.000000 0.000000
vn -1.000000 0.000000 0.000000
vn 0.000000 1.000000 0.000000
vn 0.000000 1.000000 0.000000
vn 0.000000 1.000000 0.000000
vn 0.000000 1.000000 0.000000
vn 0.000000 1.000000 0.000000
vn 0.000000 1.000000 0.000000
vn 0.000000 1.000000 0.000000
vn 0.000000 1.000000 0.000000
vn -0.000001 1.000000 0.000000
vn -0.000001 1.000000 0.000000
vn -0.000001 1.000000 0.000000
vn -0.000001 1.000000 0.000000
vn -0.959739 0.000000 -0.280893
vn -0.959739 0.000000 -0.280893
vn -0.959739 0.000000 -0.280893
vn -0.959739 0.000000 -0.280893
vn 0.000001 1.000000 0.000000
vn 0.000001 1.000000 0.000000
vn 0.000001 1.000000 0.000000
vn 0.000001 1.000000 0.000000
vn 0.959724 0.000000 -0.280944
vn 0.959724 0.000000 -0.280944
vn 0.959724 0.000000 -0.280944
vn 0.959724 0.000000 -0.280944
vn 0.000000 1.000000 0.000000
vn 0.000000 1.000000 0.000000
vn 0.000000 1.000000 0.000000
vn 0.000000 1.000000 0.000000
f 21/1/1 22/2/2 1/4/3
f 1/4/3 22/2/2 2/3/4
f 9/5/5 10/6/6 12/8/7
f 12/8/7 10/6/6 11/7/8
f 17/9/9 18/10/10 20/12/11
f 20/12/11 18/10/10 19/11/12
f 22/13/13 23/14/14 2/16/15
f 2/16/15 23/14/14 4/15/16
f 26/17/17 21/18/18 3/20/19
f 3/20/19 21/18/18 1/19/20
f 1/21/21 2/22/22 5/24/23
f 5/24/23 2/22/22 6/23/24
f 2/25/25 4/26/26 6/28/27
f 6/28/27 4/26/26 7/27/28
f 4/29/29 3/30/30 7/32/31
f 7/32/31 3/30/30 8/31/32
f 3/33/33 1/34/34 8/36/35
f 8/36/35 1/34/34 5/35/36
f 5/37/37 6/38/38 9/40/39
f 9/40/39 6/38/38 10/39/40
f 6/41/41 7/42/42 10/44/43
f 10/44/43 7/42/42 11/43/44
f 7/45/45 8/46/46 11/48/47
f 11/48/47 8/46/46 12/47/48
f 8/49/49 5/50/50 12/52/51
f 12/52/51 5/50/50 9/51/52
f 3/53/53 4/54/54 13/56/55
f 13/56/55 4/54/54 14/55/56
f 4/54/57 23/57/58 14/55/59
f 14/55/59 23/57/58 24/58/60
f 25/59/61 26/60/62 13/56/63
f 13/56/63 26/60/62 3/53/64
f 13/61/65 14/62/66 17/64/67
f 17/64/67 14/62/66 18/63/68
f 14/65/69 24/66/70 18/68/71
f 18/68/71 24/66/70 19/67/72
f 20/69/73 25/70/74 17/72/75
f 17/72/75 25/70/74 13/71/76
f 27/73/77 28/74/78 30/76/79
f 30/76/79 28/74/78 29/75/80
f 28/77/81 31/78/82 29/80/83
f 29/80/83 31/78/82 32/79/84
f 33/81/85 32/82/86 34/84/87
f 34/84/87 32/82/86 31/83/88
f 19/67/89 24/66/90 15/85/91
f 16/86/92 25/70/93 20/69/94
f 36/87/95 35/88/96 38/90/97
f 38/90/97 35/88/96 37/89/98
f 36/91/99 27/92/100 35/94/101
f 35/94/101 27/92/100 30/93/102
f 22/95/103 21/96/104 29/98/105
f 29/98/105 21/96/104 30/97/106
f 23/99/107 22/100/108 32/102/109
f 32/102/109 22/100/108 29/101/110
f 24/103/111 23/104/112 33/106/113
f 33/106/113 23/104/112 32/105/114
f 15/107/115 24/108/116 34/110/117
f 34/110/117 24/108/116 33/109/118
f 25/112/119 37/113/120 26/111/121
f 26/111/121 37/113/120 35/114/122
f 25/115/123 16/116/124 37/118/125
f 37/118/125 16/116/124 38/117/126
f 21/119/127 26/120/128 30/122/129
f 30/122/129 26/120/128 35/121/130
