# This file uses centimeters as units for non-parametric coordinates.

v -0.103479 -0.348080 0.026113
v 0.103479 -0.348080 0.026113
v -0.030635 0.341363 0.012169
v 0.026127 0.341363 0.012169
v -0.030635 0.341363 -0.012169
v 0.026127 0.341363 -0.012169
v -0.103479 -0.348080 -0.026113
v 0.103479 -0.348080 -0.026113
v 0.000000 -0.387258 0.029045
v 0.000000 -0.387258 -0.029045
v -0.000801 0.357141 -0.012220
v -0.000801 0.357141 0.012220
v -0.046293 0.309906 0.012169
v 0.000000 0.309906 0.015434
v 0.041785 0.309906 0.012169
v 0.041785 0.309906 -0.012169
v 0.000000 0.309906 -0.015434
v -0.046293 0.309906 -0.012169
v -0.046293 0.164463 0.012169
v 0.000000 0.164463 0.015434
v 0.046293 0.164463 0.012169
v 0.046293 0.164463 -0.012169
v 0.000000 0.164463 -0.015434
v -0.046293 0.164463 -0.012169
v -0.046293 0.025732 0.012169
v 0.000000 0.025732 0.015434
v 0.044039 0.025732 0.012169
v 0.044039 0.025732 -0.012169
v 0.000000 0.025732 -0.015434
v -0.046293 0.025732 -0.012169
v -0.050842 -0.089793 0.012169
v 0.000000 -0.090622 0.015434
v 0.056649 -0.090622 0.012169
v 0.056649 -0.090622 -0.012169
v 0.000000 -0.090622 -0.015434
v -0.050842 -0.089793 -0.012169
v -0.154189 -0.232721 0.026113
v 0.000000 -0.232721 0.033117
v 0.154189 -0.232721 0.026113
v 0.154189 -0.232721 -0.026113
v 0.000000 -0.232721 -0.033117
v -0.154189 -0.232721 -0.026113
v 0.000000 -0.155526 0.033117
v -0.124175 -0.155526 0.026113
v -0.124175 -0.155526 -0.026113
v 0.000000 -0.155526 -0.033117
v 0.124175 -0.155526 -0.026113
v 0.124175 -0.155526 0.026113
v -0.136519 -0.299837 0.026113
v 0.000000 -0.299837 0.033117
v 0.136519 -0.299837 0.026113
v 0.136519 -0.299837 -0.026113
v 0.000000 -0.299837 -0.033117
v -0.136519 -0.299837 -0.026113
v 0.000000 -0.110276 0.028059
v -0.086024 -0.110276 0.026113
v -0.086024 -0.110276 -0.026113
v 0.000000 -0.110276 -0.028059
v 0.086024 -0.110276 -0.026113
v 0.086024 -0.110276 0.026113
vt 0.252345 0.991988
vt 0.253404 0.929551
vt 0.308637 0.929551
vt 0.287940 0.971132
vt 0.748563 0.991988
vt 0.784158 0.971132
vt 0.804855 0.929551
vt 0.749622 0.929551
vt 0.253404 0.008012
vt 0.749622 0.008012
vt 0.886404 0.059800
vt 0.390186 0.059800
vt 0.689629 0.929551
vt 0.689629 0.929551
vt 0.710327 0.971132
vt 0.709128 0.971132
vt 0.614039 0.059800
vt 0.614039 0.059800
vt 0.689629 0.737298
vt 0.253404 0.737298
vt 0.314596 0.737298
vt 0.810814 0.737298
vt 0.749622 0.737298
vt 0.689629 0.737298
vt 0.689629 0.553919
vt 0.253404 0.553919
vt 0.311617 0.553919
vt 0.807835 0.553919
vt 0.749622 0.553919
vt 0.689629 0.553919
vt 0.683615 0.401213
vt 0.253404 0.400117
vt 0.328285 0.400117
vt 0.824503 0.400117
vt 0.749622 0.400117
vt 0.683615 0.401213
vt 0.547007 0.212286
vt 0.253404 0.212286
vt 0.253404 0.314324
vt 0.586682 0.314324
vt 0.417543 0.314324
vt 0.457218 0.212286
vt 0.953436 0.212286
vt 0.913761 0.314324
vt 0.749622 0.212286
vt 0.749622 0.314324
vt 0.586682 0.314324
vt 0.547007 0.212286
vt 0.570364 0.123569
vt 0.253404 0.123569
vt 0.931278 0.123569
vt 0.930079 0.123569
vt 0.749622 0.123569
vt 0.570364 0.123569
vt 0.253404 0.374138
vt 0.637111 0.374138
vt 0.635912 0.374138
vt 0.749622 0.374138
vt 0.864530 0.374138
vt 0.367114 0.374138
vt 0.864530 0.374138
vt 0.825702 0.400117
vt 0.139695 0.374138
vt 0.186199 0.401213
vt 0.433861 0.123569
vt 0.954634 0.212286
vt 0.072947 0.123569
vt 0.049591 0.212286
vt 0.914960 0.314324
vt 0.089265 0.314324
vt 0.809034 0.553919
vt 0.192212 0.553919
vt 0.812013 0.737298
vt 0.192212 0.737298
vt 0.806054 0.929551
vt 0.192212 0.929551
vt 0.785356 0.971132
vt 0.212910 0.971132
vt 0.749762 0.991988
vt 0.750821 0.008012
vt 0.887603 0.059800
vt 0.116622 0.059800
vt 0.863332 0.374138
vt 0.914960 0.314324
vt 0.637111 0.374138
vt 0.585483 0.314324
vt 0.569165 0.123569
vt 0.612840 0.059800
vt 0.931278 0.123569
vt 0.887603 0.059800
vt 0.954634 0.212286
vt 0.545808 0.212286
vt 0.682417 0.401213
vt 0.825702 0.400117
vt 0.688430 0.553919
vt 0.809034 0.553919
vt 0.688430 0.737298
vt 0.812013 0.737298
vt 0.688430 0.929551
vt 0.806054 0.929551
vt 0.749762 0.991988
vt 0.785356 0.971132
vt 0.750821 0.008012
vt 0.710327 0.971132
vn -0.001431 0.067849 0.997695
vn 0.000232 0.008973 0.999960
vn 0.058570 0.054786 0.996779
vn 0.076493 0.005366 0.997056
vn -0.000022 1.000000 0.000000
vn -0.000049 1.000000 0.000000
vn 0.505540 0.862803 0.000000
vn 0.505540 0.862803 0.000000
vn 0.076493 0.005366 -0.997056
vn 0.000232 0.008973 -0.999960
vn 0.058570 0.054786 -0.996779
vn -0.001431 0.067849 -0.997695
vn 0.000000 -1.000000 0.000000
vn 0.000000 -1.000000 0.000000
vn 0.354086 -0.935213 0.000000
vn 0.354086 -0.935213 0.000000
vn 0.993565 0.113265 0.000000
vn 0.993565 0.113265 0.000000
vn 0.895226 0.445613 0.000000
vn 0.895226 0.445613 0.000000
vn -0.996105 0.088170 0.000000
vn -0.996105 0.088170 0.000000
vn -0.895226 0.445613 0.000000
vn -0.895226 0.445613 0.000000
vn -0.354086 -0.935213 0.000000
vn -0.354086 -0.935213 0.000000
vn -0.053644 0.051238 -0.997245
vn -0.070336 0.004642 -0.997513
vn -0.467514 0.883986 0.000000
vn -0.467514 0.883986 0.000000
vn -0.070336 0.004642 0.997513
vn -0.053644 0.051238 0.997245
vn -0.070337 0.000000 0.997523
vn 0.000000 0.000236 1.000000
vn 0.070337 0.000550 0.997523
vn 0.999969 0.007931 0.000000
vn 0.999969 0.007931 0.000000
vn 0.070337 0.000550 -0.997523
vn 0.000000 0.000236 -1.000000
vn -0.070337 0.000000 -0.997523
vn -1.000000 0.000000 0.000000
vn -1.000000 0.000000 0.000000
vn -0.069519 0.000327 0.997581
vn -0.000000 0.000000 1.000000
vn 0.070867 0.000887 0.997485
vn 0.999177 0.040565 -0.000000
vn 0.999177 0.040565 0.000000
vn 0.000000 0.000000 -1.000000
vn 0.070867 0.000887 -0.997485
vn -0.069519 0.000327 -0.997581
vn -0.999840 0.017890 -0.000000
vn -0.999840 0.017890 0.000000
vn -0.051071 0.215305 0.975211
vn 0.001132 0.101051 0.994881
vn 0.047574 0.209167 0.976722
vn 0.903872 0.427804 -0.000000
vn 0.944352 0.328937 -0.000000
vn 0.047574 0.209167 -0.976722
vn 0.001132 0.101051 -0.994881
vn -0.051071 0.215305 -0.975211
vn -0.901907 0.431930 -0.000000
vn -0.947969 0.318363 -0.000000
vn -0.045380 0.003216 0.998965
vn -0.000000 0.001928 0.999998
vn -0.049558 0.019595 0.998579
vn -0.000000 0.027284 0.999628
vn 0.049558 0.019595 0.998579
vn 0.045380 0.003216 0.998965
vn 0.996361 0.085232 -0.000000
vn 0.996361 0.085232 -0.000000
vn 0.873731 0.486410 -0.000000
vn 0.873731 0.486410 -0.000000
vn 0.045380 0.003216 -0.998965
vn 0.000000 0.001928 -0.999998
vn 0.049558 0.019595 -0.998579
vn -0.000000 0.027284 -0.999628
vn -0.049558 0.019595 -0.998579
vn -0.045380 0.003216 -0.998965
vn -0.996361 0.085232 -0.000000
vn -0.996361 0.085232 -0.000000
vn -0.873731 0.486410 -0.000000
vn -0.873731 0.486410 -0.000000
vn 0.000000 -0.021014 0.999779
vn -0.047876 -0.015906 0.998727
vn 0.047876 -0.015906 0.998727
vn 0.915454 -0.402424 0.000000
vn 0.915453 -0.402424 0.000001
vn 0.000000 -0.021014 -0.999779
vn 0.047876 -0.015906 -0.998727
vn -0.047876 -0.015906 -0.998727
vn -0.915454 -0.402424 0.000000
vn -0.915454 -0.402424 0.000001
vn -0.048271 0.112943 0.992428
vn 0.000732 0.240288 0.970701
vn -0.681637 0.731691 -0.000000
vn -0.692813 0.721117 -0.000000
vn 0.000732 0.240288 -0.970701
vn -0.048271 0.112943 -0.992428
vn 0.048082 0.118652 -0.991771
vn 0.705370 0.708839 -0.000000
vn 0.714497 0.699638 -0.000001
vn 0.048082 0.118652 0.991771
vn 0.000000 -0.046537 0.998917
vn -0.049142 -0.039493 0.998011
vn 0.049142 -0.039493 0.998011
vn 0.825050 -0.565060 0.000000
vn 0.825049 -0.565060 0.000001
vn 0.000000 -0.046537 -0.998917
vn 0.049142 -0.039493 -0.998011
vn -0.049142 -0.039493 -0.998011
vn -0.825049 -0.565061 0.000000
vn -0.825049 -0.565060 0.000001
f 12/1/1 14/2/2 4/4/3
f 4/4/3 14/2/2 15/3/4
f 11/101/5 12/79/6 6/102/7
f 6/102/7 12/79/6 4/77/8
f 16/7/9 17/8/10 6/6/11
f 6/6/11 17/8/10 11/5/12
f 9/80/13 10/103/14 2/81/15
f 2/81/15 10/103/14 8/90/16
f 15/75/17 16/100/18 4/77/19
f 4/77/19 16/100/18 6/102/20
f 18/13/21 13/14/22 5/104/23
f 5/104/23 13/14/22 3/15/24
f 7/17/25 10/103/14 1/18/26
f 1/18/26 10/103/14 9/80/13
f 11/5/12 17/8/10 5/16/27
f 5/16/27 17/8/10 18/99/28
f 3/15/29 12/79/6 5/104/30
f 5/104/30 12/79/6 11/101/5
f 13/76/31 14/2/2 3/78/32
f 3/78/32 14/2/2 12/1/1
f 19/74/33 20/20/34 13/76/31
f 13/76/31 20/20/34 14/2/2
f 14/2/2 20/20/34 15/3/4
f 15/3/4 20/20/34 21/21/35
f 21/73/36 22/98/37 15/75/17
f 15/75/17 22/98/37 16/100/18
f 22/22/38 23/23/39 16/7/9
f 16/7/9 23/23/39 17/8/10
f 18/99/28 17/8/10 24/97/40
f 24/97/40 17/8/10 23/23/39
f 24/24/41 19/19/42 18/13/21
f 18/13/21 19/19/42 13/14/22
f 25/72/43 26/26/44 19/74/33
f 19/74/33 26/26/44 20/20/34
f 21/21/35 20/20/34 27/27/45
f 27/27/45 20/20/34 26/26/44
f 27/71/46 28/96/47 21/73/36
f 21/73/36 28/96/47 22/98/37
f 29/29/48 23/23/39 28/28/49
f 28/28/49 23/23/39 22/22/38
f 24/97/40 23/23/39 30/95/50
f 30/95/50 23/23/39 29/29/48
f 30/30/51 25/25/52 24/24/41
f 24/24/41 25/25/52 19/19/42
f 31/64/53 32/32/54 25/72/43
f 25/72/43 32/32/54 26/26/44
f 26/26/44 32/32/54 27/27/45
f 27/27/45 32/32/54 33/33/55
f 33/62/56 34/94/57 27/71/46
f 27/71/46 34/94/57 28/96/47
f 34/34/58 35/35/59 28/28/49
f 28/28/49 35/35/59 29/29/48
f 29/29/48 35/35/59 30/95/50
f 30/95/50 35/35/59 36/93/60
f 36/36/61 31/31/62 30/30/51
f 30/30/51 31/31/62 25/25/52
f 37/68/63 38/38/64 44/70/65
f 44/70/65 38/38/64 43/39/66
f 43/39/66 38/38/64 48/41/67
f 48/41/67 38/38/64 39/42/68
f 39/66/69 40/91/70 48/69/71
f 48/69/71 40/91/70 47/84/72
f 40/43/73 41/45/74 47/44/75
f 47/44/75 41/45/74 46/46/76
f 46/46/76 41/45/74 45/86/77
f 45/86/77 41/45/74 42/92/78
f 42/48/79 37/37/80 45/47/81
f 45/47/81 37/37/80 44/40/82
f 50/50/83 38/38/64 49/67/84
f 49/67/84 38/38/64 37/68/63
f 39/42/68 38/38/64 51/65/85
f 51/65/85 38/38/64 50/50/83
f 51/51/86 52/89/87 39/66/69
f 39/66/69 52/89/87 40/91/70
f 53/53/88 41/45/74 52/52/89
f 52/52/89 41/45/74 40/43/73
f 42/92/78 41/45/74 54/87/90
f 54/87/90 41/45/74 53/53/88
f 54/54/91 49/49/92 42/48/79
f 42/48/79 49/49/92 37/37/80
f 44/70/65 43/39/66 56/63/93
f 56/63/93 43/39/66 55/55/94
f 45/47/81 44/40/82 57/85/95
f 57/85/95 44/40/82 56/56/96
f 58/58/97 46/46/76 57/57/98
f 57/57/98 46/46/76 45/86/77
f 47/44/75 46/46/76 59/83/99
f 59/83/99 46/46/76 58/58/97
f 48/69/71 47/84/72 60/61/100
f 60/61/100 47/84/72 59/59/101
f 55/55/94 43/39/66 60/60/102
f 60/60/102 43/39/66 48/41/67
f 9/9/103 50/50/83 1/82/104
f 1/82/104 50/50/83 49/67/84
f 51/65/85 50/50/83 2/12/105
f 2/12/105 50/50/83 9/9/103
f 2/81/106 8/90/107 51/51/86
f 51/51/86 8/90/107 52/89/87
f 10/10/108 53/53/88 8/11/109
f 8/11/109 53/53/88 52/52/89
f 54/87/90 53/53/88 7/88/110
f 7/88/110 53/53/88 10/10/108
f 7/17/111 1/18/112 54/54/91
f 54/54/91 1/18/112 49/49/92
f 56/63/93 55/55/94 31/64/53
f 31/64/53 55/55/94 32/32/54
f 57/85/95 56/56/96 36/36/61
f 36/36/61 56/56/96 31/31/62
f 35/35/59 58/58/97 36/93/60
f 36/93/60 58/58/97 57/57/98
f 59/83/99 58/58/97 34/34/58
f 34/34/58 58/58/97 35/35/59
f 60/61/100 59/59/101 33/62/56
f 33/62/56 59/59/101 34/94/57
f 32/32/54 55/55/94 33/33/55
f 33/33/55 55/55/94 60/60/102
