# This file uses centimeters as units for non-parametric coordinates.

v 0.160000 -1.279999 0.160000
v 0.160000 1.279999 0.160000
v -0.160000 1.279999 0.160000
v -0.160000 -1.279999 0.160000
v 0.160000 -1.279999 -0.160000
v 0.160000 1.279999 -0.160000
v -0.160000 1.279999 -0.160000
v -0.160000 -1.279999 -0.160000
vt 0.375000 0.500000
vt 0.375000 1.000000
vt 0.125000 1.000000
vt 0.125000 0.500000
vt 0.437500 0.500000
vt 0.437500 1.000000
vt 0.375000 0.937600
vt 0.062500 1.000000
vt 0.062500 0.500000
vt 0.375000 0.562500
vt 0.375000 1.000000
vt 0.375000 0.500000
vt 0.312500 1.000000
vt 0.312500 0.937600
vt 0.312500 1.000000
vt 0.312500 0.562500
vt 0.312500 0.500000
vt 0.312500 0.500000
vn 1.000000 0.000000 0.000000
vn 1.000000 0.000000 0.000000
vn 1.000000 0.000000 0.000000
vn 1.000000 0.000000 0.000000
vn -1.000000 0.000000 0.000000
vn -1.000000 0.000000 0.000000
vn -1.000000 0.000000 0.000000
vn -1.000000 0.000000 0.000000
vn 0.000000 1.000000 0.000000
vn 0.000000 1.000000 0.000000
vn 0.000000 1.000000 0.000000
vn 0.000000 1.000000 0.000000
vn 0.000000 0.000000 -1.000000
vn 0.000000 0.000000 -1.000000
vn 0.000000 0.000000 -1.000000
vn 0.000000 0.000000 -1.000000
vn 0.000000 -1.000000 0.000000
vn 0.000000 -1.000000 0.000000
vn 0.000000 -1.000000 0.000000
vn 0.000000 -1.000000 0.000000
vn 0.000000 0.000000 1.000000
vn 0.000000 0.000000 1.000000
vn 0.000000 0.000000 1.000000
vn 0.000000 0.000000 1.000000
f 5/5/1 6/6/2 2/2/3 1/1/4
f 7/8/5 8/9/6 4/4/7 3/3/8
f 6/7/9 7/14/10 3/13/11 2/2/12
f 8/17/13 7/15/14 6/11/15 5/12/16
f 4/18/17 8/16/18 5/10/19 1/1/20
f 1/1/21 2/2/22 3/13/23 4/18/24
