# This file uses centimeters as units for non-parametric coordinates.

v 0.311745 -0.830380 -0.390916
v -0.111260 -0.830380 -0.487464
v -0.450484 -0.830380 -0.216942
v -0.450484 -0.830380 0.216942
v -0.111260 -0.830380 0.487464
v 0.311745 -0.830380 0.390916
v 0.500000 -0.830380 0.000000
v 0.311745 0.830380 -0.390916
v -0.111260 0.830380 -0.487464
v -0.450484 0.830380 -0.216942
v -0.450484 0.830380 0.216942
v -0.111260 0.830380 0.487464
v 0.311745 0.830380 0.390916
v 0.500000 0.830380 0.000000
v 0.000000 -0.830380 0.000000
v 0.000000 0.830380 0.000000
vt 0.597420 0.034089
vt 0.465231 0.003918
vt 0.359224 0.088456
vt 0.359224 0.224044
vt 0.465231 0.308582
vt 0.597420 0.278411
vt 0.656250 0.156250
vt 0.375000 0.312500
vt 0.410714 0.312500
vt 0.446429 0.312500
vt 0.482143 0.312500
vt 0.517857 0.312500
vt 0.553571 0.312500
vt 0.589286 0.312500
vt 0.625000 0.312500
vt 0.375000 0.688440
vt 0.410714 0.688440
vt 0.446429 0.688440
vt 0.482143 0.688440
vt 0.517857 0.688440
vt 0.553571 0.688440
vt 0.589286 0.688440
vt 0.625000 0.688440
vt 0.597420 0.721589
vt 0.465231 0.691418
vt 0.359224 0.775956
vt 0.359224 0.911544
vt 0.465231 0.996082
vt 0.597420 0.965911
vt 0.656250 0.843750
vt 0.500000 0.150000
vt 0.500000 0.837500
vn 0.609555 -0.210241 -0.764357
vn -0.217547 -0.210241 -0.953138
vn 0.609555 0.210241 -0.764357
vn -0.217547 0.210241 -0.953138
vn -0.880832 -0.210241 -0.424186
vn -0.880832 0.210241 -0.424186
vn -0.880832 -0.210241 0.424186
vn -0.880832 0.210241 0.424186
vn -0.217547 -0.210241 0.953138
vn -0.217548 0.210241 0.953138
vn 0.609555 -0.210241 0.764357
vn 0.609555 0.210241 0.764357
vn 0.977650 -0.210241 0.000000
vn 0.977650 0.210241 0.000000
vn 0.000000 -1.000000 -0.000000
vn 0.000000 1.000000 -0.000000
f 1/8/1 2/9/2 8/16/3
f 8/16/3 2/9/2 9/17/4
f 2/9/2 3/10/5 9/17/4
f 9/17/4 3/10/5 10/18/6
f 3/10/5 4/11/7 10/18/6
f 10/18/6 4/11/7 11/19/8
f 4/11/7 5/12/9 11/19/8
f 11/19/8 5/12/9 12/20/10
f 5/12/9 6/13/11 12/20/10
f 12/20/10 6/13/11 13/21/12
f 6/13/11 7/14/13 13/21/12
f 13/21/12 7/14/13 14/22/14
f 7/14/13 1/15/1 14/22/14
f 14/22/14 1/15/1 8/23/3
f 2/2/2 1/1/1 15/31/15
f 3/3/5 2/2/2 15/31/15
f 4/4/7 3/3/5 15/31/15
f 5/5/9 4/4/7 15/31/15
f 6/6/11 5/5/9 15/31/15
f 7/7/13 6/6/11 15/31/15
f 1/1/1 7/7/13 15/31/15
f 8/29/3 9/28/4 16/32/16
f 9/28/4 10/27/6 16/32/16
f 10/27/6 11/26/8 16/32/16
f 11/26/8 12/25/10 16/32/16
f 12/25/10 13/24/12 16/32/16
f 13/24/12 14/30/14 16/32/16
f 14/30/14 8/29/3 16/32/16
