# This file uses centimeters as units for non-parametric coordinates.

v 1.279999 -0.320000 0.160000
v 1.279999 0.320000 0.160000
v -1.280000 0.320000 0.160000
v -1.280000 -0.320000 0.160000
v -1.280000 -0.320000 -0.160000
v 1.279999 -0.320000 -0.160000
v 1.279999 0.320000 -0.160000
v -1.280000 0.320000 -0.160000
vt 1.000000 0.687500
vt 1.000000 0.812500
vt 0.500000 0.812500
vt 0.500000 0.687500
vt 0.500000 0.687600
vt 1.000000 0.687600
vt 1.000000 0.750100
vt 0.500000 0.750100
vt 0.937500 0.812500
vt 0.937500 0.687500
vt 1.000000 0.820300
vt 0.499900 0.820300
vt 0.499900 0.757800
vt 1.000000 0.757800
vt 0.562500 0.687500
vt 0.562500 0.812500
vt 1.000000 0.687500
vt 1.000000 0.812500
vt 0.500000 0.812500
vt 0.500000 0.687500
vt 0.500000 0.812500
vt 1.000000 0.812500
vt 1.000000 0.687500
vt 0.500000 0.687500
vn 0.000000 0.000000 1.000000
vn 0.000000 0.000000 1.000000
vn 0.000000 0.000000 1.000000
vn 0.000000 0.000000 1.000000
vn 0.000000 -1.000000 0.000000
vn 0.000000 -1.000000 0.000000
vn 0.000000 -1.000000 0.000000
vn 0.000000 -1.000000 0.000000
vn 1.000000 0.000000 0.000000
vn 1.000000 0.000000 0.000000
vn 1.000000 0.000000 0.000000
vn 1.000000 0.000000 0.000000
vn 0.000000 1.000000 0.000000
vn 0.000000 1.000000 0.000000
vn 0.000000 1.000000 0.000000
vn 0.000000 1.000000 0.000000
vn -1.000000 0.000000 0.000000
vn -1.000000 0.000000 0.000000
vn -1.000000 0.000000 0.000000
vn -1.000000 0.000000 0.000000
vn 0.000000 0.000000 -1.000000
vn 0.000000 0.000000 -1.000000
vn 0.000000 0.000000 -1.000000
vn 0.000000 0.000000 -1.000000
f 1/1/1 2/2/2 3/3/3 4/4/4
f 5/5/5 6/6/6 1/7/7 4/8/8
f 6/17/9 7/18/10 2/9/11 1/10/12
f 7/11/13 8/12/14 3/13/15 2/14/16
f 8/19/17 5/20/18 4/15/19 3/16/20
f 8/21/21 7/22/22 6/23/23 5/24/24
