# This file uses centimeters as units for non-parametric coordinates.

v 1.279999 0.160000 1.280060
v 1.279999 0.160000 -1.279978
v -1.279999 0.160000 -1.280075
v -1.279999 0.160000 1.279968
v -1.279999 -0.160000 1.279968
v 1.279999 -0.160000 1.280060
v 1.279999 -0.160000 -1.279978
v -1.279999 -0.160000 -1.280075
vt 1.000000 0.500000
vt 1.000000 1.000000
vt 0.500000 1.000000
vt 0.500000 0.500000
vt 1.000000 0.562600
vt 0.500000 0.562600
vt 0.937500 1.000000
vt 0.937500 0.500000
vt 0.500000 0.937400
vt 1.000000 0.937400
vt 0.562600 0.500000
vt 0.562600 1.000000
vt 0.500000 0.500000
vt 1.000000 0.500000
vt 1.000000 0.500000
vt 1.000000 1.000000
vt 1.000000 1.000000
vt 0.500000 1.000000
vt 0.500000 1.000000
vt 0.500000 0.500000
vt 0.500000 1.000000
vt 1.000000 1.000000
vt 1.000000 0.500000
vt 0.500000 0.500000
vn 0.000000 1.000000 0.000000
vn 0.000000 1.000000 0.000000
vn 0.000000 1.000000 0.000000
vn 0.000000 1.000000 0.000000
vn 0.000000 0.000000 1.000000
vn 0.000000 0.000000 1.000000
vn 0.000000 0.000000 1.000000
vn 0.000000 0.000000 1.000000
vn 1.000000 0.000000 0.000000
vn 1.000000 0.000000 0.000000
vn 1.000000 0.000000 0.000000
vn 1.000000 0.000000 0.000000
vn 0.000000 0.000000 -1.000000
vn 0.000000 0.000000 -1.000000
vn 0.000000 0.000000 -1.000000
vn 0.000000 0.000000 -1.000000
vn -1.000000 0.000000 0.000000
vn -1.000000 0.000000 0.000000
vn -1.000000 0.000000 0.000000
vn -1.000000 0.000000 0.000000
vn 0.000000 -1.000000 0.000000
vn 0.000000 -1.000000 0.000000
vn 0.000000 -1.000000 0.000000
vn 0.000000 -1.000000 0.000000
f 1/1/1 2/2/2 3/3/3 4/4/4
f 5/13/5 6/14/6 1/5/7 4/6/8
f 6/15/9 7/16/10 2/7/11 1/8/12
f 7/17/13 8/18/14 3/9/15 2/10/16
f 8/19/17 5/20/18 4/11/19 3/12/20
f 8/21/21 7/22/22 6/23/23 5/24/24
