# This file uses centimeters as units for non-parametric coordinates.

v 1.279999 -1.280000 -0.160000
v 1.279999 -1.280000 0.160000
v -1.280000 -1.280000 0.160000
v -1.280000 -1.280000 -0.160000
v 1.279999 1.279999 -0.160000
v 1.279999 1.279999 0.160000
v -1.280000 1.279999 -0.160000
v -1.280000 1.279999 0.160000
v -1.033878 0.670441 0.160000
v 1.038422 0.670441 0.160000
v 1.038422 -0.670437 0.160000
v -1.033878 -0.670437 0.160000
v 1.038422 0.670441 -0.160000
v -1.033878 0.670441 -0.160000
v -1.033878 -0.670437 -0.160000
v 1.038422 -0.670437 -0.160000
v -1.035393 0.670441 0.018230
v -1.035393 -0.670448 0.018230
v 0.001511 -0.670448 0.018230
v 0.001511 0.670441 0.018230
v 0.001511 -0.670448 -0.000673
v -1.035393 -0.670448 -0.000673
v -1.035393 0.670441 -0.000673
v 0.001511 0.670441 -0.000673
v 0.001511 0.670441 0.018230
v 0.001511 -0.670448 0.018230
v 1.038422 -0.670448 0.018230
v 1.038422 0.670441 0.018230
v 1.038422 -0.670448 -0.000673
v 0.001511 -0.670448 -0.000673
v 0.001511 0.670441 -0.000673
v 1.038422 0.670441 -0.000673
vt 1.000000 0.500100
vt 1.000000 0.562600
vt 0.500000 0.562600
vt 0.500000 0.500100
vt 1.000000 1.000100
vt 0.937500 1.000100
vt 0.937500 0.500000
vt 1.000000 0.500000
vt 0.500000 1.000000
vt 0.500000 0.937500
vt 1.000000 0.937500
vt 1.000000 1.000000
vt 0.500000 0.500000
vt 0.562500 0.500000
vt 0.562500 1.000100
vt 0.500000 1.000100
vt 0.548100 0.881000
vt 0.952800 0.881000
vt 0.952800 0.619100
vt 0.548100 0.619100
vt 1.000000 0.881000
vt 1.000000 0.619100
vt 0.937500 0.619100
vt 0.937500 0.881000
vt 0.500000 0.619100
vt 0.500000 0.881000
vt 0.562500 0.881000
vt 0.562500 0.619100
vt 0.952800 0.500100
vt 0.548000 0.500100
vt 0.548000 0.562600
vt 0.952800 0.562600
vt 0.548000 1.000000
vt 0.952800 1.000000
vt 0.952800 0.937500
vt 0.548000 0.937500
vt 0.812500 0.343800
vt 0.812500 0.093800
vt 1.000000 0.093800
vt 1.000000 0.343800
vt 0.500000 1.000000
vt 1.000000 1.000000
vt 1.000000 0.500000
vt 0.500000 0.500000
vt 0.952800 0.881000
vt 0.548100 0.881000
vt 0.548100 0.619100
vt 0.952800 0.619100
vt 0.500000 1.000000
vt 0.500000 0.500000
vt 1.000000 0.500000
vt 1.000000 1.000000
vt 0.952800 0.619100
vt 0.952800 0.881000
vt 0.548100 0.881000
vt 0.548100 0.619100
vt 1.000000 0.093800
vt 0.812500 0.093800
vt 0.812500 0.343800
vt 1.000000 0.343800
vt 0.812500 0.343800
vt 0.812500 0.093800
vt 1.000000 0.093800
vt 1.000000 0.343800
vt 1.000000 0.093800
vt 0.812500 0.093800
vt 0.812500 0.343800
vt 1.000000 0.343800
vn 0.000000 -1.000000 0.000000
vn 0.000000 -1.000000 0.000000
vn 0.000000 -1.000000 0.000000
vn 0.000000 -1.000000 0.000000
vn 1.000000 0.000000 0.000000
vn 1.000000 0.000000 0.000000
vn 1.000000 0.000000 0.000000
vn 1.000000 0.000000 0.000000
vn 0.000000 1.000000 0.000000
vn 0.000000 1.000000 0.000000
vn 0.000000 1.000000 0.000000
vn 0.000000 1.000000 0.000000
vn -1.000000 0.000000 0.000000
vn -1.000000 0.000000 0.000000
vn -1.000000 0.000000 0.000000
vn -1.000000 0.000000 0.000000
vn 0.000000 0.000000 1.000000
vn 0.000000 0.000000 1.000000
vn 0.000000 0.000000 1.000000
vn 0.000000 0.000000 1.000000
vn 0.000000 0.000000 1.000000
vn 0.000000 0.000000 1.000000
vn 0.000000 0.000000 1.000000
vn 0.000000 0.000000 1.000000
vn 0.000000 0.000000 -1.000000
vn 0.000000 0.000000 -1.000000
vn 0.000000 0.000000 -1.000000
vn 0.000000 0.000000 -1.000000
vn 0.000000 0.000000 -1.000000
vn 0.000000 0.000000 -1.000000
vn 0.000000 0.000000 -1.000000
vn 0.000000 0.000000 -1.000000
vn 0.000000 0.000000 1.000000
vn 0.000000 0.000000 1.000000
vn 0.000000 0.000000 1.000000
vn 0.000000 0.000000 1.000000
vn 0.000000 0.000000 1.000000
vn 0.000000 0.000000 1.000000
vn 0.000000 0.000000 1.000000
vn 0.000000 0.000000 1.000000
vn 0.000000 0.000000 -1.000000
vn 0.000000 0.000000 -1.000000
vn 0.000000 0.000000 -1.000000
vn 0.000000 0.000000 -1.000000
vn 0.000000 0.000000 -1.000000
vn 0.000000 0.000000 -1.000000
vn 0.000000 0.000000 -1.000000
vn 0.000000 0.000000 -1.000000
vn -1.000000 0.000000 0.000000
vn -1.000000 0.000000 0.000000
vn -1.000000 0.000000 0.000000
vn -1.000000 0.000000 0.000000
vn 1.000000 0.000000 0.000000
vn 1.000000 0.000000 0.000000
vn 1.000000 0.000000 0.000000
vn 1.000000 0.000000 0.000000
vn 0.000000 1.000000 0.000000
vn 0.000000 1.000000 0.000000
vn 0.000000 1.000000 0.000000
vn 0.000000 1.000000 0.000000
vn 0.000000 -1.000000 0.000000
vn 0.000000 -1.000000 0.000000
vn 0.000000 -1.000000 0.000000
vn 0.000000 -1.000000 0.000000
vn 0.000000 0.000000 1.000000
vn 0.000000 0.000000 1.000000
vn 0.000000 0.000000 1.000000
vn 0.000000 0.000000 1.000000
vn 0.000000 0.000000 -1.000000
vn 0.000000 0.000000 -1.000000
vn 0.000000 0.000000 -1.000000
vn 0.000000 0.000000 -1.000000
vn 0.000000 0.000000 1.000000
vn 0.000000 0.000000 1.000000
vn 0.000000 0.000000 1.000000
vn 0.000000 0.000000 1.000000
vn 0.000000 0.000000 -1.000000
vn 0.000000 0.000000 -1.000000
vn 0.000000 0.000000 -1.000000
vn 0.000000 0.000000 -1.000000
f 1/1/1 2/2/2 3/3/3 4/4/4
f 5/5/5 6/6/6 2/7/7 1/8/8
f 7/9/9 8/10/10 6/11/11 5/12/12
f 4/13/13 3/14/14 8/15/15 7/16/16
f 8/41/17 9/17/18 10/18/19 6/42/20
f 2/43/21 11/19/22 12/20/23 3/44/24
f 5/12/25 13/45/26 14/46/27 7/9/28
f 4/13/29 15/47/30 16/48/31 1/8/32
f 8/49/33 3/50/34 12/20/35 9/17/36
f 2/51/37 6/52/38 10/18/39 11/19/40
f 5/12/41 1/8/42 16/53/43 13/54/44
f 4/13/45 7/9/46 14/55/47 15/56/48
f 13/21/49 16/22/50 11/23/51 10/24/52
f 15/25/53 14/26/54 9/27/55 12/28/56
f 16/29/57 15/30/58 12/31/59 11/32/60
f 14/33/61 13/34/62 10/35/63 9/36/64
f 17/37/65 18/38/66 19/39/67 20/40/68
f 21/57/69 22/58/70 23/59/71 24/60/72
f 25/61/73 26/62/74 27/63/75 28/64/76
f 29/65/77 30/66/78 31/67/79 32/68/80
