# This file uses centimeters as units for non-parametric coordinates.

v 0.135261 -0.450484 -0.169612
v -0.048274 -0.450484 -0.211503
v -0.195458 -0.450484 -0.094128
v -0.195458 -0.450484 0.094128
v -0.048274 -0.450484 0.211503
v 0.135261 -0.450484 0.169612
v 0.216942 -0.450484 0.000000
v 0.243732 -0.311745 -0.305630
v -0.086987 -0.311745 -0.381115
v -0.352203 -0.311745 -0.169612
v -0.352203 -0.311745 0.169612
v -0.086987 -0.311745 0.381115
v 0.243732 -0.311745 0.305630
v 0.390916 -0.311745 0.000000
v 0.303929 -0.111260 -0.381115
v -0.108471 -0.111260 -0.475242
v -0.439190 -0.111260 -0.211503
v -0.439190 -0.111260 0.211503
v -0.108471 -0.111260 0.475242
v 0.303929 -0.111260 0.381115
v 0.487464 -0.111260 0.000000
v 0.303929 0.111260 -0.381115
v -0.108471 0.111260 -0.475242
v -0.439190 0.111260 -0.211503
v -0.439190 0.111260 0.211503
v -0.108471 0.111260 0.475242
v 0.303929 0.111260 0.381115
v 0.487464 0.111260 0.000000
v 0.243732 0.311745 -0.305630
v -0.086987 0.311745 -0.381115
v -0.352203 0.311745 -0.169612
v -0.352203 0.311745 0.169612
v -0.086987 0.311745 0.381115
v 0.243732 0.311745 0.305630
v 0.390916 0.311745 0.000000
v 0.135261 0.450484 -0.169612
v -0.048274 0.450484 -0.211503
v -0.195458 0.450484 -0.094128
v -0.195458 0.450484 0.094128
v -0.048274 0.450484 0.211503
v 0.135261 0.450484 0.169612
v 0.216942 0.450484 0.000000
v 0.000000 -0.500000 0.000000
v 0.000000 0.500000 0.000000
vt 0.000000 0.142857
vt 0.142857 0.142857
vt 0.285714 0.142857
vt 0.428571 0.142857
vt 0.571429 0.142857
vt 0.714286 0.142857
vt 0.857143 0.142857
vt 1.000000 0.142857
vt 0.000000 0.285714
vt 0.142857 0.285714
vt 0.285714 0.285714
vt 0.428571 0.285714
vt 0.571429 0.285714
vt 0.714286 0.285714
vt 0.857143 0.285714
vt 1.000000 0.285714
vt 0.000000 0.428571
vt 0.142857 0.428571
vt 0.285714 0.428571
vt 0.428571 0.428571
vt 0.571429 0.428571
vt 0.714286 0.428571
vt 0.857143 0.428571
vt 1.000000 0.428571
vt 0.000000 0.571429
vt 0.142857 0.571429
vt 0.285714 0.571429
vt 0.428571 0.571429
vt 0.571429 0.571429
vt 0.714286 0.571429
vt 0.857143 0.571429
vt 1.000000 0.571429
vt 0.000000 0.714286
vt 0.142857 0.714286
vt 0.285714 0.714286
vt 0.428571 0.714286
vt 0.571429 0.714286
vt 0.714286 0.714286
vt 0.857143 0.714286
vt 1.000000 0.714286
vt 0.000000 0.857143
vt 0.142857 0.857143
vt 0.285714 0.857143
vt 0.428571 0.857143
vt 0.571429 0.857143
vt 0.714286 0.857143
vt 0.857143 0.857143
vt 1.000000 0.857143
vt 0.071429 0.000000
vt 0.214286 0.000000
vt 0.357143 0.000000
vt 0.500000 0.000000
vt 0.642857 0.000000
vt 0.785714 0.000000
vt 0.928571 0.000000
vt 0.071429 1.000000
vt 0.214286 1.000000
vt 0.357143 1.000000
vt 0.500000 1.000000
vt 0.642857 1.000000
vt 0.785714 1.000000
vt 0.928571 1.000000
vn 0.349204 -0.861470 -0.368681
vn -0.070521 -0.861470 -0.502888
vn 0.537519 -0.574001 -0.617735
vn -0.147826 -0.574001 -0.805401
vn -0.437143 -0.861470 -0.258410
vn -0.721856 -0.574001 -0.386584
vn -0.474587 -0.861470 0.180656
vn -0.752313 -0.574001 0.323339
vn -0.154658 -0.861470 0.483684
vn -0.216263 -0.574001 0.789781
vn 0.281732 -0.861470 0.422488
vn 0.482637 -0.574001 0.661502
vn 0.505972 -0.861470 0.043150
vn 0.818102 -0.574001 0.035098
vn 0.621034 -0.201140 -0.757536
vn -0.205057 -0.201140 -0.957859
vn -0.876735 -0.201140 -0.436895
vn -0.888214 -0.201140 0.413060
vn -0.230850 -0.201140 0.951972
vn 0.600350 -0.201140 0.774030
vn 0.979473 -0.201140 0.013228
vn 0.600350 0.201140 -0.774030
vn -0.230849 0.201140 -0.951972
vn -0.888214 0.201140 -0.413060
vn -0.876736 0.201140 0.436895
vn -0.205057 0.201140 0.957859
vn 0.621033 0.201140 0.757536
vn 0.979473 0.201140 -0.013228
vn 0.482637 0.574001 -0.661502
vn -0.216263 0.574001 -0.789781
vn -0.752313 0.574001 -0.323339
vn -0.721856 0.574001 0.386584
vn -0.147827 0.574001 0.805401
vn 0.537519 0.574001 0.617735
vn 0.818102 0.574001 -0.035098
vn 0.281732 0.861470 -0.422488
vn -0.154658 0.861470 -0.483684
vn -0.474587 0.861470 -0.180656
vn -0.437143 0.861470 0.258410
vn -0.070521 0.861470 0.502888
vn 0.349204 0.861470 0.368681
vn 0.505972 0.861470 -0.043150
vn -0.000000 -1.000000 0.000000
vn 0.000000 1.000000 0.000000
f 1/1/1 2/2/2 8/9/3
f 8/9/3 2/2/2 9/10/4
f 2/2/2 3/3/5 9/10/4
f 9/10/4 3/3/5 10/11/6
f 3/3/5 4/4/7 10/11/6
f 10/11/6 4/4/7 11/12/8
f 4/4/7 5/5/9 11/12/8
f 11/12/8 5/5/9 12/13/10
f 5/5/9 6/6/11 12/13/10
f 12/13/10 6/6/11 13/14/12
f 6/6/11 7/7/13 13/14/12
f 13/14/12 7/7/13 14/15/14
f 7/7/13 1/8/1 14/15/14
f 14/15/14 1/8/1 8/16/3
f 8/9/3 9/10/4 15/17/15
f 15/17/15 9/10/4 16/18/16
f 9/10/4 10/11/6 16/18/16
f 16/18/16 10/11/6 17/19/17
f 10/11/6 11/12/8 17/19/17
f 17/19/17 11/12/8 18/20/18
f 11/12/8 12/13/10 18/20/18
f 18/20/18 12/13/10 19/21/19
f 12/13/10 13/14/12 19/21/19
f 19/21/19 13/14/12 20/22/20
f 13/14/12 14/15/14 20/22/20
f 20/22/20 14/15/14 21/23/21
f 14/15/14 8/16/3 21/23/21
f 21/23/21 8/16/3 15/24/15
f 15/17/15 16/18/16 22/25/22
f 22/25/22 16/18/16 23/26/23
f 16/18/16 17/19/17 23/26/23
f 23/26/23 17/19/17 24/27/24
f 17/19/17 18/20/18 24/27/24
f 24/27/24 18/20/18 25/28/25
f 18/20/18 19/21/19 25/28/25
f 25/28/25 19/21/19 26/29/26
f 19/21/19 20/22/20 26/29/26
f 26/29/26 20/22/20 27/30/27
f 20/22/20 21/23/21 27/30/27
f 27/30/27 21/23/21 28/31/28
f 21/23/21 15/24/15 28/31/28
f 28/31/28 15/24/15 22/32/22
f 22/25/22 23/26/23 29/33/29
f 29/33/29 23/26/23 30/34/30
f 23/26/23 24/27/24 30/34/30
f 30/34/30 24/27/24 31/35/31
f 24/27/24 25/28/25 31/35/31
f 31/35/31 25/28/25 32/36/32
f 25/28/25 26/29/26 32/36/32
f 32/36/32 26/29/26 33/37/33
f 26/29/26 27/30/27 33/37/33
f 33/37/33 27/30/27 34/38/34
f 27/30/27 28/31/28 34/38/34
f 34/38/34 28/31/28 35/39/35
f 28/31/28 22/32/22 35/39/35
f 35/39/35 22/32/22 29/40/29
f 29/33/29 30/34/30 36/41/36
f 36/41/36 30/34/30 37/42/37
f 30/34/30 31/35/31 37/42/37
f 37/42/37 31/35/31 38/43/38
f 31/35/31 32/36/32 38/43/38
f 38/43/38 32/36/32 39/44/39
f 32/36/32 33/37/33 39/44/39
f 39/44/39 33/37/33 40/45/40
f 33/37/33 34/38/34 40/45/40
f 40/45/40 34/38/34 41/46/41
f 34/38/34 35/39/35 41/46/41
f 41/46/41 35/39/35 42/47/42
f 35/39/35 29/40/29 42/47/42
f 42/47/42 29/40/29 36/48/36
f 2/2/2 1/1/1 43/49/43
f 3/3/5 2/2/2 43/50/43
f 4/4/7 3/3/5 43/51/43
f 5/5/9 4/4/7 43/52/43
f 6/6/11 5/5/9 43/53/43
f 7/7/13 6/6/11 43/54/43
f 1/8/1 7/7/13 43/55/43
f 36/41/36 37/42/37 44/56/44
f 37/42/37 38/43/38 44/57/44
f 38/43/38 39/44/39 44/58/44
f 39/44/39 40/45/40 44/59/44
f 40/45/40 41/46/41 44/60/44
f 41/46/41 42/47/42 44/61/44
f 42/47/42 36/48/36 44/62/44
